G04 Layer_Physical_Order=2*
G04 Layer_Color=32768*
%FSLAX25Y25*%
%MOIN*%
G70*
G01*
G75*
%ADD48C,0.01500*%
%ADD58C,0.04000*%
%ADD59C,0.06756*%
%ADD60C,0.08724*%
G04:AMPARAMS|DCode=61|XSize=107.244mil|YSize=107.244mil|CornerRadius=0mil|HoleSize=0mil|Usage=FLASHONLY|Rotation=0.000|XOffset=0mil|YOffset=0mil|HoleType=Round|Shape=Relief|Width=10mil|Gap=10mil|Entries=4|*
%AMTHD61*
7,0,0,0.10724,0.08724,0.01000,45*
%
%ADD61THD61*%
%ADD62C,0.13055*%
%ADD63C,0.21323*%
%ADD64C,0.15811*%
%ADD65C,0.08252*%
%ADD66C,0.04800*%
G04:AMPARAMS|DCode=67|XSize=68mil|YSize=68mil|CornerRadius=0mil|HoleSize=0mil|Usage=FLASHONLY|Rotation=0.000|XOffset=0mil|YOffset=0mil|HoleType=Round|Shape=Relief|Width=10mil|Gap=10mil|Entries=4|*
%AMTHD67*
7,0,0,0.06800,0.04800,0.01000,45*
%
%ADD67THD67*%
%ADD68C,0.06800*%
D48*
X433000Y317500D02*
X603500D01*
X100000Y343000D02*
X348000D01*
X373500Y317500D01*
X857500Y409000D02*
X865500Y401000D01*
X576500D02*
X806500D01*
X814500Y409000D01*
X929000Y182500D02*
Y284500D01*
X899500Y153000D02*
X929000Y182500D01*
X831000Y153000D02*
X899500D01*
X801000Y183000D02*
X831000Y153000D01*
X641000Y183000D02*
X801000D01*
X594500Y229500D02*
X641000Y183000D01*
X594500Y229500D02*
Y285000D01*
X615000Y305500D01*
X615500D01*
X820500Y225500D02*
X922000Y327000D01*
X695500Y225500D02*
X820500D01*
X603500Y317500D02*
X695500Y225500D01*
X373500Y317500D02*
X433000D01*
X895220Y391000D02*
X910441Y375780D01*
X875500Y391000D02*
X895220D01*
X924000Y398500D02*
Y533500D01*
X902500Y354059D02*
X910441Y362000D01*
X902500Y348000D02*
Y354059D01*
X808500Y254000D02*
X902500Y348000D01*
X706500Y254000D02*
X808500D01*
X596000Y364500D02*
X706500Y254000D01*
X576500Y364500D02*
X596000D01*
X865500Y401000D02*
X875500Y391000D01*
X814500Y409000D02*
X857500D01*
X367500Y417500D02*
Y662000D01*
Y417500D02*
X420500Y364500D01*
X576500D01*
Y574500D01*
X607500Y605500D01*
X852000D01*
X924000Y533500D01*
D58*
X100000Y100000D02*
X975000D01*
Y662500D01*
X100000D02*
X975000D01*
X100000Y100000D02*
Y662500D01*
D59*
X869350Y176992D02*
D03*
X833524D02*
D03*
X611681Y271882D02*
D03*
Y236055D02*
D03*
X524429Y437508D02*
D03*
X560256D02*
D03*
X527445Y600819D02*
D03*
X491618D02*
D03*
X445992Y215866D02*
D03*
Y251693D02*
D03*
X610492Y412244D02*
D03*
Y448071D02*
D03*
X605492Y506898D02*
D03*
Y542724D02*
D03*
X788008Y597976D02*
D03*
Y562150D02*
D03*
X768929Y419008D02*
D03*
X804756D02*
D03*
X337134Y585992D02*
D03*
X301307D02*
D03*
X199571Y407992D02*
D03*
X163744D02*
D03*
X256539Y181161D02*
D03*
X292366D02*
D03*
D60*
X910441Y362000D02*
D03*
X938000D02*
D03*
D61*
X910441Y375780D02*
D03*
X938000D02*
D03*
D62*
X254000Y233500D02*
D03*
X355000Y511150D02*
D03*
Y251350D02*
D03*
X254000Y529000D02*
D03*
X420950Y329950D02*
D03*
Y432550D02*
D03*
X280000Y381250D02*
D03*
X165100Y477700D02*
D03*
X130000Y381250D02*
D03*
X165100Y284800D02*
D03*
D63*
X945000Y632500D02*
D03*
X130000D02*
D03*
Y130000D02*
D03*
X510000D02*
D03*
Y632500D02*
D03*
X945000Y130000D02*
D03*
D64*
X898500Y154500D02*
D03*
Y276500D02*
D03*
X577000Y154500D02*
D03*
Y276500D02*
D03*
X347126Y344000D02*
D03*
X161126D02*
D03*
X189626Y635500D02*
D03*
X318626D02*
D03*
X499173Y161153D02*
D03*
Y308653D02*
D03*
X183673D02*
D03*
X174173Y167154D02*
D03*
X553500Y509500D02*
D03*
X452500Y462500D02*
D03*
X480000Y571000D02*
D03*
X695000Y421000D02*
D03*
X604000Y601500D02*
D03*
X939000Y599500D02*
D03*
Y405000D02*
D03*
D65*
X885000Y468500D02*
D03*
X881000Y488500D02*
D03*
X889000D02*
D03*
D66*
X345000Y493000D02*
D03*
X628000Y274000D02*
D03*
X603000Y272000D02*
D03*
X581000Y555500D02*
D03*
X613500Y523000D02*
D03*
X774000Y474000D02*
D03*
X662500D02*
D03*
X632500Y409000D02*
D03*
X774000Y554500D02*
D03*
Y505500D02*
D03*
X754500Y541000D02*
D03*
X752500Y543500D02*
D03*
X750500Y545500D02*
D03*
X774000Y468000D02*
D03*
X345000Y417500D02*
D03*
X255000Y199500D02*
D03*
X338000Y568500D02*
D03*
X351000Y610500D02*
D03*
X528000Y608000D02*
D03*
Y618000D02*
D03*
X738000Y633000D02*
D03*
X747000D02*
D03*
X768500Y573000D02*
D03*
X804500Y599000D02*
D03*
X812500Y559000D02*
D03*
X861000Y170000D02*
D03*
X865000D02*
D03*
X254000Y506500D02*
D03*
X164500Y455500D02*
D03*
X130000Y357500D02*
D03*
X171000Y267000D02*
D03*
X245000Y226000D02*
D03*
X360047Y232953D02*
D03*
X589000Y424000D02*
D03*
X589500Y427000D02*
D03*
X591000Y421000D02*
D03*
X589500Y419000D02*
D03*
X587500Y417000D02*
D03*
X556000Y430500D02*
D03*
X554500Y441500D02*
D03*
X551000Y430500D02*
D03*
X550000Y441500D02*
D03*
X547000Y430500D02*
D03*
X546500Y441500D02*
D03*
X196000Y389500D02*
D03*
X194000Y386500D02*
D03*
X191500Y387500D02*
D03*
X188500Y388500D02*
D03*
X427000Y219500D02*
D03*
X424000Y224000D02*
D03*
X425500Y228500D02*
D03*
X426500Y231000D02*
D03*
X863000Y158000D02*
D03*
X859500D02*
D03*
X683000Y333000D02*
D03*
X683500Y339500D02*
D03*
X683000Y354000D02*
D03*
X680500Y367500D02*
D03*
X713000Y368000D02*
D03*
X721500Y378000D02*
D03*
X725000Y362000D02*
D03*
X716000Y354500D02*
D03*
X715000Y338000D02*
D03*
Y317500D02*
D03*
X677000Y323000D02*
D03*
Y311000D02*
D03*
X715500Y298000D02*
D03*
X708000Y291000D02*
D03*
X694500D02*
D03*
X683000D02*
D03*
X676500Y297500D02*
D03*
X634000Y395500D02*
D03*
X619500Y395000D02*
D03*
X615500Y399000D02*
D03*
X639000Y398500D02*
D03*
X435500Y403500D02*
D03*
X419500D02*
D03*
X897500Y438000D02*
D03*
Y428500D02*
D03*
X817500Y460500D02*
D03*
Y469000D02*
D03*
X644000Y504500D02*
D03*
X661000D02*
D03*
X644000Y492000D02*
D03*
X652000Y492500D02*
D03*
X661500Y500500D02*
D03*
X650000D02*
D03*
X733000Y647500D02*
D03*
X723500D02*
D03*
X237000Y488000D02*
D03*
X253000Y471500D02*
D03*
X899000Y480500D02*
D03*
X878500Y478000D02*
D03*
X795000Y575000D02*
D03*
X628000Y308500D02*
D03*
X639500Y264500D02*
D03*
X633000D02*
D03*
X859000Y196000D02*
D03*
Y493500D02*
D03*
X857000Y496000D02*
D03*
X855000Y499000D02*
D03*
X852500Y501000D02*
D03*
X860500Y490500D02*
D03*
X862000Y488000D02*
D03*
X831000Y562000D02*
D03*
X812156Y571345D02*
D03*
X855500Y196000D02*
D03*
X831000Y565000D02*
D03*
X818500Y572500D02*
D03*
X851500Y196000D02*
D03*
X847500D02*
D03*
X849500Y501000D02*
D03*
X843500Y196000D02*
D03*
X824000Y594000D02*
D03*
X813500Y582000D02*
D03*
X837500Y195500D02*
D03*
X839500Y193500D02*
D03*
X442500Y251000D02*
D03*
X452000Y253500D02*
D03*
X602000Y336000D02*
D03*
X617500Y318000D02*
D03*
Y324500D02*
D03*
X742500Y555000D02*
D03*
X741000Y557500D02*
D03*
X736000Y560000D02*
D03*
X739500D02*
D03*
X781500Y558500D02*
D03*
X792500Y577000D02*
D03*
X779500Y561000D02*
D03*
X607000Y332000D02*
D03*
X609500Y331000D02*
D03*
X611500Y329000D02*
D03*
X604500Y334000D02*
D03*
X452000Y250500D02*
D03*
X440000Y236000D02*
D03*
X748500Y548000D02*
D03*
X614500Y329000D02*
D03*
X746500Y550000D02*
D03*
X617500Y321000D02*
D03*
X744500Y552500D02*
D03*
X777500Y582500D02*
D03*
X759000Y576000D02*
D03*
X768500Y585000D02*
D03*
X759000Y579500D02*
D03*
X619000Y426000D02*
D03*
Y415000D02*
D03*
X814000Y545500D02*
D03*
X599500Y260500D02*
D03*
Y258000D02*
D03*
X810500Y548000D02*
D03*
X749500Y583500D02*
D03*
X457000Y228500D02*
D03*
Y226000D02*
D03*
X527000Y456000D02*
D03*
X745750Y586750D02*
D03*
X617500Y264000D02*
D03*
X625000Y236500D02*
D03*
X521847Y549653D02*
D03*
X516153D02*
D03*
X623500Y417500D02*
D03*
X636000Y418500D02*
D03*
X435000Y583500D02*
D03*
X423500Y573000D02*
D03*
X433000Y586000D02*
D03*
X422157Y575343D02*
D03*
X613000Y509500D02*
D03*
X584000D02*
D03*
Y515000D02*
D03*
Y517500D02*
D03*
Y520000D02*
D03*
Y522500D02*
D03*
Y525000D02*
D03*
Y527500D02*
D03*
Y512500D02*
D03*
X613000Y513000D02*
D03*
X600500Y513500D02*
D03*
X598500Y516000D02*
D03*
X600500Y518500D02*
D03*
X600000Y525000D02*
D03*
X601500Y527500D02*
D03*
X599000Y522500D02*
D03*
X615000Y536000D02*
D03*
X632500Y533000D02*
D03*
X630000Y494000D02*
D03*
X618000Y482000D02*
D03*
X620000Y484500D02*
D03*
X626500Y533000D02*
D03*
X632000Y530500D02*
D03*
X614000Y490000D02*
D03*
X618500Y494000D02*
D03*
X624500Y491500D02*
D03*
X618500D02*
D03*
X646500Y454000D02*
D03*
Y443000D02*
D03*
X649000D02*
D03*
X649500Y454000D02*
D03*
X767000Y443500D02*
D03*
X529500Y466000D02*
D03*
X789500Y465000D02*
D03*
X644000Y477000D02*
D03*
X657000Y492000D02*
D03*
X655000Y490000D02*
D03*
X652500Y486000D02*
D03*
X644000Y480000D02*
D03*
X659500Y494000D02*
D03*
X792000Y465000D02*
D03*
X644000Y474000D02*
D03*
Y483000D02*
D03*
X662000Y495000D02*
D03*
X795000Y465000D02*
D03*
X524000Y456000D02*
D03*
X524500Y469000D02*
D03*
X644000Y486000D02*
D03*
Y489000D02*
D03*
X652500D02*
D03*
X790000Y451500D02*
D03*
X792000Y449000D02*
D03*
X797500Y465000D02*
D03*
Y451000D02*
D03*
X794500D02*
D03*
X644000Y471000D02*
D03*
X652000D02*
D03*
X780500Y464500D02*
D03*
X796000Y446500D02*
D03*
X523500Y486500D02*
D03*
X530000Y445000D02*
D03*
X644000Y468000D02*
D03*
Y465000D02*
D03*
X757000Y458000D02*
D03*
X650500Y466500D02*
D03*
X655500Y471000D02*
D03*
X574500Y414500D02*
D03*
Y410000D02*
D03*
X603500Y490500D02*
D03*
X611000Y490000D02*
D03*
X624000Y446500D02*
D03*
X600500Y490500D02*
D03*
X627000Y444000D02*
D03*
X597000Y490500D02*
D03*
X607500D02*
D03*
X620500Y449000D02*
D03*
X618000Y442500D02*
D03*
X589000Y409500D02*
D03*
X602500Y425000D02*
D03*
X605000Y427500D02*
D03*
X594500Y407500D02*
D03*
D67*
X600000Y532000D02*
D03*
X286000Y200500D02*
D03*
X282000D02*
D03*
X284000Y189000D02*
D03*
X298000Y398500D02*
D03*
X266500Y208000D02*
D03*
X632500Y276500D02*
D03*
X529500Y430000D02*
D03*
X533500Y442000D02*
D03*
X540000Y429500D02*
D03*
X540500Y458000D02*
D03*
X544500D02*
D03*
X548500D02*
D03*
X552500D02*
D03*
X591500Y430000D02*
D03*
X588500Y437500D02*
D03*
X590500Y441500D02*
D03*
X591500Y444500D02*
D03*
X603500Y445000D02*
D03*
X592594Y434094D02*
D03*
X606500Y430500D02*
D03*
X619000Y432000D02*
D03*
X585000Y530500D02*
D03*
X587500Y531000D02*
D03*
X599000Y507500D02*
D03*
X593500Y507000D02*
D03*
X598000Y538500D02*
D03*
X600000Y536500D02*
D03*
Y530000D02*
D03*
X612000Y541000D02*
D03*
X613000Y538000D02*
D03*
X369500Y273000D02*
D03*
X278500Y243500D02*
D03*
X156500Y295000D02*
D03*
X138500Y409500D02*
D03*
X189500Y488000D02*
D03*
X277500Y539500D02*
D03*
X331000Y556000D02*
D03*
X522500Y571000D02*
D03*
X629500Y544000D02*
D03*
X624000D02*
D03*
X618500D02*
D03*
X624500Y517500D02*
D03*
X517000Y459500D02*
D03*
Y465000D02*
D03*
X628000Y427000D02*
D03*
X758000Y438000D02*
D03*
X773000Y447500D02*
D03*
X800500Y460500D02*
D03*
Y455000D02*
D03*
X889000Y457500D02*
D03*
X757500Y586000D02*
D03*
X746000Y596000D02*
D03*
X804000Y548500D02*
D03*
X817500Y557000D02*
D03*
X824000Y560000D02*
D03*
X818500D02*
D03*
X819000Y594000D02*
D03*
X813500D02*
D03*
X774500Y573000D02*
D03*
X760500Y572000D02*
D03*
X439000Y239000D02*
D03*
Y242000D02*
D03*
Y246000D02*
D03*
X426000Y247500D02*
D03*
Y243500D02*
D03*
Y239500D02*
D03*
Y235500D02*
D03*
X441500Y220000D02*
D03*
X453500Y222000D02*
D03*
X441500Y223500D02*
D03*
Y226500D02*
D03*
X274500Y174000D02*
D03*
X266500D02*
D03*
X270500D02*
D03*
X261000Y186000D02*
D03*
X264500D02*
D03*
X268500D02*
D03*
X272500D02*
D03*
X276500D02*
D03*
X278000Y200500D02*
D03*
X274453Y200453D02*
D03*
X271000Y200500D02*
D03*
X288000Y189000D02*
D03*
X280000D02*
D03*
X276500D02*
D03*
X268500D02*
D03*
X185000Y389000D02*
D03*
X181500D02*
D03*
X177500D02*
D03*
X173500D02*
D03*
X169500D02*
D03*
X168500Y400500D02*
D03*
X172000D02*
D03*
X187500D02*
D03*
X193500Y414500D02*
D03*
X195500Y403500D02*
D03*
X191500D02*
D03*
X187500D02*
D03*
X183500D02*
D03*
X179500D02*
D03*
X176000D02*
D03*
X172000D02*
D03*
X167000Y415000D02*
D03*
X323000Y578500D02*
D03*
X319000D02*
D03*
X315000D02*
D03*
X311000D02*
D03*
X307500D02*
D03*
X306000Y567500D02*
D03*
X310000D02*
D03*
X314000D02*
D03*
X317500D02*
D03*
X321500D02*
D03*
X325500D02*
D03*
X305500Y582000D02*
D03*
X313500D02*
D03*
X308000Y593500D02*
D03*
X311500D02*
D03*
X334000D02*
D03*
X331000D02*
D03*
X326500Y581500D02*
D03*
X513469Y582031D02*
D03*
X509500Y582000D02*
D03*
X505594Y582094D02*
D03*
X497500Y582000D02*
D03*
X496000Y593500D02*
D03*
X500000D02*
D03*
X504000D02*
D03*
X507563Y593437D02*
D03*
X515500Y593500D02*
D03*
X521000Y608000D02*
D03*
X517000D02*
D03*
X513500D02*
D03*
X509500D02*
D03*
X519500Y597000D02*
D03*
X511500D02*
D03*
X792500Y565500D02*
D03*
X794000Y570000D02*
D03*
X794500Y590500D02*
D03*
X793500Y587500D02*
D03*
X794500Y584000D02*
D03*
X798654Y412154D02*
D03*
X790500Y412000D02*
D03*
X786500D02*
D03*
X782500D02*
D03*
X779000D02*
D03*
X775000D02*
D03*
X773500Y423000D02*
D03*
X777500D02*
D03*
X781000D02*
D03*
X785000D02*
D03*
X789000D02*
D03*
X793000D02*
D03*
X797000D02*
D03*
X800500D02*
D03*
X900500Y476252D02*
D03*
X837500Y169500D02*
D03*
X839500Y158000D02*
D03*
X843500D02*
D03*
X845500Y169500D02*
D03*
X847500Y158000D02*
D03*
X851500D02*
D03*
X853500Y169500D02*
D03*
X855500Y158000D02*
D03*
X866000Y183500D02*
D03*
X863248Y184748D02*
D03*
X862000Y187500D02*
D03*
X857500Y173000D02*
D03*
X849500D02*
D03*
X841500D02*
D03*
X632000Y239500D02*
D03*
X632500Y242000D02*
D03*
X632000Y245000D02*
D03*
X618000Y247500D02*
D03*
X632000Y249000D02*
D03*
X618000Y252000D02*
D03*
X632000D02*
D03*
X631500Y256000D02*
D03*
X617500Y256500D02*
D03*
X618000Y259500D02*
D03*
X632626Y259874D02*
D03*
X615500Y239500D02*
D03*
X603000Y241000D02*
D03*
X602500Y244000D02*
D03*
X599500Y247000D02*
D03*
X601000Y249000D02*
D03*
Y264000D02*
D03*
X742500Y382500D02*
D03*
X733500Y392000D02*
D03*
X705000D02*
D03*
X684000D02*
D03*
X664500D02*
D03*
X650000Y377000D02*
D03*
Y351000D02*
D03*
Y327000D02*
D03*
X665000Y329500D02*
D03*
X666500Y336500D02*
D03*
Y342000D02*
D03*
X661500Y352500D02*
D03*
X668000Y362000D02*
D03*
X673000Y371500D02*
D03*
X682000Y374500D02*
D03*
X690500Y380000D02*
D03*
X704000Y379500D02*
D03*
X712500Y377000D02*
D03*
X719000Y384000D02*
D03*
X726500Y388500D02*
D03*
X777000Y391500D02*
D03*
X773000Y381000D02*
D03*
X766500Y376500D02*
D03*
X758500Y388000D02*
D03*
X737000Y375500D02*
D03*
X752000Y370500D02*
D03*
X746000Y369500D02*
D03*
X751000Y355000D02*
D03*
X920000Y403000D02*
D03*
X919000Y421500D02*
D03*
X892000Y405000D02*
D03*
X891000Y422500D02*
D03*
X882000Y376000D02*
D03*
X877500Y392500D02*
D03*
X949000Y422000D02*
D03*
X865500Y422500D02*
D03*
X867500Y405000D02*
D03*
X842000Y406000D02*
D03*
X819000Y405000D02*
D03*
X811000Y289500D02*
D03*
X799000Y273000D02*
D03*
X811000Y309000D02*
D03*
X797500Y334500D02*
D03*
X786500Y336500D02*
D03*
Y313500D02*
D03*
Y292000D02*
D03*
X782500Y285500D02*
D03*
X783000Y262500D02*
D03*
X787500Y258500D02*
D03*
X808500Y259000D02*
D03*
X830500Y301000D02*
D03*
X831000Y282000D02*
D03*
X830000Y323500D02*
D03*
X812000Y326500D02*
D03*
X806000Y345500D02*
D03*
X791000Y355000D02*
D03*
X781500Y347000D02*
D03*
X764500Y347500D02*
D03*
D68*
X704500Y525500D02*
D03*
X283000Y173000D02*
D03*
X786500Y383000D02*
D03*
M02*
