G04 Layer_Color=8388736*
%FSLAX25Y25*%
%MOIN*%
G70*
G01*
G75*
%ADD10R,0.02362X0.02362*%
%ADD11R,0.17323X0.21260*%
%ADD12R,0.21260X0.17323*%
%ADD13R,0.03937X0.05118*%
%ADD14R,0.02362X0.01968*%
%ADD15R,0.04331X0.10236*%
%ADD16R,0.10236X0.04331*%
%ADD17R,0.05118X0.03937*%
%ADD18R,0.36600X0.43600*%
%ADD19R,0.16900X0.06300*%
%ADD20R,0.07087X0.14173*%
%ADD21R,0.02756X0.03543*%
%ADD22R,0.03150X0.03543*%
%ADD23R,0.03543X0.03150*%
%ADD24R,0.04331X0.05512*%
%ADD25O,0.06693X0.02362*%
%ADD26R,0.09016X0.09016*%
%ADD27R,0.02953X0.02362*%
%ADD28R,0.02559X0.03543*%
%ADD29R,0.03150X0.07087*%
%ADD30R,0.01181X0.06299*%
%ADD31R,0.07087X0.03150*%
%ADD32R,0.06299X0.01181*%
%ADD33R,0.22047X0.05118*%
%ADD34R,0.02362X0.04724*%
%ADD35R,0.03543X0.02756*%
%ADD36R,0.01968X0.01181*%
%ADD37R,0.01181X0.01968*%
%ADD38C,0.03098*%
G04:AMPARAMS|DCode=39|XSize=14.17mil|YSize=9.84mil|CornerRadius=0mil|HoleSize=0mil|Usage=FLASHONLY|Rotation=225.000|XOffset=0mil|YOffset=0mil|HoleType=Round|Shape=Rectangle|*
%AMROTATEDRECTD39*
4,1,4,0.00153,0.00849,0.00849,0.00153,-0.00153,-0.00849,-0.00849,-0.00153,0.00153,0.00849,0.0*
%
%ADD39ROTATEDRECTD39*%

G04:AMPARAMS|DCode=40|XSize=14.17mil|YSize=9.84mil|CornerRadius=0mil|HoleSize=0mil|Usage=FLASHONLY|Rotation=315.000|XOffset=0mil|YOffset=0mil|HoleType=Round|Shape=Rectangle|*
%AMROTATEDRECTD40*
4,1,4,-0.00849,0.00153,-0.00153,0.00849,0.00849,-0.00153,0.00153,-0.00849,-0.00849,0.00153,0.0*
%
%ADD40ROTATEDRECTD40*%

G04:AMPARAMS|DCode=41|XSize=70.87mil|YSize=118.11mil|CornerRadius=0mil|HoleSize=0mil|Usage=FLASHONLY|Rotation=90.000|XOffset=0mil|YOffset=0mil|HoleType=Round|Shape=Octagon|*
%AMOCTAGOND41*
4,1,8,-0.05905,-0.01772,-0.05905,0.01772,-0.04134,0.03543,0.04134,0.03543,0.05905,0.01772,0.05905,-0.01772,0.04134,-0.03543,-0.04134,-0.03543,-0.05905,-0.01772,0.0*
%
%ADD41OCTAGOND41*%

%ADD42R,0.04724X0.01968*%
%ADD43R,0.06299X0.01968*%
%ADD44R,0.02362X0.02362*%
%ADD45O,0.02362X0.07480*%
%ADD50C,0.01181*%
%ADD51C,0.06693*%
%ADD52C,0.00394*%
%ADD53C,0.29134*%
%ADD54C,0.20866*%
%ADD55C,0.00787*%
%ADD56C,0.01800*%
%ADD57C,0.05000*%
G36*
X416096Y333100D02*
X415882Y332743D01*
X415534Y331987D01*
X415298Y331189D01*
X415178Y330366D01*
X415178Y329534D01*
X415298Y328711D01*
X415534Y327913D01*
X415882Y327157D01*
X416096Y326800D01*
X412682D01*
Y333100D01*
X416096D01*
X416096Y333100D01*
D02*
G37*
G36*
X416096Y326800D02*
X416096Y326800D01*
X416096Y326800D01*
X416096D01*
X416096Y326800D01*
D02*
G37*
G36*
X168250Y289654D02*
X168250Y289654D01*
X167893Y289868D01*
X167137Y290216D01*
X166339Y290452D01*
X165516Y290572D01*
X164684Y290572D01*
X163861Y290452D01*
X163063Y290216D01*
X162307Y289868D01*
X161950Y289654D01*
X161950Y289654D01*
Y293068D01*
X168250D01*
Y289654D01*
D02*
G37*
G36*
X425804Y333100D02*
X429218D01*
Y326800D01*
X425804D01*
X426018Y327157D01*
X426366Y327913D01*
X426602Y328711D01*
X426722Y329534D01*
X426722Y330366D01*
X426602Y331189D01*
X426366Y331987D01*
X426018Y332743D01*
X425804Y333100D01*
X425804Y333100D01*
D02*
G37*
G36*
X133150Y376396D02*
X133150Y376396D01*
D01*
X133150Y376396D01*
Y376396D01*
D02*
G37*
G36*
X276850Y376396D02*
X277207Y376182D01*
X277963Y375834D01*
X278761Y375598D01*
X279584Y375478D01*
X280416Y375478D01*
X281239Y375598D01*
X282037Y375834D01*
X282793Y376182D01*
X283150Y376396D01*
Y372982D01*
X276850D01*
Y376396D01*
X276850Y376396D01*
D02*
G37*
G36*
X126850D02*
X127208Y376182D01*
X127963Y375834D01*
X128761Y375598D01*
X129584Y375478D01*
X130416Y375478D01*
X131239Y375598D01*
X132037Y375834D01*
X132793Y376182D01*
X133150Y376396D01*
Y372982D01*
X126850D01*
Y376396D01*
X126850Y376396D01*
D02*
G37*
G36*
X168250Y279946D02*
X168250Y279946D01*
D01*
X168250Y279946D01*
Y279946D01*
D02*
G37*
G36*
X257150Y238354D02*
X257150Y238354D01*
X256792Y238568D01*
X256037Y238916D01*
X255239Y239152D01*
X254416Y239272D01*
X253584Y239272D01*
X252761Y239152D01*
X251963Y238916D01*
X251207Y238568D01*
X250850Y238354D01*
X250850Y238354D01*
Y241768D01*
X257150D01*
Y238354D01*
D02*
G37*
G36*
X257150Y228646D02*
X257150Y228646D01*
D01*
X257150Y228646D01*
Y228646D01*
D02*
G37*
G36*
X250850Y228646D02*
X251207Y228432D01*
X251963Y228084D01*
X252761Y227848D01*
X253584Y227728D01*
X254416Y227728D01*
X255239Y227848D01*
X256037Y228084D01*
X256793Y228432D01*
X257150Y228646D01*
Y225232D01*
X250850D01*
Y228646D01*
X250850Y228646D01*
D02*
G37*
G36*
X351850Y246496D02*
X352207Y246282D01*
X352963Y245934D01*
X353761Y245698D01*
X354584Y245578D01*
X355416Y245578D01*
X356239Y245698D01*
X357037Y245934D01*
X357793Y246282D01*
X358150Y246496D01*
Y243082D01*
X351850D01*
Y246496D01*
X351850Y246496D01*
D02*
G37*
G36*
X161950Y279946D02*
X162308Y279732D01*
X163063Y279384D01*
X163861Y279148D01*
X164684Y279028D01*
X165516Y279028D01*
X166339Y279148D01*
X167137Y279384D01*
X167893Y279732D01*
X168250Y279946D01*
Y276532D01*
X161950D01*
Y279946D01*
X161950Y279946D01*
D02*
G37*
G36*
X358150Y256204D02*
X358150Y256204D01*
X357792Y256418D01*
X357037Y256766D01*
X356239Y257002D01*
X355416Y257122D01*
X354584Y257122D01*
X353761Y257002D01*
X352963Y256766D01*
X352207Y256418D01*
X351850Y256204D01*
X351850Y256204D01*
Y259618D01*
X358150D01*
Y256204D01*
D02*
G37*
G36*
X358150Y246496D02*
X358150Y246496D01*
D01*
X358150Y246496D01*
Y246496D01*
D02*
G37*
G36*
Y506296D02*
X358150Y506296D01*
D01*
X358150Y506296D01*
Y506296D01*
D02*
G37*
G36*
X351850Y506296D02*
X352207Y506082D01*
X352963Y505734D01*
X353761Y505498D01*
X354584Y505378D01*
X355416Y505378D01*
X356239Y505498D01*
X357037Y505734D01*
X357793Y506082D01*
X358150Y506296D01*
Y502882D01*
X351850D01*
Y506296D01*
X351850Y506296D01*
D02*
G37*
G36*
X168250Y482554D02*
X168250Y482554D01*
X167893Y482768D01*
X167137Y483116D01*
X166339Y483352D01*
X165516Y483472D01*
X164684Y483472D01*
X163861Y483352D01*
X163063Y483116D01*
X162307Y482768D01*
X161950Y482554D01*
X161950Y482554D01*
Y485968D01*
X168250D01*
Y482554D01*
D02*
G37*
G36*
X358150Y516004D02*
X358150Y516004D01*
X357792Y516218D01*
X357037Y516566D01*
X356239Y516802D01*
X355416Y516922D01*
X354584Y516922D01*
X353761Y516802D01*
X352963Y516566D01*
X352207Y516218D01*
X351850Y516004D01*
X351850Y516004D01*
Y519418D01*
X358150D01*
Y516004D01*
D02*
G37*
G36*
X257150Y533854D02*
X257150Y533854D01*
X256792Y534068D01*
X256037Y534416D01*
X255239Y534652D01*
X254416Y534772D01*
X253584Y534772D01*
X252761Y534652D01*
X251963Y534416D01*
X251207Y534068D01*
X250850Y533854D01*
X250850Y533854D01*
Y537268D01*
X257150D01*
Y533854D01*
D02*
G37*
G36*
X257150Y524146D02*
X257150Y524146D01*
D01*
X257150Y524146D01*
Y524146D01*
D02*
G37*
G36*
X250850Y524146D02*
X251207Y523932D01*
X251963Y523584D01*
X252761Y523348D01*
X253584Y523228D01*
X254416Y523228D01*
X255239Y523348D01*
X256037Y523584D01*
X256793Y523932D01*
X257150Y524146D01*
Y520732D01*
X250850D01*
Y524146D01*
X250850Y524146D01*
D02*
G37*
G36*
X168250Y472846D02*
X168250Y472846D01*
D01*
X168250Y472846D01*
Y472846D01*
D02*
G37*
G36*
X283150Y386104D02*
X283150Y386104D01*
X282792Y386318D01*
X282037Y386666D01*
X281239Y386902D01*
X280416Y387022D01*
X279584Y387022D01*
X278761Y386902D01*
X277963Y386666D01*
X277207Y386318D01*
X276850Y386104D01*
X276850Y386104D01*
Y389518D01*
X283150D01*
Y386104D01*
D02*
G37*
G36*
X133150D02*
X133150Y386104D01*
X132792Y386318D01*
X132037Y386666D01*
X131239Y386902D01*
X130416Y387022D01*
X129584Y387022D01*
X128761Y386902D01*
X127963Y386666D01*
X127207Y386318D01*
X126850Y386104D01*
X126850Y386104D01*
Y389518D01*
X133150D01*
Y386104D01*
D02*
G37*
G36*
X283150Y376396D02*
X283150Y376396D01*
D01*
X283150Y376396D01*
Y376396D01*
D02*
G37*
G36*
X416096Y429400D02*
X416096Y429400D01*
X416096Y429400D01*
X416096D01*
X416096Y429400D01*
D02*
G37*
G36*
X161950Y472846D02*
X162308Y472632D01*
X163063Y472284D01*
X163861Y472048D01*
X164684Y471928D01*
X165516Y471928D01*
X166339Y472048D01*
X167137Y472284D01*
X167893Y472632D01*
X168250Y472846D01*
Y469432D01*
X161950D01*
Y472846D01*
X161950Y472846D01*
D02*
G37*
G36*
X425804Y435700D02*
X429218D01*
Y429400D01*
X425804D01*
X426018Y429757D01*
X426366Y430513D01*
X426602Y431311D01*
X426722Y432134D01*
X426722Y432966D01*
X426602Y433789D01*
X426366Y434587D01*
X426018Y435343D01*
X425804Y435700D01*
X425804Y435700D01*
D02*
G37*
G36*
X416096Y435700D02*
X415882Y435343D01*
X415534Y434587D01*
X415298Y433789D01*
X415178Y432966D01*
X415178Y432134D01*
X415298Y431311D01*
X415534Y430513D01*
X415882Y429757D01*
X416096Y429400D01*
X412682D01*
Y435700D01*
X416096D01*
X416096Y435700D01*
D02*
G37*
D10*
X810000Y361531D02*
D03*
Y365469D02*
D03*
Y371500D02*
D03*
Y375437D02*
D03*
X633000Y272437D02*
D03*
Y268500D02*
D03*
X935000Y449469D02*
D03*
Y445532D02*
D03*
X813500Y589468D02*
D03*
Y585532D02*
D03*
X824000Y563531D02*
D03*
Y567469D02*
D03*
X813000Y567469D02*
D03*
Y563531D02*
D03*
X818500Y563531D02*
D03*
Y567469D02*
D03*
X774000Y578031D02*
D03*
Y581968D02*
D03*
X768500Y581968D02*
D03*
Y578031D02*
D03*
X763500Y578000D02*
D03*
Y581937D02*
D03*
X624000Y522031D02*
D03*
Y525969D02*
D03*
X618500Y525969D02*
D03*
Y522031D02*
D03*
X629500Y539468D02*
D03*
Y535532D02*
D03*
X624000Y539468D02*
D03*
Y535532D02*
D03*
X618500Y539468D02*
D03*
Y535532D02*
D03*
X262500Y207469D02*
D03*
Y203532D02*
D03*
X522500Y575032D02*
D03*
Y578968D02*
D03*
X331000Y560532D02*
D03*
Y564468D02*
D03*
X819000Y589500D02*
D03*
Y585563D02*
D03*
X627000Y416968D02*
D03*
Y413031D02*
D03*
X632500Y417000D02*
D03*
Y413063D02*
D03*
D11*
X871000Y125000D02*
D03*
X604000D02*
D03*
X438500D02*
D03*
X200000D02*
D03*
X895000Y634000D02*
D03*
X548000D02*
D03*
X395000Y640000D02*
D03*
D12*
X951000Y303000D02*
D03*
Y176000D02*
D03*
X127500Y195000D02*
D03*
Y546000D02*
D03*
Y601000D02*
D03*
D13*
X676500Y329500D02*
D03*
X670201D02*
D03*
X870850Y372500D02*
D03*
X877150D02*
D03*
D14*
X672031Y336500D02*
D03*
X675969D02*
D03*
X672031Y342000D02*
D03*
X675969D02*
D03*
X672031Y362000D02*
D03*
X675969D02*
D03*
X855968Y418500D02*
D03*
X852032D02*
D03*
X893532Y457500D02*
D03*
X897468D02*
D03*
D15*
X677315Y352500D02*
D03*
X666685D02*
D03*
X877315Y383000D02*
D03*
X866685D02*
D03*
D16*
X691000Y364185D02*
D03*
Y374815D02*
D03*
X704500Y364185D02*
D03*
Y374815D02*
D03*
X773500Y365685D02*
D03*
Y376315D02*
D03*
X773500Y358815D02*
D03*
Y348185D02*
D03*
X834000Y394685D02*
D03*
Y405315D02*
D03*
D17*
X758500Y377850D02*
D03*
Y384150D02*
D03*
D18*
X759130Y318500D02*
D03*
D19*
X797713Y328500D02*
D03*
Y308500D02*
D03*
D20*
X700000Y331000D02*
D03*
X731890D02*
D03*
D21*
X726047Y384000D02*
D03*
X731953D02*
D03*
X731953Y372000D02*
D03*
X726047D02*
D03*
X248047Y221000D02*
D03*
X253953D02*
D03*
X294953Y374500D02*
D03*
X289047D02*
D03*
D22*
X731756Y378000D02*
D03*
X726244D02*
D03*
D23*
X731000Y360244D02*
D03*
Y365756D02*
D03*
D24*
X749953Y347000D02*
D03*
X744047D02*
D03*
D25*
X739354Y370500D02*
D03*
Y365500D02*
D03*
Y360500D02*
D03*
Y355500D02*
D03*
X758646Y370500D02*
D03*
Y365500D02*
D03*
Y360500D02*
D03*
Y355500D02*
D03*
D26*
X749000Y363000D02*
D03*
D27*
X804331Y359000D02*
D03*
X795669Y355260D02*
D03*
Y362740D02*
D03*
X262669Y536000D02*
D03*
X271331Y539740D02*
D03*
Y532260D02*
D03*
X262500Y240500D02*
D03*
X271161Y244240D02*
D03*
Y236760D02*
D03*
X354669Y269500D02*
D03*
X363331Y273240D02*
D03*
Y265760D02*
D03*
X289169Y388000D02*
D03*
X297831Y391740D02*
D03*
Y384260D02*
D03*
X130169Y399000D02*
D03*
X138831Y402740D02*
D03*
Y395260D02*
D03*
X175169Y484500D02*
D03*
X183831Y488240D02*
D03*
Y480760D02*
D03*
X156169Y309240D02*
D03*
Y301760D02*
D03*
X164831Y305500D02*
D03*
D28*
X795760Y370276D02*
D03*
X799500D02*
D03*
X803240D02*
D03*
Y379724D02*
D03*
X799500D02*
D03*
X795760D02*
D03*
X893240Y365724D02*
D03*
X889500D02*
D03*
X885760D02*
D03*
Y356276D02*
D03*
X889500D02*
D03*
X893240D02*
D03*
D29*
X872106Y171087D02*
D03*
X830768D02*
D03*
X521673Y443413D02*
D03*
X563012D02*
D03*
X530201Y594913D02*
D03*
X488862D02*
D03*
X766173Y424913D02*
D03*
X807512D02*
D03*
X339890Y580087D02*
D03*
X298551D02*
D03*
X202327Y402087D02*
D03*
X160988D02*
D03*
X253783Y187067D02*
D03*
X295122D02*
D03*
D30*
X837658Y178173D02*
D03*
X839626D02*
D03*
X841595D02*
D03*
X843563D02*
D03*
X845531D02*
D03*
X855374D02*
D03*
X853405D02*
D03*
X851437D02*
D03*
X849469D02*
D03*
X847500D02*
D03*
X865217D02*
D03*
X863248D02*
D03*
X861279D02*
D03*
X859311D02*
D03*
X857343D02*
D03*
Y164000D02*
D03*
X859311D02*
D03*
X861279D02*
D03*
X863248D02*
D03*
X865217D02*
D03*
X847500D02*
D03*
X849469D02*
D03*
X851437D02*
D03*
X853405D02*
D03*
X855374D02*
D03*
X845531D02*
D03*
X843563D02*
D03*
X841595D02*
D03*
X839626D02*
D03*
X837658D02*
D03*
X556122Y436327D02*
D03*
X554154D02*
D03*
X552185D02*
D03*
X550217D02*
D03*
X548248D02*
D03*
X538406D02*
D03*
X540374D02*
D03*
X542343D02*
D03*
X544311D02*
D03*
X546279D02*
D03*
X528563D02*
D03*
X530532D02*
D03*
X532500D02*
D03*
X534469D02*
D03*
X536437D02*
D03*
Y450500D02*
D03*
X534469D02*
D03*
X532500D02*
D03*
X530532D02*
D03*
X528563D02*
D03*
X546279D02*
D03*
X544311D02*
D03*
X542343D02*
D03*
X540374D02*
D03*
X538406D02*
D03*
X548248D02*
D03*
X550217D02*
D03*
X552185D02*
D03*
X554154D02*
D03*
X556122D02*
D03*
X495752Y602000D02*
D03*
X497720D02*
D03*
X499689D02*
D03*
X501657D02*
D03*
X503626D02*
D03*
X513469D02*
D03*
X511500D02*
D03*
X509531D02*
D03*
X507563D02*
D03*
X505594D02*
D03*
X523311D02*
D03*
X521343D02*
D03*
X519374D02*
D03*
X517406D02*
D03*
X515437D02*
D03*
Y587827D02*
D03*
X517406D02*
D03*
X519374D02*
D03*
X521343D02*
D03*
X523311D02*
D03*
X505594D02*
D03*
X507563D02*
D03*
X509531D02*
D03*
X511500D02*
D03*
X513469D02*
D03*
X503626D02*
D03*
X501657D02*
D03*
X499689D02*
D03*
X497720D02*
D03*
X495752D02*
D03*
X800622Y417827D02*
D03*
X798654D02*
D03*
X796685D02*
D03*
X794717D02*
D03*
X792748D02*
D03*
X782905D02*
D03*
X784874D02*
D03*
X786842D02*
D03*
X788811D02*
D03*
X790779D02*
D03*
X773063D02*
D03*
X775032D02*
D03*
X777000D02*
D03*
X778968D02*
D03*
X780937D02*
D03*
Y432000D02*
D03*
X778968D02*
D03*
X777000D02*
D03*
X775032D02*
D03*
X773063D02*
D03*
X790779D02*
D03*
X788811D02*
D03*
X786842D02*
D03*
X784874D02*
D03*
X782905D02*
D03*
X792748D02*
D03*
X794717D02*
D03*
X796685D02*
D03*
X798654D02*
D03*
X800622D02*
D03*
X305441Y587173D02*
D03*
X307409D02*
D03*
X309378D02*
D03*
X311347D02*
D03*
X313315D02*
D03*
X323158D02*
D03*
X321189D02*
D03*
X319220D02*
D03*
X317252D02*
D03*
X315283D02*
D03*
X333000D02*
D03*
X331031D02*
D03*
X329063D02*
D03*
X327095D02*
D03*
X325126D02*
D03*
Y573000D02*
D03*
X327095D02*
D03*
X329063D02*
D03*
X331031D02*
D03*
X333000D02*
D03*
X315283D02*
D03*
X317252D02*
D03*
X319220D02*
D03*
X321189D02*
D03*
X323158D02*
D03*
X313315D02*
D03*
X311347D02*
D03*
X309378D02*
D03*
X307409D02*
D03*
X305441D02*
D03*
X167878Y409173D02*
D03*
X169846D02*
D03*
X171815D02*
D03*
X173783D02*
D03*
X175752D02*
D03*
X185594D02*
D03*
X183626D02*
D03*
X181658D02*
D03*
X179689D02*
D03*
X177720D02*
D03*
X195437D02*
D03*
X193468D02*
D03*
X191500D02*
D03*
X189532D02*
D03*
X187563D02*
D03*
Y395000D02*
D03*
X189532D02*
D03*
X191500D02*
D03*
X193468D02*
D03*
X195437D02*
D03*
X177720D02*
D03*
X179689D02*
D03*
X181658D02*
D03*
X183626D02*
D03*
X185594D02*
D03*
X175752D02*
D03*
X173783D02*
D03*
X171815D02*
D03*
X169846D02*
D03*
X167878D02*
D03*
X288232Y179980D02*
D03*
X286264D02*
D03*
X284295D02*
D03*
X282327D02*
D03*
X280358D02*
D03*
X270516D02*
D03*
X272484D02*
D03*
X274453D02*
D03*
X276421D02*
D03*
X278390D02*
D03*
X260673D02*
D03*
X262642D02*
D03*
X264610D02*
D03*
X266579D02*
D03*
X268547D02*
D03*
Y194153D02*
D03*
X266579D02*
D03*
X264610D02*
D03*
X262642D02*
D03*
X260673D02*
D03*
X278390D02*
D03*
X276421D02*
D03*
X274453D02*
D03*
X272484D02*
D03*
X270516D02*
D03*
X280358D02*
D03*
X282327D02*
D03*
X284295D02*
D03*
X286264D02*
D03*
X288232D02*
D03*
D31*
X617587Y274638D02*
D03*
Y233299D02*
D03*
X440087Y213110D02*
D03*
Y254449D02*
D03*
X604587Y409488D02*
D03*
Y450827D02*
D03*
X599587Y504142D02*
D03*
Y545480D02*
D03*
X793913Y600732D02*
D03*
Y559394D02*
D03*
D32*
X610500Y240189D02*
D03*
Y242158D02*
D03*
Y244126D02*
D03*
Y246094D02*
D03*
Y248063D02*
D03*
Y257906D02*
D03*
Y255937D02*
D03*
Y253969D02*
D03*
Y252000D02*
D03*
Y250031D02*
D03*
Y267748D02*
D03*
Y265779D02*
D03*
Y263811D02*
D03*
Y261842D02*
D03*
Y259874D02*
D03*
X624673D02*
D03*
Y261842D02*
D03*
Y263811D02*
D03*
Y265779D02*
D03*
Y267748D02*
D03*
Y250031D02*
D03*
Y252000D02*
D03*
Y253969D02*
D03*
Y255937D02*
D03*
Y257906D02*
D03*
Y248063D02*
D03*
Y246094D02*
D03*
Y244126D02*
D03*
Y242158D02*
D03*
Y240189D02*
D03*
X447173Y247559D02*
D03*
Y245591D02*
D03*
Y243622D02*
D03*
Y241653D02*
D03*
Y239685D02*
D03*
Y229842D02*
D03*
Y231811D02*
D03*
Y233780D02*
D03*
Y235748D02*
D03*
Y237717D02*
D03*
Y220000D02*
D03*
Y221969D02*
D03*
Y223937D02*
D03*
Y225905D02*
D03*
Y227874D02*
D03*
X433000D02*
D03*
Y225905D02*
D03*
Y223937D02*
D03*
Y221969D02*
D03*
Y220000D02*
D03*
Y237717D02*
D03*
Y235748D02*
D03*
Y233780D02*
D03*
Y231811D02*
D03*
Y229842D02*
D03*
Y239685D02*
D03*
Y241653D02*
D03*
Y243622D02*
D03*
Y245591D02*
D03*
Y247559D02*
D03*
X611673Y443937D02*
D03*
Y441969D02*
D03*
Y440000D02*
D03*
Y438031D02*
D03*
Y436063D02*
D03*
Y426221D02*
D03*
Y428189D02*
D03*
Y430158D02*
D03*
Y432126D02*
D03*
Y434094D02*
D03*
Y416378D02*
D03*
Y418347D02*
D03*
Y420315D02*
D03*
Y422284D02*
D03*
Y424252D02*
D03*
X597500D02*
D03*
Y422284D02*
D03*
Y420315D02*
D03*
Y418347D02*
D03*
Y416378D02*
D03*
Y434094D02*
D03*
Y432126D02*
D03*
Y430158D02*
D03*
Y428189D02*
D03*
Y426221D02*
D03*
Y436063D02*
D03*
Y438031D02*
D03*
Y440000D02*
D03*
Y441969D02*
D03*
Y443937D02*
D03*
X606673Y538591D02*
D03*
Y536622D02*
D03*
Y534654D02*
D03*
Y532685D02*
D03*
Y530717D02*
D03*
Y520874D02*
D03*
Y522843D02*
D03*
Y524811D02*
D03*
Y526780D02*
D03*
Y528748D02*
D03*
Y511031D02*
D03*
Y513000D02*
D03*
Y514968D02*
D03*
Y516937D02*
D03*
Y518905D02*
D03*
X592500D02*
D03*
Y516937D02*
D03*
Y514968D02*
D03*
Y513000D02*
D03*
Y511031D02*
D03*
Y528748D02*
D03*
Y526780D02*
D03*
Y524811D02*
D03*
Y522843D02*
D03*
Y520874D02*
D03*
Y530717D02*
D03*
Y532685D02*
D03*
Y534654D02*
D03*
Y536622D02*
D03*
Y538591D02*
D03*
X786827Y566283D02*
D03*
Y568252D02*
D03*
Y570220D02*
D03*
Y572189D02*
D03*
Y574157D02*
D03*
Y584000D02*
D03*
Y582031D02*
D03*
Y580063D02*
D03*
Y578094D02*
D03*
Y576126D02*
D03*
Y593843D02*
D03*
Y591874D02*
D03*
Y589906D02*
D03*
Y587937D02*
D03*
Y585968D02*
D03*
X801000D02*
D03*
Y587937D02*
D03*
Y589906D02*
D03*
Y591874D02*
D03*
Y593843D02*
D03*
Y576126D02*
D03*
Y578094D02*
D03*
Y580063D02*
D03*
Y582031D02*
D03*
Y584000D02*
D03*
Y574157D02*
D03*
Y572189D02*
D03*
Y570220D02*
D03*
Y568252D02*
D03*
Y566283D02*
D03*
D33*
X825500Y367500D02*
D03*
Y339547D02*
D03*
X850500Y367500D02*
D03*
Y339547D02*
D03*
D34*
X874240Y364543D02*
D03*
X866760D02*
D03*
X870500Y357457D02*
D03*
D35*
X254000Y510547D02*
D03*
Y516453D02*
D03*
X165000Y266547D02*
D03*
Y272453D02*
D03*
X355000Y232547D02*
D03*
Y238453D02*
D03*
X355000Y498953D02*
D03*
Y493047D02*
D03*
X423500Y340047D02*
D03*
Y345953D02*
D03*
X423500Y423453D02*
D03*
Y417547D02*
D03*
X130000Y363047D02*
D03*
Y368953D02*
D03*
X165000Y459547D02*
D03*
Y465453D02*
D03*
D36*
X254000Y240587D02*
D03*
Y226413D02*
D03*
X355000Y504063D02*
D03*
Y518237D02*
D03*
Y244263D02*
D03*
Y258437D02*
D03*
X254000Y521913D02*
D03*
Y536087D02*
D03*
X280000Y388337D02*
D03*
Y374163D02*
D03*
X165100Y484787D02*
D03*
Y470613D02*
D03*
X130000Y388337D02*
D03*
Y374163D02*
D03*
X165100Y277713D02*
D03*
Y291887D02*
D03*
D37*
X413863Y329950D02*
D03*
X428037D02*
D03*
Y432550D02*
D03*
X413863D02*
D03*
D38*
X887500Y473500D02*
D03*
X882500D02*
D03*
X887500Y478500D02*
D03*
Y483500D02*
D03*
X882500Y478500D02*
D03*
Y483500D02*
D03*
D39*
X773000Y442500D02*
D03*
X775339Y444838D02*
D03*
X763000Y443000D02*
D03*
X760662Y440661D02*
D03*
X813000Y552500D02*
D03*
X815339Y554839D02*
D03*
X808500Y553000D02*
D03*
X806161Y550662D02*
D03*
D40*
X750500Y591500D02*
D03*
X748162Y593839D02*
D03*
X752162Y585839D02*
D03*
X754500Y583500D02*
D03*
D41*
X857843Y405406D02*
D03*
D42*
X848000Y399500D02*
D03*
Y411311D02*
D03*
D43*
X848787Y405406D02*
D03*
D44*
X915532Y449500D02*
D03*
X919468D02*
D03*
X522532Y465000D02*
D03*
X526469D02*
D03*
X522500Y459500D02*
D03*
X526437D02*
D03*
X793469Y460500D02*
D03*
X789532D02*
D03*
X793469Y455000D02*
D03*
X789532D02*
D03*
X777937Y460500D02*
D03*
X774000D02*
D03*
X778000Y455000D02*
D03*
X774063D02*
D03*
X627969Y423500D02*
D03*
X624031D02*
D03*
D45*
X905000Y457748D02*
D03*
X910000D02*
D03*
X915000D02*
D03*
X920000D02*
D03*
X925000D02*
D03*
X930000D02*
D03*
X935000D02*
D03*
X905000Y476252D02*
D03*
X910000D02*
D03*
X915000D02*
D03*
X920000D02*
D03*
X925000D02*
D03*
X930000D02*
D03*
X935000D02*
D03*
D50*
X869350Y176992D02*
D03*
X833524D02*
D03*
X611681Y271882D02*
D03*
Y236055D02*
D03*
X524429Y437508D02*
D03*
X560256D02*
D03*
X527445Y600819D02*
D03*
X491618D02*
D03*
X445992Y215866D02*
D03*
Y251693D02*
D03*
X610492Y412244D02*
D03*
Y448071D02*
D03*
X605492Y506898D02*
D03*
Y542724D02*
D03*
X788008Y597976D02*
D03*
Y562150D02*
D03*
X768929Y419008D02*
D03*
X804756D02*
D03*
X337134Y585992D02*
D03*
X301307D02*
D03*
X199571Y407992D02*
D03*
X163744D02*
D03*
X256539Y181161D02*
D03*
X292366D02*
D03*
D51*
X910441Y362000D02*
D03*
Y375780D02*
D03*
X938000Y362000D02*
D03*
Y375780D02*
D03*
D52*
X254000Y233500D02*
D03*
X355000Y511150D02*
D03*
Y251350D02*
D03*
X254000Y529000D02*
D03*
X420950Y329950D02*
D03*
Y432550D02*
D03*
X280000Y381250D02*
D03*
X165100Y477700D02*
D03*
X130000Y381250D02*
D03*
X165100Y284800D02*
D03*
D53*
X945000Y632500D02*
D03*
X130000D02*
D03*
Y130000D02*
D03*
X510000D02*
D03*
Y632500D02*
D03*
X945000Y130000D02*
D03*
D54*
X898500Y154500D02*
D03*
Y276500D02*
D03*
X577000Y154500D02*
D03*
Y276500D02*
D03*
X347126Y344000D02*
D03*
X161126D02*
D03*
X189626Y635500D02*
D03*
X318626D02*
D03*
X499173Y161153D02*
D03*
Y308653D02*
D03*
X183673D02*
D03*
X174173Y167154D02*
D03*
X553500Y509500D02*
D03*
X452500Y462500D02*
D03*
X480000Y571000D02*
D03*
X695000Y421000D02*
D03*
X604000Y601500D02*
D03*
X939000Y599500D02*
D03*
Y405000D02*
D03*
D55*
X885000Y468500D02*
D03*
X881000Y488500D02*
D03*
X889000D02*
D03*
D56*
X345000Y493000D02*
D03*
X628000Y274000D02*
D03*
X603000Y272000D02*
D03*
X581000Y555500D02*
D03*
X600000Y532000D02*
D03*
X613500Y523000D02*
D03*
X774000Y474000D02*
D03*
X662500D02*
D03*
X632500Y409000D02*
D03*
X774000Y554500D02*
D03*
Y505500D02*
D03*
X754500Y541000D02*
D03*
X752500Y543500D02*
D03*
X750500Y545500D02*
D03*
X774000Y468000D02*
D03*
X345000Y417500D02*
D03*
X255000Y199500D02*
D03*
X286000Y200500D02*
D03*
X282000D02*
D03*
X284000Y189000D02*
D03*
X338000Y568500D02*
D03*
X351000Y610500D02*
D03*
X528000Y608000D02*
D03*
Y618000D02*
D03*
X738000Y633000D02*
D03*
X747000D02*
D03*
X768500Y573000D02*
D03*
X804500Y599000D02*
D03*
X812500Y559000D02*
D03*
X298000Y398500D02*
D03*
X266500Y208000D02*
D03*
X632500Y276500D02*
D03*
X529500Y430000D02*
D03*
X533500Y442000D02*
D03*
X540000Y429500D02*
D03*
X540500Y458000D02*
D03*
X544500D02*
D03*
X548500D02*
D03*
X552500D02*
D03*
X591500Y430000D02*
D03*
X588500Y437500D02*
D03*
X590500Y441500D02*
D03*
X591500Y444500D02*
D03*
X603500Y445000D02*
D03*
X592594Y434094D02*
D03*
X606500Y430500D02*
D03*
X619000Y432000D02*
D03*
X585000Y530500D02*
D03*
X587500Y531000D02*
D03*
X599000Y507500D02*
D03*
X593500Y507000D02*
D03*
X598000Y538500D02*
D03*
X600000Y536500D02*
D03*
Y530000D02*
D03*
X612000Y541000D02*
D03*
X613000Y538000D02*
D03*
X369500Y273000D02*
D03*
X278500Y243500D02*
D03*
X156500Y295000D02*
D03*
X138500Y409500D02*
D03*
X189500Y488000D02*
D03*
X277500Y539500D02*
D03*
X331000Y556000D02*
D03*
X522500Y571000D02*
D03*
X629500Y544000D02*
D03*
X624000D02*
D03*
X618500D02*
D03*
X624500Y517500D02*
D03*
X517000Y459500D02*
D03*
Y465000D02*
D03*
X628000Y427000D02*
D03*
X758000Y438000D02*
D03*
X773000Y447500D02*
D03*
X800500Y460500D02*
D03*
Y455000D02*
D03*
X889000Y457500D02*
D03*
X757500Y586000D02*
D03*
X746000Y596000D02*
D03*
X804000Y548500D02*
D03*
X817500Y557000D02*
D03*
X824000Y560000D02*
D03*
X818500D02*
D03*
X819000Y594000D02*
D03*
X813500D02*
D03*
X774500Y573000D02*
D03*
X760500Y572000D02*
D03*
X439000Y239000D02*
D03*
Y242000D02*
D03*
Y246000D02*
D03*
X426000Y247500D02*
D03*
Y243500D02*
D03*
Y239500D02*
D03*
Y235500D02*
D03*
X441500Y220000D02*
D03*
X453500Y222000D02*
D03*
X441500Y223500D02*
D03*
Y226500D02*
D03*
X274500Y174000D02*
D03*
X266500D02*
D03*
X270500D02*
D03*
X261000Y186000D02*
D03*
X264500D02*
D03*
X268500D02*
D03*
X272500D02*
D03*
X276500D02*
D03*
X278000Y200500D02*
D03*
X274453Y200453D02*
D03*
X271000Y200500D02*
D03*
X288000Y189000D02*
D03*
X280000D02*
D03*
X276500D02*
D03*
X268500D02*
D03*
X185000Y389000D02*
D03*
X181500D02*
D03*
X177500D02*
D03*
X173500D02*
D03*
X169500D02*
D03*
X168500Y400500D02*
D03*
X172000D02*
D03*
X187500D02*
D03*
X193500Y414500D02*
D03*
X195500Y403500D02*
D03*
X191500D02*
D03*
X187500D02*
D03*
X183500D02*
D03*
X179500D02*
D03*
X176000D02*
D03*
X172000D02*
D03*
X167000Y415000D02*
D03*
X323000Y578500D02*
D03*
X319000D02*
D03*
X315000D02*
D03*
X311000D02*
D03*
X307500D02*
D03*
X306000Y567500D02*
D03*
X310000D02*
D03*
X314000D02*
D03*
X317500D02*
D03*
X321500D02*
D03*
X325500D02*
D03*
X305500Y582000D02*
D03*
X313500D02*
D03*
X308000Y593500D02*
D03*
X311500D02*
D03*
X334000D02*
D03*
X331000D02*
D03*
X326500Y581500D02*
D03*
X513469Y582031D02*
D03*
X509500Y582000D02*
D03*
X505594Y582094D02*
D03*
X497500Y582000D02*
D03*
X496000Y593500D02*
D03*
X500000D02*
D03*
X504000D02*
D03*
X507563Y593437D02*
D03*
X515500Y593500D02*
D03*
X521000Y608000D02*
D03*
X517000D02*
D03*
X513500D02*
D03*
X509500D02*
D03*
X519500Y597000D02*
D03*
X511500D02*
D03*
X792500Y565500D02*
D03*
X794000Y570000D02*
D03*
X794500Y590500D02*
D03*
X793500Y587500D02*
D03*
X794500Y584000D02*
D03*
X798654Y412154D02*
D03*
X790500Y412000D02*
D03*
X786500D02*
D03*
X782500D02*
D03*
X779000D02*
D03*
X775000D02*
D03*
X773500Y423000D02*
D03*
X777500D02*
D03*
X781000D02*
D03*
X785000D02*
D03*
X789000D02*
D03*
X793000D02*
D03*
X797000D02*
D03*
X800500D02*
D03*
X900500Y476252D02*
D03*
X837500Y169500D02*
D03*
X839500Y158000D02*
D03*
X843500D02*
D03*
X845500Y169500D02*
D03*
X847500Y158000D02*
D03*
X851500D02*
D03*
X853500Y169500D02*
D03*
X855500Y158000D02*
D03*
X861000Y170000D02*
D03*
X865000D02*
D03*
X866000Y183500D02*
D03*
X863248Y184748D02*
D03*
X862000Y187500D02*
D03*
X857500Y173000D02*
D03*
X849500D02*
D03*
X841500D02*
D03*
X632000Y239500D02*
D03*
X632500Y242000D02*
D03*
X632000Y245000D02*
D03*
X618000Y247500D02*
D03*
X632000Y249000D02*
D03*
X618000Y252000D02*
D03*
X632000D02*
D03*
X631500Y256000D02*
D03*
X617500Y256500D02*
D03*
X618000Y259500D02*
D03*
X632626Y259874D02*
D03*
X615500Y239500D02*
D03*
X603000Y241000D02*
D03*
X602500Y244000D02*
D03*
X599500Y247000D02*
D03*
X601000Y249000D02*
D03*
Y264000D02*
D03*
X742500Y382500D02*
D03*
X733500Y392000D02*
D03*
X705000D02*
D03*
X684000D02*
D03*
X664500D02*
D03*
X650000Y377000D02*
D03*
Y351000D02*
D03*
Y327000D02*
D03*
X665000Y329500D02*
D03*
X666500Y336500D02*
D03*
Y342000D02*
D03*
X661500Y352500D02*
D03*
X668000Y362000D02*
D03*
X673000Y371500D02*
D03*
X682000Y374500D02*
D03*
X690500Y380000D02*
D03*
X704000Y379500D02*
D03*
X712500Y377000D02*
D03*
X719000Y384000D02*
D03*
X726500Y388500D02*
D03*
X777000Y391500D02*
D03*
X773000Y381000D02*
D03*
X766500Y376500D02*
D03*
X758500Y388000D02*
D03*
X737000Y375500D02*
D03*
X752000Y370500D02*
D03*
X746000Y369500D02*
D03*
X751000Y355000D02*
D03*
X920000Y403000D02*
D03*
X919000Y421500D02*
D03*
X892000Y405000D02*
D03*
X891000Y422500D02*
D03*
X882000Y376000D02*
D03*
X877500Y392500D02*
D03*
X949000Y422000D02*
D03*
X865500Y422500D02*
D03*
X867500Y405000D02*
D03*
X842000Y406000D02*
D03*
X819000Y405000D02*
D03*
X811000Y289500D02*
D03*
X799000Y273000D02*
D03*
X811000Y309000D02*
D03*
X797500Y334500D02*
D03*
X786500Y336500D02*
D03*
Y313500D02*
D03*
Y292000D02*
D03*
X782500Y285500D02*
D03*
X783000Y262500D02*
D03*
X787500Y258500D02*
D03*
X808500Y259000D02*
D03*
X830500Y301000D02*
D03*
X831000Y282000D02*
D03*
X830000Y323500D02*
D03*
X812000Y326500D02*
D03*
X806000Y345500D02*
D03*
X791000Y355000D02*
D03*
X781500Y347000D02*
D03*
X764500Y347500D02*
D03*
X254000Y506500D02*
D03*
X164500Y455500D02*
D03*
X130000Y357500D02*
D03*
X171000Y267000D02*
D03*
X245000Y226000D02*
D03*
X360047Y232953D02*
D03*
X589000Y424000D02*
D03*
X589500Y427000D02*
D03*
X591000Y421000D02*
D03*
X589500Y419000D02*
D03*
X587500Y417000D02*
D03*
X556000Y430500D02*
D03*
X554500Y441500D02*
D03*
X551000Y430500D02*
D03*
X550000Y441500D02*
D03*
X547000Y430500D02*
D03*
X546500Y441500D02*
D03*
X196000Y389500D02*
D03*
X194000Y386500D02*
D03*
X191500Y387500D02*
D03*
X188500Y388500D02*
D03*
X427000Y219500D02*
D03*
X424000Y224000D02*
D03*
X425500Y228500D02*
D03*
X426500Y231000D02*
D03*
X863000Y158000D02*
D03*
X859500D02*
D03*
X683000Y333000D02*
D03*
X683500Y339500D02*
D03*
X683000Y354000D02*
D03*
X680500Y367500D02*
D03*
X713000Y368000D02*
D03*
X721500Y378000D02*
D03*
X725000Y362000D02*
D03*
X716000Y354500D02*
D03*
X715000Y338000D02*
D03*
Y317500D02*
D03*
X677000Y323000D02*
D03*
Y311000D02*
D03*
X715500Y298000D02*
D03*
X708000Y291000D02*
D03*
X694500D02*
D03*
X683000D02*
D03*
X676500Y297500D02*
D03*
X634000Y395500D02*
D03*
X619500Y395000D02*
D03*
X615500Y399000D02*
D03*
X639000Y398500D02*
D03*
X435500Y403500D02*
D03*
X419500D02*
D03*
X897500Y438000D02*
D03*
Y428500D02*
D03*
X817500Y460500D02*
D03*
Y469000D02*
D03*
X644000Y504500D02*
D03*
X661000D02*
D03*
X644000Y492000D02*
D03*
X652000Y492500D02*
D03*
X661500Y500500D02*
D03*
X650000D02*
D03*
X733000Y647500D02*
D03*
X723500D02*
D03*
X237000Y488000D02*
D03*
X253000Y471500D02*
D03*
X899000Y480500D02*
D03*
X878500Y478000D02*
D03*
X795000Y575000D02*
D03*
X628000Y308500D02*
D03*
X639500Y264500D02*
D03*
X633000D02*
D03*
X859000Y196000D02*
D03*
Y493500D02*
D03*
X857000Y496000D02*
D03*
X855000Y499000D02*
D03*
X852500Y501000D02*
D03*
X860500Y490500D02*
D03*
X862000Y488000D02*
D03*
X831000Y562000D02*
D03*
X812156Y571345D02*
D03*
X855500Y196000D02*
D03*
X831000Y565000D02*
D03*
X818500Y572500D02*
D03*
X851500Y196000D02*
D03*
X847500D02*
D03*
X849500Y501000D02*
D03*
X843500Y196000D02*
D03*
X824000Y594000D02*
D03*
X813500Y582000D02*
D03*
X837500Y195500D02*
D03*
X839500Y193500D02*
D03*
X442500Y251000D02*
D03*
X452000Y253500D02*
D03*
X602000Y336000D02*
D03*
X617500Y318000D02*
D03*
Y324500D02*
D03*
X742500Y555000D02*
D03*
X741000Y557500D02*
D03*
X736000Y560000D02*
D03*
X739500D02*
D03*
X781500Y558500D02*
D03*
X792500Y577000D02*
D03*
X779500Y561000D02*
D03*
X607000Y332000D02*
D03*
X609500Y331000D02*
D03*
X611500Y329000D02*
D03*
X604500Y334000D02*
D03*
X452000Y250500D02*
D03*
X440000Y236000D02*
D03*
X748500Y548000D02*
D03*
X614500Y329000D02*
D03*
X746500Y550000D02*
D03*
X617500Y321000D02*
D03*
X744500Y552500D02*
D03*
X777500Y582500D02*
D03*
X759000Y576000D02*
D03*
X768500Y585000D02*
D03*
X759000Y579500D02*
D03*
X619000Y426000D02*
D03*
Y415000D02*
D03*
X814000Y545500D02*
D03*
X599500Y260500D02*
D03*
Y258000D02*
D03*
X810500Y548000D02*
D03*
X749500Y583500D02*
D03*
X457000Y228500D02*
D03*
Y226000D02*
D03*
X527000Y456000D02*
D03*
X745750Y586750D02*
D03*
X617500Y264000D02*
D03*
X625000Y236500D02*
D03*
X521847Y549653D02*
D03*
X516153D02*
D03*
X623500Y417500D02*
D03*
X636000Y418500D02*
D03*
X435000Y583500D02*
D03*
X423500Y573000D02*
D03*
X433000Y586000D02*
D03*
X422157Y575343D02*
D03*
X613000Y509500D02*
D03*
X584000D02*
D03*
Y515000D02*
D03*
Y517500D02*
D03*
Y520000D02*
D03*
Y522500D02*
D03*
Y525000D02*
D03*
Y527500D02*
D03*
Y512500D02*
D03*
X613000Y513000D02*
D03*
X600500Y513500D02*
D03*
X598500Y516000D02*
D03*
X600500Y518500D02*
D03*
X600000Y525000D02*
D03*
X601500Y527500D02*
D03*
X599000Y522500D02*
D03*
X615000Y536000D02*
D03*
X632500Y533000D02*
D03*
X630000Y494000D02*
D03*
X618000Y482000D02*
D03*
X620000Y484500D02*
D03*
X626500Y533000D02*
D03*
X632000Y530500D02*
D03*
X614000Y490000D02*
D03*
X618500Y494000D02*
D03*
X624500Y491500D02*
D03*
X618500D02*
D03*
X646500Y454000D02*
D03*
Y443000D02*
D03*
X649000D02*
D03*
X649500Y454000D02*
D03*
X767000Y443500D02*
D03*
X529500Y466000D02*
D03*
X789500Y465000D02*
D03*
X644000Y477000D02*
D03*
X657000Y492000D02*
D03*
X655000Y490000D02*
D03*
X652500Y486000D02*
D03*
X644000Y480000D02*
D03*
X659500Y494000D02*
D03*
X792000Y465000D02*
D03*
X644000Y474000D02*
D03*
Y483000D02*
D03*
X662000Y495000D02*
D03*
X795000Y465000D02*
D03*
X524000Y456000D02*
D03*
X524500Y469000D02*
D03*
X644000Y486000D02*
D03*
Y489000D02*
D03*
X652500D02*
D03*
X790000Y451500D02*
D03*
X792000Y449000D02*
D03*
X797500Y465000D02*
D03*
Y451000D02*
D03*
X794500D02*
D03*
X644000Y471000D02*
D03*
X652000D02*
D03*
X780500Y464500D02*
D03*
X796000Y446500D02*
D03*
X523500Y486500D02*
D03*
X530000Y445000D02*
D03*
X644000Y468000D02*
D03*
Y465000D02*
D03*
X757000Y458000D02*
D03*
X650500Y466500D02*
D03*
X655500Y471000D02*
D03*
X574500Y414500D02*
D03*
Y410000D02*
D03*
X603500Y490500D02*
D03*
X611000Y490000D02*
D03*
X624000Y446500D02*
D03*
X600500Y490500D02*
D03*
X627000Y444000D02*
D03*
X597000Y490500D02*
D03*
X607500D02*
D03*
X620500Y449000D02*
D03*
X618000Y442500D02*
D03*
X589000Y409500D02*
D03*
X602500Y425000D02*
D03*
X605000Y427500D02*
D03*
X594500Y407500D02*
D03*
D57*
X704500Y525500D02*
D03*
X283000Y173000D02*
D03*
X786500Y383000D02*
D03*
M02*
