G04 Layer_Physical_Order=1*
G04 Layer_Color=255*
%FSLAX25Y25*%
%MOIN*%
G70*
G01*
G75*
%ADD10R,0.02362X0.02362*%
%ADD11R,0.17323X0.21260*%
%ADD12R,0.21260X0.17323*%
%ADD13R,0.03937X0.05118*%
%ADD14R,0.02362X0.01968*%
%ADD15R,0.04331X0.10236*%
%ADD16R,0.10236X0.04331*%
%ADD17R,0.05118X0.03937*%
%ADD18R,0.36600X0.43600*%
%ADD19R,0.16900X0.06300*%
%ADD20R,0.07087X0.14173*%
%ADD21R,0.02756X0.03543*%
%ADD22R,0.03150X0.03543*%
%ADD23R,0.03543X0.03150*%
%ADD24R,0.04331X0.05512*%
%ADD25O,0.06693X0.02362*%
%ADD26R,0.09016X0.09016*%
%ADD27R,0.02953X0.02362*%
%ADD28R,0.02559X0.03543*%
%ADD29R,0.03150X0.07087*%
%ADD30R,0.01181X0.06299*%
%ADD31R,0.07087X0.03150*%
%ADD32R,0.06299X0.01181*%
%ADD33R,0.22047X0.05118*%
%ADD34R,0.02362X0.04724*%
%ADD35R,0.03543X0.02756*%
%ADD36R,0.01968X0.01181*%
%ADD37R,0.01181X0.01968*%
%ADD38C,0.03098*%
G04:AMPARAMS|DCode=39|XSize=14.17mil|YSize=9.84mil|CornerRadius=0mil|HoleSize=0mil|Usage=FLASHONLY|Rotation=225.000|XOffset=0mil|YOffset=0mil|HoleType=Round|Shape=Rectangle|*
%AMROTATEDRECTD39*
4,1,4,0.00153,0.00849,0.00849,0.00153,-0.00153,-0.00849,-0.00849,-0.00153,0.00153,0.00849,0.0*
%
%ADD39ROTATEDRECTD39*%

G04:AMPARAMS|DCode=40|XSize=14.17mil|YSize=9.84mil|CornerRadius=0mil|HoleSize=0mil|Usage=FLASHONLY|Rotation=315.000|XOffset=0mil|YOffset=0mil|HoleType=Round|Shape=Rectangle|*
%AMROTATEDRECTD40*
4,1,4,-0.00849,0.00153,-0.00153,0.00849,0.00849,-0.00153,0.00153,-0.00849,-0.00849,0.00153,0.0*
%
%ADD40ROTATEDRECTD40*%

G04:AMPARAMS|DCode=41|XSize=70.87mil|YSize=118.11mil|CornerRadius=0mil|HoleSize=0mil|Usage=FLASHONLY|Rotation=90.000|XOffset=0mil|YOffset=0mil|HoleType=Round|Shape=Octagon|*
%AMOCTAGOND41*
4,1,8,-0.05905,-0.01772,-0.05905,0.01772,-0.04134,0.03543,0.04134,0.03543,0.05905,0.01772,0.05905,-0.01772,0.04134,-0.03543,-0.04134,-0.03543,-0.05905,-0.01772,0.0*
%
%ADD41OCTAGOND41*%

%ADD42R,0.04724X0.01968*%
%ADD43R,0.06299X0.01968*%
%ADD44R,0.02362X0.02362*%
%ADD45O,0.02362X0.07480*%
%ADD46C,0.01180*%
%ADD47C,0.01000*%
%ADD48C,0.01500*%
%ADD49C,0.05000*%
%ADD50C,0.01181*%
%ADD51C,0.06693*%
%ADD52C,0.00394*%
%ADD53C,0.29134*%
%ADD54C,0.20866*%
%ADD55C,0.00787*%
%ADD56C,0.01800*%
%ADD57C,0.05000*%
G36*
X416096Y333100D02*
X415882Y332743D01*
X415534Y331987D01*
X415298Y331189D01*
X415178Y330366D01*
X415178Y329534D01*
X415298Y328711D01*
X415534Y327913D01*
X415882Y327157D01*
X416096Y326800D01*
X412682D01*
Y333100D01*
X416096D01*
X416096Y333100D01*
D02*
G37*
G36*
X425804Y333100D02*
X429218D01*
Y326800D01*
X425804D01*
X426018Y327157D01*
X426366Y327913D01*
X426602Y328711D01*
X426722Y329534D01*
X426722Y330366D01*
X426602Y331189D01*
X426366Y331987D01*
X426018Y332743D01*
X425804Y333100D01*
X425804Y333100D01*
D02*
G37*
G36*
X416096Y326800D02*
X416096Y326800D01*
X416096Y326800D01*
X416096D01*
X416096Y326800D01*
D02*
G37*
G36*
X747000Y354500D02*
Y343500D01*
X748000Y342500D01*
X780500D01*
X782500Y340500D01*
Y291000D01*
X780500Y289000D01*
X727500D01*
X719500Y297000D01*
Y351000D01*
X726000Y357500D01*
X744000D01*
X747000Y354500D01*
D02*
G37*
G36*
X168250Y289654D02*
X168250Y289654D01*
X167893Y289868D01*
X167137Y290216D01*
X166339Y290452D01*
X165516Y290572D01*
X164684Y290572D01*
X163861Y290452D01*
X163063Y290216D01*
X162307Y289868D01*
X161950Y289654D01*
X161950Y289654D01*
Y293068D01*
X168250D01*
Y289654D01*
D02*
G37*
G36*
X854000Y398000D02*
X865000D01*
X870500Y392500D01*
Y378000D01*
X869000Y376500D01*
X864500D01*
X863000Y375000D01*
Y362500D01*
X814000D01*
X812500Y364000D01*
Y373000D01*
X811500Y374000D01*
X804000D01*
X801500Y376500D01*
Y392000D01*
X810500Y401000D01*
X851000D01*
X854000Y398000D01*
D02*
G37*
G36*
X954500Y421500D02*
Y376000D01*
X951000Y372500D01*
X885000D01*
X882000Y369500D01*
X876000D01*
X874500Y371000D01*
Y392000D01*
X866500Y400000D01*
X855000D01*
X852500Y402500D01*
X812653D01*
X812462Y402962D01*
X819000Y409500D01*
X852000D01*
X855000Y412500D01*
Y421500D01*
X858500Y425000D01*
X951000D01*
X954500Y421500D01*
D02*
G37*
G36*
X800786Y386214D02*
Y376500D01*
X800841Y376227D01*
X800995Y375995D01*
X801000Y375991D01*
Y368500D01*
X798000Y365500D01*
X794000D01*
X783000Y354500D01*
X767500D01*
X764500Y357500D01*
X757000D01*
X755000Y359500D01*
Y367000D01*
X756000Y368000D01*
X764000D01*
X768000Y372000D01*
X780500D01*
X782500Y374000D01*
Y386000D01*
X783000Y386500D01*
X800500D01*
X800786Y386214D01*
D02*
G37*
G36*
X887000Y342000D02*
X874500Y329500D01*
X817000D01*
X812000Y334500D01*
Y358000D01*
X815000Y361000D01*
X887000D01*
Y342000D01*
D02*
G37*
G36*
X953000Y344000D02*
X947500Y338500D01*
X898500D01*
X888000Y349000D01*
Y371500D01*
X953000D01*
Y344000D01*
D02*
G37*
G36*
X728000Y361500D02*
X718000Y351500D01*
Y297000D01*
X709000Y288000D01*
X682000D01*
X674000Y296000D01*
Y366000D01*
X675500Y367500D01*
X678000Y370000D01*
X710000D01*
X721000Y381000D01*
X728000D01*
Y361500D01*
D02*
G37*
G36*
X257150Y238354D02*
X257150Y238354D01*
X256792Y238568D01*
X256037Y238916D01*
X255239Y239152D01*
X254416Y239272D01*
X253584Y239272D01*
X252761Y239152D01*
X251963Y238916D01*
X251207Y238568D01*
X250850Y238354D01*
X250850Y238354D01*
Y241768D01*
X257150D01*
Y238354D01*
D02*
G37*
G36*
X351850Y246496D02*
X352207Y246282D01*
X352963Y245934D01*
X353761Y245698D01*
X354584Y245578D01*
X355416Y245578D01*
X356239Y245698D01*
X357037Y245934D01*
X357793Y246282D01*
X358150Y246496D01*
Y243082D01*
X351850D01*
Y246496D01*
X351850Y246496D01*
D02*
G37*
G36*
X257150Y228646D02*
X257150Y228646D01*
D01*
X257150Y228646D01*
Y228646D01*
D02*
G37*
G36*
X288732Y175831D02*
X289500D01*
Y171500D01*
X288000Y170000D01*
X279000D01*
X277500Y171500D01*
Y175831D01*
X277890D01*
Y179980D01*
X278890D01*
Y175831D01*
X279858D01*
Y179980D01*
X280858D01*
Y175831D01*
X281827D01*
Y179980D01*
X282827D01*
Y175831D01*
X283795D01*
Y179980D01*
X284795D01*
Y175831D01*
X285764D01*
Y179980D01*
X286764D01*
Y175831D01*
X287732D01*
Y179980D01*
X288732D01*
Y175831D01*
D02*
G37*
G36*
X250850Y228646D02*
X251207Y228432D01*
X251963Y228084D01*
X252761Y227848D01*
X253584Y227728D01*
X254416Y227728D01*
X255239Y227848D01*
X256037Y228084D01*
X256793Y228432D01*
X257150Y228646D01*
Y225232D01*
X250850D01*
Y228646D01*
X250850Y228646D01*
D02*
G37*
G36*
X161950Y279946D02*
X162308Y279732D01*
X163063Y279384D01*
X163861Y279148D01*
X164684Y279028D01*
X165516Y279028D01*
X166339Y279148D01*
X167137Y279384D01*
X167893Y279732D01*
X168250Y279946D01*
Y276532D01*
X161950D01*
Y279946D01*
X161950Y279946D01*
D02*
G37*
G36*
X168250Y279946D02*
X168250Y279946D01*
D01*
X168250Y279946D01*
Y279946D01*
D02*
G37*
G36*
X358150Y256204D02*
X358150Y256204D01*
X357792Y256418D01*
X357037Y256766D01*
X356239Y257002D01*
X355416Y257122D01*
X354584Y257122D01*
X353761Y257002D01*
X352963Y256766D01*
X352207Y256418D01*
X351850Y256204D01*
X351850Y256204D01*
Y259618D01*
X358150D01*
Y256204D01*
D02*
G37*
G36*
X358150Y246496D02*
X358150Y246496D01*
D01*
X358150Y246496D01*
Y246496D01*
D02*
G37*
G36*
X808500Y347500D02*
Y334000D01*
X816000Y326500D01*
X831000D01*
X833500Y324000D01*
Y280500D01*
X809000Y256000D01*
X786000D01*
X780500Y261500D01*
Y287000D01*
X784000Y290500D01*
Y341000D01*
X781000Y344000D01*
X759000D01*
X758500Y344500D01*
Y346500D01*
X765000Y353000D01*
X785000D01*
X790000Y358000D01*
X798000D01*
X808500Y347500D01*
D02*
G37*
G36*
X351850Y506296D02*
X352207Y506082D01*
X352963Y505734D01*
X353761Y505498D01*
X354584Y505378D01*
X355416Y505378D01*
X356239Y505498D01*
X357037Y505734D01*
X357793Y506082D01*
X358150Y506296D01*
Y502882D01*
X351850D01*
Y506296D01*
X351850Y506296D01*
D02*
G37*
G36*
X358150Y506296D02*
X358150Y506296D01*
D01*
X358150Y506296D01*
Y506296D01*
D02*
G37*
G36*
X168250Y482554D02*
X168250Y482554D01*
X167893Y482768D01*
X167137Y483116D01*
X166339Y483352D01*
X165516Y483472D01*
X164684Y483472D01*
X163861Y483352D01*
X163063Y483116D01*
X162307Y482768D01*
X161950Y482554D01*
X161950Y482554D01*
Y485968D01*
X168250D01*
Y482554D01*
D02*
G37*
G36*
X161950Y472846D02*
X162308Y472632D01*
X163063Y472284D01*
X163861Y472048D01*
X164684Y471928D01*
X165516Y471928D01*
X166339Y472048D01*
X167137Y472284D01*
X167893Y472632D01*
X168250Y472846D01*
Y469432D01*
X161950D01*
Y472846D01*
X161950Y472846D01*
D02*
G37*
G36*
X168250Y472846D02*
X168250Y472846D01*
D01*
X168250Y472846D01*
Y472846D01*
D02*
G37*
G36*
X257150Y533854D02*
X257150Y533854D01*
X256792Y534068D01*
X256037Y534416D01*
X255239Y534652D01*
X254416Y534772D01*
X253584Y534772D01*
X252761Y534652D01*
X251963Y534416D01*
X251207Y534068D01*
X250850Y533854D01*
X250850Y533854D01*
Y537268D01*
X257150D01*
Y533854D01*
D02*
G37*
G36*
X506500Y606150D02*
X506095D01*
Y602000D01*
X505094D01*
Y606150D01*
X504126D01*
Y602000D01*
X503126D01*
Y606150D01*
X502157D01*
Y602000D01*
X501157D01*
Y606150D01*
X500189D01*
Y602000D01*
X499189D01*
Y606150D01*
X498220D01*
Y602000D01*
X497220D01*
Y606150D01*
X496252D01*
Y602000D01*
X495252D01*
Y606150D01*
X494161D01*
X494000Y606583D01*
Y615500D01*
X506500D01*
Y606150D01*
D02*
G37*
G36*
X257150Y524146D02*
X257150Y524146D01*
D01*
X257150Y524146D01*
Y524146D01*
D02*
G37*
G36*
X358150Y516004D02*
X358150Y516004D01*
X357792Y516218D01*
X357037Y516566D01*
X356239Y516802D01*
X355416Y516922D01*
X354584Y516922D01*
X353761Y516802D01*
X352963Y516566D01*
X352207Y516218D01*
X351850Y516004D01*
X351850Y516004D01*
Y519418D01*
X358150D01*
Y516004D01*
D02*
G37*
G36*
X250850Y524146D02*
X251207Y523932D01*
X251963Y523584D01*
X252761Y523348D01*
X253584Y523228D01*
X254416Y523228D01*
X255239Y523348D01*
X256037Y523584D01*
X256793Y523932D01*
X257150Y524146D01*
Y520732D01*
X250850D01*
Y524146D01*
X250850Y524146D01*
D02*
G37*
G36*
X425804Y435700D02*
X429218D01*
Y429400D01*
X425804D01*
X426018Y429757D01*
X426366Y430513D01*
X426602Y431311D01*
X426722Y432134D01*
X426722Y432966D01*
X426602Y433789D01*
X426366Y434587D01*
X426018Y435343D01*
X425804Y435700D01*
X425804Y435700D01*
D02*
G37*
G36*
X133150Y376396D02*
X133150Y376396D01*
D01*
X133150Y376396D01*
Y376396D01*
D02*
G37*
G36*
X283150D02*
X283150Y376396D01*
D01*
X283150Y376396D01*
Y376396D01*
D02*
G37*
G36*
X781000Y391500D02*
Y375000D01*
X779500Y373500D01*
X764000D01*
X763000Y374500D01*
Y380000D01*
X762000Y381000D01*
X755000D01*
X754000Y380000D01*
Y352000D01*
X753500Y351500D01*
X749000D01*
X748500Y352000D01*
Y355000D01*
X745000Y358500D01*
X729000D01*
Y362500D01*
X729500Y363000D01*
X743000D01*
X743500Y363500D01*
Y372500D01*
X743000Y373000D01*
X736000D01*
X734500Y374500D01*
Y386500D01*
X734000Y387000D01*
X729500D01*
Y381500D01*
X728508D01*
X728505Y381505D01*
X728273Y381659D01*
X728000Y381714D01*
X721000D01*
X720727Y381659D01*
X720495Y381505D01*
X720491Y381500D01*
X719500D01*
X709500Y371500D01*
X677000D01*
X672500Y367000D01*
Y324500D01*
X672000Y324000D01*
X648500D01*
X647500Y325000D01*
Y378500D01*
X663000Y394000D01*
X778500D01*
X781000Y391500D01*
D02*
G37*
G36*
X126850Y376396D02*
X127208Y376182D01*
X127963Y375834D01*
X128761Y375598D01*
X129584Y375478D01*
X130416Y375478D01*
X131239Y375598D01*
X132037Y375834D01*
X132793Y376182D01*
X133150Y376396D01*
Y372982D01*
X126850D01*
Y376396D01*
X126850Y376396D01*
D02*
G37*
G36*
X276850D02*
X277207Y376182D01*
X277963Y375834D01*
X278761Y375598D01*
X279584Y375478D01*
X280416Y375478D01*
X281239Y375598D01*
X282037Y375834D01*
X282793Y376182D01*
X283150Y376396D01*
Y372982D01*
X276850D01*
Y376396D01*
X276850Y376396D01*
D02*
G37*
G36*
X416096Y435700D02*
X415882Y435343D01*
X415534Y434587D01*
X415298Y433789D01*
X415178Y432966D01*
X415178Y432134D01*
X415298Y431311D01*
X415534Y430513D01*
X415882Y429757D01*
X416096Y429400D01*
X412682D01*
Y435700D01*
X416096D01*
X416096Y435700D01*
D02*
G37*
G36*
X416096Y429400D02*
X416096Y429400D01*
X416096Y429400D01*
X416096D01*
X416096Y429400D01*
D02*
G37*
G36*
X133150Y386104D02*
X133150Y386104D01*
X132792Y386318D01*
X132037Y386666D01*
X131239Y386902D01*
X130416Y387022D01*
X129584Y387022D01*
X128761Y386902D01*
X127963Y386666D01*
X127207Y386318D01*
X126850Y386104D01*
X126850Y386104D01*
Y389518D01*
X133150D01*
Y386104D01*
D02*
G37*
G36*
X283150D02*
X283150Y386104D01*
X282792Y386318D01*
X282037Y386666D01*
X281239Y386902D01*
X280416Y387022D01*
X279584Y387022D01*
X278761Y386902D01*
X277963Y386666D01*
X277207Y386318D01*
X276850Y386104D01*
X276850Y386104D01*
Y389518D01*
X283150D01*
Y386104D01*
D02*
G37*
%LPC*%
G36*
X939000Y416167D02*
X937253Y416030D01*
X935549Y415621D01*
X933930Y414950D01*
X932436Y414035D01*
X931103Y412897D01*
X929965Y411564D01*
X929050Y410070D01*
X928379Y408451D01*
X927970Y406747D01*
X927833Y405000D01*
X927970Y403253D01*
X928379Y401549D01*
X929050Y399930D01*
X929965Y398436D01*
X931103Y397103D01*
X932436Y395965D01*
X933930Y395050D01*
X935549Y394379D01*
X937253Y393970D01*
X939000Y393832D01*
X940747Y393970D01*
X942451Y394379D01*
X944070Y395050D01*
X945564Y395965D01*
X946897Y397103D01*
X948035Y398436D01*
X948950Y399930D01*
X949621Y401549D01*
X950030Y403253D01*
X950167Y405000D01*
X950030Y406747D01*
X949621Y408451D01*
X948950Y410070D01*
X948035Y411564D01*
X946897Y412897D01*
X945564Y414035D01*
X944070Y414950D01*
X942451Y415621D01*
X940747Y416030D01*
X939000Y416167D01*
D02*
G37*
%LPD*%
D10*
X810000Y361531D02*
D03*
Y365469D02*
D03*
Y371500D02*
D03*
Y375437D02*
D03*
X633000Y272437D02*
D03*
Y268500D02*
D03*
X935000Y449469D02*
D03*
Y445532D02*
D03*
X813500Y589468D02*
D03*
Y585532D02*
D03*
X824000Y563531D02*
D03*
Y567469D02*
D03*
X813000Y567469D02*
D03*
Y563531D02*
D03*
X818500Y563531D02*
D03*
Y567469D02*
D03*
X774000Y578031D02*
D03*
Y581968D02*
D03*
X768500Y581968D02*
D03*
Y578031D02*
D03*
X763500Y578000D02*
D03*
Y581937D02*
D03*
X624000Y522031D02*
D03*
Y525969D02*
D03*
X618500Y525969D02*
D03*
Y522031D02*
D03*
X629500Y539468D02*
D03*
Y535532D02*
D03*
X624000Y539468D02*
D03*
Y535532D02*
D03*
X618500Y539468D02*
D03*
Y535532D02*
D03*
X262500Y207469D02*
D03*
Y203532D02*
D03*
X522500Y575032D02*
D03*
Y578968D02*
D03*
X331000Y560532D02*
D03*
Y564468D02*
D03*
X819000Y589500D02*
D03*
Y585563D02*
D03*
X627000Y416968D02*
D03*
Y413031D02*
D03*
X632500Y417000D02*
D03*
Y413063D02*
D03*
D11*
X871000Y125000D02*
D03*
X604000D02*
D03*
X438500D02*
D03*
X200000D02*
D03*
X895000Y634000D02*
D03*
X548000D02*
D03*
X395000Y640000D02*
D03*
D12*
X951000Y303000D02*
D03*
Y176000D02*
D03*
X127500Y195000D02*
D03*
Y546000D02*
D03*
Y601000D02*
D03*
D13*
X676500Y329500D02*
D03*
X670201D02*
D03*
X870850Y372500D02*
D03*
X877150D02*
D03*
D14*
X672031Y336500D02*
D03*
X675969D02*
D03*
X672031Y342000D02*
D03*
X675969D02*
D03*
X672031Y362000D02*
D03*
X675969D02*
D03*
X855968Y418500D02*
D03*
X852032D02*
D03*
X893532Y457500D02*
D03*
X897468D02*
D03*
D15*
X677315Y352500D02*
D03*
X666685D02*
D03*
X877315Y383000D02*
D03*
X866685D02*
D03*
D16*
X691000Y364185D02*
D03*
Y374815D02*
D03*
X704500Y364185D02*
D03*
Y374815D02*
D03*
X773500Y365685D02*
D03*
Y376315D02*
D03*
X773500Y358815D02*
D03*
Y348185D02*
D03*
X834000Y394685D02*
D03*
Y405315D02*
D03*
D17*
X758500Y377850D02*
D03*
Y384150D02*
D03*
D18*
X759130Y318500D02*
D03*
D19*
X797713Y328500D02*
D03*
Y308500D02*
D03*
D20*
X700000Y331000D02*
D03*
X731890D02*
D03*
D21*
X726047Y384000D02*
D03*
X731953D02*
D03*
X731953Y372000D02*
D03*
X726047D02*
D03*
X248047Y221000D02*
D03*
X253953D02*
D03*
X294953Y374500D02*
D03*
X289047D02*
D03*
D22*
X731756Y378000D02*
D03*
X726244D02*
D03*
D23*
X731000Y360244D02*
D03*
Y365756D02*
D03*
D24*
X749953Y347000D02*
D03*
X744047D02*
D03*
D25*
X739354Y370500D02*
D03*
Y365500D02*
D03*
Y360500D02*
D03*
Y355500D02*
D03*
X758646Y370500D02*
D03*
Y365500D02*
D03*
Y360500D02*
D03*
Y355500D02*
D03*
D26*
X749000Y363000D02*
D03*
D27*
X804331Y359000D02*
D03*
X795669Y355260D02*
D03*
Y362740D02*
D03*
X262669Y536000D02*
D03*
X271331Y539740D02*
D03*
Y532260D02*
D03*
X262500Y240500D02*
D03*
X271161Y244240D02*
D03*
Y236760D02*
D03*
X354669Y269500D02*
D03*
X363331Y273240D02*
D03*
Y265760D02*
D03*
X289169Y388000D02*
D03*
X297831Y391740D02*
D03*
Y384260D02*
D03*
X130169Y399000D02*
D03*
X138831Y402740D02*
D03*
Y395260D02*
D03*
X175169Y484500D02*
D03*
X183831Y488240D02*
D03*
Y480760D02*
D03*
X156169Y309240D02*
D03*
Y301760D02*
D03*
X164831Y305500D02*
D03*
D28*
X795760Y370276D02*
D03*
X799500D02*
D03*
X803240D02*
D03*
Y379724D02*
D03*
X799500D02*
D03*
X795760D02*
D03*
X893240Y365724D02*
D03*
X889500D02*
D03*
X885760D02*
D03*
Y356276D02*
D03*
X889500D02*
D03*
X893240D02*
D03*
D29*
X872106Y171087D02*
D03*
X830768D02*
D03*
X521673Y443413D02*
D03*
X563012D02*
D03*
X530201Y594913D02*
D03*
X488862D02*
D03*
X766173Y424913D02*
D03*
X807512D02*
D03*
X339890Y580087D02*
D03*
X298551D02*
D03*
X202327Y402087D02*
D03*
X160988D02*
D03*
X253783Y187067D02*
D03*
X295122D02*
D03*
D30*
X837658Y178173D02*
D03*
X839626D02*
D03*
X841595D02*
D03*
X843563D02*
D03*
X845531D02*
D03*
X855374D02*
D03*
X853405D02*
D03*
X851437D02*
D03*
X849469D02*
D03*
X847500D02*
D03*
X865217D02*
D03*
X863248D02*
D03*
X861279D02*
D03*
X859311D02*
D03*
X857343D02*
D03*
Y164000D02*
D03*
X859311D02*
D03*
X861279D02*
D03*
X863248D02*
D03*
X865217D02*
D03*
X847500D02*
D03*
X849469D02*
D03*
X851437D02*
D03*
X853405D02*
D03*
X855374D02*
D03*
X845531D02*
D03*
X843563D02*
D03*
X841595D02*
D03*
X839626D02*
D03*
X837658D02*
D03*
X556122Y436327D02*
D03*
X554154D02*
D03*
X552185D02*
D03*
X550217D02*
D03*
X548248D02*
D03*
X538406D02*
D03*
X540374D02*
D03*
X542343D02*
D03*
X544311D02*
D03*
X546279D02*
D03*
X528563D02*
D03*
X530532D02*
D03*
X532500D02*
D03*
X534469D02*
D03*
X536437D02*
D03*
Y450500D02*
D03*
X534469D02*
D03*
X532500D02*
D03*
X530532D02*
D03*
X528563D02*
D03*
X546279D02*
D03*
X544311D02*
D03*
X542343D02*
D03*
X540374D02*
D03*
X538406D02*
D03*
X548248D02*
D03*
X550217D02*
D03*
X552185D02*
D03*
X554154D02*
D03*
X556122D02*
D03*
X495752Y602000D02*
D03*
X497720D02*
D03*
X499689D02*
D03*
X501657D02*
D03*
X503626D02*
D03*
X513469D02*
D03*
X511500D02*
D03*
X509531D02*
D03*
X507563D02*
D03*
X505594D02*
D03*
X523311D02*
D03*
X521343D02*
D03*
X519374D02*
D03*
X517406D02*
D03*
X515437D02*
D03*
Y587827D02*
D03*
X517406D02*
D03*
X519374D02*
D03*
X521343D02*
D03*
X523311D02*
D03*
X505594D02*
D03*
X507563D02*
D03*
X509531D02*
D03*
X511500D02*
D03*
X513469D02*
D03*
X503626D02*
D03*
X501657D02*
D03*
X499689D02*
D03*
X497720D02*
D03*
X495752D02*
D03*
X800622Y417827D02*
D03*
X798654D02*
D03*
X796685D02*
D03*
X794717D02*
D03*
X792748D02*
D03*
X782905D02*
D03*
X784874D02*
D03*
X786842D02*
D03*
X788811D02*
D03*
X790779D02*
D03*
X773063D02*
D03*
X775032D02*
D03*
X777000D02*
D03*
X778968D02*
D03*
X780937D02*
D03*
Y432000D02*
D03*
X778968D02*
D03*
X777000D02*
D03*
X775032D02*
D03*
X773063D02*
D03*
X790779D02*
D03*
X788811D02*
D03*
X786842D02*
D03*
X784874D02*
D03*
X782905D02*
D03*
X792748D02*
D03*
X794717D02*
D03*
X796685D02*
D03*
X798654D02*
D03*
X800622D02*
D03*
X305441Y587173D02*
D03*
X307409D02*
D03*
X309378D02*
D03*
X311347D02*
D03*
X313315D02*
D03*
X323158D02*
D03*
X321189D02*
D03*
X319220D02*
D03*
X317252D02*
D03*
X315283D02*
D03*
X333000D02*
D03*
X331031D02*
D03*
X329063D02*
D03*
X327095D02*
D03*
X325126D02*
D03*
Y573000D02*
D03*
X327095D02*
D03*
X329063D02*
D03*
X331031D02*
D03*
X333000D02*
D03*
X315283D02*
D03*
X317252D02*
D03*
X319220D02*
D03*
X321189D02*
D03*
X323158D02*
D03*
X313315D02*
D03*
X311347D02*
D03*
X309378D02*
D03*
X307409D02*
D03*
X305441D02*
D03*
X167878Y409173D02*
D03*
X169846D02*
D03*
X171815D02*
D03*
X173783D02*
D03*
X175752D02*
D03*
X185594D02*
D03*
X183626D02*
D03*
X181658D02*
D03*
X179689D02*
D03*
X177720D02*
D03*
X195437D02*
D03*
X193468D02*
D03*
X191500D02*
D03*
X189532D02*
D03*
X187563D02*
D03*
Y395000D02*
D03*
X189532D02*
D03*
X191500D02*
D03*
X193468D02*
D03*
X195437D02*
D03*
X177720D02*
D03*
X179689D02*
D03*
X181658D02*
D03*
X183626D02*
D03*
X185594D02*
D03*
X175752D02*
D03*
X173783D02*
D03*
X171815D02*
D03*
X169846D02*
D03*
X167878D02*
D03*
X288232Y179980D02*
D03*
X286264D02*
D03*
X284295D02*
D03*
X282327D02*
D03*
X280358D02*
D03*
X270516D02*
D03*
X272484D02*
D03*
X274453D02*
D03*
X276421D02*
D03*
X278390D02*
D03*
X260673D02*
D03*
X262642D02*
D03*
X264610D02*
D03*
X266579D02*
D03*
X268547D02*
D03*
Y194153D02*
D03*
X266579D02*
D03*
X264610D02*
D03*
X262642D02*
D03*
X260673D02*
D03*
X278390D02*
D03*
X276421D02*
D03*
X274453D02*
D03*
X272484D02*
D03*
X270516D02*
D03*
X280358D02*
D03*
X282327D02*
D03*
X284295D02*
D03*
X286264D02*
D03*
X288232D02*
D03*
D31*
X617587Y274638D02*
D03*
Y233299D02*
D03*
X440087Y213110D02*
D03*
Y254449D02*
D03*
X604587Y409488D02*
D03*
Y450827D02*
D03*
X599587Y504142D02*
D03*
Y545480D02*
D03*
X793913Y600732D02*
D03*
Y559394D02*
D03*
D32*
X610500Y240189D02*
D03*
Y242158D02*
D03*
Y244126D02*
D03*
Y246094D02*
D03*
Y248063D02*
D03*
Y257906D02*
D03*
Y255937D02*
D03*
Y253969D02*
D03*
Y252000D02*
D03*
Y250031D02*
D03*
Y267748D02*
D03*
Y265779D02*
D03*
Y263811D02*
D03*
Y261842D02*
D03*
Y259874D02*
D03*
X624673D02*
D03*
Y261842D02*
D03*
Y263811D02*
D03*
Y265779D02*
D03*
Y267748D02*
D03*
Y250031D02*
D03*
Y252000D02*
D03*
Y253969D02*
D03*
Y255937D02*
D03*
Y257906D02*
D03*
Y248063D02*
D03*
Y246094D02*
D03*
Y244126D02*
D03*
Y242158D02*
D03*
Y240189D02*
D03*
X447173Y247559D02*
D03*
Y245591D02*
D03*
Y243622D02*
D03*
Y241653D02*
D03*
Y239685D02*
D03*
Y229842D02*
D03*
Y231811D02*
D03*
Y233780D02*
D03*
Y235748D02*
D03*
Y237717D02*
D03*
Y220000D02*
D03*
Y221969D02*
D03*
Y223937D02*
D03*
Y225905D02*
D03*
Y227874D02*
D03*
X433000D02*
D03*
Y225905D02*
D03*
Y223937D02*
D03*
Y221969D02*
D03*
Y220000D02*
D03*
Y237717D02*
D03*
Y235748D02*
D03*
Y233780D02*
D03*
Y231811D02*
D03*
Y229842D02*
D03*
Y239685D02*
D03*
Y241653D02*
D03*
Y243622D02*
D03*
Y245591D02*
D03*
Y247559D02*
D03*
X611673Y443937D02*
D03*
Y441969D02*
D03*
Y440000D02*
D03*
Y438031D02*
D03*
Y436063D02*
D03*
Y426221D02*
D03*
Y428189D02*
D03*
Y430158D02*
D03*
Y432126D02*
D03*
Y434094D02*
D03*
Y416378D02*
D03*
Y418347D02*
D03*
Y420315D02*
D03*
Y422284D02*
D03*
Y424252D02*
D03*
X597500D02*
D03*
Y422284D02*
D03*
Y420315D02*
D03*
Y418347D02*
D03*
Y416378D02*
D03*
Y434094D02*
D03*
Y432126D02*
D03*
Y430158D02*
D03*
Y428189D02*
D03*
Y426221D02*
D03*
Y436063D02*
D03*
Y438031D02*
D03*
Y440000D02*
D03*
Y441969D02*
D03*
Y443937D02*
D03*
X606673Y538591D02*
D03*
Y536622D02*
D03*
Y534654D02*
D03*
Y532685D02*
D03*
Y530717D02*
D03*
Y520874D02*
D03*
Y522843D02*
D03*
Y524811D02*
D03*
Y526780D02*
D03*
Y528748D02*
D03*
Y511031D02*
D03*
Y513000D02*
D03*
Y514968D02*
D03*
Y516937D02*
D03*
Y518905D02*
D03*
X592500D02*
D03*
Y516937D02*
D03*
Y514968D02*
D03*
Y513000D02*
D03*
Y511031D02*
D03*
Y528748D02*
D03*
Y526780D02*
D03*
Y524811D02*
D03*
Y522843D02*
D03*
Y520874D02*
D03*
Y530717D02*
D03*
Y532685D02*
D03*
Y534654D02*
D03*
Y536622D02*
D03*
Y538591D02*
D03*
X786827Y566283D02*
D03*
Y568252D02*
D03*
Y570220D02*
D03*
Y572189D02*
D03*
Y574157D02*
D03*
Y584000D02*
D03*
Y582031D02*
D03*
Y580063D02*
D03*
Y578094D02*
D03*
Y576126D02*
D03*
Y593843D02*
D03*
Y591874D02*
D03*
Y589906D02*
D03*
Y587937D02*
D03*
Y585968D02*
D03*
X801000D02*
D03*
Y587937D02*
D03*
Y589906D02*
D03*
Y591874D02*
D03*
Y593843D02*
D03*
Y576126D02*
D03*
Y578094D02*
D03*
Y580063D02*
D03*
Y582031D02*
D03*
Y584000D02*
D03*
Y574157D02*
D03*
Y572189D02*
D03*
Y570220D02*
D03*
Y568252D02*
D03*
Y566283D02*
D03*
D33*
X825500Y367500D02*
D03*
Y339547D02*
D03*
X850500Y367500D02*
D03*
Y339547D02*
D03*
D34*
X874240Y364543D02*
D03*
X866760D02*
D03*
X870500Y357457D02*
D03*
D35*
X254000Y510547D02*
D03*
Y516453D02*
D03*
X165000Y266547D02*
D03*
Y272453D02*
D03*
X355000Y232547D02*
D03*
Y238453D02*
D03*
X355000Y498953D02*
D03*
Y493047D02*
D03*
X423500Y340047D02*
D03*
Y345953D02*
D03*
X423500Y423453D02*
D03*
Y417547D02*
D03*
X130000Y363047D02*
D03*
Y368953D02*
D03*
X165000Y459547D02*
D03*
Y465453D02*
D03*
D36*
X254000Y240587D02*
D03*
Y226413D02*
D03*
X355000Y504063D02*
D03*
Y518237D02*
D03*
Y244263D02*
D03*
Y258437D02*
D03*
X254000Y521913D02*
D03*
Y536087D02*
D03*
X280000Y388337D02*
D03*
Y374163D02*
D03*
X165100Y484787D02*
D03*
Y470613D02*
D03*
X130000Y388337D02*
D03*
Y374163D02*
D03*
X165100Y277713D02*
D03*
Y291887D02*
D03*
D37*
X413863Y329950D02*
D03*
X428037D02*
D03*
Y432550D02*
D03*
X413863D02*
D03*
D38*
X887500Y473500D02*
D03*
X882500D02*
D03*
X887500Y478500D02*
D03*
Y483500D02*
D03*
X882500Y478500D02*
D03*
Y483500D02*
D03*
D39*
X773000Y442500D02*
D03*
X775339Y444838D02*
D03*
X763000Y443000D02*
D03*
X760662Y440661D02*
D03*
X813000Y552500D02*
D03*
X815339Y554839D02*
D03*
X808500Y553000D02*
D03*
X806161Y550662D02*
D03*
D40*
X750500Y591500D02*
D03*
X748162Y593839D02*
D03*
X752162Y585839D02*
D03*
X754500Y583500D02*
D03*
D41*
X857843Y405406D02*
D03*
D42*
X848000Y399500D02*
D03*
Y411311D02*
D03*
D43*
X848787Y405406D02*
D03*
D44*
X915532Y449500D02*
D03*
X919468D02*
D03*
X522532Y465000D02*
D03*
X526469D02*
D03*
X522500Y459500D02*
D03*
X526437D02*
D03*
X793469Y460500D02*
D03*
X789532D02*
D03*
X793469Y455000D02*
D03*
X789532D02*
D03*
X777937Y460500D02*
D03*
X774000D02*
D03*
X778000Y455000D02*
D03*
X774063D02*
D03*
X627969Y423500D02*
D03*
X624031D02*
D03*
D45*
X905000Y457748D02*
D03*
X910000D02*
D03*
X915000D02*
D03*
X920000D02*
D03*
X925000D02*
D03*
X930000D02*
D03*
X935000D02*
D03*
X905000Y476252D02*
D03*
X910000D02*
D03*
X915000D02*
D03*
X920000D02*
D03*
X925000D02*
D03*
X930000D02*
D03*
X935000D02*
D03*
D46*
X807469Y359000D02*
X810000Y361531D01*
X804331Y359000D02*
X807469D01*
X345000Y493000D02*
X345047Y493047D01*
X355000D01*
X628000Y274000D02*
X629500Y272500D01*
Y268496D02*
Y272500D01*
X628752Y267748D02*
X629500Y268496D01*
X624673Y267748D02*
X628752D01*
X610500Y265779D02*
Y267748D01*
X603000Y269500D02*
Y272000D01*
Y269500D02*
X604752Y267748D01*
X610500D01*
X262000Y174500D02*
X262642Y175142D01*
X253000Y174500D02*
X262000D01*
X262642Y175142D02*
Y179980D01*
X252500Y199500D02*
X255000D01*
X249000Y196000D02*
X252500Y199500D01*
X249000Y178500D02*
Y196000D01*
Y178500D02*
X253000Y174500D01*
X523311Y587827D02*
X548673D01*
X581000Y555500D01*
X600000Y532000D02*
Y532500D01*
X599815Y532685D02*
X600000Y532500D01*
X613500Y523000D02*
X614500Y522000D01*
X618469D01*
X618500Y522031D01*
X662500Y474000D02*
X774000D01*
X632500Y409000D02*
Y413063D01*
X632469Y413031D02*
X632500Y413063D01*
X627000Y413031D02*
X632469D01*
X774063Y455000D02*
Y467937D01*
X774000Y505500D02*
Y554500D01*
Y468000D02*
X774063Y467937D01*
X255000Y199500D02*
X259500D01*
X260673Y198327D01*
Y194153D02*
Y198327D01*
X286000Y200500D02*
X286264Y200236D01*
X282000Y200500D02*
X282327Y200173D01*
X284000Y189000D02*
X284295Y189295D01*
X333000Y569000D02*
Y573000D01*
Y569000D02*
X333500Y568500D01*
X338000D01*
X523311Y602000D02*
Y606311D01*
X524811Y607811D01*
X527811D01*
X528000Y608000D01*
X523311Y587827D02*
Y602000D01*
X529500Y430000D02*
X530532Y431032D01*
Y436327D01*
X532500Y441000D02*
X533500Y442000D01*
X532500Y436327D02*
Y441000D01*
X530532Y436327D02*
X532500D01*
X538406Y431095D02*
X540000Y429500D01*
X538406Y431095D02*
Y436327D01*
X540374Y457874D02*
X540500Y458000D01*
X540374Y450500D02*
Y457874D01*
X544311Y457811D02*
X544500Y458000D01*
X544311Y450500D02*
Y457811D01*
X548248Y457748D02*
X548500Y458000D01*
X548248Y450500D02*
Y457748D01*
X552185Y457685D02*
X552500Y458000D01*
X552185Y450500D02*
Y457685D01*
Y450500D02*
X554154D01*
X550217D02*
X552185D01*
X548248D02*
X550217D01*
X546279D02*
X548248D01*
X544311D02*
X546279D01*
X542343D02*
X544311D01*
X540374D02*
X542343D01*
X863248Y178173D02*
X865217D01*
X861279D02*
X863248D01*
X857343Y164000D02*
Y173158D01*
X855374Y164000D02*
X857343D01*
X853405D02*
X855374D01*
X851437D02*
X853405D01*
X849469D02*
X851437D01*
X847500D02*
X849469D01*
X845531D02*
X847500D01*
X843563D02*
X845531D01*
X841595D02*
X843563D01*
X839626D02*
X841595D01*
X837658D02*
X839626D01*
X610500Y246094D02*
Y248063D01*
Y244126D02*
Y246094D01*
Y242158D02*
Y244126D01*
Y240189D02*
Y242158D01*
X624673Y257906D02*
Y259874D01*
Y255937D02*
Y257906D01*
Y253969D02*
Y255937D01*
Y252000D02*
Y253969D01*
Y250031D02*
Y252000D01*
Y248063D02*
Y250031D01*
Y246094D02*
Y248063D01*
Y244126D02*
Y246094D01*
Y242158D02*
Y244126D01*
Y240189D02*
Y242158D01*
X447173Y221969D02*
Y223937D01*
Y220000D02*
Y221969D01*
X433000Y245591D02*
Y247559D01*
Y243622D02*
Y245591D01*
Y241653D02*
Y243622D01*
Y239685D02*
Y241653D01*
Y237717D02*
Y239685D01*
Y235748D02*
Y237717D01*
X274453Y179980D02*
X276421D01*
X272484D02*
X274453D01*
X270516D02*
X272484D01*
X268547D02*
X270516D01*
X266579D02*
X268547D01*
X264610D02*
X266579D01*
X286264Y194153D02*
X288232D01*
X284295D02*
X286264D01*
X282327D02*
X284295D01*
X280358D02*
X282327D01*
X278390D02*
X280358D01*
X276421D02*
X278390D01*
X274453D02*
X276421D01*
X272484D02*
X274453D01*
X270516D02*
X272484D01*
X268547D02*
X270516D01*
X175752Y395000D02*
Y403748D01*
X185594Y395000D02*
X187563D01*
X183626D02*
X185594D01*
X181658D02*
X183626D01*
X179689D02*
X181658D01*
X177720D02*
X179689D01*
X175752D02*
X177720D01*
X173783D02*
X175752D01*
X171815D02*
X173783D01*
X169846D02*
X171815D01*
X167878D02*
X169846D01*
X323158Y573000D02*
X325126D01*
X321189D02*
X323158D01*
X319220D02*
X321189D01*
X317252D02*
X319220D01*
X315283D02*
X317252D01*
X313315D02*
X315283D01*
X311347D02*
X313315D01*
X309378D02*
X311347D01*
X307409D02*
X309378D01*
X305441D02*
X307409D01*
X331031Y587173D02*
X333000D01*
X329063D02*
X331031D01*
X311347D02*
X313315D01*
X309378D02*
X311347D01*
X307409D02*
X309378D01*
X305441D02*
X307409D01*
X515437Y593437D02*
Y602000D01*
X519374D02*
X521343D01*
X517406D02*
X519374D01*
X515437D02*
X517406D01*
X513469D02*
X515437D01*
X511500D02*
X513469D01*
X509531D02*
X511500D01*
X507563D02*
X509531D01*
X606673Y536622D02*
Y538591D01*
X801000Y587937D02*
Y589906D01*
Y585968D02*
Y587937D01*
X798654Y417827D02*
X800622D01*
X796685D02*
X798654D01*
X794717D02*
X796685D01*
X792748D02*
X794717D01*
X790779D02*
X792748D01*
X788811D02*
X790779D01*
X786842D02*
X788811D01*
X784874D02*
X786842D01*
X782905D02*
X784874D01*
X780937D02*
X782905D01*
X778968D02*
X780937D01*
X777000D02*
X778968D01*
X775032D02*
X777000D01*
X773063D02*
X775032D01*
X513469Y587827D02*
X515437D01*
X511500D02*
X513469D01*
X509531D02*
X511500D01*
X507563D02*
X509531D01*
X505594D02*
X507563D01*
X503626D02*
X505594D01*
X501657D02*
X503626D01*
X499689D02*
X501657D01*
X497720D02*
X499689D01*
X495752D02*
X497720D01*
X511500Y593500D02*
Y597000D01*
X849469Y169468D02*
Y173031D01*
X845500Y169500D02*
X845531Y169532D01*
X841500Y173000D02*
X841595Y172906D01*
Y164000D02*
Y172906D01*
X591500Y430000D02*
X591657Y430158D01*
X597500D01*
Y424252D02*
Y426221D01*
Y422284D02*
Y424252D01*
Y420315D02*
Y422284D01*
Y418347D02*
Y420315D01*
Y416378D02*
Y418347D01*
X433000Y227874D02*
Y229842D01*
Y225905D02*
Y227874D01*
Y223937D02*
Y225905D01*
Y221969D02*
Y223937D01*
Y220000D02*
Y221969D01*
X786827Y568252D02*
Y570220D01*
Y566283D02*
Y568252D01*
X592500Y536622D02*
Y538591D01*
Y534654D02*
Y536622D01*
Y532685D02*
Y534654D01*
Y530717D02*
Y532685D01*
Y528748D02*
Y530717D01*
Y526780D02*
Y528748D01*
X597500Y441969D02*
Y443937D01*
Y440000D02*
Y441969D01*
Y438031D02*
Y440000D01*
Y436063D02*
Y438031D01*
Y434094D02*
Y436063D01*
Y432126D02*
Y434094D01*
Y430158D02*
Y432126D01*
Y428189D02*
Y430158D01*
X611673D02*
Y432126D01*
Y428189D02*
Y430158D01*
X618690Y428190D02*
X619000Y428500D01*
Y432000D01*
X309378Y580122D02*
X311000Y578500D01*
X588500Y437500D02*
X589032Y438031D01*
X593063Y436063D02*
X597500D01*
X592594Y435595D02*
X593063Y436063D01*
X592594Y434094D02*
Y435595D01*
X272484Y185984D02*
Y189016D01*
X183500Y403500D02*
X183626Y403374D01*
Y395000D02*
Y403374D01*
X179500Y403500D02*
X179689Y403311D01*
Y395000D02*
Y403311D01*
X589032Y438031D02*
X597500D01*
X590500Y441500D02*
X592000Y440000D01*
X597500D01*
X591500Y444000D02*
Y444500D01*
Y444000D02*
X593531Y441969D01*
X597500D01*
X602437Y443937D02*
X603500Y445000D01*
X597500Y443937D02*
X602437D01*
X592594Y434094D02*
X597500D01*
X606500Y430500D02*
X606843Y430158D01*
X611673D01*
X618874Y432126D02*
X619000Y432000D01*
X611673Y432126D02*
X618874D01*
X611674Y428190D02*
X618690D01*
X611673Y428189D02*
X611674Y428190D01*
X585000Y530500D02*
X586500Y529000D01*
Y526500D02*
Y529000D01*
Y526500D02*
X588189Y524811D01*
X592500D01*
X587500Y531000D02*
X588000Y530500D01*
Y527500D02*
Y530500D01*
Y527500D02*
X588721Y526780D01*
X592500D01*
X599000Y507500D02*
Y511000D01*
X597000Y513000D02*
X599000Y511000D01*
X592500Y513000D02*
X597000D01*
X592500Y524811D02*
Y526780D01*
Y522843D02*
Y524811D01*
Y520874D02*
Y522843D01*
Y518905D02*
Y520874D01*
Y516937D02*
Y518905D01*
Y514968D02*
Y516937D01*
Y513000D02*
Y514968D01*
Y511031D02*
Y513000D01*
Y508000D02*
X593500Y507000D01*
X592500Y508000D02*
Y511031D01*
X597909Y538591D02*
X598000Y538500D01*
X592500Y538591D02*
X597909D01*
X599878Y536622D02*
X600000Y536500D01*
X592500Y536622D02*
X599878D01*
X592500Y532685D02*
X599815D01*
X600000Y529500D02*
Y530000D01*
X599248Y528748D02*
X600000Y529500D01*
X592500Y528748D02*
X599248D01*
X612000Y540500D02*
Y541000D01*
X610091Y538591D02*
X612000Y540500D01*
X606673Y538591D02*
X610091D01*
X611622Y536622D02*
X613000Y538000D01*
X606673Y536622D02*
X611622D01*
X437716Y237717D02*
X439000Y239000D01*
X433000Y237717D02*
X437716D01*
X438654Y241653D02*
X439000Y242000D01*
X433000Y241653D02*
X438654D01*
X438591Y245591D02*
X439000Y246000D01*
X433000Y245591D02*
X438591D01*
X426000Y247500D02*
X426059Y247559D01*
X433000D01*
X426000Y243500D02*
X426122Y243622D01*
X433000D01*
X426000Y239500D02*
X426185Y239685D01*
X433000D01*
X426000Y235500D02*
X426248Y235748D01*
X433000D01*
X441500Y220000D02*
X447173D01*
X453469Y221969D02*
X453500Y222000D01*
X447173Y221969D02*
X453469D01*
X441500Y223500D02*
X441937Y223937D01*
X447173D01*
X441000Y227000D02*
X441500Y226500D01*
X441000Y227000D02*
Y227969D01*
X442874Y229842D01*
X447173D01*
X274453Y174047D02*
X274500Y174000D01*
X274453Y174047D02*
Y179980D01*
X266500Y174000D02*
X266579Y174079D01*
Y179980D01*
X270500Y174000D02*
X270516Y174016D01*
Y179980D01*
X260673Y185673D02*
X261000Y186000D01*
X260673Y179980D02*
Y185673D01*
X264500Y186000D02*
X264610Y185890D01*
Y179980D02*
Y185890D01*
X268500Y186000D02*
X268547Y185953D01*
Y179980D02*
Y185953D01*
X272484Y185984D02*
X272500Y186000D01*
X272484Y179980D02*
Y185984D01*
Y189016D02*
X272500Y189000D01*
X276421Y185921D02*
X276500Y186000D01*
X276421Y179980D02*
Y185921D01*
X286264Y194153D02*
Y200236D01*
X282327Y194153D02*
Y200173D01*
X278000Y200500D02*
X278390Y200110D01*
Y194153D02*
Y200110D01*
X274453Y194153D02*
Y200453D01*
X270516Y200016D02*
X271000Y200500D01*
X270516Y194153D02*
Y200016D01*
X288000Y189000D02*
X288232Y189232D01*
Y194153D01*
X284295Y189295D02*
Y194153D01*
X280000Y189000D02*
X280358Y189358D01*
Y194153D01*
X276421Y189079D02*
X276500Y189000D01*
X276421Y189079D02*
Y194153D01*
X272484Y189016D02*
Y194153D01*
X268500Y189000D02*
X268547Y189047D01*
Y194153D01*
X185000Y389000D02*
X185594Y389595D01*
Y395000D01*
X181500Y389000D02*
X181658Y389158D01*
Y395000D01*
X177500Y389000D02*
X177720Y389220D01*
Y395000D01*
X173500Y389000D02*
X173783Y389283D01*
Y395000D01*
X169500Y389000D02*
X169846Y389346D01*
Y395000D01*
X167878Y399878D02*
X168500Y400500D01*
X167878Y395000D02*
Y399878D01*
X171815Y400315D02*
X172000Y400500D01*
X171815Y395000D02*
Y400315D01*
X187500Y400500D02*
X187563Y400437D01*
Y395000D02*
Y400437D01*
X193468Y414468D02*
X193500Y414500D01*
X193468Y409173D02*
Y414468D01*
X195437Y403563D02*
X195500Y403500D01*
X195437Y403563D02*
Y409173D01*
X191500Y403500D02*
Y409173D01*
X191500Y409173D02*
X191500Y409173D01*
X187500Y403500D02*
X187563Y403563D01*
Y409173D01*
X183500Y403500D02*
X183626Y403626D01*
Y409173D01*
X179500Y403500D02*
X179689Y403689D01*
Y409173D01*
X175752Y403748D02*
X176000Y403500D01*
X175752Y403748D02*
Y409173D01*
X171815Y403685D02*
X172000Y403500D01*
X171815Y403685D02*
Y409173D01*
X167000Y415000D02*
X167878Y414122D01*
Y409173D02*
Y414122D01*
X323000Y578500D02*
X323158Y578342D01*
Y573000D02*
Y578342D01*
X319000Y578500D02*
X319220Y578279D01*
Y573000D02*
Y578279D01*
X315000Y578500D02*
X315283Y578217D01*
Y573000D02*
Y578217D01*
X311000Y578500D02*
X311347Y578154D01*
Y573000D02*
Y578154D01*
X307409Y578409D02*
X307500Y578500D01*
X307409Y573000D02*
Y578409D01*
X305441Y568059D02*
X306000Y567500D01*
X305441Y568059D02*
Y573000D01*
X309378Y568122D02*
X310000Y567500D01*
X309378Y568122D02*
Y573000D01*
X313315Y568185D02*
X314000Y567500D01*
X313315Y568185D02*
Y573000D01*
X317252Y567748D02*
X317500Y567500D01*
X317252Y567748D02*
Y573000D01*
X321189Y567811D02*
X321500Y567500D01*
X321189Y567811D02*
Y573000D01*
X325126Y567874D02*
X325500Y567500D01*
X325126Y567874D02*
Y573000D01*
X309378Y580122D02*
Y587173D01*
X305441Y582059D02*
X305500Y582000D01*
X305441Y582059D02*
Y587173D01*
X313315Y582185D02*
X313500Y582000D01*
X313315Y582185D02*
Y587173D01*
X307409Y592909D02*
X308000Y593500D01*
X307409Y587173D02*
Y592909D01*
X311347Y593347D02*
X311500Y593500D01*
X311347Y587173D02*
Y593347D01*
X334000Y593000D02*
Y593500D01*
X333000Y592000D02*
X334000Y593000D01*
X333000Y587173D02*
Y592000D01*
X331000Y593500D02*
X331031Y593469D01*
Y587173D02*
Y593469D01*
X326500Y581500D02*
X327500D01*
X329063Y583063D01*
Y587173D01*
X513469Y582031D02*
Y587827D01*
X509500Y582000D02*
X509531Y582031D01*
Y587827D01*
X505594Y582094D02*
Y587827D01*
X497500Y582000D02*
X497720Y582220D01*
Y587827D01*
X495752Y593252D02*
X496000Y593500D01*
X495752Y587827D02*
Y593252D01*
X499689Y593189D02*
X500000Y593500D01*
X499689Y587827D02*
Y593189D01*
X503626Y593126D02*
X504000Y593500D01*
X503626Y587827D02*
Y593126D01*
X507563Y587827D02*
Y593437D01*
X511500Y593500D02*
X511500Y593500D01*
X511500Y587827D02*
Y593500D01*
X515437Y593437D02*
X515500Y593500D01*
X515437Y587827D02*
Y593437D01*
X521000Y608000D02*
X521343Y607657D01*
Y602000D02*
Y607657D01*
X517000Y608000D02*
X517406Y607594D01*
Y602000D02*
Y607594D01*
X513500Y602032D02*
Y608000D01*
X513469Y602000D02*
X513500Y602032D01*
X509500Y608000D02*
X509531Y607969D01*
Y602000D02*
Y607969D01*
X519374Y597126D02*
X519500Y597000D01*
X519374Y597126D02*
Y602000D01*
X511500Y597000D02*
X511500Y597000D01*
X511500Y597000D02*
Y602000D01*
X507563Y593437D02*
Y602000D01*
X791717Y566283D02*
X792500Y565500D01*
X786827Y566283D02*
X791717D01*
X793780Y570220D02*
X794000Y570000D01*
X786827Y570220D02*
X793780D01*
X794500Y590500D02*
X795094Y589906D01*
X801000D01*
X793500Y587500D02*
X793937Y587937D01*
X801000D01*
X794500Y584000D02*
Y584500D01*
X795968Y585968D01*
X801000D01*
X798654Y412154D02*
Y417827D01*
X790500Y412000D02*
X790779Y412280D01*
Y417827D01*
X786500Y412000D02*
X786842Y412343D01*
Y417827D01*
X782500Y412000D02*
X782905Y412405D01*
Y417827D01*
X778968Y412032D02*
X779000Y412000D01*
X778968Y412032D02*
Y417827D01*
X775000Y412000D02*
X775032Y412032D01*
Y417827D01*
X773063Y422563D02*
X773500Y423000D01*
X773063Y417827D02*
Y422563D01*
X777000Y422500D02*
X777500Y423000D01*
X777000Y417827D02*
Y422500D01*
X780937Y422937D02*
X781000Y423000D01*
X780937Y417827D02*
Y422937D01*
X784874Y422874D02*
X785000Y423000D01*
X784874Y417827D02*
Y422874D01*
X788811Y422811D02*
X789000Y423000D01*
X788811Y417827D02*
Y422811D01*
X792748Y422748D02*
X793000Y423000D01*
X792748Y417827D02*
Y422748D01*
X796685Y422685D02*
X797000Y423000D01*
X796685Y417827D02*
Y422685D01*
X800500Y423000D02*
X800622Y422878D01*
Y417827D02*
Y422878D01*
X837500Y169500D02*
X837658Y169343D01*
Y164000D02*
Y169343D01*
X839500Y158000D02*
X839626Y158126D01*
Y164000D01*
X843500Y158000D02*
X843563Y158063D01*
Y164000D01*
X845500Y169500D02*
X845531Y169468D01*
Y164000D02*
Y169468D01*
X847500Y158000D02*
Y164000D01*
X849469Y169468D02*
X849500Y169500D01*
X849469Y164000D02*
Y169468D01*
X851437Y158063D02*
X851500Y158000D01*
X851437Y158063D02*
Y164000D01*
X853405Y169405D02*
X853500Y169500D01*
X853405Y164000D02*
Y169405D01*
X855374Y158126D02*
X855500Y158000D01*
X855374Y158126D02*
Y164000D01*
X861000Y170000D02*
X861279Y169720D01*
X865000Y170000D02*
X865217Y169783D01*
X861279Y164000D02*
Y169720D01*
X865217Y182717D02*
X866000Y183500D01*
X865217Y178173D02*
Y182717D01*
X863248Y178173D02*
Y184748D01*
X861279Y186779D02*
X862000Y187500D01*
X861279Y178173D02*
Y186779D01*
X857343Y173158D02*
X857500Y173000D01*
X857343Y173158D02*
Y178173D01*
X853405Y169405D02*
Y178173D01*
X849469Y173031D02*
X849500Y173000D01*
X849469Y173031D02*
Y178173D01*
X845531Y169532D02*
Y178173D01*
X841500Y173000D02*
X841595Y173094D01*
Y178173D01*
X631311Y240189D02*
X632000Y239500D01*
X624673Y240189D02*
X631311D01*
X632342Y242158D02*
X632500Y242000D01*
X624673Y242158D02*
X632342D01*
X631126Y244126D02*
X632000Y245000D01*
X624673Y244126D02*
X631126D01*
X618000Y247500D02*
X619406Y246094D01*
X619468Y250031D02*
X624673D01*
X618000Y251500D02*
X619468Y250031D01*
X619406Y246094D02*
X624673D01*
X631063Y248063D02*
X632000Y249000D01*
X624673Y248063D02*
X631063D01*
X618000Y251500D02*
Y252000D01*
X624673D02*
X632000D01*
X631000Y256000D02*
X631500D01*
X628968Y253969D02*
X631000Y256000D01*
X624673Y253969D02*
X628968D01*
X617500Y256500D02*
X618063Y255937D01*
X624673D01*
X618000Y259500D02*
X619594Y257906D01*
X624673D01*
Y259874D02*
X632626D01*
X614811Y240189D02*
X615500Y239500D01*
X610500Y240189D02*
X614811D01*
X603000Y241000D02*
X604157Y242158D01*
X610500D01*
X602500Y244000D02*
X602626Y244126D01*
X610500D01*
X599500Y247000D02*
X600406Y246094D01*
X610500D01*
X601000Y249000D02*
X601937Y248063D01*
X610500D01*
X601000Y264000D02*
X601189Y263811D01*
X610500D01*
X589252Y424252D02*
X597500D01*
X589000Y424000D02*
X589252Y424252D01*
X589500Y427000D02*
X590279Y426221D01*
X597500D01*
X591000Y421000D02*
X591685Y420315D01*
X597500D01*
X589500Y419000D02*
X590154Y418347D01*
X597500D01*
X587500Y417000D02*
X588122Y416378D01*
X597500D01*
X556000Y430500D02*
X556122Y430622D01*
Y436327D01*
X554154Y441154D02*
X554500Y441500D01*
X554154Y436327D02*
Y441154D01*
X551000Y430500D02*
X551370D01*
X548248Y431748D02*
Y436327D01*
X547000Y430500D02*
X548248Y431748D01*
X552185Y431315D02*
Y436327D01*
X551370Y430500D02*
X552185Y431315D01*
X550000Y441500D02*
X550217Y441283D01*
Y436327D02*
Y441283D01*
X546279Y441280D02*
X546500Y441500D01*
X546279Y436327D02*
Y441280D01*
X195437Y390063D02*
X196000Y389500D01*
X195437Y390063D02*
Y395000D01*
X193468Y387032D02*
X194000Y386500D01*
X193468Y387032D02*
Y395000D01*
X191500Y387500D02*
Y395000D01*
X189532Y389531D02*
Y395000D01*
X188500Y388500D02*
X189532Y389531D01*
X427000Y219500D02*
X427500Y220000D01*
X433000D01*
X424000Y224000D02*
X424063Y223937D01*
X433000D01*
X425500Y228500D02*
X426126Y227874D01*
X433000D01*
X426500Y231000D02*
X427658Y229842D01*
X433000D01*
X865217Y164000D02*
Y169783D01*
X863000Y158000D02*
X863248Y158248D01*
Y164000D01*
X859311Y158189D02*
X859500Y158000D01*
X859311Y158189D02*
Y164000D01*
D47*
X810000Y365469D02*
Y371500D01*
X774296Y484300D02*
X781206Y477390D01*
X775000Y486000D02*
X782905Y478094D01*
X775704Y487700D02*
X784874Y478530D01*
X776600Y489400D02*
X786574Y479426D01*
X777304Y491100D02*
X788274Y480130D01*
X778008Y492800D02*
X789974Y480834D01*
X778713Y494500D02*
X791674Y481538D01*
X779417Y496200D02*
X793374Y482243D01*
X780600Y497900D02*
X815000Y463500D01*
X781304Y499600D02*
X815704Y465200D01*
X781206Y465205D02*
Y477390D01*
X656800Y484300D02*
X774296D01*
X652500Y486000D02*
X775000D01*
X782905Y432000D02*
Y478094D01*
X653800Y487700D02*
X775704D01*
X655600Y489400D02*
X776600D01*
X657400Y491100D02*
X777304D01*
X660700Y492800D02*
X778008D01*
X662500Y494500D02*
X778713D01*
X663770Y496200D02*
X779417D01*
X664474Y497900D02*
X780600D01*
X666900Y499600D02*
X781304D01*
X784874Y432000D02*
Y478530D01*
X786574Y463457D02*
Y479426D01*
X788274Y467226D02*
Y480130D01*
X789974Y470026D02*
Y480834D01*
X791674Y470730D02*
Y481538D01*
X793374Y472430D02*
Y482243D01*
X781500Y555500D02*
X800000D01*
X780200Y556800D02*
X781500Y555500D01*
X758725Y556800D02*
X780200D01*
X754500Y541000D02*
X755000Y541500D01*
X752500Y543500D02*
X752600Y543600D01*
X750500Y545500D02*
Y546500D01*
X754400Y545100D02*
Y552475D01*
Y545100D02*
X755000Y544500D01*
X777937Y460500D02*
Y467563D01*
X774900Y470600D02*
X777937Y467563D01*
X655900Y470600D02*
X774900D01*
X721300Y654200D02*
X781658Y593843D01*
X462700Y654200D02*
X721300D01*
X430500Y622000D02*
X462700Y654200D01*
X718500Y652500D02*
X723500Y647500D01*
X463500Y652500D02*
X718500D01*
X431300Y620300D02*
X463500Y652500D01*
X273300Y620300D02*
X431300D01*
X272000Y622000D02*
X430500D01*
X768500Y573000D02*
Y578031D01*
X812500Y559000D02*
X813000Y559500D01*
Y563531D01*
X297831Y398331D02*
X298000Y398500D01*
X297831Y391740D02*
Y398331D01*
X265968Y207469D02*
X266500Y208000D01*
X262500Y207469D02*
X265968D01*
X632500Y276500D02*
X633000Y276000D01*
Y272437D02*
Y276000D01*
X538400Y465283D02*
X542417Y469300D01*
X538400Y450505D02*
Y465283D01*
Y450505D02*
X538406Y450500D01*
X604400Y440400D02*
X605969Y441969D01*
X604400Y428100D02*
X605000Y427500D01*
X604400Y428100D02*
Y440400D01*
X611679Y434100D02*
X619004D01*
X611673Y434094D02*
X611679Y434100D01*
X619004D02*
X625700Y440796D01*
X369260Y273240D02*
X369500Y273000D01*
X363331Y273240D02*
X369260D01*
X277760Y244240D02*
X278500Y243500D01*
X271161Y244240D02*
X277760D01*
X155972Y295528D02*
X156500Y295000D01*
X155972Y295528D02*
Y301760D01*
X138500Y409500D02*
X138831Y409169D01*
Y402740D02*
Y409169D01*
X189260Y488240D02*
X189500Y488000D01*
X183831Y488240D02*
X189260D01*
X277260Y539740D02*
X277500Y539500D01*
X271331Y539740D02*
X277260D01*
X331000Y556000D02*
Y560532D01*
X522500Y571000D02*
Y575032D01*
X629500Y539468D02*
Y544000D01*
X624000Y539468D02*
Y544000D01*
X618500Y539468D02*
Y544000D01*
X624000Y518000D02*
X624500Y517500D01*
X624000Y518000D02*
Y522031D01*
X517000Y459500D02*
X522500D01*
X517000Y465000D02*
X522532D01*
X627969Y426968D02*
X628000Y427000D01*
X627969Y423500D02*
Y426968D01*
X758000Y438000D02*
X760662Y440661D01*
X773000Y447177D02*
Y447500D01*
Y447177D02*
X775339Y444838D01*
X793469Y460500D02*
X800500D01*
X793469Y455000D02*
X800500D01*
X889000Y457500D02*
X889000Y457500D01*
X893532D01*
X757000Y586000D02*
X757500D01*
X754500Y583500D02*
X757000Y586000D01*
X746000Y596000D02*
X748162Y593839D01*
X804000Y548500D02*
X806161Y550662D01*
X815339Y554839D02*
X817500Y557000D01*
X824000Y560000D02*
Y563531D01*
X818500Y560000D02*
Y563531D01*
X819000Y589500D02*
Y594000D01*
X813500Y589468D02*
Y594000D01*
X774000Y573500D02*
X774500Y573000D01*
X774000Y573500D02*
Y578031D01*
X760500Y572000D02*
X763500Y575000D01*
Y578000D01*
X433500Y214000D02*
X439000Y219500D01*
X222500Y214000D02*
X433500D01*
X439000Y219500D02*
Y228500D01*
X442311Y231811D01*
X624805Y261974D02*
X636369D01*
X636500Y261842D01*
X624673D02*
X624805Y261974D01*
X254000Y506500D02*
Y510547D01*
X254000Y510547D02*
X254000Y510547D01*
X164500Y455500D02*
X165000Y456000D01*
Y459547D01*
X130000Y357500D02*
X130000Y357500D01*
X130000Y357500D02*
Y363047D01*
X170547Y266547D02*
X171000Y267000D01*
X165000Y266547D02*
X170547D01*
X245000Y224047D02*
Y226000D01*
Y224047D02*
X248047Y221000D01*
X355000Y232547D02*
X360047D01*
Y232953D01*
X787000Y386500D02*
Y390500D01*
X782000Y395500D02*
X787000Y390500D01*
X634000Y395500D02*
X782000D01*
X619500Y395000D02*
X620100Y395600D01*
Y411400D01*
X618600Y412900D02*
X620100Y411400D01*
X613482Y412900D02*
X618600D01*
X611673Y414709D02*
X613482Y412900D01*
X611673Y414709D02*
Y416378D01*
X758646Y349646D02*
Y355500D01*
X756000Y347000D02*
X758646Y349646D01*
X749953Y347000D02*
X756000D01*
X731953Y372000D02*
Y384000D01*
X731953Y372000D02*
X731953Y372000D01*
X731953Y372000D02*
X733453Y370500D01*
X739354D01*
X731000Y365756D02*
X731256Y365500D01*
X739354D01*
X758500Y377850D02*
X758646Y377705D01*
Y370500D02*
Y377705D01*
X803240Y370276D02*
X810000D01*
Y334500D02*
Y348410D01*
X795669Y362740D02*
X810000Y348410D01*
Y334500D02*
X816500Y328000D01*
X950500D01*
X959000Y336500D01*
Y466000D01*
X948748Y476252D02*
X959000Y466000D01*
X935000Y476252D02*
X948748D01*
X816311Y411311D02*
X848000D01*
X803500Y398500D02*
X816311Y411311D01*
X639000Y398500D02*
X803500D01*
X870850Y372500D02*
X874000Y369350D01*
Y364784D02*
Y369350D01*
Y364784D02*
X874240Y364543D01*
X875421Y365724D01*
X885760D01*
X610500Y404000D02*
X615500Y399000D01*
X573000Y404000D02*
X610500D01*
X572900Y404100D02*
X573000Y404000D01*
X571592Y404100D02*
X572900D01*
X570092Y405600D02*
X571592Y404100D01*
X437600Y405600D02*
X570092D01*
X435500Y403500D02*
X437600Y405600D01*
X348500Y403500D02*
X419500D01*
X319500Y374500D02*
X348500Y403500D01*
X294953Y374500D02*
X319500D01*
X423500Y417547D02*
X423500Y417547D01*
X280000Y374163D02*
X280337Y374500D01*
X289047D01*
X897468Y457500D02*
X897500Y457469D01*
Y438000D02*
Y457469D01*
X856000Y428500D02*
X897500D01*
X852032Y424532D02*
X856000Y428500D01*
X852032Y418500D02*
Y424532D01*
X849500Y418500D02*
X852032D01*
X848000Y417000D02*
X849500Y418500D01*
X848000Y411311D02*
Y417000D01*
X413863Y329950D02*
Y335863D01*
X418047Y340047D01*
X423500D01*
X413863Y426637D02*
Y432550D01*
Y426637D02*
X417047Y423453D01*
X423500D01*
X800622Y433500D02*
X813000D01*
X800622Y432000D02*
Y433500D01*
X813000D02*
X817500Y438000D01*
Y460500D01*
Y469000D02*
X834000Y485500D01*
X868500D01*
X880000Y497000D01*
X909500D01*
X920000Y486500D01*
Y476252D02*
Y486500D01*
X794717Y426783D02*
Y432000D01*
Y426783D02*
X795500Y426000D01*
X800500D01*
X806300Y431800D01*
X927704D01*
X928192Y432288D01*
X925000Y436500D02*
Y457748D01*
X923700Y435200D02*
X925000Y436500D01*
X866204Y435200D02*
X923700D01*
X928192Y432288D02*
X928288D01*
X935000Y439000D01*
Y445532D01*
Y449469D02*
Y457748D01*
X646500Y504500D02*
Y540000D01*
Y454000D02*
Y504500D01*
X644000D02*
X646500D01*
X661000D02*
X662000D01*
X666900Y499600D01*
X657000Y497500D02*
X662470D01*
X652000Y492500D02*
X657000Y497500D01*
X649900Y470130D02*
Y494400D01*
X648200Y456800D02*
Y500500D01*
X654000Y498500D02*
Y537308D01*
X649900Y494400D02*
X654000Y498500D01*
X636192Y492000D02*
X644000D01*
X815704Y465200D02*
X836204D01*
X866204Y435200D01*
X648200Y500500D02*
Y540704D01*
X930000Y436500D02*
Y457748D01*
X927000Y433500D02*
X930000Y436500D01*
X865500Y433500D02*
X927000D01*
X835500Y463500D02*
X865500Y433500D01*
X815000Y463500D02*
X835500D01*
X661874Y500500D02*
X664474Y497900D01*
X661500Y500500D02*
X661874D01*
X648200D02*
X650000D01*
X635408Y555900D02*
X654000Y537308D01*
X925000Y476252D02*
Y573000D01*
X850500Y647500D02*
X925000Y573000D01*
X733000Y647500D02*
X850500D01*
X750874Y591874D02*
X786827D01*
X756228Y589906D02*
X786827D01*
X764937Y587937D02*
X786827D01*
X769468Y585968D02*
X786827D01*
X237000Y584000D02*
X273300Y620300D01*
X237000Y488000D02*
Y584000D01*
X253000Y471500D02*
X264000D01*
X304760Y430740D01*
Y384260D02*
Y430740D01*
X297831Y384260D02*
X304760D01*
X288833Y388337D02*
X289169Y388000D01*
X280000Y388337D02*
X288833D01*
X880500Y471500D02*
X882500Y473500D01*
X880500Y466500D02*
Y471500D01*
Y466500D02*
X883500Y463500D01*
X895500D01*
X897468Y461531D01*
Y457500D02*
Y461531D01*
X905000Y451000D02*
Y457748D01*
Y451000D02*
X906500Y449500D01*
X915532D01*
X920000Y450032D02*
Y457748D01*
X919468Y449500D02*
X920000Y450032D01*
Y457748D02*
Y463500D01*
X915500Y468000D02*
X920000Y463500D01*
X893000Y468000D02*
X915500D01*
X887500Y473500D02*
X893000Y468000D01*
X897468Y457500D02*
X897717Y457748D01*
X905000D01*
X910000Y476252D02*
Y481000D01*
X909200Y481800D02*
X910000Y481000D01*
X900300Y481800D02*
X909200D01*
X878000Y478500D02*
X882500D01*
X899000Y480500D02*
X900300Y481800D01*
X878000Y478500D02*
X878500Y478000D01*
X887500Y483500D02*
X913500D01*
X915000Y482000D01*
Y476252D02*
Y482000D01*
X887500Y478500D02*
X889748Y476252D01*
X905000D01*
X624673Y265779D02*
X633000D01*
X801000Y556500D02*
Y566283D01*
X800000Y555500D02*
X801000Y556500D01*
X792189Y572189D02*
X795000Y575000D01*
X754400Y552475D02*
X758725Y556800D01*
X755000Y541500D02*
Y544500D01*
X626900Y307400D02*
X628000Y308500D01*
X626900Y290504D02*
Y307400D01*
Y290504D02*
X638200Y279204D01*
Y265300D02*
Y279204D01*
Y265300D02*
X639000Y264500D01*
X639500D01*
X633000D02*
Y265779D01*
X758021Y558500D02*
X781500D01*
X757317Y560200D02*
X778700D01*
X756612Y561900D02*
X776400D01*
X755908Y563600D02*
X775696D01*
X755204Y565300D02*
X774992D01*
X754500Y567000D02*
X774288D01*
X752700Y553179D02*
X758021Y558500D01*
X751000Y553883D02*
X757317Y560200D01*
X748500Y553788D02*
X756612Y561900D01*
X746700Y554392D02*
X755908Y563600D01*
X745000Y555096D02*
X755204Y565300D01*
X742500Y555000D02*
X754500Y567000D01*
X633000Y265779D02*
Y268500D01*
X859000Y196000D02*
X859311Y195689D01*
Y178173D02*
Y195689D01*
X812156Y571345D02*
X813000Y570500D01*
X811311Y572189D02*
X812156Y571345D01*
X852500Y493500D02*
X859000D01*
X848000Y496000D02*
X857000D01*
X854000Y498000D02*
X855000Y499000D01*
X852500Y501000D02*
X853746Y502246D01*
X849500Y501702D02*
X852046Y504248D01*
X847000Y499500D02*
X848500Y498000D01*
X854000D01*
X859030Y490500D02*
X860500D01*
X861600Y488400D02*
X862000Y488000D01*
X848388Y488400D02*
X861600D01*
X840200Y496588D02*
X848388Y488400D01*
X840200Y496588D02*
Y505317D01*
X843546Y508663D01*
Y563954D01*
X841900Y504612D02*
X845246Y507958D01*
X843600Y503908D02*
X846946Y507254D01*
X845300Y503204D02*
X848646Y506550D01*
X847000Y502500D02*
X850346Y505846D01*
X847000Y499500D02*
Y502500D01*
X845246Y507958D02*
Y564850D01*
X846946Y507254D02*
Y565554D01*
X848646Y506550D02*
Y578000D01*
X850346Y505846D02*
Y584346D01*
X843431Y564069D02*
X843546Y563954D01*
X834569Y564069D02*
X843431D01*
X843600Y497996D02*
Y503908D01*
X845300Y498700D02*
Y503204D01*
X832500Y562000D02*
X834569Y564069D01*
X831000Y562000D02*
X832500D01*
X813000Y567469D02*
Y570500D01*
X801000Y572189D02*
X811311D01*
X855374Y195874D02*
X855500Y196000D01*
X855374Y178173D02*
Y195874D01*
X857730Y491800D02*
X859030Y490500D01*
X851796Y491800D02*
X857730D01*
X850996Y492600D02*
X851796Y491800D01*
X846592Y492600D02*
X850996D01*
X841900Y497292D02*
X846592Y492600D01*
X841900Y497292D02*
Y504612D01*
X844327Y565768D02*
X845246Y564850D01*
X831769Y565768D02*
X844327D01*
X831000Y565000D02*
X831769Y565768D01*
X818500Y567469D02*
Y572500D01*
X816842Y574157D02*
X818500Y572500D01*
X801000Y574157D02*
X816842D01*
X851437Y178173D02*
X851500Y178236D01*
Y196000D01*
X851700Y494300D02*
X852500Y493500D01*
X847296Y494300D02*
X851700D01*
X843600Y497996D02*
X847296Y494300D01*
X845032Y567469D02*
X846946Y565554D01*
X824000Y567469D02*
X845032D01*
X821000Y578000D02*
X848646D01*
X819000Y580000D02*
X821000Y578000D01*
X819000Y580000D02*
Y585563D01*
X824000Y567469D02*
Y576000D01*
X823874Y576126D02*
X824000Y576000D01*
X801000Y576126D02*
X823874D01*
X847500Y178173D02*
Y196000D01*
X849500Y501000D02*
Y501702D01*
X845300Y498700D02*
X848000Y496000D01*
X843563Y178173D02*
Y195937D01*
X843500Y196000D02*
X843563Y195937D01*
X853746Y502246D02*
Y585754D01*
X839592Y595100D02*
X850346Y584346D01*
X841000Y598500D02*
X853746Y585754D01*
X840296Y596800D02*
X852046Y585050D01*
Y504248D02*
Y585050D01*
X825100Y595100D02*
X839592D01*
X824000Y594000D02*
X825100Y595100D01*
X817095Y578094D02*
X819000Y580000D01*
X801000Y578094D02*
X817095D01*
X813500Y582000D02*
Y585532D01*
X811563Y580063D02*
X813500Y582000D01*
X801000Y580063D02*
X811563D01*
X837400Y195400D02*
X837500Y195500D01*
X837400Y178431D02*
Y195400D01*
Y178431D02*
X837658Y178173D01*
X810204Y596800D02*
X840296D01*
X809200Y595796D02*
X810204Y596800D01*
X809200Y584296D02*
Y595796D01*
X806936Y582031D02*
X809200Y584296D01*
X801000Y582031D02*
X806936D01*
X839500Y193500D02*
X839626Y193374D01*
Y178173D02*
Y193374D01*
X809500Y598500D02*
X841000D01*
X807500Y596500D02*
X809500Y598500D01*
X807500Y585000D02*
Y596500D01*
X806500Y584000D02*
X807500Y585000D01*
X801000Y584000D02*
X806500D01*
X442824Y235324D02*
Y250676D01*
X442500Y251000D02*
X442824Y250676D01*
X452000Y253500D02*
X453500D01*
X459000Y248000D01*
X535267D01*
X547400Y260133D01*
Y290517D01*
X457996Y246217D02*
X535887D01*
X457292Y244516D02*
X536592D01*
X456588Y242816D02*
X537296D01*
X455884Y241116D02*
X538000D01*
X455084Y239417D02*
X538704D01*
X447173Y237717D02*
X539408D01*
X454953Y249259D02*
X457996Y246217D01*
X535887D02*
X549100Y259429D01*
X454249Y247559D02*
X457292Y244516D01*
X536592D02*
X550800Y258725D01*
X453814Y245591D02*
X456588Y242816D01*
X537296D02*
X552500Y258021D01*
X453378Y243622D02*
X455884Y241116D01*
X538000D02*
X554200Y257317D01*
X452846Y241653D02*
X455084Y239417D01*
X538704D02*
X555900Y256612D01*
X539408Y237717D02*
X557600Y255908D01*
X447173Y235748D02*
X539844D01*
X559300Y255204D01*
X547400Y290517D02*
X591683Y334800D01*
X600800D01*
X602000Y336000D01*
X617500Y318000D02*
Y318030D01*
X615700Y322700D02*
X617500Y324500D01*
X616000Y327000D02*
X618000D01*
X621800Y311800D02*
Y412200D01*
X623500Y272000D02*
Y417500D01*
X625200Y289800D02*
Y390200D01*
X745000Y553000D02*
Y555096D01*
X746700Y550200D02*
Y554392D01*
X748500Y550970D02*
Y553788D01*
X741000Y557500D02*
X759000Y575500D01*
X736000Y560000D02*
X757937Y581937D01*
X739500Y560000D02*
X759000Y579500D01*
X752600Y543600D02*
Y546196D01*
X752700Y546296D01*
Y553179D01*
X751000Y547000D02*
Y553883D01*
X786827Y572189D02*
X792189D01*
X786827Y574157D02*
X791657D01*
X792500Y575000D01*
Y577000D01*
X778700Y560200D02*
X779500Y561000D01*
X782477Y567977D02*
Y575245D01*
X776400Y561900D02*
X782477Y567977D01*
X780777Y568681D02*
Y576969D01*
X775696Y563600D02*
X780777Y568681D01*
X779077Y569385D02*
Y577673D01*
X774992Y565300D02*
X779077Y569385D01*
X777377Y570090D02*
Y578377D01*
X774288Y567000D02*
X777377Y570090D01*
X782477Y575245D02*
X783358Y576126D01*
X750500Y546500D02*
X751000Y547000D01*
X606400Y331400D02*
X607000Y332000D01*
X608200Y329700D02*
X609500Y331000D01*
X611000Y329000D02*
X611500D01*
X612696Y327196D02*
X614500Y329000D01*
X612666Y327196D02*
X612696D01*
X611570Y326100D02*
X612666Y327196D01*
X604500Y333500D02*
Y334000D01*
X604100Y333100D02*
X604500Y333500D01*
X592387Y333100D02*
X604100D01*
X549100Y289812D02*
X592387Y333100D01*
X549100Y259429D02*
Y289812D01*
X453241Y249259D02*
X454953D01*
X452000Y250500D02*
X453241Y249259D01*
X440000Y235000D02*
Y236000D01*
X438779Y233780D02*
X440000Y235000D01*
X433000Y233780D02*
X438779D01*
X552500Y288404D02*
X593796Y329700D01*
X552500Y258021D02*
Y288404D01*
X554200Y287700D02*
X594500Y328000D01*
X554200Y257317D02*
Y287700D01*
X555900Y286613D02*
X595388Y326100D01*
X555900Y256612D02*
Y286613D01*
X557600Y285908D02*
X596092Y324400D01*
X557600Y255908D02*
Y285908D01*
X559300Y285204D02*
X596796Y322700D01*
X559300Y255204D02*
Y285204D01*
X561000Y284500D02*
X597500Y321000D01*
X561000Y254500D02*
Y284500D01*
X540279Y233780D02*
X561000Y254500D01*
X439311Y231811D02*
X442824Y235324D01*
X433000Y231811D02*
X439311D01*
X783358Y576126D02*
X786827D01*
X777377Y578377D02*
X781032Y582031D01*
X779077Y577673D02*
X781467Y580063D01*
X780777Y576969D02*
X781903Y578094D01*
X748500Y550970D02*
X748600Y550870D01*
Y548100D02*
Y550870D01*
X748500Y548000D02*
X748600Y548100D01*
X593092Y331400D02*
X606400D01*
X550800Y289108D02*
X593092Y331400D01*
X595388Y326100D02*
X611570D01*
X613400Y324400D02*
X616000Y327000D01*
X596092Y324400D02*
X613400D01*
X596796Y322700D02*
X615700D01*
X597500Y321000D02*
X617500D01*
X550800Y258725D02*
Y289108D01*
X447173Y247559D02*
X454249D01*
X781903Y578094D02*
X786827D01*
X746500Y550000D02*
X746700Y550200D01*
X593796Y329700D02*
X608200D01*
X447173Y245591D02*
X453814D01*
X617500Y318030D02*
X619600Y320130D01*
X618000Y327000D02*
X619600Y325400D01*
Y320130D02*
Y325400D01*
X610000Y328000D02*
X611000Y329000D01*
X594500Y328000D02*
X610000D01*
X447173Y233780D02*
X540279D01*
X781467Y580063D02*
X786827D01*
X781032Y582031D02*
X786827D01*
X777500Y584000D02*
X786827D01*
X744500Y552500D02*
X745000Y553000D01*
X447173Y243622D02*
X453378D01*
X447173Y241653D02*
X452846D01*
X776031Y584000D02*
X777500D01*
Y582500D02*
Y584000D01*
X759000Y575500D02*
Y576000D01*
X774000Y581968D02*
X776031Y584000D01*
X768500Y581968D02*
Y585000D01*
X769468Y585968D01*
X763500Y581937D02*
Y586500D01*
X764937Y587937D01*
X757937Y581937D02*
X763500D01*
X619000Y415000D02*
X621800Y412200D01*
X611673Y426221D02*
X621311D01*
X594500Y284500D02*
X621800Y311800D01*
X594500Y241500D02*
Y284500D01*
X602900Y412400D02*
X606500Y416000D01*
X429100Y412400D02*
X602900D01*
X602200Y414200D02*
X604000Y416000D01*
X574800Y414200D02*
X602200D01*
X584811Y231811D02*
X594500Y241500D01*
X447173Y231811D02*
X584811D01*
X621311Y426221D02*
X624031Y423500D01*
X442311Y231811D02*
X447173D01*
X217500Y219000D02*
X222500Y214000D01*
X217500Y219000D02*
Y314500D01*
X152500Y379500D02*
X217500Y314500D01*
X143000Y313000D02*
X146760Y309240D01*
X143000Y313000D02*
Y393000D01*
X146760Y309240D02*
X155972D01*
X152500Y379500D02*
Y418500D01*
X155500Y421500D01*
X166500D01*
X169846Y418154D01*
Y409173D02*
Y418154D01*
X781658Y593843D02*
X786827D01*
X121000Y471000D02*
X272000Y622000D01*
X337818Y575343D02*
X422157D01*
X337115Y576046D02*
X337818Y575343D01*
X337115Y576046D02*
Y578089D01*
X335704Y579500D02*
X337115Y578089D01*
X328000Y579500D02*
X335704D01*
X337114Y573643D02*
X420857D01*
X335415Y575342D02*
X337114Y573643D01*
X335415Y575342D02*
Y577385D01*
X335000Y577800D02*
X335415Y577385D01*
X329300Y577800D02*
X335000D01*
X121000Y283000D02*
Y471000D01*
Y283000D02*
X200468Y203532D01*
X262500D01*
X813000Y552500D02*
X815500Y550000D01*
Y547000D02*
Y550000D01*
X814000Y545500D02*
X815500Y547000D01*
X599500Y260500D02*
X600000D01*
X600626Y259874D01*
X610500D01*
X599500Y258000D02*
X599594Y257906D01*
X610500D01*
X810500Y548000D02*
Y551000D01*
X808500Y553000D02*
X810500Y551000D01*
X749500Y583500D02*
X749823D01*
X456500Y228500D02*
X457000D01*
X455874Y227874D02*
X456500Y228500D01*
X447173Y227874D02*
X455874D01*
X447173Y225905D02*
X456906D01*
X457000Y226000D01*
X527000Y456000D02*
X528563D01*
X530532Y450500D02*
Y460937D01*
X749823Y583500D02*
X752162Y585839D01*
X756228Y589906D01*
X745750Y586750D02*
X750500Y591500D01*
X750874Y591874D01*
X808500Y557000D02*
X813000Y552500D01*
X808500Y557000D02*
Y568500D01*
X806780Y570220D02*
X808500Y568500D01*
X801000Y570220D02*
X806780D01*
X806500Y555000D02*
X808500Y553000D01*
X806500Y555000D02*
Y567000D01*
X805248Y568252D02*
X806500Y567000D01*
X801000Y568252D02*
X805248D01*
X430418Y407918D02*
X431500Y409000D01*
X430418Y336082D02*
Y407918D01*
X431500Y409000D02*
X571500D01*
X433300Y407300D02*
X570796D01*
X432118Y406118D02*
X433300Y407300D01*
X432118Y336786D02*
Y406118D01*
X617500Y263811D02*
X624673D01*
X617500Y264000D02*
Y268500D01*
Y263811D02*
Y264000D01*
X625000Y236500D02*
X631000D01*
X634500Y233000D01*
Y212904D02*
Y233000D01*
X626296Y204700D02*
X634500Y212904D01*
X268796Y204700D02*
X626296D01*
X636500Y212500D02*
Y261842D01*
X627000Y203000D02*
X636500Y212500D01*
X264610Y200514D02*
X268796Y204700D01*
X264610Y194153D02*
Y200514D01*
X266579Y194153D02*
Y200079D01*
X269500Y203000D01*
X627000D01*
X636500Y261842D02*
Y278500D01*
Y416400D02*
X643400D01*
X633100D02*
X636500D01*
X625200Y289800D02*
X636500Y278500D01*
X625200Y390200D02*
X636500Y401500D01*
Y416400D01*
X788811Y454280D02*
X789532Y455000D01*
X786842Y457811D02*
X789532Y460500D01*
X778000Y455000D02*
X778968Y454032D01*
X777937Y460500D02*
X780937Y457500D01*
Y432000D02*
Y457500D01*
X775032Y432000D02*
Y440469D01*
X766500Y449000D02*
X775032Y440469D01*
X534469Y428127D02*
Y436327D01*
Y428127D02*
X538796Y423800D01*
X563204D01*
X758700Y447300D02*
X769500Y436500D01*
Y427500D02*
Y436500D01*
X776000Y426500D02*
X777000Y427500D01*
Y432000D01*
X536437Y428563D02*
Y436327D01*
Y428563D02*
X539500Y425500D01*
X562500D01*
X643000Y418500D02*
X646500Y422000D01*
X636000Y418500D02*
X643000D01*
X516153Y549653D02*
X517406Y550906D01*
X514900Y548400D02*
X516153Y549653D01*
X523100Y548400D02*
X583996D01*
X521847Y549653D02*
X523100Y548400D01*
X517406Y550906D02*
Y587827D01*
X623500Y417500D02*
Y418347D01*
X519374Y546700D02*
X584700D01*
X519374D02*
Y587827D01*
X629185Y420315D02*
X632500Y417000D01*
X611673Y420315D02*
X629185D01*
X625622Y418347D02*
X627000Y416968D01*
X521343Y580126D02*
X522500Y578968D01*
X521343Y580126D02*
Y587827D01*
X433000Y586000D02*
X436000D01*
X437500Y584500D01*
Y582308D02*
Y584500D01*
X435000Y582404D02*
Y583500D01*
X421500Y573000D02*
X423500D01*
X420857Y573643D02*
X421500Y573000D01*
X329063Y577563D02*
X329300Y577800D01*
X329063Y573000D02*
Y577563D01*
X328704Y596300D02*
X404275D01*
X328000Y598000D02*
X404979D01*
X327296Y599700D02*
X405683D01*
X326592Y601400D02*
X406388D01*
X325887Y603100D02*
X407092D01*
X325183Y604800D02*
X407796D01*
X324479Y606500D02*
X408500D01*
X327095Y578594D02*
X328000Y579500D01*
X327095Y573000D02*
Y578594D01*
X606673Y511031D02*
X611469D01*
X613000Y509500D01*
X583000Y510500D02*
X584000Y509500D01*
X581596Y510500D02*
X583000D01*
X582000Y512500D02*
X584000D01*
X331000Y564468D02*
X331031Y564500D01*
Y573000D01*
X606673Y513000D02*
X606673Y513000D01*
X613000D01*
X327095Y594690D02*
X328704Y596300D01*
X327095Y587173D02*
Y594690D01*
X315283Y597304D02*
X324479Y606500D01*
X315283Y587173D02*
Y597304D01*
X317252Y596869D02*
X325183Y604800D01*
X317252Y587173D02*
Y596869D01*
X319220Y596433D02*
X325887Y603100D01*
X319220Y587173D02*
Y596433D01*
X321189Y595997D02*
X326592Y601400D01*
X321189Y587173D02*
Y595997D01*
X323158Y595562D02*
X327296Y599700D01*
X323158Y587173D02*
Y595562D01*
X325126Y595126D02*
X328000Y598000D01*
X325126Y587173D02*
Y595126D01*
X602343Y514968D02*
X606673D01*
X600874Y513500D02*
X602343Y514968D01*
X600500Y513500D02*
X600874D01*
X598500Y516000D02*
X598900Y516400D01*
X601370D01*
X601907Y516937D01*
X606673D01*
X600500Y518500D02*
X600906Y518905D01*
X606673D01*
X600000Y525000D02*
X602157Y522843D01*
X601500Y526500D02*
Y527500D01*
X599000Y522500D02*
X600626Y520874D01*
X606673D01*
X602157Y522843D02*
X606673D01*
X601500Y526500D02*
X603189Y524811D01*
X606673D01*
X615000Y534654D02*
X617622D01*
X606673D02*
X615000D01*
Y536000D01*
X632500Y532700D02*
Y533000D01*
Y532700D02*
X632600Y532600D01*
X632870D01*
X634100Y531370D01*
Y492726D02*
Y531370D01*
X629074Y487700D02*
X634100Y492726D01*
X630000Y494000D02*
Y528933D01*
X626031Y525969D02*
X627500Y524500D01*
Y494500D02*
Y524500D01*
X624500Y491500D02*
X627500Y494500D01*
X620532Y525969D02*
X621500Y525000D01*
Y489267D02*
Y525000D01*
X626200Y487700D02*
X629074D01*
X621000Y482500D02*
X626200Y487700D01*
X620970Y482500D02*
X621000D01*
X620870Y482400D02*
X620970Y482500D01*
X618400Y482400D02*
X620870D01*
X618000Y482000D02*
X618400Y482400D01*
X620000Y484500D02*
X624900Y489400D01*
X628370D02*
X632100Y493130D01*
X624900Y489400D02*
X628370D01*
X183392Y418200D02*
X249192Y484000D01*
X184500Y414500D02*
X250200Y480200D01*
X183000Y414500D02*
X184500D01*
X181658Y413158D02*
X183000Y414500D01*
X185594Y413095D02*
X251000Y478500D01*
X185594Y409173D02*
Y413095D01*
X189532Y414627D02*
X251704Y476800D01*
X189532Y409173D02*
Y414627D01*
X184096Y416500D02*
X249596Y482000D01*
X178200Y418200D02*
X183392D01*
X173783Y413783D02*
X178200Y418200D01*
X173783Y409173D02*
Y413783D01*
X606673Y530717D02*
X628217D01*
X624000Y533000D02*
X626500D01*
X632000Y530500D02*
X632100Y530400D01*
Y493130D02*
Y530400D01*
X181000Y416500D02*
X184096D01*
X177720Y413221D02*
X181000Y416500D01*
X177720Y409173D02*
Y413221D01*
X617500Y494000D02*
X618500D01*
X616400Y492900D02*
X617500Y494000D01*
X618500Y489000D02*
Y491500D01*
X628217Y530717D02*
X630000Y528933D01*
X181658Y409173D02*
Y413158D01*
X624000Y525969D02*
X626031D01*
X618500Y525969D02*
X620532D01*
X617689Y526780D02*
X618500Y525969D01*
X606673Y526780D02*
X617689D01*
X624000Y525969D02*
Y528000D01*
X623252Y528748D02*
X624000Y528000D01*
X606673Y528748D02*
X623252D01*
X629500Y532000D02*
Y535532D01*
X628217Y530717D02*
X629500Y532000D01*
X624000Y533000D02*
Y535532D01*
X623685Y532685D02*
X624000Y533000D01*
X606673Y532685D02*
X623685D01*
X617622Y534654D02*
X618500Y535532D01*
X526437Y459500D02*
X528563Y457374D01*
X526469Y465000D02*
X530532Y460937D01*
X643796Y447300D02*
X758700D01*
X644500Y449000D02*
X766500D01*
X643400Y416400D02*
X648200Y421200D01*
X632500Y417000D02*
X633100Y416400D01*
X646500Y422000D02*
Y443000D01*
X648200Y421200D02*
Y440700D01*
X649000Y441500D01*
Y443000D01*
X649500Y454000D02*
Y455500D01*
X648200Y456800D02*
X649500Y455500D01*
X522500Y578968D02*
X526532D01*
Y550468D02*
Y578968D01*
Y550468D02*
X526900Y550100D01*
X583292D01*
X589092Y555900D01*
X589796Y554200D02*
X634704D01*
X584700Y546700D02*
X590500Y552500D01*
X634000D01*
X583996Y548400D02*
X589796Y554200D01*
X589092Y555900D02*
X635408D01*
X767000Y443500D02*
X773063Y437437D01*
Y432000D02*
Y437437D01*
X528563Y450500D02*
Y456000D01*
Y457374D01*
X786574Y463457D02*
X789532Y460500D01*
X657000Y491500D02*
X657400Y491100D01*
X788274Y467226D02*
X789500Y466000D01*
Y465000D02*
Y466000D01*
X788811Y451500D02*
Y454280D01*
X657000Y491500D02*
Y492000D01*
X659500Y494000D02*
X660700Y492800D01*
X789974Y470026D02*
X792000Y468000D01*
Y465000D02*
Y468000D01*
X790779Y432000D02*
Y447780D01*
X662000Y495000D02*
X662500Y494500D01*
X791674Y470730D02*
X795000Y467404D01*
Y465000D02*
Y467404D01*
X792748Y432000D02*
Y446248D01*
X794500Y448000D01*
X528563Y436327D02*
Y442937D01*
X526000Y445500D02*
X528563Y442937D01*
X526000Y445500D02*
Y452000D01*
X524000Y454000D02*
X526000Y452000D01*
X524000Y454000D02*
Y456000D01*
X634000Y552500D02*
X646500Y540000D01*
X634704Y554200D02*
X648200Y540704D01*
X635596Y489000D02*
X644000D01*
X655000Y490000D02*
X655600Y489400D01*
X632617Y474000D02*
X644000D01*
X633213Y477000D02*
X644000D01*
X633808Y480000D02*
X644000D01*
X634404Y483000D02*
X644000D01*
X635000Y486000D02*
X644000D01*
X662470Y497500D02*
X663770Y496200D01*
X786842Y432000D02*
Y457811D01*
X788811Y432000D02*
Y451500D01*
X790000D01*
X790779Y447780D02*
X792000Y449000D01*
X794500Y448000D02*
Y451000D01*
X798654Y432000D02*
Y449846D01*
X797500Y451000D02*
X798654Y449846D01*
X563204Y423800D02*
X593904Y454500D01*
X636596D01*
X643796Y447300D01*
X562500Y425500D02*
X593200Y456200D01*
X637300D01*
X644500Y449000D01*
X632021Y471000D02*
X644000D01*
X652000D02*
Y479500D01*
X797500Y465000D02*
Y468304D01*
X793374Y472430D02*
X797500Y468304D01*
X780500Y464500D02*
X781206Y465205D01*
X796685Y432000D02*
Y445815D01*
X796000Y446500D02*
X796685Y445815D01*
X355000Y498953D02*
Y504063D01*
Y498953D02*
X355000Y498953D01*
X355000Y518237D02*
X360763D01*
X365000Y514000D01*
Y493500D02*
Y514000D01*
Y493500D02*
X372800Y485700D01*
X522700D01*
X523500Y486500D01*
X530000Y445000D02*
X538500D01*
X540374Y443126D01*
Y436327D02*
Y443126D01*
X769500Y427500D02*
X770400Y426600D01*
X770870D01*
X770970Y426500D01*
X776000D01*
X613970Y490000D02*
X614000D01*
X616400Y489400D02*
Y492900D01*
X611600Y484600D02*
X616400Y489400D01*
X613433Y481200D02*
X621500Y489267D01*
X623692Y479500D02*
X636192Y492000D01*
X624396Y477800D02*
X635596Y489000D01*
X529500Y466000D02*
X539600Y476100D01*
X625100D01*
X635000Y486000D01*
X532500Y450500D02*
Y466596D01*
X540304Y474400D01*
X625804D01*
X634404Y483000D01*
X534469Y450500D02*
Y466160D01*
X541008Y472700D01*
X626508D01*
X633808Y480000D01*
X536437Y450500D02*
Y465725D01*
X541713Y471000D01*
X627212D01*
X633213Y477000D01*
X542417Y469300D02*
X627917D01*
X632617Y474000D01*
X628621Y467600D02*
X632021Y471000D01*
X556122Y450500D02*
Y465622D01*
X558100Y467600D01*
X628621D01*
X526469Y465000D02*
Y465969D01*
X538300Y477800D01*
X624396D01*
X524500Y469000D02*
X527096D01*
X537596Y479500D01*
X623692D01*
X251704Y476800D02*
X532300D01*
X251000Y478500D02*
X531596D01*
X532300Y476800D02*
X536700Y481200D01*
X531596Y478500D02*
X535996Y482900D01*
X612400D01*
X618500Y489000D01*
X530892Y480200D02*
X535292Y484600D01*
X611600D01*
X536700Y481200D02*
X613433D01*
X530288Y482000D02*
X534587Y486300D01*
X610270D01*
X613970Y490000D01*
X250200Y480200D02*
X530892D01*
X249596Y482000D02*
X530288D01*
X249192Y484000D02*
X529883D01*
X533883Y488000D01*
X609000D01*
X542343Y436327D02*
Y444842D01*
X543500Y446000D01*
X557500D01*
X558000Y446500D01*
Y465096D01*
X558804Y465900D01*
X629325D01*
X631425Y468000D01*
X644000D01*
X544311Y436327D02*
Y444111D01*
X544500Y444300D01*
X558204D01*
X559700Y445796D01*
Y463396D01*
X560504Y464200D01*
X630029D01*
X630829Y465000D01*
X644000D01*
X652000Y479500D02*
X656800Y484300D01*
X652500Y489000D02*
X653800Y487700D01*
X649900Y470130D02*
X651130Y468900D01*
X746100D01*
X757000Y458000D01*
X650500Y466500D02*
X651200Y467200D01*
X744830D02*
X756130Y455900D01*
X768500Y451500D02*
X778968D01*
Y432000D02*
Y451500D01*
Y454032D01*
X756130Y455900D02*
X764100D01*
X768500Y451500D01*
X651200Y467200D02*
X744830D01*
X655500Y471000D02*
X655900Y470600D01*
X254000Y516453D02*
Y521913D01*
Y536087D02*
X262583D01*
X262669Y536000D01*
X165000Y465453D02*
Y470513D01*
X165100Y470613D01*
X175169Y484500D02*
X175456Y484787D01*
X165100D02*
X175456D01*
X130000Y388337D02*
Y398831D01*
X130169Y399000D01*
X130000Y368953D02*
Y374163D01*
X165000Y272453D02*
Y277613D01*
X165100Y277713D01*
X253953Y221000D02*
Y226366D01*
X254000Y226413D01*
Y240587D02*
X262413D01*
X262500Y240500D01*
X355000Y238453D02*
Y244263D01*
Y258437D02*
Y269169D01*
X354669Y269500D02*
X355000Y269169D01*
X413813Y432500D02*
X413863Y432550D01*
X413413Y329500D02*
X413863Y329950D01*
X606500Y416000D02*
Y421000D01*
X607784Y422284D01*
X611673D01*
X606752Y424252D02*
X611673D01*
X604000Y421500D02*
X606752Y424252D01*
X604000Y416000D02*
Y421500D01*
X574500Y414500D02*
X574800Y414200D01*
X573800Y410700D02*
X574500Y410000D01*
X428037Y413463D02*
Y432550D01*
Y413463D02*
X429100Y412400D01*
X428037Y329950D02*
Y409537D01*
X429200Y410700D01*
X271331Y532260D02*
X327760D01*
X618032Y438031D02*
X621000Y441000D01*
X611673Y438031D02*
X618032D01*
X558292Y531400D02*
X593192Y496500D01*
X601500D01*
X559700Y534800D02*
X582000Y512500D01*
X558996Y533100D02*
X581596Y510500D01*
X557587Y529700D02*
X592487Y494800D01*
X600796D01*
X603500Y492096D01*
Y490500D02*
Y492096D01*
X609000Y488000D02*
X611000Y490000D01*
X611673Y436063D02*
X618563D01*
X624000Y441500D02*
Y446500D01*
X618563Y436063D02*
X624000Y441500D01*
X621000Y441000D02*
Y448500D01*
X183831Y480760D02*
X236260D01*
X138831Y395260D02*
X143260D01*
X149000Y401000D01*
Y431500D01*
X236964Y479060D02*
X286764Y528860D01*
X329168D01*
X359677Y559369D01*
X431590D01*
X462958Y528000D01*
X556883D01*
X591783Y493100D01*
X625700Y442700D02*
X627000Y444000D01*
X625700Y440796D02*
Y442700D01*
X591783Y493100D02*
X597900D01*
X600500Y490500D01*
X560404Y536500D02*
X581904Y515000D01*
X584000D01*
X561108Y538200D02*
X581808Y517500D01*
X584000D01*
X561812Y539900D02*
X581712Y520000D01*
X584000D01*
X562517Y541600D02*
X581617Y522500D01*
X584000D01*
X563221Y543300D02*
X581521Y525000D01*
X584000D01*
X563925Y545000D02*
X581425Y527500D01*
X584000D01*
X236260Y480760D02*
X286060Y530560D01*
X328464D01*
X358973Y561068D01*
X327760Y532260D02*
X358268Y562769D01*
X165100Y291887D02*
Y305428D01*
X165028Y305500D02*
X165100Y305428D01*
X143000Y393000D02*
X143560Y393560D01*
X143964D01*
X150700Y400296D01*
Y430796D01*
X197264Y477360D01*
X237668D01*
X287468Y527160D01*
X329872D01*
X360381Y557668D01*
X430886D01*
X437500Y582308D02*
X471408Y548400D01*
X514900D01*
X435000Y582404D02*
X470704Y546700D01*
X519374D01*
X408500Y606500D02*
X470000Y545000D01*
X563925D01*
X407796Y604800D02*
X469296Y543300D01*
X563221D01*
X407092Y603100D02*
X468592Y541600D01*
X562517D01*
X406388Y601400D02*
X467887Y539900D01*
X561812D01*
X405683Y599700D02*
X467183Y538200D01*
X561108D01*
X404979Y598000D02*
X466479Y536500D01*
X560404D01*
X404275Y596300D02*
X465775Y534800D01*
X559700D01*
X331000Y564468D02*
X433702D01*
X465071Y533100D01*
X558996D01*
X358268Y562769D02*
X432998D01*
X464367Y531400D01*
X558292D01*
X358973Y561068D02*
X432294D01*
X463663Y529700D01*
X557587D01*
X430886Y557668D02*
X462554Y526000D01*
X556479D01*
X591979Y490500D01*
X597000D01*
X601500Y496500D02*
X607500Y490500D01*
X620500Y449000D02*
X621000Y448500D01*
X618000Y440500D02*
Y442500D01*
X617500Y440000D02*
X618000Y440500D01*
X611673Y440000D02*
X617500D01*
X149000Y431500D02*
X196560Y479060D01*
X236964D01*
X363331Y265760D02*
X391760D01*
X432500Y306500D01*
Y334000D01*
X429737Y334278D02*
Y336763D01*
Y334278D02*
X430418Y333597D01*
X571500Y409000D02*
X573000Y407500D01*
X587000D01*
X589000Y409500D01*
X602500Y425000D02*
Y441000D01*
X605437Y443937D01*
X611673D01*
X429737Y336763D02*
X430418Y336082D01*
X432500Y334000D01*
X430418Y333597D02*
Y336082D01*
X605969Y441969D02*
X611673D01*
X590500Y407500D02*
X594500D01*
X588800Y405800D02*
X590500Y407500D01*
X572296Y405800D02*
X588800D01*
X570796Y407300D02*
X572296Y405800D01*
X429200Y410700D02*
X573800D01*
X432118Y336786D02*
X434200Y334704D01*
Y305700D02*
Y334704D01*
X388000Y259500D02*
X434200Y305700D01*
X388000Y245500D02*
Y259500D01*
X369500Y227000D02*
X388000Y245500D01*
X280921Y227000D02*
X369500D01*
X271161Y236760D02*
X280921Y227000D01*
X262642Y194153D02*
Y203390D01*
X262500Y203532D02*
X262642Y203390D01*
X623000Y271500D02*
X623500Y272000D01*
X620500Y271500D02*
X623000D01*
X617500Y268500D02*
X620500Y271500D01*
X623500Y418347D02*
X625622D01*
X611673D02*
X623500D01*
D48*
X734677Y633000D02*
X738000D01*
X467500Y649500D02*
X718177D01*
X432000Y614000D02*
X467500Y649500D01*
X718177D02*
X734677Y633000D01*
X528000Y618000D02*
Y649500D01*
X345000Y417500D02*
X345047Y417547D01*
X423500D01*
X423500Y345953D02*
Y417547D01*
X351000Y610500D02*
Y611000D01*
X354000Y614000D01*
X432000D01*
X747000Y633000D02*
X787000D01*
X804500Y615500D01*
Y599000D02*
Y615500D01*
X802500Y599000D02*
X804500D01*
X801000Y597500D02*
X802500Y599000D01*
X801000Y593843D02*
Y597500D01*
Y592500D02*
Y593843D01*
D49*
X496500Y613000D02*
X532000D01*
X578000Y567000D01*
X663000D01*
X704500Y525500D01*
D50*
X869350Y176992D02*
D03*
X833524D02*
D03*
X611681Y271882D02*
D03*
Y236055D02*
D03*
X524429Y437508D02*
D03*
X560256D02*
D03*
X527445Y600819D02*
D03*
X491618D02*
D03*
X445992Y215866D02*
D03*
Y251693D02*
D03*
X610492Y412244D02*
D03*
Y448071D02*
D03*
X605492Y506898D02*
D03*
Y542724D02*
D03*
X788008Y597976D02*
D03*
Y562150D02*
D03*
X768929Y419008D02*
D03*
X804756D02*
D03*
X337134Y585992D02*
D03*
X301307D02*
D03*
X199571Y407992D02*
D03*
X163744D02*
D03*
X256539Y181161D02*
D03*
X292366D02*
D03*
D51*
X910441Y362000D02*
D03*
Y375780D02*
D03*
X938000Y362000D02*
D03*
Y375780D02*
D03*
D52*
X254000Y233500D02*
D03*
X355000Y511150D02*
D03*
Y251350D02*
D03*
X254000Y529000D02*
D03*
X420950Y329950D02*
D03*
Y432550D02*
D03*
X280000Y381250D02*
D03*
X165100Y477700D02*
D03*
X130000Y381250D02*
D03*
X165100Y284800D02*
D03*
D53*
X945000Y632500D02*
D03*
X130000D02*
D03*
Y130000D02*
D03*
X510000D02*
D03*
Y632500D02*
D03*
X945000Y130000D02*
D03*
D54*
X898500Y154500D02*
D03*
Y276500D02*
D03*
X577000Y154500D02*
D03*
Y276500D02*
D03*
X347126Y344000D02*
D03*
X161126D02*
D03*
X189626Y635500D02*
D03*
X318626D02*
D03*
X499173Y161153D02*
D03*
Y308653D02*
D03*
X183673D02*
D03*
X174173Y167154D02*
D03*
X553500Y509500D02*
D03*
X452500Y462500D02*
D03*
X480000Y571000D02*
D03*
X695000Y421000D02*
D03*
X604000Y601500D02*
D03*
X939000Y599500D02*
D03*
Y405000D02*
D03*
D55*
X885000Y468500D02*
D03*
X881000Y488500D02*
D03*
X889000D02*
D03*
D56*
X345000Y493000D02*
D03*
X628000Y274000D02*
D03*
X603000Y272000D02*
D03*
X581000Y555500D02*
D03*
X600000Y532000D02*
D03*
X613500Y523000D02*
D03*
X774000Y474000D02*
D03*
X662500D02*
D03*
X632500Y409000D02*
D03*
X774000Y554500D02*
D03*
Y505500D02*
D03*
X754500Y541000D02*
D03*
X752500Y543500D02*
D03*
X750500Y545500D02*
D03*
X774000Y468000D02*
D03*
X345000Y417500D02*
D03*
X255000Y199500D02*
D03*
X286000Y200500D02*
D03*
X282000D02*
D03*
X284000Y189000D02*
D03*
X338000Y568500D02*
D03*
X351000Y610500D02*
D03*
X528000Y608000D02*
D03*
Y618000D02*
D03*
X738000Y633000D02*
D03*
X747000D02*
D03*
X768500Y573000D02*
D03*
X804500Y599000D02*
D03*
X812500Y559000D02*
D03*
X298000Y398500D02*
D03*
X266500Y208000D02*
D03*
X632500Y276500D02*
D03*
X529500Y430000D02*
D03*
X533500Y442000D02*
D03*
X540000Y429500D02*
D03*
X540500Y458000D02*
D03*
X544500D02*
D03*
X548500D02*
D03*
X552500D02*
D03*
X591500Y430000D02*
D03*
X588500Y437500D02*
D03*
X590500Y441500D02*
D03*
X591500Y444500D02*
D03*
X603500Y445000D02*
D03*
X592594Y434094D02*
D03*
X606500Y430500D02*
D03*
X619000Y432000D02*
D03*
X585000Y530500D02*
D03*
X587500Y531000D02*
D03*
X599000Y507500D02*
D03*
X593500Y507000D02*
D03*
X598000Y538500D02*
D03*
X600000Y536500D02*
D03*
Y530000D02*
D03*
X612000Y541000D02*
D03*
X613000Y538000D02*
D03*
X369500Y273000D02*
D03*
X278500Y243500D02*
D03*
X156500Y295000D02*
D03*
X138500Y409500D02*
D03*
X189500Y488000D02*
D03*
X277500Y539500D02*
D03*
X331000Y556000D02*
D03*
X522500Y571000D02*
D03*
X629500Y544000D02*
D03*
X624000D02*
D03*
X618500D02*
D03*
X624500Y517500D02*
D03*
X517000Y459500D02*
D03*
Y465000D02*
D03*
X628000Y427000D02*
D03*
X758000Y438000D02*
D03*
X773000Y447500D02*
D03*
X800500Y460500D02*
D03*
Y455000D02*
D03*
X889000Y457500D02*
D03*
X757500Y586000D02*
D03*
X746000Y596000D02*
D03*
X804000Y548500D02*
D03*
X817500Y557000D02*
D03*
X824000Y560000D02*
D03*
X818500D02*
D03*
X819000Y594000D02*
D03*
X813500D02*
D03*
X774500Y573000D02*
D03*
X760500Y572000D02*
D03*
X439000Y239000D02*
D03*
Y242000D02*
D03*
Y246000D02*
D03*
X426000Y247500D02*
D03*
Y243500D02*
D03*
Y239500D02*
D03*
Y235500D02*
D03*
X441500Y220000D02*
D03*
X453500Y222000D02*
D03*
X441500Y223500D02*
D03*
Y226500D02*
D03*
X274500Y174000D02*
D03*
X266500D02*
D03*
X270500D02*
D03*
X261000Y186000D02*
D03*
X264500D02*
D03*
X268500D02*
D03*
X272500D02*
D03*
X276500D02*
D03*
X278000Y200500D02*
D03*
X274453Y200453D02*
D03*
X271000Y200500D02*
D03*
X288000Y189000D02*
D03*
X280000D02*
D03*
X276500D02*
D03*
X268500D02*
D03*
X185000Y389000D02*
D03*
X181500D02*
D03*
X177500D02*
D03*
X173500D02*
D03*
X169500D02*
D03*
X168500Y400500D02*
D03*
X172000D02*
D03*
X187500D02*
D03*
X193500Y414500D02*
D03*
X195500Y403500D02*
D03*
X191500D02*
D03*
X187500D02*
D03*
X183500D02*
D03*
X179500D02*
D03*
X176000D02*
D03*
X172000D02*
D03*
X167000Y415000D02*
D03*
X323000Y578500D02*
D03*
X319000D02*
D03*
X315000D02*
D03*
X311000D02*
D03*
X307500D02*
D03*
X306000Y567500D02*
D03*
X310000D02*
D03*
X314000D02*
D03*
X317500D02*
D03*
X321500D02*
D03*
X325500D02*
D03*
X305500Y582000D02*
D03*
X313500D02*
D03*
X308000Y593500D02*
D03*
X311500D02*
D03*
X334000D02*
D03*
X331000D02*
D03*
X326500Y581500D02*
D03*
X513469Y582031D02*
D03*
X509500Y582000D02*
D03*
X505594Y582094D02*
D03*
X497500Y582000D02*
D03*
X496000Y593500D02*
D03*
X500000D02*
D03*
X504000D02*
D03*
X507563Y593437D02*
D03*
X515500Y593500D02*
D03*
X521000Y608000D02*
D03*
X517000D02*
D03*
X513500D02*
D03*
X509500D02*
D03*
X519500Y597000D02*
D03*
X511500D02*
D03*
X792500Y565500D02*
D03*
X794000Y570000D02*
D03*
X794500Y590500D02*
D03*
X793500Y587500D02*
D03*
X794500Y584000D02*
D03*
X798654Y412154D02*
D03*
X790500Y412000D02*
D03*
X786500D02*
D03*
X782500D02*
D03*
X779000D02*
D03*
X775000D02*
D03*
X773500Y423000D02*
D03*
X777500D02*
D03*
X781000D02*
D03*
X785000D02*
D03*
X789000D02*
D03*
X793000D02*
D03*
X797000D02*
D03*
X800500D02*
D03*
X900500Y476252D02*
D03*
X837500Y169500D02*
D03*
X839500Y158000D02*
D03*
X843500D02*
D03*
X845500Y169500D02*
D03*
X847500Y158000D02*
D03*
X851500D02*
D03*
X853500Y169500D02*
D03*
X855500Y158000D02*
D03*
X861000Y170000D02*
D03*
X865000D02*
D03*
X866000Y183500D02*
D03*
X863248Y184748D02*
D03*
X862000Y187500D02*
D03*
X857500Y173000D02*
D03*
X849500D02*
D03*
X841500D02*
D03*
X632000Y239500D02*
D03*
X632500Y242000D02*
D03*
X632000Y245000D02*
D03*
X618000Y247500D02*
D03*
X632000Y249000D02*
D03*
X618000Y252000D02*
D03*
X632000D02*
D03*
X631500Y256000D02*
D03*
X617500Y256500D02*
D03*
X618000Y259500D02*
D03*
X632626Y259874D02*
D03*
X615500Y239500D02*
D03*
X603000Y241000D02*
D03*
X602500Y244000D02*
D03*
X599500Y247000D02*
D03*
X601000Y249000D02*
D03*
Y264000D02*
D03*
X742500Y382500D02*
D03*
X733500Y392000D02*
D03*
X705000D02*
D03*
X684000D02*
D03*
X664500D02*
D03*
X650000Y377000D02*
D03*
Y351000D02*
D03*
Y327000D02*
D03*
X665000Y329500D02*
D03*
X666500Y336500D02*
D03*
Y342000D02*
D03*
X661500Y352500D02*
D03*
X668000Y362000D02*
D03*
X673000Y371500D02*
D03*
X682000Y374500D02*
D03*
X690500Y380000D02*
D03*
X704000Y379500D02*
D03*
X712500Y377000D02*
D03*
X719000Y384000D02*
D03*
X726500Y388500D02*
D03*
X777000Y391500D02*
D03*
X773000Y381000D02*
D03*
X766500Y376500D02*
D03*
X758500Y388000D02*
D03*
X737000Y375500D02*
D03*
X752000Y370500D02*
D03*
X746000Y369500D02*
D03*
X751000Y355000D02*
D03*
X920000Y403000D02*
D03*
X919000Y421500D02*
D03*
X892000Y405000D02*
D03*
X891000Y422500D02*
D03*
X882000Y376000D02*
D03*
X877500Y392500D02*
D03*
X949000Y422000D02*
D03*
X865500Y422500D02*
D03*
X867500Y405000D02*
D03*
X842000Y406000D02*
D03*
X819000Y405000D02*
D03*
X811000Y289500D02*
D03*
X799000Y273000D02*
D03*
X811000Y309000D02*
D03*
X797500Y334500D02*
D03*
X786500Y336500D02*
D03*
Y313500D02*
D03*
Y292000D02*
D03*
X782500Y285500D02*
D03*
X783000Y262500D02*
D03*
X787500Y258500D02*
D03*
X808500Y259000D02*
D03*
X830500Y301000D02*
D03*
X831000Y282000D02*
D03*
X830000Y323500D02*
D03*
X812000Y326500D02*
D03*
X806000Y345500D02*
D03*
X791000Y355000D02*
D03*
X781500Y347000D02*
D03*
X764500Y347500D02*
D03*
X254000Y506500D02*
D03*
X164500Y455500D02*
D03*
X130000Y357500D02*
D03*
X171000Y267000D02*
D03*
X245000Y226000D02*
D03*
X360047Y232953D02*
D03*
X589000Y424000D02*
D03*
X589500Y427000D02*
D03*
X591000Y421000D02*
D03*
X589500Y419000D02*
D03*
X587500Y417000D02*
D03*
X556000Y430500D02*
D03*
X554500Y441500D02*
D03*
X551000Y430500D02*
D03*
X550000Y441500D02*
D03*
X547000Y430500D02*
D03*
X546500Y441500D02*
D03*
X196000Y389500D02*
D03*
X194000Y386500D02*
D03*
X191500Y387500D02*
D03*
X188500Y388500D02*
D03*
X427000Y219500D02*
D03*
X424000Y224000D02*
D03*
X425500Y228500D02*
D03*
X426500Y231000D02*
D03*
X863000Y158000D02*
D03*
X859500D02*
D03*
X683000Y333000D02*
D03*
X683500Y339500D02*
D03*
X683000Y354000D02*
D03*
X680500Y367500D02*
D03*
X713000Y368000D02*
D03*
X721500Y378000D02*
D03*
X725000Y362000D02*
D03*
X716000Y354500D02*
D03*
X715000Y338000D02*
D03*
Y317500D02*
D03*
X677000Y323000D02*
D03*
Y311000D02*
D03*
X715500Y298000D02*
D03*
X708000Y291000D02*
D03*
X694500D02*
D03*
X683000D02*
D03*
X676500Y297500D02*
D03*
X634000Y395500D02*
D03*
X619500Y395000D02*
D03*
X615500Y399000D02*
D03*
X639000Y398500D02*
D03*
X435500Y403500D02*
D03*
X419500D02*
D03*
X897500Y438000D02*
D03*
Y428500D02*
D03*
X817500Y460500D02*
D03*
Y469000D02*
D03*
X644000Y504500D02*
D03*
X661000D02*
D03*
X644000Y492000D02*
D03*
X652000Y492500D02*
D03*
X661500Y500500D02*
D03*
X650000D02*
D03*
X733000Y647500D02*
D03*
X723500D02*
D03*
X237000Y488000D02*
D03*
X253000Y471500D02*
D03*
X899000Y480500D02*
D03*
X878500Y478000D02*
D03*
X795000Y575000D02*
D03*
X628000Y308500D02*
D03*
X639500Y264500D02*
D03*
X633000D02*
D03*
X859000Y196000D02*
D03*
Y493500D02*
D03*
X857000Y496000D02*
D03*
X855000Y499000D02*
D03*
X852500Y501000D02*
D03*
X860500Y490500D02*
D03*
X862000Y488000D02*
D03*
X831000Y562000D02*
D03*
X812156Y571345D02*
D03*
X855500Y196000D02*
D03*
X831000Y565000D02*
D03*
X818500Y572500D02*
D03*
X851500Y196000D02*
D03*
X847500D02*
D03*
X849500Y501000D02*
D03*
X843500Y196000D02*
D03*
X824000Y594000D02*
D03*
X813500Y582000D02*
D03*
X837500Y195500D02*
D03*
X839500Y193500D02*
D03*
X442500Y251000D02*
D03*
X452000Y253500D02*
D03*
X602000Y336000D02*
D03*
X617500Y318000D02*
D03*
Y324500D02*
D03*
X742500Y555000D02*
D03*
X741000Y557500D02*
D03*
X736000Y560000D02*
D03*
X739500D02*
D03*
X781500Y558500D02*
D03*
X792500Y577000D02*
D03*
X779500Y561000D02*
D03*
X607000Y332000D02*
D03*
X609500Y331000D02*
D03*
X611500Y329000D02*
D03*
X604500Y334000D02*
D03*
X452000Y250500D02*
D03*
X440000Y236000D02*
D03*
X748500Y548000D02*
D03*
X614500Y329000D02*
D03*
X746500Y550000D02*
D03*
X617500Y321000D02*
D03*
X744500Y552500D02*
D03*
X777500Y582500D02*
D03*
X759000Y576000D02*
D03*
X768500Y585000D02*
D03*
X759000Y579500D02*
D03*
X619000Y426000D02*
D03*
Y415000D02*
D03*
X814000Y545500D02*
D03*
X599500Y260500D02*
D03*
Y258000D02*
D03*
X810500Y548000D02*
D03*
X749500Y583500D02*
D03*
X457000Y228500D02*
D03*
Y226000D02*
D03*
X527000Y456000D02*
D03*
X745750Y586750D02*
D03*
X617500Y264000D02*
D03*
X625000Y236500D02*
D03*
X521847Y549653D02*
D03*
X516153D02*
D03*
X623500Y417500D02*
D03*
X636000Y418500D02*
D03*
X435000Y583500D02*
D03*
X423500Y573000D02*
D03*
X433000Y586000D02*
D03*
X422157Y575343D02*
D03*
X613000Y509500D02*
D03*
X584000D02*
D03*
Y515000D02*
D03*
Y517500D02*
D03*
Y520000D02*
D03*
Y522500D02*
D03*
Y525000D02*
D03*
Y527500D02*
D03*
Y512500D02*
D03*
X613000Y513000D02*
D03*
X600500Y513500D02*
D03*
X598500Y516000D02*
D03*
X600500Y518500D02*
D03*
X600000Y525000D02*
D03*
X601500Y527500D02*
D03*
X599000Y522500D02*
D03*
X615000Y536000D02*
D03*
X632500Y533000D02*
D03*
X630000Y494000D02*
D03*
X618000Y482000D02*
D03*
X620000Y484500D02*
D03*
X626500Y533000D02*
D03*
X632000Y530500D02*
D03*
X614000Y490000D02*
D03*
X618500Y494000D02*
D03*
X624500Y491500D02*
D03*
X618500D02*
D03*
X646500Y454000D02*
D03*
Y443000D02*
D03*
X649000D02*
D03*
X649500Y454000D02*
D03*
X767000Y443500D02*
D03*
X529500Y466000D02*
D03*
X789500Y465000D02*
D03*
X644000Y477000D02*
D03*
X657000Y492000D02*
D03*
X655000Y490000D02*
D03*
X652500Y486000D02*
D03*
X644000Y480000D02*
D03*
X659500Y494000D02*
D03*
X792000Y465000D02*
D03*
X644000Y474000D02*
D03*
Y483000D02*
D03*
X662000Y495000D02*
D03*
X795000Y465000D02*
D03*
X524000Y456000D02*
D03*
X524500Y469000D02*
D03*
X644000Y486000D02*
D03*
Y489000D02*
D03*
X652500D02*
D03*
X790000Y451500D02*
D03*
X792000Y449000D02*
D03*
X797500Y465000D02*
D03*
Y451000D02*
D03*
X794500D02*
D03*
X644000Y471000D02*
D03*
X652000D02*
D03*
X780500Y464500D02*
D03*
X796000Y446500D02*
D03*
X523500Y486500D02*
D03*
X530000Y445000D02*
D03*
X644000Y468000D02*
D03*
Y465000D02*
D03*
X757000Y458000D02*
D03*
X650500Y466500D02*
D03*
X655500Y471000D02*
D03*
X574500Y414500D02*
D03*
Y410000D02*
D03*
X603500Y490500D02*
D03*
X611000Y490000D02*
D03*
X624000Y446500D02*
D03*
X600500Y490500D02*
D03*
X627000Y444000D02*
D03*
X597000Y490500D02*
D03*
X607500D02*
D03*
X620500Y449000D02*
D03*
X618000Y442500D02*
D03*
X589000Y409500D02*
D03*
X602500Y425000D02*
D03*
X605000Y427500D02*
D03*
X594500Y407500D02*
D03*
D57*
X704500Y525500D02*
D03*
X283000Y173000D02*
D03*
X786500Y383000D02*
D03*
M02*
