G04 Layer_Color=65535*
%FSLAX25Y25*%
%MOIN*%
G70*
G01*
G75*
%ADD69C,0.00984*%
%ADD70C,0.01575*%
%ADD71C,0.05905*%
%ADD72C,0.03937*%
%ADD73C,0.02953*%
%ADD74C,0.01968*%
%ADD75C,0.00799*%
%ADD76C,0.00787*%
%ADD77C,0.00800*%
G36*
X722747Y163372D02*
X722855Y163360D01*
X722999Y163336D01*
X723156Y163312D01*
X723312Y163276D01*
X723481Y163240D01*
X723661Y163180D01*
X723842Y163108D01*
X724022Y163035D01*
X724202Y162927D01*
X724371Y162819D01*
X724527Y162686D01*
X724672Y162542D01*
X724684Y162530D01*
X724696Y162518D01*
X724732Y162470D01*
X724768Y162422D01*
X724816Y162362D01*
X724864Y162277D01*
X724912Y162193D01*
X724972Y162085D01*
X725081Y161844D01*
X725177Y161568D01*
X725249Y161243D01*
X725261Y161074D01*
X725273Y160894D01*
Y160882D01*
Y160846D01*
Y160786D01*
X725261Y160714D01*
X725249Y160617D01*
X725237Y160509D01*
X725213Y160389D01*
X725177Y160256D01*
X725093Y159968D01*
X725033Y159823D01*
X724960Y159667D01*
X724876Y159523D01*
X724780Y159366D01*
X724672Y159222D01*
X724539Y159090D01*
X724527Y159077D01*
X724503Y159065D01*
X724467Y159029D01*
X724407Y158981D01*
X724335Y158933D01*
X724239Y158873D01*
X724130Y158801D01*
X724010Y158741D01*
X723878Y158680D01*
X723721Y158608D01*
X723553Y158548D01*
X723373Y158500D01*
X723180Y158452D01*
X722963Y158428D01*
X722747Y158404D01*
X722506Y158392D01*
X722398D01*
X722314Y158404D01*
X722218D01*
X722109Y158428D01*
X721977Y158440D01*
X721845Y158464D01*
X721544Y158536D01*
X721231Y158632D01*
X720930Y158777D01*
X720774Y158873D01*
X720642Y158969D01*
X720630Y158981D01*
X720606Y159005D01*
X720557Y159041D01*
X720509Y159101D01*
X720437Y159174D01*
X720365Y159258D01*
X720293Y159366D01*
X720209Y159474D01*
X720124Y159607D01*
X720052Y159751D01*
X719980Y159907D01*
X719908Y160076D01*
X719860Y160256D01*
X719812Y160449D01*
X719788Y160653D01*
X719775Y160870D01*
Y160882D01*
Y160918D01*
Y160978D01*
X719788Y161050D01*
X719800Y161147D01*
X719812Y161255D01*
X719836Y161375D01*
X719872Y161507D01*
X719956Y161796D01*
X720016Y161941D01*
X720088Y162097D01*
X720173Y162241D01*
X720269Y162398D01*
X720377Y162542D01*
X720509Y162674D01*
X720521Y162686D01*
X720545Y162710D01*
X720581Y162735D01*
X720642Y162783D01*
X720714Y162843D01*
X720810Y162903D01*
X720918Y162963D01*
X721039Y163035D01*
X721171Y163095D01*
X721315Y163156D01*
X721484Y163216D01*
X721664Y163276D01*
X721857Y163324D01*
X722061Y163348D01*
X722278Y163372D01*
X722506Y163384D01*
X722639D01*
X722747Y163372D01*
D02*
G37*
G36*
X698134D02*
X698242D01*
X698470Y163348D01*
X698723Y163312D01*
X698988Y163252D01*
X699252Y163180D01*
X699493Y163071D01*
X699505D01*
X699517Y163059D01*
X699589Y163011D01*
X699697Y162939D01*
X699830Y162843D01*
X699986Y162710D01*
X700131Y162554D01*
X700275Y162374D01*
X700407Y162169D01*
Y162157D01*
X700419Y162145D01*
X700431Y162109D01*
X700455Y162061D01*
X700479Y162001D01*
X700503Y161928D01*
X700564Y161760D01*
X700624Y161532D01*
X700672Y161279D01*
X700708Y160978D01*
X700720Y160641D01*
Y160437D01*
X697051D01*
Y160413D01*
X697063Y160365D01*
X697075Y160280D01*
X697099Y160184D01*
X697171Y159968D01*
X697219Y159871D01*
X697279Y159775D01*
X697291Y159763D01*
X697328Y159727D01*
X697388Y159679D01*
X697472Y159619D01*
X697568Y159559D01*
X697688Y159511D01*
X697821Y159474D01*
X697977Y159462D01*
X698025D01*
X698073Y159474D01*
X698146D01*
X698302Y159523D01*
X698386Y159547D01*
X698482Y159595D01*
X698494D01*
X698506Y159607D01*
X698579Y159667D01*
X698627Y159703D01*
X698675Y159763D01*
X698747Y159823D01*
X698807Y159907D01*
X700612Y159739D01*
Y159727D01*
X700588Y159703D01*
X700564Y159667D01*
X700539Y159619D01*
X700443Y159499D01*
X700323Y159342D01*
X700179Y159174D01*
X700010Y158993D01*
X699818Y158837D01*
X699601Y158704D01*
X699589D01*
X699577Y158693D01*
X699541Y158680D01*
X699493Y158656D01*
X699433Y158632D01*
X699361Y158608D01*
X699276Y158572D01*
X699180Y158548D01*
X699060Y158524D01*
X698940Y158488D01*
X698807Y158464D01*
X698651Y158440D01*
X698494Y158416D01*
X698314Y158404D01*
X698134Y158392D01*
X697773D01*
X697688Y158404D01*
X697604D01*
X697388Y158428D01*
X697147Y158452D01*
X696894Y158500D01*
X696654Y158572D01*
X696437Y158656D01*
X696413Y158668D01*
X696353Y158704D01*
X696245Y158777D01*
X696125Y158861D01*
X695980Y158981D01*
X695824Y159126D01*
X695679Y159294D01*
X695535Y159499D01*
Y159511D01*
X695523Y159523D01*
X695499Y159559D01*
X695487Y159607D01*
X695427Y159727D01*
X695367Y159896D01*
X695295Y160088D01*
X695246Y160329D01*
X695198Y160581D01*
X695186Y160870D01*
Y160882D01*
Y160918D01*
Y160978D01*
X695198Y161050D01*
X695210Y161147D01*
X695222Y161267D01*
X695246Y161387D01*
X695270Y161520D01*
X695355Y161808D01*
X695415Y161953D01*
X695487Y162109D01*
X695571Y162265D01*
X695667Y162410D01*
X695776Y162554D01*
X695896Y162686D01*
X695908Y162698D01*
X695932Y162723D01*
X695968Y162747D01*
X696028Y162795D01*
X696101Y162843D01*
X696197Y162903D01*
X696293Y162975D01*
X696413Y163035D01*
X696546Y163095D01*
X696702Y163168D01*
X696858Y163228D01*
X697039Y163276D01*
X697231Y163324D01*
X697436Y163360D01*
X697652Y163372D01*
X697881Y163384D01*
X698049D01*
X698134Y163372D01*
D02*
G37*
G36*
X665388Y163276D02*
X666398D01*
Y161941D01*
X665388D01*
Y160244D01*
Y160232D01*
Y160196D01*
Y160136D01*
X665400Y160076D01*
X665412Y159944D01*
X665424Y159883D01*
X665436Y159835D01*
X665460Y159811D01*
X665508Y159763D01*
X665604Y159715D01*
X665677Y159703D01*
X665749Y159691D01*
X665785D01*
X665833Y159703D01*
X665893D01*
X665977Y159715D01*
X666074Y159739D01*
X666182Y159763D01*
X666314Y159799D01*
X666459Y158536D01*
X666423D01*
X666386Y158524D01*
X666338Y158512D01*
X666206Y158488D01*
X666038Y158464D01*
X665845Y158440D01*
X665628Y158416D01*
X665412Y158404D01*
X665183Y158392D01*
X665075D01*
X664955Y158404D01*
X664798Y158416D01*
X664630Y158428D01*
X664474Y158464D01*
X664305Y158500D01*
X664173Y158560D01*
X664161Y158572D01*
X664125Y158596D01*
X664065Y158632D01*
X663992Y158693D01*
X663908Y158765D01*
X663836Y158861D01*
X663752Y158969D01*
X663692Y159090D01*
Y159101D01*
X663668Y159162D01*
X663644Y159246D01*
X663620Y159366D01*
X663595Y159535D01*
X663571Y159739D01*
X663559Y159980D01*
X663547Y160256D01*
Y161941D01*
X662874D01*
Y163276D01*
X663547D01*
Y164142D01*
X665388Y165092D01*
Y163276D01*
D02*
G37*
G36*
X653033Y160124D02*
X656221D01*
Y158500D01*
X651000D01*
Y165092D01*
X653033D01*
Y160124D01*
D02*
G37*
G36*
X747300Y163372D02*
X747408D01*
X747637Y163348D01*
X747890Y163312D01*
X748154Y163252D01*
X748419Y163180D01*
X748660Y163071D01*
X748672D01*
X748684Y163059D01*
X748756Y163011D01*
X748864Y162939D01*
X748996Y162843D01*
X749153Y162710D01*
X749297Y162554D01*
X749441Y162374D01*
X749574Y162169D01*
Y162157D01*
X749586Y162145D01*
X749598Y162109D01*
X749622Y162061D01*
X749646Y162001D01*
X749670Y161928D01*
X749730Y161760D01*
X749790Y161532D01*
X749838Y161279D01*
X749875Y160978D01*
X749887Y160641D01*
Y160437D01*
X746217D01*
Y160413D01*
X746230Y160365D01*
X746242Y160280D01*
X746266Y160184D01*
X746338Y159968D01*
X746386Y159871D01*
X746446Y159775D01*
X746458Y159763D01*
X746494Y159727D01*
X746554Y159679D01*
X746638Y159619D01*
X746735Y159559D01*
X746855Y159511D01*
X746987Y159474D01*
X747144Y159462D01*
X747192D01*
X747240Y159474D01*
X747312D01*
X747469Y159523D01*
X747553Y159547D01*
X747649Y159595D01*
X747661D01*
X747673Y159607D01*
X747745Y159667D01*
X747793Y159703D01*
X747842Y159763D01*
X747914Y159823D01*
X747974Y159907D01*
X749778Y159739D01*
Y159727D01*
X749754Y159703D01*
X749730Y159667D01*
X749706Y159619D01*
X749610Y159499D01*
X749490Y159342D01*
X749345Y159174D01*
X749177Y158993D01*
X748984Y158837D01*
X748768Y158704D01*
X748756D01*
X748744Y158693D01*
X748708Y158680D01*
X748660Y158656D01*
X748599Y158632D01*
X748527Y158608D01*
X748443Y158572D01*
X748347Y158548D01*
X748226Y158524D01*
X748106Y158488D01*
X747974Y158464D01*
X747817Y158440D01*
X747661Y158416D01*
X747481Y158404D01*
X747300Y158392D01*
X746939D01*
X746855Y158404D01*
X746771D01*
X746554Y158428D01*
X746314Y158452D01*
X746061Y158500D01*
X745821Y158572D01*
X745604Y158656D01*
X745580Y158668D01*
X745520Y158704D01*
X745411Y158777D01*
X745291Y158861D01*
X745147Y158981D01*
X744990Y159126D01*
X744846Y159294D01*
X744702Y159499D01*
Y159511D01*
X744690Y159523D01*
X744666Y159559D01*
X744654Y159607D01*
X744593Y159727D01*
X744533Y159896D01*
X744461Y160088D01*
X744413Y160329D01*
X744365Y160581D01*
X744353Y160870D01*
Y160882D01*
Y160918D01*
Y160978D01*
X744365Y161050D01*
X744377Y161147D01*
X744389Y161267D01*
X744413Y161387D01*
X744437Y161520D01*
X744521Y161808D01*
X744581Y161953D01*
X744654Y162109D01*
X744738Y162265D01*
X744834Y162410D01*
X744942Y162554D01*
X745063Y162686D01*
X745075Y162698D01*
X745099Y162723D01*
X745135Y162747D01*
X745195Y162795D01*
X745267Y162843D01*
X745363Y162903D01*
X745460Y162975D01*
X745580Y163035D01*
X745712Y163095D01*
X745869Y163168D01*
X746025Y163228D01*
X746205Y163276D01*
X746398Y163324D01*
X746602Y163360D01*
X746819Y163372D01*
X747048Y163384D01*
X747216D01*
X747300Y163372D01*
D02*
G37*
G36*
X731962D02*
X732070Y163360D01*
X732214Y163336D01*
X732371Y163312D01*
X732527Y163276D01*
X732696Y163240D01*
X732876Y163180D01*
X733057Y163108D01*
X733237Y163035D01*
X733418Y162927D01*
X733586Y162819D01*
X733742Y162686D01*
X733887Y162542D01*
X733899Y162530D01*
X733911Y162518D01*
X733947Y162470D01*
X733983Y162422D01*
X734031Y162362D01*
X734079Y162277D01*
X734127Y162193D01*
X734187Y162085D01*
X734296Y161844D01*
X734392Y161568D01*
X734464Y161243D01*
X734476Y161074D01*
X734488Y160894D01*
Y160882D01*
Y160846D01*
Y160786D01*
X734476Y160714D01*
X734464Y160617D01*
X734452Y160509D01*
X734428Y160389D01*
X734392Y160256D01*
X734308Y159968D01*
X734248Y159823D01*
X734175Y159667D01*
X734091Y159523D01*
X733995Y159366D01*
X733887Y159222D01*
X733754Y159090D01*
X733742Y159077D01*
X733718Y159065D01*
X733682Y159029D01*
X733622Y158981D01*
X733550Y158933D01*
X733454Y158873D01*
X733345Y158801D01*
X733225Y158741D01*
X733093Y158680D01*
X732936Y158608D01*
X732768Y158548D01*
X732587Y158500D01*
X732395Y158452D01*
X732178Y158428D01*
X731962Y158404D01*
X731721Y158392D01*
X731613D01*
X731529Y158404D01*
X731433D01*
X731324Y158428D01*
X731192Y158440D01*
X731060Y158464D01*
X730759Y158536D01*
X730446Y158632D01*
X730145Y158777D01*
X729989Y158873D01*
X729857Y158969D01*
X729845Y158981D01*
X729821Y159005D01*
X729772Y159041D01*
X729724Y159101D01*
X729652Y159174D01*
X729580Y159258D01*
X729508Y159366D01*
X729424Y159474D01*
X729339Y159607D01*
X729267Y159751D01*
X729195Y159907D01*
X729123Y160076D01*
X729075Y160256D01*
X729027Y160449D01*
X729003Y160653D01*
X728991Y160870D01*
Y160882D01*
Y160918D01*
Y160978D01*
X729003Y161050D01*
X729014Y161147D01*
X729027Y161255D01*
X729051Y161375D01*
X729087Y161507D01*
X729171Y161796D01*
X729231Y161941D01*
X729303Y162097D01*
X729388Y162241D01*
X729484Y162398D01*
X729592Y162542D01*
X729724Y162674D01*
X729736Y162686D01*
X729760Y162710D01*
X729797Y162735D01*
X729857Y162783D01*
X729929Y162843D01*
X730025Y162903D01*
X730133Y162963D01*
X730254Y163035D01*
X730386Y163095D01*
X730530Y163156D01*
X730699Y163216D01*
X730879Y163276D01*
X731072Y163324D01*
X731276Y163348D01*
X731493Y163372D01*
X731721Y163384D01*
X731854D01*
X731962Y163372D01*
D02*
G37*
G36*
X737279D02*
X737411Y163360D01*
X737556Y163336D01*
X737712Y163300D01*
X737869Y163252D01*
X738013Y163192D01*
X738025Y163180D01*
X738073Y163156D01*
X738145Y163108D01*
X738230Y163047D01*
X738338Y162951D01*
X738446Y162843D01*
X738566Y162723D01*
X738687Y162566D01*
Y163276D01*
X740407D01*
Y158765D01*
Y158548D01*
Y158524D01*
Y158476D01*
X740395Y158392D01*
X740383Y158283D01*
X740359Y158151D01*
X740323Y158007D01*
X740275Y157862D01*
X740214Y157706D01*
X740203Y157694D01*
X740178Y157634D01*
X740142Y157562D01*
X740082Y157465D01*
X740010Y157369D01*
X739914Y157249D01*
X739817Y157141D01*
X739697Y157044D01*
X739685Y157032D01*
X739637Y157008D01*
X739577Y156960D01*
X739481Y156900D01*
X739360Y156840D01*
X739228Y156792D01*
X739072Y156732D01*
X738891Y156684D01*
X738867D01*
X738807Y156659D01*
X738711Y156647D01*
X738578Y156623D01*
X738410Y156599D01*
X738217Y156587D01*
X738013Y156563D01*
X737652D01*
X737556Y156575D01*
X737435D01*
X737303Y156587D01*
X737147Y156599D01*
X736990Y156623D01*
X736666Y156671D01*
X736341Y156744D01*
X736184Y156792D01*
X736040Y156852D01*
X735908Y156924D01*
X735800Y156996D01*
X735775Y157020D01*
X735715Y157080D01*
X735631Y157177D01*
X735535Y157309D01*
X735439Y157465D01*
X735354Y157670D01*
X735294Y157898D01*
X735282Y158019D01*
X735270Y158151D01*
Y158163D01*
Y158223D01*
Y158296D01*
Y158392D01*
X737051Y158187D01*
Y158175D01*
X737063Y158151D01*
X737075Y158103D01*
X737099Y158055D01*
X737159Y157947D01*
X737207Y157898D01*
X737255Y157850D01*
X737267D01*
X737291Y157826D01*
X737339Y157802D01*
X737399Y157778D01*
X737472Y157754D01*
X737556Y157730D01*
X737652Y157718D01*
X737760Y157706D01*
X737832D01*
X737905Y157718D01*
X737989Y157730D01*
X738085Y157754D01*
X738181Y157802D01*
X738278Y157850D01*
X738362Y157923D01*
X738374Y157935D01*
X738398Y157971D01*
X738422Y158019D01*
X738470Y158091D01*
X738506Y158199D01*
X738530Y158320D01*
X738554Y158464D01*
X738566Y158644D01*
Y159366D01*
X738554Y159354D01*
X738518Y159318D01*
X738470Y159258D01*
X738398Y159198D01*
X738314Y159114D01*
X738217Y159041D01*
X738121Y158969D01*
X738025Y158909D01*
X738001Y158897D01*
X737953Y158873D01*
X737857Y158837D01*
X737748Y158801D01*
X737604Y158765D01*
X737448Y158729D01*
X737279Y158704D01*
X737099Y158693D01*
X737003D01*
X736942Y158704D01*
X736858Y158716D01*
X736762Y158741D01*
X736545Y158801D01*
X736425Y158837D01*
X736305Y158897D01*
X736172Y158957D01*
X736040Y159041D01*
X735920Y159138D01*
X735787Y159246D01*
X735667Y159378D01*
X735547Y159523D01*
Y159535D01*
X735535Y159547D01*
X735511Y159583D01*
X735487Y159631D01*
X735451Y159691D01*
X735415Y159763D01*
X735378Y159847D01*
X735342Y159944D01*
X735270Y160172D01*
X735198Y160437D01*
X735150Y160750D01*
X735138Y161099D01*
Y161110D01*
Y161147D01*
Y161207D01*
X735150Y161279D01*
Y161375D01*
X735162Y161483D01*
X735210Y161724D01*
X735270Y162001D01*
X735366Y162277D01*
X735499Y162554D01*
X735571Y162674D01*
X735667Y162795D01*
X735679Y162807D01*
X735691Y162819D01*
X735727Y162855D01*
X735763Y162891D01*
X735884Y162987D01*
X736052Y163095D01*
X736257Y163204D01*
X736497Y163288D01*
X736774Y163360D01*
X736930Y163372D01*
X737087Y163384D01*
X737183D01*
X737279Y163372D01*
D02*
G37*
G36*
X727180Y150000D02*
X725700D01*
X723794Y152794D01*
Y150000D01*
X722324D01*
Y155069D01*
X723776D01*
X725700Y152257D01*
Y155069D01*
X727180D01*
Y150000D01*
D02*
G37*
G36*
X707894D02*
X706414D01*
X704508Y152794D01*
Y150000D01*
X703037D01*
Y155069D01*
X704490D01*
X706414Y152257D01*
Y155069D01*
X707894D01*
Y150000D01*
D02*
G37*
G36*
X686248D02*
X684768D01*
X682863Y152794D01*
Y150000D01*
X681392D01*
Y155069D01*
X682844D01*
X684768Y152257D01*
Y155069D01*
X686248D01*
Y150000D01*
D02*
G37*
G36*
X669839Y155143D02*
X669922D01*
X670015Y155134D01*
X670117Y155124D01*
X670227Y155106D01*
X670468Y155060D01*
X670718Y154995D01*
X670949Y154903D01*
X671060Y154847D01*
X671162Y154782D01*
X671171D01*
X671180Y154764D01*
X671245Y154718D01*
X671328Y154625D01*
X671430Y154505D01*
X671486Y154431D01*
X671532Y154348D01*
X671587Y154246D01*
X671633Y154144D01*
X671680Y154033D01*
X671717Y153913D01*
X671744Y153774D01*
X671772Y153635D01*
X670292Y153552D01*
Y153570D01*
X670283Y153607D01*
X670264Y153672D01*
X670237Y153746D01*
X670200Y153820D01*
X670163Y153903D01*
X670107Y153987D01*
X670043Y154051D01*
X670033Y154061D01*
X670006Y154079D01*
X669969Y154098D01*
X669913Y154135D01*
X669839Y154163D01*
X669746Y154181D01*
X669645Y154200D01*
X669524Y154209D01*
X669478D01*
X669432Y154200D01*
X669367Y154190D01*
X669229Y154163D01*
X669164Y154125D01*
X669108Y154088D01*
X669099Y154079D01*
X669090Y154070D01*
X669043Y154015D01*
X668997Y153922D01*
X668988Y153867D01*
X668979Y153811D01*
Y153802D01*
Y153793D01*
X668997Y153737D01*
X669025Y153663D01*
X669053Y153626D01*
X669090Y153589D01*
X669099D01*
X669117Y153570D01*
X669145Y153552D01*
X669201Y153524D01*
X669266Y153497D01*
X669358Y153469D01*
X669469Y153432D01*
X669608Y153404D01*
X669617D01*
X669654Y153395D01*
X669709Y153385D01*
X669774Y153367D01*
X669858Y153349D01*
X669959Y153321D01*
X670070Y153293D01*
X670181Y153265D01*
X670422Y153200D01*
X670672Y153117D01*
X670893Y153034D01*
X670995Y152997D01*
X671088Y152951D01*
X671097D01*
X671106Y152942D01*
X671162Y152914D01*
X671236Y152867D01*
X671338Y152803D01*
X671439Y152719D01*
X671550Y152627D01*
X671652Y152516D01*
X671735Y152396D01*
X671744Y152377D01*
X671763Y152340D01*
X671800Y152266D01*
X671837Y152174D01*
X671874Y152063D01*
X671911Y151943D01*
X671930Y151795D01*
X671939Y151646D01*
Y151637D01*
Y151628D01*
Y151600D01*
Y151563D01*
X671920Y151471D01*
X671902Y151350D01*
X671874Y151212D01*
X671818Y151055D01*
X671754Y150897D01*
X671661Y150740D01*
X671652Y150722D01*
X671615Y150675D01*
X671550Y150601D01*
X671467Y150509D01*
X671356Y150407D01*
X671227Y150305D01*
X671078Y150213D01*
X670903Y150120D01*
X670893D01*
X670884Y150111D01*
X670857Y150102D01*
X670820Y150092D01*
X670773Y150074D01*
X670709Y150056D01*
X670644Y150037D01*
X670570Y150019D01*
X670394Y149981D01*
X670181Y149944D01*
X669950Y149926D01*
X669682Y149917D01*
X669561D01*
X669469Y149926D01*
X669367Y149935D01*
X669247Y149944D01*
X669117Y149954D01*
X668969Y149981D01*
X668674Y150037D01*
X668377Y150120D01*
X668239Y150176D01*
X668109Y150250D01*
X667989Y150324D01*
X667887Y150407D01*
X667878Y150416D01*
X667869Y150435D01*
X667841Y150462D01*
X667813Y150499D01*
X667776Y150546D01*
X667730Y150601D01*
X667684Y150675D01*
X667637Y150749D01*
X667536Y150934D01*
X667443Y151156D01*
X667379Y151397D01*
X667351Y151535D01*
X667332Y151674D01*
X668821Y151776D01*
Y151758D01*
X668831Y151711D01*
X668840Y151646D01*
X668868Y151573D01*
X668923Y151388D01*
X668969Y151295D01*
X669016Y151221D01*
X669025Y151212D01*
X669062Y151175D01*
X669117Y151128D01*
X669192Y151073D01*
X669293Y151008D01*
X669414Y150962D01*
X669552Y150925D01*
X669709Y150916D01*
X669765D01*
X669820Y150925D01*
X669904Y150934D01*
X669987Y150953D01*
X670070Y150980D01*
X670154Y151017D01*
X670227Y151064D01*
X670237Y151073D01*
X670255Y151092D01*
X670283Y151128D01*
X670320Y151165D01*
X670357Y151221D01*
X670385Y151286D01*
X670403Y151360D01*
X670412Y151434D01*
Y151443D01*
Y151471D01*
X670403Y151508D01*
X670394Y151554D01*
X670366Y151610D01*
X670338Y151665D01*
X670292Y151730D01*
X670237Y151785D01*
X670227Y151795D01*
X670200Y151813D01*
X670144Y151841D01*
X670070Y151878D01*
X669959Y151924D01*
X669820Y151979D01*
X669737Y152007D01*
X669645Y152026D01*
X669543Y152053D01*
X669432Y152081D01*
X669423D01*
X669386Y152091D01*
X669330Y152109D01*
X669266Y152118D01*
X669182Y152146D01*
X669080Y152174D01*
X668979Y152201D01*
X668868Y152239D01*
X668618Y152331D01*
X668377Y152433D01*
X668155Y152553D01*
X668054Y152618D01*
X667961Y152692D01*
Y152701D01*
X667943Y152710D01*
X667897Y152757D01*
X667823Y152840D01*
X667748Y152960D01*
X667665Y153099D01*
X667591Y153265D01*
X667545Y153450D01*
X667536Y153552D01*
X667526Y153663D01*
Y153672D01*
Y153682D01*
Y153728D01*
X667536Y153811D01*
X667554Y153903D01*
X667582Y154015D01*
X667619Y154144D01*
X667674Y154273D01*
X667748Y154403D01*
X667758Y154421D01*
X667795Y154458D01*
X667850Y154523D01*
X667924Y154606D01*
X668017Y154690D01*
X668137Y154782D01*
X668276Y154866D01*
X668433Y154949D01*
X668442D01*
X668451Y154958D01*
X668479Y154967D01*
X668516Y154976D01*
X668563Y154995D01*
X668618Y155014D01*
X668683Y155032D01*
X668757Y155051D01*
X668840Y155069D01*
X668942Y155087D01*
X669155Y155124D01*
X669404Y155143D01*
X669682Y155152D01*
X669774D01*
X669839Y155143D01*
D02*
G37*
G36*
X678312D02*
X678497Y155134D01*
X678700Y155115D01*
X678913Y155087D01*
X679108Y155051D01*
X679200Y155023D01*
X679283Y154995D01*
X679292D01*
X679302Y154986D01*
X679357Y154967D01*
X679431Y154930D01*
X679524Y154884D01*
X679635Y154819D01*
X679755Y154736D01*
X679866Y154634D01*
X679977Y154523D01*
X679986Y154505D01*
X680023Y154468D01*
X680069Y154394D01*
X680134Y154301D01*
X680199Y154190D01*
X680273Y154051D01*
X680338Y153894D01*
X680393Y153718D01*
X678886Y153450D01*
Y153460D01*
X678867Y153497D01*
X678839Y153552D01*
X678812Y153617D01*
X678765Y153682D01*
X678710Y153755D01*
X678636Y153820D01*
X678562Y153885D01*
X678552Y153894D01*
X678525Y153913D01*
X678469Y153931D01*
X678405Y153968D01*
X678321Y153996D01*
X678229Y154015D01*
X678118Y154033D01*
X677988Y154042D01*
X677942D01*
X677905Y154033D01*
X677812Y154024D01*
X677692Y153996D01*
X677563Y153959D01*
X677424Y153894D01*
X677285Y153802D01*
X677165Y153682D01*
X677156Y153663D01*
X677119Y153617D01*
X677072Y153524D01*
X677017Y153404D01*
X676952Y153247D01*
X676934Y153154D01*
X676906Y153052D01*
X676888Y152942D01*
X676869Y152821D01*
X676860Y152692D01*
Y152553D01*
Y152544D01*
Y152516D01*
Y152479D01*
X676869Y152424D01*
Y152349D01*
X676878Y152276D01*
X676897Y152100D01*
X676934Y151906D01*
X676989Y151711D01*
X677063Y151526D01*
X677109Y151452D01*
X677165Y151378D01*
X677183Y151360D01*
X677220Y151323D01*
X677294Y151267D01*
X677396Y151202D01*
X677517Y151138D01*
X677665Y151082D01*
X677840Y151045D01*
X678034Y151027D01*
X678127D01*
X678192Y151036D01*
X678275Y151045D01*
X678358Y151055D01*
X678534Y151101D01*
X678543D01*
X678580Y151119D01*
X678626Y151138D01*
X678691Y151165D01*
X678774Y151193D01*
X678867Y151240D01*
X678978Y151295D01*
X679089Y151360D01*
Y151841D01*
X678034D01*
Y152895D01*
X680458D01*
Y150731D01*
X680449Y150722D01*
X680430Y150712D01*
X680393Y150684D01*
X680338Y150657D01*
X680282Y150620D01*
X680208Y150574D01*
X680042Y150472D01*
X679847Y150370D01*
X679635Y150259D01*
X679422Y150157D01*
X679218Y150083D01*
X679209D01*
X679191Y150074D01*
X679163Y150065D01*
X679126Y150056D01*
X679071Y150046D01*
X679015Y150028D01*
X678941Y150019D01*
X678867Y150000D01*
X678682Y149972D01*
X678460Y149944D01*
X678220Y149926D01*
X677951Y149917D01*
X677868D01*
X677803Y149926D01*
X677720D01*
X677637Y149935D01*
X677535Y149944D01*
X677424Y149954D01*
X677193Y149991D01*
X676943Y150046D01*
X676702Y150120D01*
X676471Y150222D01*
X676462D01*
X676443Y150241D01*
X676416Y150259D01*
X676379Y150277D01*
X676277Y150352D01*
X676148Y150453D01*
X676009Y150574D01*
X675861Y150731D01*
X675722Y150916D01*
X675593Y151128D01*
Y151138D01*
X675583Y151156D01*
X675565Y151193D01*
X675546Y151240D01*
X675519Y151295D01*
X675500Y151360D01*
X675472Y151443D01*
X675445Y151535D01*
X675408Y151628D01*
X675380Y151739D01*
X675333Y151979D01*
X675296Y152248D01*
X675287Y152534D01*
Y152544D01*
Y152571D01*
Y152618D01*
X675296Y152673D01*
Y152747D01*
X675306Y152831D01*
X675315Y152923D01*
X675333Y153025D01*
X675371Y153247D01*
X675435Y153487D01*
X675519Y153728D01*
X675630Y153968D01*
Y153978D01*
X675648Y153996D01*
X675667Y154024D01*
X675694Y154070D01*
X675768Y154181D01*
X675879Y154320D01*
X676027Y154468D01*
X676194Y154625D01*
X676397Y154773D01*
X676628Y154903D01*
X676638D01*
X676656Y154912D01*
X676684Y154930D01*
X676721Y154939D01*
X676777Y154958D01*
X676841Y154986D01*
X676915Y155004D01*
X676999Y155032D01*
X677091Y155051D01*
X677202Y155069D01*
X677313Y155097D01*
X677433Y155115D01*
X677572Y155134D01*
X677711Y155143D01*
X678025Y155152D01*
X678238D01*
X678312Y155143D01*
D02*
G37*
G36*
X713823D02*
X713906D01*
X713999Y155134D01*
X714100Y155124D01*
X714211Y155106D01*
X714461Y155060D01*
X714711Y154986D01*
X714951Y154893D01*
X715062Y154829D01*
X715173Y154764D01*
X715182D01*
X715201Y154745D01*
X715229Y154727D01*
X715266Y154690D01*
X715312Y154653D01*
X715368Y154597D01*
X715423Y154542D01*
X715488Y154468D01*
X715553Y154394D01*
X715617Y154301D01*
X715691Y154209D01*
X715756Y154098D01*
X715821Y153978D01*
X715885Y153857D01*
X715941Y153718D01*
X715997Y153570D01*
X714609Y153265D01*
Y153275D01*
X714600Y153302D01*
X714581Y153349D01*
X714563Y153395D01*
X714507Y153506D01*
X714479Y153552D01*
X714452Y153598D01*
X714442Y153607D01*
X714433Y153626D01*
X714396Y153663D01*
X714359Y153700D01*
X714257Y153793D01*
X714128Y153876D01*
X714119Y153885D01*
X714100Y153894D01*
X714054Y153913D01*
X714008Y153931D01*
X713943Y153950D01*
X713869Y153959D01*
X713786Y153978D01*
X713647D01*
X713619Y153968D01*
X713518Y153959D01*
X713397Y153922D01*
X713268Y153876D01*
X713129Y153793D01*
X712999Y153691D01*
X712944Y153617D01*
X712888Y153543D01*
X712879Y153524D01*
X712851Y153487D01*
X712824Y153404D01*
X712787Y153302D01*
X712741Y153164D01*
X712713Y152997D01*
X712685Y152794D01*
X712676Y152553D01*
Y152544D01*
Y152516D01*
Y152470D01*
Y152414D01*
X712685Y152349D01*
Y152266D01*
X712704Y152091D01*
X712741Y151906D01*
X712778Y151711D01*
X712842Y151535D01*
X712879Y151462D01*
X712925Y151397D01*
X712935Y151388D01*
X712972Y151350D01*
X713036Y151304D01*
X713110Y151249D01*
X713212Y151184D01*
X713342Y151138D01*
X713481Y151101D01*
X713647Y151092D01*
X713721D01*
X713804Y151101D01*
X713906Y151119D01*
X714017Y151156D01*
X714128Y151193D01*
X714239Y151258D01*
X714331Y151341D01*
X714341Y151350D01*
X714368Y151388D01*
X714415Y151443D01*
X714461Y151526D01*
X714516Y151628D01*
X714572Y151758D01*
X714628Y151906D01*
X714674Y152081D01*
X716043Y151656D01*
Y151646D01*
X716034Y151628D01*
X716024Y151600D01*
X716015Y151563D01*
X715987Y151452D01*
X715932Y151323D01*
X715876Y151165D01*
X715793Y151008D01*
X715710Y150851D01*
X715599Y150694D01*
X715590Y150675D01*
X715543Y150629D01*
X715479Y150564D01*
X715395Y150472D01*
X715284Y150379D01*
X715164Y150287D01*
X715016Y150194D01*
X714859Y150111D01*
X714850D01*
X714840Y150102D01*
X714813Y150092D01*
X714785Y150083D01*
X714683Y150046D01*
X714553Y150019D01*
X714396Y149981D01*
X714202Y149944D01*
X713980Y149926D01*
X713739Y149917D01*
X713601D01*
X713527Y149926D01*
X713453D01*
X713360Y149935D01*
X713259Y149944D01*
X713046Y149972D01*
X712815Y150019D01*
X712593Y150074D01*
X712380Y150148D01*
X712370D01*
X712361Y150157D01*
X712333Y150176D01*
X712296Y150194D01*
X712195Y150259D01*
X712075Y150342D01*
X711936Y150462D01*
X711778Y150601D01*
X711630Y150777D01*
X711482Y150990D01*
Y150999D01*
X711464Y151017D01*
X711446Y151055D01*
X711427Y151101D01*
X711399Y151156D01*
X711362Y151230D01*
X711325Y151313D01*
X711298Y151415D01*
X711261Y151517D01*
X711224Y151637D01*
X711196Y151767D01*
X711159Y151906D01*
X711140Y152053D01*
X711122Y152211D01*
X711103Y152544D01*
Y152562D01*
Y152599D01*
X711112Y152664D01*
Y152747D01*
X711122Y152858D01*
X711140Y152979D01*
X711159Y153108D01*
X711187Y153256D01*
X711224Y153413D01*
X711270Y153570D01*
X711316Y153728D01*
X711381Y153894D01*
X711464Y154051D01*
X711547Y154200D01*
X711649Y154348D01*
X711769Y154477D01*
X711778Y154486D01*
X711797Y154505D01*
X711843Y154542D01*
X711890Y154579D01*
X711964Y154634D01*
X712047Y154690D01*
X712139Y154754D01*
X712259Y154819D01*
X712380Y154875D01*
X712528Y154939D01*
X712685Y154995D01*
X712851Y155051D01*
X713036Y155087D01*
X713231Y155124D01*
X713444Y155143D01*
X713665Y155152D01*
X713758D01*
X713823Y155143D01*
D02*
G37*
G36*
X659890Y163372D02*
X660095Y163360D01*
X660323Y163348D01*
X660540Y163324D01*
X660732Y163288D01*
X660756D01*
X660816Y163264D01*
X660913Y163240D01*
X661033Y163204D01*
X661165Y163156D01*
X661298Y163083D01*
X661442Y162999D01*
X661574Y162903D01*
X661586Y162891D01*
X661611Y162867D01*
X661659Y162819D01*
X661707Y162759D01*
X661767Y162674D01*
X661827Y162578D01*
X661887Y162458D01*
X661935Y162326D01*
X661947Y162313D01*
X661959Y162265D01*
X661983Y162193D01*
X662007Y162097D01*
X662032Y161989D01*
X662056Y161868D01*
X662080Y161748D01*
Y161616D01*
Y159511D01*
Y159499D01*
Y159450D01*
Y159390D01*
Y159318D01*
X662092Y159150D01*
X662104Y159065D01*
X662116Y158981D01*
Y158969D01*
X662128Y158945D01*
X662140Y158909D01*
X662164Y158849D01*
X662188Y158777D01*
X662212Y158693D01*
X662308Y158500D01*
X660588D01*
Y158512D01*
X660576Y158536D01*
X660528Y158608D01*
X660480Y158693D01*
X660443Y158777D01*
Y158801D01*
X660431Y158849D01*
X660407Y158945D01*
X660383Y159077D01*
X660371Y159065D01*
X660323Y159017D01*
X660251Y158957D01*
X660155Y158885D01*
X660047Y158801D01*
X659926Y158729D01*
X659806Y158644D01*
X659674Y158584D01*
X659650Y158572D01*
X659589Y158560D01*
X659481Y158524D01*
X659349Y158488D01*
X659180Y158452D01*
X658988Y158428D01*
X658771Y158404D01*
X658543Y158392D01*
X658459D01*
X658398Y158404D01*
X658326D01*
X658242Y158416D01*
X658050Y158440D01*
X657845Y158488D01*
X657628Y158560D01*
X657412Y158644D01*
X657232Y158777D01*
X657207Y158801D01*
X657159Y158849D01*
X657099Y158933D01*
X657015Y159053D01*
X656931Y159198D01*
X656871Y159366D01*
X656822Y159547D01*
X656799Y159763D01*
Y159775D01*
Y159787D01*
Y159859D01*
X656811Y159956D01*
X656835Y160076D01*
X656871Y160220D01*
X656931Y160365D01*
X657003Y160521D01*
X657111Y160653D01*
X657123Y160665D01*
X657171Y160714D01*
X657256Y160774D01*
X657376Y160846D01*
X657544Y160930D01*
X657749Y161014D01*
X657989Y161099D01*
X658134Y161135D01*
X658290Y161171D01*
X658302D01*
X658338Y161183D01*
X658386Y161195D01*
X658459Y161207D01*
X658543Y161219D01*
X658639Y161243D01*
X658844Y161279D01*
X659072Y161327D01*
X659289Y161375D01*
X659481Y161423D01*
X659565Y161447D01*
X659625Y161459D01*
X659637D01*
X659686Y161471D01*
X659746Y161495D01*
X659830Y161520D01*
X659926Y161556D01*
X660035Y161592D01*
X660287Y161688D01*
Y161700D01*
Y161736D01*
X660275Y161796D01*
Y161868D01*
X660227Y162013D01*
X660191Y162085D01*
X660143Y162145D01*
X660131Y162157D01*
X660119Y162169D01*
X660083Y162193D01*
X660022Y162217D01*
X659962Y162241D01*
X659878Y162265D01*
X659770Y162290D01*
X659577D01*
X659493Y162277D01*
X659397D01*
X659180Y162229D01*
X659072Y162193D01*
X658976Y162145D01*
X658964D01*
X658952Y162121D01*
X658916Y162097D01*
X658880Y162049D01*
X658832Y161989D01*
X658783Y161916D01*
X658735Y161832D01*
X658699Y161724D01*
X656943Y161905D01*
Y161928D01*
X656967Y161977D01*
X656979Y162061D01*
X657015Y162169D01*
X657051Y162277D01*
X657099Y162398D01*
X657159Y162518D01*
X657220Y162626D01*
X657232Y162638D01*
X657256Y162674D01*
X657304Y162723D01*
X657364Y162783D01*
X657436Y162855D01*
X657532Y162927D01*
X657641Y163011D01*
X657761Y163083D01*
X657773Y163095D01*
X657809Y163108D01*
X657869Y163131D01*
X657941Y163168D01*
X658038Y163204D01*
X658158Y163240D01*
X658290Y163276D01*
X658447Y163300D01*
X658471D01*
X658519Y163312D01*
X658615Y163324D01*
X658735Y163348D01*
X658880Y163360D01*
X659036Y163372D01*
X659216Y163384D01*
X659698D01*
X659890Y163372D01*
D02*
G37*
G36*
X753219D02*
X753411D01*
X753616Y163348D01*
X753820Y163324D01*
X754013Y163300D01*
X754181Y163252D01*
X754205D01*
X754253Y163228D01*
X754326Y163192D01*
X754422Y163156D01*
X754530Y163095D01*
X754638Y163023D01*
X754759Y162939D01*
X754867Y162843D01*
X754879Y162831D01*
X754915Y162795D01*
X754963Y162735D01*
X755023Y162650D01*
X755096Y162542D01*
X755180Y162422D01*
X755252Y162277D01*
X755324Y162109D01*
X753592Y161941D01*
Y161953D01*
X753580Y161977D01*
X753556Y162025D01*
X753532Y162073D01*
X753460Y162181D01*
X753363Y162277D01*
X753351Y162290D01*
X753327Y162302D01*
X753279Y162326D01*
X753219Y162350D01*
X753135Y162374D01*
X753051Y162398D01*
X752942Y162422D01*
X752726D01*
X752666Y162410D01*
X752509Y162374D01*
X752437Y162338D01*
X752377Y162302D01*
X752353Y162277D01*
X752317Y162229D01*
X752269Y162145D01*
X752256Y162097D01*
X752245Y162037D01*
Y162025D01*
Y162013D01*
X752269Y161941D01*
X752317Y161844D01*
X752353Y161808D01*
X752413Y161772D01*
X752425D01*
X752449Y161760D01*
X752497Y161736D01*
X752581Y161712D01*
X752678Y161688D01*
X752822Y161664D01*
X752990Y161628D01*
X753195Y161604D01*
X753231D01*
X753279Y161592D01*
X753339D01*
X753423Y161580D01*
X753508Y161568D01*
X753712Y161532D01*
X753929Y161495D01*
X754157Y161447D01*
X754374Y161387D01*
X754554Y161315D01*
X754578Y161303D01*
X754626Y161279D01*
X754711Y161243D01*
X754807Y161183D01*
X754915Y161110D01*
X755035Y161014D01*
X755144Y160906D01*
X755240Y160786D01*
X755252Y160774D01*
X755276Y160725D01*
X755312Y160653D01*
X755360Y160569D01*
X755408Y160461D01*
X755444Y160329D01*
X755469Y160184D01*
X755481Y160040D01*
Y160028D01*
Y159968D01*
X755469Y159896D01*
X755444Y159787D01*
X755420Y159667D01*
X755372Y159523D01*
X755312Y159378D01*
X755228Y159234D01*
X755216Y159222D01*
X755180Y159174D01*
X755120Y159101D01*
X755035Y159017D01*
X754927Y158921D01*
X754783Y158813D01*
X754626Y158716D01*
X754434Y158620D01*
X754410Y158608D01*
X754338Y158584D01*
X754217Y158548D01*
X754049Y158512D01*
X753844Y158464D01*
X753592Y158428D01*
X753303Y158404D01*
X752978Y158392D01*
X752858D01*
X752762Y158404D01*
X752654D01*
X752533Y158416D01*
X752401Y158428D01*
X752256Y158440D01*
X751944Y158488D01*
X751643Y158548D01*
X751354Y158644D01*
X751222Y158704D01*
X751114Y158765D01*
X751090Y158777D01*
X751029Y158837D01*
X750933Y158921D01*
X750813Y159041D01*
X750693Y159186D01*
X750584Y159378D01*
X750476Y159595D01*
X750404Y159835D01*
X752220Y160004D01*
Y159992D01*
X752245Y159944D01*
X752269Y159896D01*
X752305Y159823D01*
X752389Y159655D01*
X752449Y159583D01*
X752521Y159523D01*
X752533D01*
X752557Y159499D01*
X752605Y159486D01*
X752666Y159462D01*
X752738Y159438D01*
X752834Y159414D01*
X752942Y159402D01*
X753062Y159390D01*
X753123D01*
X753195Y159402D01*
X753279Y159414D01*
X753460Y159462D01*
X753544Y159499D01*
X753628Y159547D01*
X753640D01*
X753652Y159571D01*
X753712Y159619D01*
X753772Y159715D01*
X753784Y159775D01*
X753796Y159835D01*
Y159847D01*
Y159871D01*
X753772Y159944D01*
X753748Y159992D01*
X753712Y160040D01*
X753664Y160088D01*
X753592Y160136D01*
X753580D01*
X753556Y160148D01*
X753508Y160172D01*
X753436Y160196D01*
X753339Y160220D01*
X753207Y160256D01*
X753026Y160292D01*
X752810Y160329D01*
X752798D01*
X752774Y160341D01*
X752714D01*
X752654Y160353D01*
X752581Y160377D01*
X752485Y160389D01*
X752281Y160437D01*
X752064Y160485D01*
X751835Y160533D01*
X751643Y160581D01*
X751547Y160617D01*
X751475Y160641D01*
X751463Y160653D01*
X751414Y160665D01*
X751342Y160702D01*
X751258Y160762D01*
X751162Y160822D01*
X751065Y160906D01*
X750957Y161002D01*
X750861Y161123D01*
X750849Y161135D01*
X750825Y161183D01*
X750777Y161255D01*
X750741Y161339D01*
X750693Y161459D01*
X750644Y161580D01*
X750620Y161724D01*
X750608Y161880D01*
Y161905D01*
Y161965D01*
X750620Y162049D01*
X750644Y162169D01*
X750668Y162290D01*
X750717Y162434D01*
X750789Y162566D01*
X750873Y162698D01*
X750885Y162710D01*
X750921Y162759D01*
X750981Y162819D01*
X751078Y162891D01*
X751186Y162975D01*
X751306Y163059D01*
X751463Y163131D01*
X751631Y163204D01*
X751655Y163216D01*
X751715Y163228D01*
X751823Y163264D01*
X751980Y163300D01*
X752160Y163324D01*
X752377Y163360D01*
X752641Y163372D01*
X752930Y163384D01*
X753147D01*
X753219Y163372D01*
D02*
G37*
G36*
X717406D02*
X717550Y163360D01*
X717718Y163324D01*
X717911Y163276D01*
X718103Y163192D01*
X718296Y163083D01*
X718476Y162927D01*
X718500Y162903D01*
X718548Y162843D01*
X718609Y162735D01*
X718693Y162578D01*
X718777Y162386D01*
X718837Y162145D01*
X718885Y161856D01*
X718909Y161532D01*
Y158500D01*
X717069D01*
Y161123D01*
Y161147D01*
Y161195D01*
X717057Y161279D01*
X717045Y161375D01*
X716997Y161580D01*
X716960Y161676D01*
X716900Y161760D01*
X716888Y161772D01*
X716864Y161796D01*
X716828Y161820D01*
X716780Y161856D01*
X716708Y161892D01*
X716636Y161928D01*
X716539Y161941D01*
X716431Y161953D01*
X716371D01*
X716311Y161941D01*
X716239Y161916D01*
X716154Y161892D01*
X716058Y161844D01*
X715974Y161784D01*
X715890Y161700D01*
X715878Y161688D01*
X715854Y161652D01*
X715830Y161580D01*
X715794Y161495D01*
X715745Y161363D01*
X715721Y161207D01*
X715697Y161014D01*
X715685Y160786D01*
Y158500D01*
X713857D01*
Y163276D01*
X715553D01*
Y162494D01*
X715565Y162518D01*
X715625Y162578D01*
X715697Y162662D01*
X715794Y162759D01*
X715914Y162879D01*
X716046Y162987D01*
X716179Y163095D01*
X716323Y163180D01*
X716347Y163192D01*
X716395Y163216D01*
X716479Y163240D01*
X716588Y163288D01*
X716732Y163324D01*
X716900Y163348D01*
X717081Y163372D01*
X717285Y163384D01*
X717357D01*
X717406Y163372D01*
D02*
G37*
G36*
X683108D02*
X683240Y163360D01*
X683421Y163324D01*
X683613Y163276D01*
X683806Y163192D01*
X683998Y163083D01*
X684179Y162927D01*
X684203Y162903D01*
X684251Y162843D01*
X684311Y162735D01*
X684395Y162578D01*
X684480Y162374D01*
X684540Y162133D01*
X684588Y161832D01*
X684612Y161676D01*
Y161495D01*
Y158500D01*
X682771D01*
Y161219D01*
Y161231D01*
Y161267D01*
X682759Y161327D01*
Y161399D01*
X682711Y161556D01*
X682687Y161640D01*
X682639Y161700D01*
X682627Y161712D01*
X682603Y161736D01*
X682567Y161784D01*
X682519Y161832D01*
X682446Y161868D01*
X682374Y161916D01*
X682278Y161941D01*
X682182Y161953D01*
X682134D01*
X682073Y161941D01*
X682001Y161928D01*
X681917Y161892D01*
X681833Y161856D01*
X681737Y161796D01*
X681665Y161712D01*
X681652Y161700D01*
X681640Y161664D01*
X681604Y161616D01*
X681568Y161532D01*
X681532Y161435D01*
X681508Y161303D01*
X681484Y161147D01*
X681472Y160966D01*
Y158500D01*
X679631D01*
Y161123D01*
Y161135D01*
Y161171D01*
Y161231D01*
Y161291D01*
X679619Y161435D01*
X679607Y161495D01*
X679595Y161544D01*
Y161556D01*
X679583Y161580D01*
X679547Y161652D01*
X679487Y161736D01*
X679391Y161832D01*
X679379D01*
X679367Y161856D01*
X679295Y161892D01*
X679186Y161928D01*
X679054Y161953D01*
X679006D01*
X678946Y161941D01*
X678862Y161928D01*
X678777Y161892D01*
X678693Y161856D01*
X678609Y161796D01*
X678525Y161712D01*
X678513Y161700D01*
X678501Y161664D01*
X678465Y161604D01*
X678428Y161520D01*
X678392Y161411D01*
X678368Y161279D01*
X678344Y161123D01*
X678332Y160930D01*
Y158500D01*
X676492D01*
Y163276D01*
X678200D01*
Y162566D01*
X678212Y162590D01*
X678260Y162638D01*
X678332Y162723D01*
X678428Y162807D01*
X678549Y162915D01*
X678669Y163023D01*
X678801Y163108D01*
X678946Y163192D01*
X678958Y163204D01*
X679018Y163228D01*
X679090Y163252D01*
X679198Y163288D01*
X679331Y163324D01*
X679487Y163360D01*
X679668Y163372D01*
X679860Y163384D01*
X679956D01*
X680053Y163372D01*
X680185Y163360D01*
X680329Y163336D01*
X680485Y163300D01*
X680630Y163252D01*
X680762Y163180D01*
X680774Y163168D01*
X680822Y163144D01*
X680883Y163095D01*
X680955Y163023D01*
X681039Y162939D01*
X681135Y162831D01*
X681219Y162710D01*
X681304Y162566D01*
X681328Y162590D01*
X681376Y162638D01*
X681460Y162723D01*
X681568Y162819D01*
X681688Y162927D01*
X681821Y163035D01*
X681953Y163131D01*
X682086Y163204D01*
X682097Y163216D01*
X682146Y163228D01*
X682230Y163264D01*
X682338Y163300D01*
X682458Y163324D01*
X682615Y163360D01*
X682783Y163372D01*
X682976Y163384D01*
X683048D01*
X683108Y163372D01*
D02*
G37*
G36*
X675373Y158500D02*
X673665D01*
Y159270D01*
X673653Y159246D01*
X673604Y159198D01*
X673520Y159101D01*
X673424Y159005D01*
X673304Y158897D01*
X673171Y158777D01*
X673027Y158668D01*
X672883Y158584D01*
X672870Y158572D01*
X672810Y158560D01*
X672726Y158524D01*
X672618Y158488D01*
X672486Y158452D01*
X672317Y158428D01*
X672137Y158404D01*
X671932Y158392D01*
X671860D01*
X671812Y158404D01*
X671667Y158416D01*
X671499Y158452D01*
X671307Y158500D01*
X671114Y158584D01*
X670922Y158693D01*
X670741Y158837D01*
X670729Y158861D01*
X670681Y158921D01*
X670609Y159029D01*
X670537Y159186D01*
X670452Y159378D01*
X670392Y159619D01*
X670344Y159907D01*
X670320Y160232D01*
Y163276D01*
X672161D01*
Y160641D01*
Y160617D01*
Y160569D01*
X672173Y160485D01*
X672185Y160401D01*
X672233Y160184D01*
X672269Y160088D01*
X672317Y160004D01*
X672329Y159992D01*
X672353Y159980D01*
X672389Y159944D01*
X672437Y159920D01*
X672510Y159883D01*
X672582Y159847D01*
X672678Y159835D01*
X672786Y159823D01*
X672847D01*
X672907Y159835D01*
X672979Y159859D01*
X673063Y159883D01*
X673159Y159920D01*
X673244Y159980D01*
X673328Y160064D01*
X673340Y160076D01*
X673364Y160112D01*
X673400Y160184D01*
X673436Y160268D01*
X673472Y160401D01*
X673508Y160557D01*
X673532Y160750D01*
X673544Y160978D01*
Y163276D01*
X675373D01*
Y158500D01*
D02*
G37*
G36*
X743414D02*
X741586D01*
Y163276D01*
X743414D01*
Y158500D01*
D02*
G37*
G36*
X704317Y163372D02*
X704413D01*
X704522Y163360D01*
X704654Y163348D01*
X704786Y163336D01*
X705075Y163276D01*
X705364Y163204D01*
X705652Y163108D01*
X705785Y163035D01*
X705905Y162963D01*
X705917D01*
X705929Y162939D01*
X706001Y162891D01*
X706109Y162783D01*
X706242Y162650D01*
X706386Y162482D01*
X706531Y162265D01*
X706663Y162025D01*
X706771Y161736D01*
X705051Y161507D01*
Y161520D01*
X705039Y161556D01*
X705015Y161616D01*
X704979Y161676D01*
X704894Y161832D01*
X704822Y161905D01*
X704750Y161965D01*
X704738Y161977D01*
X704714Y161989D01*
X704666Y162013D01*
X704594Y162049D01*
X704509Y162085D01*
X704413Y162109D01*
X704305Y162121D01*
X704173Y162133D01*
X704100D01*
X704016Y162121D01*
X703908Y162097D01*
X703788Y162049D01*
X703667Y162001D01*
X703547Y161916D01*
X703439Y161808D01*
X703427Y161796D01*
X703391Y161748D01*
X703355Y161676D01*
X703306Y161568D01*
X703246Y161423D01*
X703210Y161255D01*
X703174Y161050D01*
X703162Y160822D01*
Y160810D01*
Y160798D01*
Y160725D01*
X703174Y160617D01*
X703198Y160485D01*
X703234Y160341D01*
X703282Y160196D01*
X703342Y160052D01*
X703439Y159932D01*
X703451Y159920D01*
X703487Y159883D01*
X703547Y159835D01*
X703631Y159787D01*
X703740Y159727D01*
X703860Y159679D01*
X703992Y159643D01*
X704148Y159631D01*
X704209D01*
X704281Y159643D01*
X704365Y159655D01*
X704449Y159679D01*
X704558Y159703D01*
X704654Y159751D01*
X704750Y159811D01*
X704762Y159823D01*
X704786Y159847D01*
X704834Y159883D01*
X704882Y159956D01*
X704943Y160028D01*
X705015Y160124D01*
X705075Y160244D01*
X705123Y160377D01*
X706867Y160184D01*
X706855Y160160D01*
X706843Y160088D01*
X706807Y159992D01*
X706759Y159859D01*
X706687Y159703D01*
X706603Y159547D01*
X706506Y159378D01*
X706386Y159222D01*
X706374Y159210D01*
X706326Y159162D01*
X706254Y159090D01*
X706157Y158993D01*
X706037Y158897D01*
X705893Y158801D01*
X705724Y158693D01*
X705544Y158608D01*
X705520Y158596D01*
X705448Y158572D01*
X705339Y158536D01*
X705195Y158500D01*
X705003Y158464D01*
X704786Y158428D01*
X704533Y158404D01*
X704257Y158392D01*
X704137D01*
X703992Y158404D01*
X703812D01*
X703607Y158428D01*
X703403Y158452D01*
X703186Y158476D01*
X702982Y158524D01*
X702958Y158536D01*
X702897Y158548D01*
X702801Y158584D01*
X702681Y158632D01*
X702549Y158704D01*
X702404Y158777D01*
X702260Y158873D01*
X702115Y158981D01*
X702103Y158993D01*
X702055Y159041D01*
X701995Y159101D01*
X701911Y159198D01*
X701815Y159306D01*
X701730Y159438D01*
X701634Y159571D01*
X701550Y159727D01*
X701538Y159751D01*
X701514Y159811D01*
X701490Y159896D01*
X701454Y160028D01*
X701406Y160196D01*
X701382Y160389D01*
X701358Y160605D01*
X701346Y160858D01*
Y160870D01*
Y160894D01*
Y160930D01*
Y160978D01*
X701358Y161123D01*
X701382Y161291D01*
X701406Y161483D01*
X701442Y161688D01*
X701502Y161892D01*
X701586Y162085D01*
X701598Y162097D01*
X701622Y162145D01*
X701658Y162217D01*
X701719Y162302D01*
X701791Y162398D01*
X701887Y162506D01*
X701983Y162626D01*
X702091Y162735D01*
X702103Y162747D01*
X702152Y162783D01*
X702212Y162831D01*
X702296Y162891D01*
X702392Y162963D01*
X702513Y163035D01*
X702633Y163095D01*
X702753Y163156D01*
X702765D01*
X702777Y163168D01*
X702849Y163192D01*
X702970Y163228D01*
X703126Y163276D01*
X703319Y163312D01*
X703559Y163348D01*
X703824Y163372D01*
X704124Y163384D01*
X704233D01*
X704317Y163372D01*
D02*
G37*
G36*
X669165Y163841D02*
X667337D01*
Y165092D01*
X669165D01*
Y163841D01*
D02*
G37*
G36*
X709538Y162662D02*
X709550Y162674D01*
X709598Y162723D01*
X709670Y162795D01*
X709767Y162879D01*
X709887Y162963D01*
X710007Y163059D01*
X710140Y163144D01*
X710272Y163216D01*
X710284Y163228D01*
X710344Y163240D01*
X710416Y163264D01*
X710524Y163300D01*
X710645Y163336D01*
X710801Y163360D01*
X710969Y163372D01*
X711150Y163384D01*
X711222D01*
X711270Y163372D01*
X711415Y163360D01*
X711583Y163324D01*
X711763Y163276D01*
X711968Y163192D01*
X712149Y163083D01*
X712329Y162927D01*
X712353Y162903D01*
X712401Y162843D01*
X712461Y162735D01*
X712545Y162578D01*
X712630Y162386D01*
X712690Y162145D01*
X712738Y161856D01*
X712762Y161532D01*
Y158500D01*
X710921D01*
Y161123D01*
Y161147D01*
Y161195D01*
X710909Y161279D01*
X710897Y161375D01*
X710849Y161580D01*
X710813Y161676D01*
X710753Y161760D01*
X710741Y161772D01*
X710717Y161796D01*
X710681Y161820D01*
X710633Y161856D01*
X710561Y161892D01*
X710488Y161928D01*
X710392Y161941D01*
X710284Y161953D01*
X710224D01*
X710163Y161941D01*
X710091Y161916D01*
X710007Y161892D01*
X709911Y161844D01*
X709827Y161784D01*
X709742Y161700D01*
X709730Y161688D01*
X709706Y161652D01*
X709682Y161580D01*
X709646Y161495D01*
X709598Y161363D01*
X709574Y161207D01*
X709550Y161014D01*
X709538Y160786D01*
Y158500D01*
X707709D01*
Y165092D01*
X709538D01*
Y162662D01*
D02*
G37*
G36*
X694609Y163468D02*
X692528D01*
Y158500D01*
X690494D01*
Y163468D01*
X688413D01*
Y165092D01*
X694609D01*
Y163468D01*
D02*
G37*
G36*
X669165Y158500D02*
X667337D01*
Y163276D01*
X669165D01*
Y158500D01*
D02*
G37*
G36*
X743414Y163841D02*
X741586D01*
Y165092D01*
X743414D01*
Y163841D01*
D02*
G37*
G36*
X807662Y171875D02*
X600500D01*
Y183606D01*
X807662D01*
Y171875D01*
D02*
G37*
G36*
X728052Y158500D02*
X726212D01*
Y165092D01*
X728052D01*
Y158500D01*
D02*
G37*
G36*
X659497Y155060D02*
X659562D01*
X659720Y155041D01*
X659904Y155023D01*
X660089Y154986D01*
X660275Y154939D01*
X660441Y154875D01*
X660450D01*
X660460Y154866D01*
X660515Y154838D01*
X660589Y154801D01*
X660691Y154736D01*
X660802Y154662D01*
X660922Y154569D01*
X661033Y154458D01*
X661144Y154338D01*
X661153Y154320D01*
X661190Y154273D01*
X661236Y154209D01*
X661301Y154107D01*
X661366Y153987D01*
X661431Y153848D01*
X661486Y153691D01*
X661542Y153524D01*
Y153515D01*
X661551Y153506D01*
Y153478D01*
X661560Y153441D01*
X661579Y153349D01*
X661607Y153228D01*
X661634Y153080D01*
X661653Y152914D01*
X661662Y152738D01*
X661671Y152544D01*
Y152534D01*
Y152507D01*
Y152470D01*
Y152414D01*
X661662Y152340D01*
Y152266D01*
X661644Y152081D01*
X661625Y151887D01*
X661588Y151674D01*
X661542Y151471D01*
X661477Y151286D01*
Y151277D01*
X661468Y151267D01*
X661440Y151212D01*
X661403Y151128D01*
X661347Y151027D01*
X661273Y150907D01*
X661181Y150786D01*
X661079Y150657D01*
X660959Y150537D01*
X660941Y150527D01*
X660904Y150490D01*
X660839Y150435D01*
X660755Y150370D01*
X660644Y150305D01*
X660534Y150241D01*
X660404Y150176D01*
X660265Y150129D01*
X660256D01*
X660247Y150120D01*
X660219D01*
X660182Y150111D01*
X660080Y150092D01*
X659951Y150065D01*
X659812Y150037D01*
X659646Y150019D01*
X659488Y150009D01*
X659322Y150000D01*
X657000D01*
Y155069D01*
X659433D01*
X659497Y155060D01*
D02*
G37*
G36*
X706606Y145643D02*
X706680D01*
X706847Y145634D01*
X707032Y145606D01*
X707226Y145578D01*
X707411Y145532D01*
X707578Y145476D01*
X707587D01*
X707596Y145467D01*
X707643Y145449D01*
X707726Y145403D01*
X707818Y145347D01*
X707920Y145273D01*
X708031Y145190D01*
X708142Y145079D01*
X708235Y144958D01*
X708244Y144940D01*
X708272Y144894D01*
X708309Y144829D01*
X708355Y144727D01*
X708401Y144616D01*
X708438Y144477D01*
X708466Y144330D01*
X708475Y144172D01*
Y144163D01*
Y144154D01*
Y144126D01*
Y144098D01*
X708457Y144006D01*
X708438Y143886D01*
X708410Y143756D01*
X708355Y143599D01*
X708290Y143441D01*
X708197Y143284D01*
X708188Y143266D01*
X708142Y143210D01*
X708077Y143127D01*
X707975Y143016D01*
X707837Y142877D01*
X707754Y142803D01*
X707670Y142720D01*
X707569Y142637D01*
X707457Y142544D01*
X707337Y142452D01*
X707208Y142359D01*
X707189Y142350D01*
X707143Y142313D01*
X707069Y142257D01*
X706977Y142193D01*
X706884Y142128D01*
X706782Y142063D01*
X706699Y141999D01*
X706634Y141943D01*
X706625Y141934D01*
X706606Y141925D01*
X706579Y141897D01*
X706542Y141869D01*
X706440Y141767D01*
X706301Y141647D01*
X708512D01*
Y140500D01*
X704276D01*
Y140509D01*
Y140528D01*
X704285Y140565D01*
X704294Y140602D01*
X704303Y140657D01*
X704313Y140722D01*
X704359Y140879D01*
X704414Y141055D01*
X704488Y141249D01*
X704590Y141462D01*
X704710Y141665D01*
X704719Y141675D01*
X704729Y141693D01*
X704747Y141721D01*
X704784Y141767D01*
X704831Y141814D01*
X704877Y141878D01*
X704951Y141952D01*
X705025Y142035D01*
X705108Y142128D01*
X705210Y142230D01*
X705321Y142332D01*
X705450Y142452D01*
X705589Y142572D01*
X705746Y142701D01*
X705913Y142831D01*
X706098Y142970D01*
X706107Y142979D01*
X706125Y142988D01*
X706153Y143016D01*
X706200Y143044D01*
X706301Y143127D01*
X706431Y143229D01*
X706560Y143349D01*
X706699Y143460D01*
X706810Y143571D01*
X706856Y143626D01*
X706893Y143673D01*
X706903Y143682D01*
X706921Y143710D01*
X706949Y143756D01*
X706986Y143821D01*
X707014Y143886D01*
X707041Y143969D01*
X707060Y144043D01*
X707069Y144126D01*
Y144135D01*
Y144163D01*
X707060Y144209D01*
X707051Y144265D01*
X707023Y144330D01*
X706995Y144394D01*
X706949Y144459D01*
X706893Y144524D01*
X706884Y144533D01*
X706866Y144552D01*
X706828Y144579D01*
X706773Y144607D01*
X706708Y144635D01*
X706634Y144662D01*
X706551Y144681D01*
X706459Y144690D01*
X706412D01*
X706366Y144681D01*
X706301Y144672D01*
X706237Y144644D01*
X706163Y144616D01*
X706088Y144570D01*
X706014Y144515D01*
X706005Y144505D01*
X705987Y144487D01*
X705959Y144440D01*
X705922Y144376D01*
X705885Y144292D01*
X705848Y144191D01*
X705820Y144070D01*
X705793Y143922D01*
X704377Y144034D01*
Y144043D01*
Y144061D01*
X704387Y144089D01*
X704396Y144135D01*
X704414Y144237D01*
X704442Y144376D01*
X704488Y144524D01*
X704534Y144672D01*
X704599Y144820D01*
X704673Y144958D01*
X704682Y144977D01*
X704710Y145014D01*
X704766Y145070D01*
X704840Y145143D01*
X704923Y145227D01*
X705034Y145310D01*
X705154Y145393D01*
X705302Y145467D01*
X705311D01*
X705321Y145476D01*
X705376Y145495D01*
X705469Y145523D01*
X705598Y145560D01*
X705756Y145597D01*
X705950Y145624D01*
X706172Y145643D01*
X706422Y145652D01*
X706542D01*
X706606Y145643D01*
D02*
G37*
G36*
X666694Y153987D02*
X664067D01*
Y153182D01*
X666500D01*
Y152146D01*
X664067D01*
Y151147D01*
X666768D01*
Y150000D01*
X662495D01*
Y155069D01*
X666694D01*
Y153987D01*
D02*
G37*
G36*
X691484D02*
X688857D01*
Y153182D01*
X691290D01*
Y152146D01*
X688857D01*
Y151147D01*
X691558D01*
Y150000D01*
X687285D01*
Y155069D01*
X691484D01*
Y153987D01*
D02*
G37*
G36*
X674362Y150000D02*
X672790D01*
Y155069D01*
X674362D01*
Y150000D01*
D02*
G37*
G36*
X697153Y145643D02*
X697227D01*
X697394Y145634D01*
X697578Y145606D01*
X697773Y145578D01*
X697958Y145532D01*
X698124Y145476D01*
X698134D01*
X698143Y145467D01*
X698189Y145449D01*
X698272Y145403D01*
X698365Y145347D01*
X698466Y145273D01*
X698577Y145190D01*
X698689Y145079D01*
X698781Y144958D01*
X698790Y144940D01*
X698818Y144894D01*
X698855Y144829D01*
X698901Y144727D01*
X698947Y144616D01*
X698984Y144477D01*
X699012Y144330D01*
X699021Y144172D01*
Y144163D01*
Y144154D01*
Y144126D01*
Y144098D01*
X699003Y144006D01*
X698984Y143886D01*
X698957Y143756D01*
X698901Y143599D01*
X698837Y143441D01*
X698744Y143284D01*
X698735Y143266D01*
X698689Y143210D01*
X698624Y143127D01*
X698522Y143016D01*
X698383Y142877D01*
X698300Y142803D01*
X698217Y142720D01*
X698115Y142637D01*
X698004Y142544D01*
X697884Y142452D01*
X697754Y142359D01*
X697736Y142350D01*
X697689Y142313D01*
X697615Y142257D01*
X697523Y142193D01*
X697431Y142128D01*
X697329Y142063D01*
X697246Y141999D01*
X697181Y141943D01*
X697171Y141934D01*
X697153Y141925D01*
X697125Y141897D01*
X697088Y141869D01*
X696986Y141767D01*
X696848Y141647D01*
X699058D01*
Y140500D01*
X694822D01*
Y140509D01*
Y140528D01*
X694831Y140565D01*
X694840Y140602D01*
X694850Y140657D01*
X694859Y140722D01*
X694905Y140879D01*
X694961Y141055D01*
X695035Y141249D01*
X695136Y141462D01*
X695257Y141665D01*
X695266Y141675D01*
X695275Y141693D01*
X695294Y141721D01*
X695331Y141767D01*
X695377Y141814D01*
X695423Y141878D01*
X695497Y141952D01*
X695571Y142035D01*
X695654Y142128D01*
X695756Y142230D01*
X695867Y142332D01*
X695997Y142452D01*
X696136Y142572D01*
X696293Y142701D01*
X696459Y142831D01*
X696644Y142970D01*
X696654Y142979D01*
X696672Y142988D01*
X696700Y143016D01*
X696746Y143044D01*
X696848Y143127D01*
X696977Y143229D01*
X697107Y143349D01*
X697246Y143460D01*
X697357Y143571D01*
X697403Y143626D01*
X697440Y143673D01*
X697449Y143682D01*
X697468Y143710D01*
X697495Y143756D01*
X697532Y143821D01*
X697560Y143886D01*
X697588Y143969D01*
X697606Y144043D01*
X697615Y144126D01*
Y144135D01*
Y144163D01*
X697606Y144209D01*
X697597Y144265D01*
X697569Y144330D01*
X697542Y144394D01*
X697495Y144459D01*
X697440Y144524D01*
X697431Y144533D01*
X697412Y144552D01*
X697375Y144579D01*
X697320Y144607D01*
X697255Y144635D01*
X697181Y144662D01*
X697097Y144681D01*
X697005Y144690D01*
X696959D01*
X696912Y144681D01*
X696848Y144672D01*
X696783Y144644D01*
X696709Y144616D01*
X696635Y144570D01*
X696561Y144515D01*
X696552Y144505D01*
X696533Y144487D01*
X696505Y144440D01*
X696468Y144376D01*
X696431Y144292D01*
X696394Y144191D01*
X696367Y144070D01*
X696339Y143922D01*
X694924Y144034D01*
Y144043D01*
Y144061D01*
X694933Y144089D01*
X694942Y144135D01*
X694961Y144237D01*
X694988Y144376D01*
X695035Y144524D01*
X695081Y144672D01*
X695146Y144820D01*
X695220Y144958D01*
X695229Y144977D01*
X695257Y145014D01*
X695312Y145070D01*
X695386Y145143D01*
X695470Y145227D01*
X695580Y145310D01*
X695701Y145393D01*
X695849Y145467D01*
X695858D01*
X695867Y145476D01*
X695923Y145495D01*
X696015Y145523D01*
X696145Y145560D01*
X696302Y145597D01*
X696496Y145624D01*
X696718Y145643D01*
X696968Y145652D01*
X697088D01*
X697153Y145643D01*
D02*
G37*
G36*
X693370Y140417D02*
X692667D01*
X693943Y145652D01*
X694656D01*
X693370Y140417D01*
D02*
G37*
G36*
X685785Y145643D02*
X685905Y145634D01*
X686034Y145624D01*
X686173Y145597D01*
X686312Y145569D01*
X686442Y145523D01*
X686460Y145513D01*
X686497Y145504D01*
X686562Y145467D01*
X686636Y145430D01*
X686719Y145384D01*
X686811Y145328D01*
X686895Y145264D01*
X686978Y145190D01*
X686987Y145180D01*
X687015Y145153D01*
X687052Y145116D01*
X687098Y145060D01*
X687154Y145005D01*
X687209Y144931D01*
X687311Y144764D01*
X687320Y144755D01*
X687329Y144727D01*
X687357Y144681D01*
X687385Y144616D01*
X687413Y144542D01*
X687440Y144450D01*
X687477Y144357D01*
X687505Y144246D01*
Y144237D01*
X687514Y144219D01*
X687524Y144191D01*
X687533Y144144D01*
X687542Y144098D01*
X687551Y144034D01*
X687579Y143886D01*
X687607Y143710D01*
X687635Y143516D01*
X687644Y143293D01*
X687653Y143071D01*
Y143053D01*
Y143007D01*
Y142942D01*
X687644Y142850D01*
X687635Y142729D01*
X687626Y142600D01*
X687616Y142461D01*
X687598Y142304D01*
X687542Y141971D01*
X687459Y141638D01*
X687403Y141481D01*
X687339Y141323D01*
X687265Y141184D01*
X687182Y141055D01*
X687172Y141046D01*
X687163Y141027D01*
X687135Y140999D01*
X687089Y140953D01*
X687034Y140907D01*
X686969Y140851D01*
X686895Y140796D01*
X686802Y140741D01*
X686700Y140676D01*
X686580Y140620D01*
X686451Y140565D01*
X686303Y140518D01*
X686145Y140472D01*
X685970Y140445D01*
X685776Y140426D01*
X685572Y140417D01*
X685461D01*
X685405Y140426D01*
X685350D01*
X685202Y140445D01*
X685036Y140463D01*
X684860Y140500D01*
X684684Y140556D01*
X684527Y140620D01*
X684508Y140629D01*
X684462Y140657D01*
X684388Y140703D01*
X684305Y140768D01*
X684194Y140851D01*
X684092Y140953D01*
X683981Y141074D01*
X683879Y141212D01*
X683870Y141221D01*
X683851Y141268D01*
X683814Y141323D01*
X683778Y141416D01*
X683731Y141517D01*
X683685Y141647D01*
X683639Y141804D01*
X683602Y141971D01*
Y141980D01*
Y141989D01*
X683593Y142017D01*
X683583Y142054D01*
X683574Y142156D01*
X683556Y142295D01*
X683537Y142452D01*
X683519Y142637D01*
X683509Y142840D01*
X683500Y143053D01*
Y143071D01*
Y143118D01*
Y143192D01*
X683509Y143284D01*
X683519Y143404D01*
X683528Y143543D01*
X683546Y143691D01*
X683565Y143849D01*
X683630Y144182D01*
X683722Y144515D01*
X683778Y144672D01*
X683851Y144820D01*
X683925Y144949D01*
X684018Y145070D01*
X684027Y145079D01*
X684046Y145097D01*
X684073Y145125D01*
X684120Y145162D01*
X684175Y145208D01*
X684240Y145255D01*
X684323Y145310D01*
X684416Y145366D01*
X684517Y145412D01*
X684638Y145467D01*
X684767Y145513D01*
X684906Y145560D01*
X685063Y145597D01*
X685230Y145624D01*
X685415Y145643D01*
X685609Y145652D01*
X685692D01*
X685785Y145643D01*
D02*
G37*
G36*
X701935D02*
X702056Y145634D01*
X702185Y145624D01*
X702324Y145597D01*
X702462Y145569D01*
X702592Y145523D01*
X702610Y145513D01*
X702647Y145504D01*
X702712Y145467D01*
X702786Y145430D01*
X702870Y145384D01*
X702962Y145328D01*
X703045Y145264D01*
X703128Y145190D01*
X703138Y145180D01*
X703165Y145153D01*
X703202Y145116D01*
X703249Y145060D01*
X703304Y145005D01*
X703360Y144931D01*
X703462Y144764D01*
X703471Y144755D01*
X703480Y144727D01*
X703508Y144681D01*
X703536Y144616D01*
X703563Y144542D01*
X703591Y144450D01*
X703628Y144357D01*
X703656Y144246D01*
Y144237D01*
X703665Y144219D01*
X703674Y144191D01*
X703684Y144144D01*
X703693Y144098D01*
X703702Y144034D01*
X703730Y143886D01*
X703757Y143710D01*
X703785Y143516D01*
X703794Y143293D01*
X703804Y143071D01*
Y143053D01*
Y143007D01*
Y142942D01*
X703794Y142850D01*
X703785Y142729D01*
X703776Y142600D01*
X703767Y142461D01*
X703748Y142304D01*
X703693Y141971D01*
X703610Y141638D01*
X703554Y141481D01*
X703489Y141323D01*
X703415Y141184D01*
X703332Y141055D01*
X703323Y141046D01*
X703313Y141027D01*
X703286Y140999D01*
X703239Y140953D01*
X703184Y140907D01*
X703119Y140851D01*
X703045Y140796D01*
X702953Y140741D01*
X702851Y140676D01*
X702731Y140620D01*
X702601Y140565D01*
X702453Y140518D01*
X702296Y140472D01*
X702120Y140445D01*
X701926Y140426D01*
X701722Y140417D01*
X701612D01*
X701556Y140426D01*
X701501D01*
X701353Y140445D01*
X701186Y140463D01*
X701010Y140500D01*
X700835Y140556D01*
X700677Y140620D01*
X700659Y140629D01*
X700612Y140657D01*
X700538Y140703D01*
X700455Y140768D01*
X700344Y140851D01*
X700243Y140953D01*
X700132Y141074D01*
X700030Y141212D01*
X700021Y141221D01*
X700002Y141268D01*
X699965Y141323D01*
X699928Y141416D01*
X699882Y141517D01*
X699835Y141647D01*
X699789Y141804D01*
X699752Y141971D01*
Y141980D01*
Y141989D01*
X699743Y142017D01*
X699734Y142054D01*
X699724Y142156D01*
X699706Y142295D01*
X699687Y142452D01*
X699669Y142637D01*
X699660Y142840D01*
X699650Y143053D01*
Y143071D01*
Y143118D01*
Y143192D01*
X699660Y143284D01*
X699669Y143404D01*
X699678Y143543D01*
X699697Y143691D01*
X699715Y143849D01*
X699780Y144182D01*
X699872Y144515D01*
X699928Y144672D01*
X700002Y144820D01*
X700076Y144949D01*
X700169Y145070D01*
X700178Y145079D01*
X700196Y145097D01*
X700224Y145125D01*
X700270Y145162D01*
X700326Y145208D01*
X700390Y145255D01*
X700474Y145310D01*
X700566Y145366D01*
X700668Y145412D01*
X700788Y145467D01*
X700918Y145513D01*
X701056Y145560D01*
X701214Y145597D01*
X701380Y145624D01*
X701565Y145643D01*
X701759Y145652D01*
X701843D01*
X701935Y145643D01*
D02*
G37*
G36*
X691890Y142535D02*
X692528D01*
Y141444D01*
X691890D01*
Y140500D01*
X690660D01*
Y141444D01*
X688088D01*
Y142600D01*
X690660Y145652D01*
X691890D01*
Y142535D01*
D02*
G37*
G36*
X711389Y145643D02*
X711509Y145634D01*
X711638Y145624D01*
X711777Y145597D01*
X711916Y145569D01*
X712045Y145523D01*
X712064Y145513D01*
X712101Y145504D01*
X712166Y145467D01*
X712240Y145430D01*
X712323Y145384D01*
X712416Y145328D01*
X712499Y145264D01*
X712582Y145190D01*
X712591Y145180D01*
X712619Y145153D01*
X712656Y145116D01*
X712702Y145060D01*
X712758Y145005D01*
X712813Y144931D01*
X712915Y144764D01*
X712924Y144755D01*
X712933Y144727D01*
X712961Y144681D01*
X712989Y144616D01*
X713017Y144542D01*
X713045Y144450D01*
X713082Y144357D01*
X713109Y144246D01*
Y144237D01*
X713119Y144219D01*
X713128Y144191D01*
X713137Y144144D01*
X713146Y144098D01*
X713156Y144034D01*
X713183Y143886D01*
X713211Y143710D01*
X713239Y143516D01*
X713248Y143293D01*
X713257Y143071D01*
Y143053D01*
Y143007D01*
Y142942D01*
X713248Y142850D01*
X713239Y142729D01*
X713230Y142600D01*
X713220Y142461D01*
X713202Y142304D01*
X713146Y141971D01*
X713063Y141638D01*
X713007Y141481D01*
X712943Y141323D01*
X712869Y141184D01*
X712785Y141055D01*
X712776Y141046D01*
X712767Y141027D01*
X712739Y140999D01*
X712693Y140953D01*
X712638Y140907D01*
X712573Y140851D01*
X712499Y140796D01*
X712406Y140741D01*
X712304Y140676D01*
X712184Y140620D01*
X712055Y140565D01*
X711907Y140518D01*
X711750Y140472D01*
X711574Y140445D01*
X711379Y140426D01*
X711176Y140417D01*
X711065D01*
X711010Y140426D01*
X710954D01*
X710806Y140445D01*
X710639Y140463D01*
X710464Y140500D01*
X710288Y140556D01*
X710131Y140620D01*
X710112Y140629D01*
X710066Y140657D01*
X709992Y140703D01*
X709909Y140768D01*
X709798Y140851D01*
X709696Y140953D01*
X709585Y141074D01*
X709483Y141212D01*
X709474Y141221D01*
X709455Y141268D01*
X709418Y141323D01*
X709381Y141416D01*
X709335Y141517D01*
X709289Y141647D01*
X709243Y141804D01*
X709206Y141971D01*
Y141980D01*
Y141989D01*
X709197Y142017D01*
X709187Y142054D01*
X709178Y142156D01*
X709160Y142295D01*
X709141Y142452D01*
X709123Y142637D01*
X709113Y142840D01*
X709104Y143053D01*
Y143071D01*
Y143118D01*
Y143192D01*
X709113Y143284D01*
X709123Y143404D01*
X709132Y143543D01*
X709150Y143691D01*
X709169Y143849D01*
X709234Y144182D01*
X709326Y144515D01*
X709381Y144672D01*
X709455Y144820D01*
X709529Y144949D01*
X709622Y145070D01*
X709631Y145079D01*
X709650Y145097D01*
X709678Y145125D01*
X709724Y145162D01*
X709779Y145208D01*
X709844Y145255D01*
X709927Y145310D01*
X710020Y145366D01*
X710121Y145412D01*
X710242Y145467D01*
X710371Y145513D01*
X710510Y145560D01*
X710667Y145597D01*
X710834Y145624D01*
X711019Y145643D01*
X711213Y145652D01*
X711296D01*
X711389Y145643D01*
D02*
G37*
G36*
X694916Y155060D02*
X694980D01*
X695138Y155041D01*
X695323Y155023D01*
X695508Y154986D01*
X695693Y154939D01*
X695859Y154875D01*
X695868D01*
X695878Y154866D01*
X695933Y154838D01*
X696007Y154801D01*
X696109Y154736D01*
X696220Y154662D01*
X696340Y154569D01*
X696451Y154458D01*
X696562Y154338D01*
X696571Y154320D01*
X696608Y154273D01*
X696655Y154209D01*
X696720Y154107D01*
X696784Y153987D01*
X696849Y153848D01*
X696905Y153691D01*
X696960Y153524D01*
Y153515D01*
X696969Y153506D01*
Y153478D01*
X696979Y153441D01*
X696997Y153349D01*
X697025Y153228D01*
X697052Y153080D01*
X697071Y152914D01*
X697080Y152738D01*
X697089Y152544D01*
Y152534D01*
Y152507D01*
Y152470D01*
Y152414D01*
X697080Y152340D01*
Y152266D01*
X697062Y152081D01*
X697043Y151887D01*
X697006Y151674D01*
X696960Y151471D01*
X696895Y151286D01*
Y151277D01*
X696886Y151267D01*
X696858Y151212D01*
X696821Y151128D01*
X696766Y151027D01*
X696692Y150907D01*
X696599Y150786D01*
X696497Y150657D01*
X696377Y150537D01*
X696359Y150527D01*
X696322Y150490D01*
X696257Y150435D01*
X696174Y150370D01*
X696063Y150305D01*
X695952Y150241D01*
X695822Y150176D01*
X695683Y150129D01*
X695674D01*
X695665Y150120D01*
X695637D01*
X695600Y150111D01*
X695499Y150092D01*
X695369Y150065D01*
X695230Y150037D01*
X695064Y150019D01*
X694907Y150009D01*
X694740Y150000D01*
X692418D01*
Y155069D01*
X694851D01*
X694916Y155060D01*
D02*
G37*
G36*
X736245D02*
X736309D01*
X736467Y155041D01*
X736652Y155023D01*
X736837Y154986D01*
X737022Y154939D01*
X737188Y154875D01*
X737197D01*
X737207Y154866D01*
X737262Y154838D01*
X737336Y154801D01*
X737438Y154736D01*
X737549Y154662D01*
X737669Y154569D01*
X737780Y154458D01*
X737891Y154338D01*
X737900Y154320D01*
X737937Y154273D01*
X737984Y154209D01*
X738049Y154107D01*
X738113Y153987D01*
X738178Y153848D01*
X738234Y153691D01*
X738289Y153524D01*
Y153515D01*
X738298Y153506D01*
Y153478D01*
X738308Y153441D01*
X738326Y153349D01*
X738354Y153228D01*
X738381Y153080D01*
X738400Y152914D01*
X738409Y152738D01*
X738418Y152544D01*
Y152534D01*
Y152507D01*
Y152470D01*
Y152414D01*
X738409Y152340D01*
Y152266D01*
X738391Y152081D01*
X738372Y151887D01*
X738335Y151674D01*
X738289Y151471D01*
X738224Y151286D01*
Y151277D01*
X738215Y151267D01*
X738187Y151212D01*
X738150Y151128D01*
X738095Y151027D01*
X738021Y150907D01*
X737928Y150786D01*
X737826Y150657D01*
X737706Y150537D01*
X737688Y150527D01*
X737651Y150490D01*
X737586Y150435D01*
X737503Y150370D01*
X737392Y150305D01*
X737281Y150241D01*
X737151Y150176D01*
X737012Y150129D01*
X737003D01*
X736994Y150120D01*
X736966D01*
X736929Y150111D01*
X736828Y150092D01*
X736698Y150065D01*
X736559Y150037D01*
X736393Y150019D01*
X736236Y150009D01*
X736069Y150000D01*
X733747D01*
Y155069D01*
X736180D01*
X736245Y155060D01*
D02*
G37*
G36*
X744255Y150000D02*
X742609D01*
X742359Y150832D01*
X740583D01*
X740333Y150000D01*
X738733D01*
X740629Y155069D01*
X742350D01*
X744255Y150000D01*
D02*
G37*
G36*
X733229D02*
X731583D01*
X731333Y150832D01*
X729557D01*
X729307Y150000D01*
X727707D01*
X729603Y155069D01*
X731324D01*
X733229Y150000D01*
D02*
G37*
G36*
X701909D02*
X700336D01*
Y155069D01*
X701909D01*
Y150000D01*
D02*
G37*
G36*
X721815D02*
X720168D01*
X719918Y150832D01*
X718143D01*
X717893Y150000D01*
X716292D01*
X718189Y155069D01*
X719909D01*
X721815Y150000D01*
D02*
G37*
%LPC*%
G36*
X722530Y162121D02*
X722470D01*
X722386Y162109D01*
X722302Y162085D01*
X722193Y162049D01*
X722085Y161989D01*
X721977Y161916D01*
X721869Y161808D01*
X721857Y161796D01*
X721833Y161748D01*
X721784Y161676D01*
X721748Y161580D01*
X721700Y161447D01*
X721652Y161279D01*
X721628Y161086D01*
X721616Y160870D01*
Y160858D01*
Y160846D01*
Y160810D01*
Y160762D01*
X721628Y160653D01*
X721652Y160509D01*
X721676Y160365D01*
X721724Y160208D01*
X721784Y160064D01*
X721869Y159932D01*
X721881Y159920D01*
X721917Y159883D01*
X721977Y159835D01*
X722049Y159787D01*
X722145Y159727D01*
X722254Y159679D01*
X722386Y159643D01*
X722518Y159631D01*
X722590D01*
X722663Y159643D01*
X722747Y159667D01*
X722855Y159703D01*
X722963Y159751D01*
X723072Y159823D01*
X723168Y159920D01*
X723180Y159932D01*
X723204Y159980D01*
X723252Y160052D01*
X723300Y160160D01*
X723348Y160292D01*
X723396Y160461D01*
X723421Y160653D01*
X723433Y160894D01*
Y160906D01*
Y160918D01*
Y160990D01*
X723421Y161099D01*
X723396Y161243D01*
X723373Y161387D01*
X723324Y161544D01*
X723252Y161688D01*
X723168Y161808D01*
X723156Y161820D01*
X723120Y161856D01*
X723072Y161905D01*
X722999Y161965D01*
X722903Y162025D01*
X722795Y162073D01*
X722663Y162109D01*
X722530Y162121D01*
D02*
G37*
G36*
X697953Y162302D02*
X697881D01*
X697797Y162290D01*
X697701Y162253D01*
X697592Y162217D01*
X697472Y162157D01*
X697364Y162073D01*
X697255Y161953D01*
X697243Y161941D01*
X697231Y161916D01*
X697207Y161856D01*
X697171Y161796D01*
X697135Y161700D01*
X697099Y161592D01*
X697075Y161459D01*
X697051Y161315D01*
X698855D01*
Y161327D01*
Y161339D01*
X698843Y161399D01*
X698819Y161495D01*
X698795Y161604D01*
X698759Y161724D01*
X698711Y161844D01*
X698651Y161965D01*
X698567Y162061D01*
X698555Y162073D01*
X698530Y162097D01*
X698470Y162133D01*
X698410Y162181D01*
X698314Y162229D01*
X698218Y162265D01*
X698085Y162290D01*
X697953Y162302D01*
D02*
G37*
G36*
X747120D02*
X747048D01*
X746963Y162290D01*
X746867Y162253D01*
X746759Y162217D01*
X746638Y162157D01*
X746530Y162073D01*
X746422Y161953D01*
X746410Y161941D01*
X746398Y161916D01*
X746374Y161856D01*
X746338Y161796D01*
X746302Y161700D01*
X746266Y161592D01*
X746242Y161459D01*
X746217Y161315D01*
X748022D01*
Y161327D01*
Y161339D01*
X748010Y161399D01*
X747986Y161495D01*
X747962Y161604D01*
X747926Y161724D01*
X747878Y161844D01*
X747817Y161965D01*
X747733Y162061D01*
X747721Y162073D01*
X747697Y162097D01*
X747637Y162133D01*
X747577Y162181D01*
X747481Y162229D01*
X747384Y162265D01*
X747252Y162290D01*
X747120Y162302D01*
D02*
G37*
G36*
X731745Y162121D02*
X731685D01*
X731601Y162109D01*
X731517Y162085D01*
X731409Y162049D01*
X731300Y161989D01*
X731192Y161916D01*
X731084Y161808D01*
X731072Y161796D01*
X731048Y161748D01*
X731000Y161676D01*
X730963Y161580D01*
X730915Y161447D01*
X730867Y161279D01*
X730843Y161086D01*
X730831Y160870D01*
Y160858D01*
Y160846D01*
Y160810D01*
Y160762D01*
X730843Y160653D01*
X730867Y160509D01*
X730891Y160365D01*
X730939Y160208D01*
X731000Y160064D01*
X731084Y159932D01*
X731096Y159920D01*
X731132Y159883D01*
X731192Y159835D01*
X731264Y159787D01*
X731360Y159727D01*
X731469Y159679D01*
X731601Y159643D01*
X731733Y159631D01*
X731806D01*
X731878Y159643D01*
X731962Y159667D01*
X732070Y159703D01*
X732178Y159751D01*
X732287Y159823D01*
X732383Y159920D01*
X732395Y159932D01*
X732419Y159980D01*
X732467Y160052D01*
X732515Y160160D01*
X732563Y160292D01*
X732612Y160461D01*
X732636Y160653D01*
X732648Y160894D01*
Y160906D01*
Y160918D01*
Y160990D01*
X732636Y161099D01*
X732612Y161243D01*
X732587Y161387D01*
X732539Y161544D01*
X732467Y161688D01*
X732383Y161808D01*
X732371Y161820D01*
X732335Y161856D01*
X732287Y161905D01*
X732214Y161965D01*
X732118Y162025D01*
X732010Y162073D01*
X731878Y162109D01*
X731745Y162121D01*
D02*
G37*
G36*
X737736Y162061D02*
X737676D01*
X737616Y162049D01*
X737532Y162025D01*
X737435Y162001D01*
X737351Y161953D01*
X737255Y161880D01*
X737171Y161796D01*
X737159Y161784D01*
X737135Y161748D01*
X737111Y161688D01*
X737075Y161592D01*
X737027Y161483D01*
X737003Y161339D01*
X736978Y161159D01*
X736966Y160954D01*
Y160930D01*
Y160870D01*
X736978Y160774D01*
X736990Y160653D01*
X737014Y160533D01*
X737063Y160401D01*
X737111Y160280D01*
X737183Y160172D01*
X737195Y160160D01*
X737219Y160136D01*
X737267Y160100D01*
X737339Y160052D01*
X737424Y160004D01*
X737520Y159968D01*
X737628Y159944D01*
X737760Y159932D01*
X737820D01*
X737881Y159944D01*
X737965Y159968D01*
X738049Y159992D01*
X738157Y160040D01*
X738254Y160100D01*
X738338Y160184D01*
X738350Y160196D01*
X738374Y160232D01*
X738410Y160292D01*
X738458Y160389D01*
X738506Y160497D01*
X738542Y160629D01*
X738566Y160798D01*
X738578Y160978D01*
Y160990D01*
Y161002D01*
Y161062D01*
X738566Y161159D01*
X738542Y161267D01*
X738518Y161399D01*
X738470Y161532D01*
X738410Y161664D01*
X738326Y161772D01*
X738314Y161784D01*
X738278Y161820D01*
X738230Y161868D01*
X738157Y161916D01*
X738073Y161965D01*
X737977Y162013D01*
X737857Y162049D01*
X737736Y162061D01*
D02*
G37*
G36*
X660287Y160762D02*
X660275D01*
X660227Y160738D01*
X660143Y160714D01*
X660047Y160677D01*
X659926Y160641D01*
X659794Y160605D01*
X659493Y160521D01*
X659469Y160509D01*
X659409Y160497D01*
X659313Y160473D01*
X659192Y160437D01*
X659072Y160389D01*
X658964Y160341D01*
X658856Y160292D01*
X658783Y160232D01*
Y160220D01*
X658759Y160208D01*
X658711Y160136D01*
X658663Y160028D01*
X658651Y159968D01*
X658639Y159896D01*
Y159883D01*
Y159859D01*
X658651Y159823D01*
X658663Y159775D01*
X658699Y159655D01*
X658735Y159595D01*
X658783Y159547D01*
X658795D01*
X658808Y159523D01*
X658844Y159511D01*
X658904Y159486D01*
X658964Y159462D01*
X659036Y159438D01*
X659132Y159426D01*
X659229Y159414D01*
X659277D01*
X659337Y159426D01*
X659409Y159438D01*
X659493Y159450D01*
X659589Y159474D01*
X659698Y159511D01*
X659794Y159559D01*
X659806Y159571D01*
X659842Y159583D01*
X659878Y159619D01*
X659938Y159655D01*
X660059Y159763D01*
X660119Y159835D01*
X660167Y159907D01*
Y159920D01*
X660191Y159944D01*
X660203Y159992D01*
X660227Y160064D01*
X660251Y160136D01*
X660263Y160232D01*
X660287Y160341D01*
Y160461D01*
Y160762D01*
D02*
G37*
G36*
X768255Y181606D02*
X766117D01*
Y178969D01*
X765992Y179080D01*
X765868Y179191D01*
X765743Y179274D01*
X765632Y179344D01*
X765534Y179399D01*
X765465Y179441D01*
X765410Y179455D01*
X765396Y179469D01*
X765243Y179524D01*
X765090Y179566D01*
X764938Y179594D01*
X764799Y179621D01*
X764688D01*
X764591Y179635D01*
X764507D01*
X764327Y179621D01*
X764147Y179607D01*
X763813Y179524D01*
X763536Y179399D01*
X763300Y179274D01*
X763105Y179136D01*
X762967Y179011D01*
X762911Y178969D01*
X762870Y178927D01*
X762856Y178913D01*
X762842Y178900D01*
X762731Y178761D01*
X762634Y178608D01*
X762467Y178275D01*
X762356Y177914D01*
X762273Y177581D01*
X762245Y177428D01*
X762231Y177276D01*
X762203Y177151D01*
Y177026D01*
X762189Y176943D01*
Y176859D01*
Y176818D01*
Y176804D01*
X762217Y176360D01*
X762287Y175957D01*
X762370Y175610D01*
X762425Y175443D01*
X762481Y175305D01*
X762536Y175180D01*
X762592Y175055D01*
X762634Y174958D01*
X762675Y174874D01*
X762717Y174805D01*
X762745Y174763D01*
X762772Y174736D01*
Y174722D01*
X762897Y174569D01*
X763022Y174444D01*
X763147Y174333D01*
X763300Y174236D01*
X763439Y174153D01*
X763577Y174083D01*
X763855Y173986D01*
X764105Y173917D01*
X764216Y173903D01*
X764313Y173889D01*
X764382Y173875D01*
X764494D01*
X764702Y173889D01*
X764882Y173917D01*
X765063Y173944D01*
X765215Y174000D01*
X765326Y174042D01*
X765423Y174069D01*
X765493Y174097D01*
X765507Y174111D01*
X765646Y174194D01*
X765770Y174292D01*
X765895Y174416D01*
X766020Y174527D01*
X766117Y174638D01*
X766201Y174722D01*
X766256Y174777D01*
X766270Y174805D01*
Y174000D01*
X768255D01*
Y181606D01*
D02*
G37*
G36*
X625319D02*
X623181D01*
Y178969D01*
X623056Y179080D01*
X622931Y179191D01*
X622806Y179274D01*
X622695Y179344D01*
X622598Y179399D01*
X622529Y179441D01*
X622473Y179455D01*
X622459Y179469D01*
X622307Y179524D01*
X622154Y179566D01*
X622001Y179594D01*
X621863Y179621D01*
X621752D01*
X621654Y179635D01*
X621571D01*
X621391Y179621D01*
X621210Y179607D01*
X620877Y179524D01*
X620600Y179399D01*
X620364Y179274D01*
X620169Y179136D01*
X620030Y179011D01*
X619975Y178969D01*
X619933Y178927D01*
X619919Y178913D01*
X619906Y178900D01*
X619795Y178761D01*
X619697Y178608D01*
X619531Y178275D01*
X619420Y177914D01*
X619336Y177581D01*
X619309Y177428D01*
X619295Y177276D01*
X619267Y177151D01*
Y177026D01*
X619253Y176943D01*
Y176859D01*
Y176818D01*
Y176804D01*
X619281Y176360D01*
X619350Y175957D01*
X619434Y175610D01*
X619489Y175443D01*
X619545Y175305D01*
X619600Y175180D01*
X619656Y175055D01*
X619697Y174958D01*
X619739Y174874D01*
X619781Y174805D01*
X619808Y174763D01*
X619836Y174736D01*
Y174722D01*
X619961Y174569D01*
X620086Y174444D01*
X620211Y174333D01*
X620364Y174236D01*
X620502Y174153D01*
X620641Y174083D01*
X620919Y173986D01*
X621169Y173917D01*
X621280Y173903D01*
X621377Y173889D01*
X621446Y173875D01*
X621557D01*
X621765Y173889D01*
X621946Y173917D01*
X622126Y173944D01*
X622279Y174000D01*
X622390Y174042D01*
X622487Y174069D01*
X622557Y174097D01*
X622571Y174111D01*
X622709Y174194D01*
X622834Y174292D01*
X622959Y174416D01*
X623084Y174527D01*
X623181Y174638D01*
X623265Y174722D01*
X623320Y174777D01*
X623334Y174805D01*
Y174000D01*
X625319D01*
Y181606D01*
D02*
G37*
G36*
X761162Y179635D02*
X761079D01*
X760912Y179621D01*
X760774Y179607D01*
X760635Y179566D01*
X760524Y179524D01*
X760440Y179483D01*
X760371Y179455D01*
X760329Y179427D01*
X760316Y179413D01*
X760205Y179316D01*
X760107Y179191D01*
X759913Y178927D01*
X759844Y178803D01*
X759788Y178705D01*
X759747Y178636D01*
X759733Y178608D01*
Y179510D01*
X757762D01*
Y174000D01*
X759885D01*
Y175846D01*
Y176082D01*
X759899Y176304D01*
X759913Y176498D01*
X759941Y176679D01*
X759955Y176845D01*
X759982Y176998D01*
X760010Y177123D01*
X760052Y177248D01*
X760080Y177345D01*
X760107Y177428D01*
X760135Y177498D01*
X760149Y177553D01*
X760191Y177623D01*
X760205Y177650D01*
X760302Y177761D01*
X760413Y177845D01*
X760510Y177914D01*
X760621Y177956D01*
X760718Y177984D01*
X760787Y177997D01*
X760940D01*
X761037Y177970D01*
X761232Y177914D01*
X761315Y177886D01*
X761384Y177859D01*
X761426Y177845D01*
X761440Y177831D01*
X762106Y179344D01*
X761898Y179441D01*
X761704Y179510D01*
X761537Y179566D01*
X761384Y179594D01*
X761259Y179621D01*
X761162Y179635D01*
D02*
G37*
G36*
X803135Y181606D02*
X798624D01*
Y174000D01*
X802802D01*
X802955Y174014D01*
X803121Y174028D01*
X803302Y174056D01*
X803469Y174069D01*
X803607Y174083D01*
X803663D01*
X803704Y174097D01*
X803732D01*
X803940Y174139D01*
X804121Y174167D01*
X804274Y174208D01*
X804399Y174250D01*
X804496Y174292D01*
X804565Y174319D01*
X804607Y174347D01*
X804621D01*
X804787Y174458D01*
X804940Y174583D01*
X805079Y174708D01*
X805190Y174833D01*
X805273Y174930D01*
X805328Y175013D01*
X805370Y175083D01*
X805384Y175096D01*
X805481Y175277D01*
X805550Y175457D01*
X805592Y175638D01*
X805634Y175804D01*
X805648Y175943D01*
X805662Y176054D01*
Y176124D01*
Y176151D01*
X805648Y176415D01*
X805606Y176651D01*
X805537Y176859D01*
X805467Y177026D01*
X805398Y177165D01*
X805328Y177276D01*
X805287Y177331D01*
X805273Y177359D01*
X805106Y177525D01*
X804926Y177664D01*
X804718Y177789D01*
X804523Y177886D01*
X804343Y177956D01*
X804204Y177997D01*
X804149Y178025D01*
X804107D01*
X804079Y178039D01*
X804065D01*
X804260Y178122D01*
X804426Y178206D01*
X804565Y178289D01*
X804676Y178372D01*
X804773Y178442D01*
X804829Y178497D01*
X804870Y178539D01*
X804884Y178553D01*
X805023Y178747D01*
X805134Y178941D01*
X805204Y179136D01*
X805259Y179316D01*
X805287Y179469D01*
X805315Y179594D01*
Y179677D01*
Y179691D01*
Y179705D01*
Y179857D01*
X805287Y179996D01*
X805217Y180260D01*
X805120Y180482D01*
X805023Y180676D01*
X804912Y180843D01*
X804815Y180954D01*
X804745Y181023D01*
X804732Y181051D01*
X804718D01*
X804468Y181231D01*
X804204Y181370D01*
X803927Y181467D01*
X803649Y181537D01*
X803399Y181579D01*
X803302Y181592D01*
X803205D01*
X803135Y181606D01*
D02*
G37*
G36*
X739926D02*
X735415D01*
Y174000D01*
X739593D01*
X739745Y174014D01*
X739912Y174028D01*
X740092Y174056D01*
X740259Y174069D01*
X740398Y174083D01*
X740453D01*
X740495Y174097D01*
X740523D01*
X740731Y174139D01*
X740911Y174167D01*
X741064Y174208D01*
X741189Y174250D01*
X741286Y174292D01*
X741356Y174319D01*
X741397Y174347D01*
X741411D01*
X741578Y174458D01*
X741730Y174583D01*
X741869Y174708D01*
X741980Y174833D01*
X742063Y174930D01*
X742119Y175013D01*
X742161Y175083D01*
X742174Y175096D01*
X742272Y175277D01*
X742341Y175457D01*
X742383Y175638D01*
X742424Y175804D01*
X742438Y175943D01*
X742452Y176054D01*
Y176124D01*
Y176151D01*
X742438Y176415D01*
X742396Y176651D01*
X742327Y176859D01*
X742258Y177026D01*
X742188Y177165D01*
X742119Y177276D01*
X742077Y177331D01*
X742063Y177359D01*
X741897Y177525D01*
X741716Y177664D01*
X741508Y177789D01*
X741314Y177886D01*
X741133Y177956D01*
X740995Y177997D01*
X740939Y178025D01*
X740898D01*
X740870Y178039D01*
X740856D01*
X741050Y178122D01*
X741217Y178206D01*
X741356Y178289D01*
X741467Y178372D01*
X741564Y178442D01*
X741619Y178497D01*
X741661Y178539D01*
X741675Y178553D01*
X741814Y178747D01*
X741925Y178941D01*
X741994Y179136D01*
X742050Y179316D01*
X742077Y179469D01*
X742105Y179594D01*
Y179677D01*
Y179691D01*
Y179705D01*
Y179857D01*
X742077Y179996D01*
X742008Y180260D01*
X741911Y180482D01*
X741814Y180676D01*
X741703Y180843D01*
X741605Y180954D01*
X741536Y181023D01*
X741522Y181051D01*
X741508D01*
X741258Y181231D01*
X740995Y181370D01*
X740717Y181467D01*
X740439Y181537D01*
X740190Y181579D01*
X740092Y181592D01*
X739995D01*
X739926Y181606D01*
D02*
G37*
G36*
X753723Y179635D02*
X753167D01*
X752959Y179621D01*
X752779Y179607D01*
X752612Y179594D01*
X752473Y179566D01*
X752362Y179552D01*
X752307Y179538D01*
X752279D01*
X752099Y179510D01*
X751946Y179469D01*
X751807Y179427D01*
X751696Y179385D01*
X751613Y179344D01*
X751543Y179316D01*
X751502Y179302D01*
X751488Y179288D01*
X751349Y179205D01*
X751224Y179108D01*
X751113Y179025D01*
X751030Y178941D01*
X750960Y178872D01*
X750905Y178816D01*
X750877Y178775D01*
X750863Y178761D01*
X750794Y178636D01*
X750725Y178497D01*
X750669Y178358D01*
X750627Y178233D01*
X750586Y178109D01*
X750572Y178011D01*
X750544Y177956D01*
Y177928D01*
X752571Y177720D01*
X752612Y177845D01*
X752668Y177942D01*
X752723Y178025D01*
X752779Y178095D01*
X752820Y178150D01*
X752862Y178178D01*
X752876Y178206D01*
X752890D01*
X753001Y178261D01*
X753126Y178303D01*
X753376Y178358D01*
X753487D01*
X753584Y178372D01*
X753806D01*
X753931Y178344D01*
X754028Y178317D01*
X754097Y178289D01*
X754167Y178261D01*
X754208Y178233D01*
X754222Y178219D01*
X754236Y178206D01*
X754292Y178136D01*
X754333Y178053D01*
X754389Y177886D01*
Y177803D01*
X754403Y177734D01*
Y177692D01*
Y177678D01*
X754111Y177567D01*
X753986Y177525D01*
X753875Y177484D01*
X753778Y177456D01*
X753709Y177428D01*
X753653Y177415D01*
X753639D01*
X753570Y177401D01*
X753473Y177373D01*
X753251Y177317D01*
X753001Y177262D01*
X752737Y177206D01*
X752501Y177165D01*
X752390Y177137D01*
X752293Y177123D01*
X752210Y177109D01*
X752154Y177095D01*
X752112Y177081D01*
X752099D01*
X751918Y177040D01*
X751752Y176998D01*
X751474Y176901D01*
X751238Y176804D01*
X751044Y176707D01*
X750905Y176623D01*
X750808Y176554D01*
X750752Y176498D01*
X750738Y176485D01*
X750613Y176332D01*
X750530Y176151D01*
X750461Y175985D01*
X750419Y175818D01*
X750391Y175680D01*
X750378Y175568D01*
Y175485D01*
Y175471D01*
Y175457D01*
X750405Y175208D01*
X750461Y174999D01*
X750530Y174805D01*
X750627Y174638D01*
X750725Y174500D01*
X750794Y174402D01*
X750849Y174347D01*
X750877Y174319D01*
X751085Y174167D01*
X751335Y174069D01*
X751585Y173986D01*
X751821Y173931D01*
X752043Y173903D01*
X752140Y173889D01*
X752224D01*
X752293Y173875D01*
X752390D01*
X752654Y173889D01*
X752904Y173917D01*
X753126Y173944D01*
X753320Y173986D01*
X753473Y174028D01*
X753598Y174069D01*
X753667Y174083D01*
X753695Y174097D01*
X753848Y174167D01*
X753986Y174264D01*
X754125Y174347D01*
X754250Y174444D01*
X754361Y174527D01*
X754444Y174597D01*
X754500Y174652D01*
X754514Y174666D01*
X754541Y174514D01*
X754569Y174402D01*
X754583Y174347D01*
Y174319D01*
X754625Y174222D01*
X754680Y174125D01*
X754736Y174042D01*
X754750Y174014D01*
Y174000D01*
X756735D01*
X756624Y174222D01*
X756596Y174319D01*
X756568Y174402D01*
X756540Y174472D01*
X756526Y174514D01*
X756512Y174541D01*
Y174555D01*
X756499Y174652D01*
X756485Y174750D01*
X756471Y174944D01*
Y175027D01*
Y175096D01*
Y175152D01*
Y175166D01*
Y177595D01*
Y177748D01*
X756443Y177886D01*
X756415Y178025D01*
X756388Y178150D01*
X756360Y178261D01*
X756332Y178344D01*
X756318Y178400D01*
X756304Y178414D01*
X756249Y178567D01*
X756179Y178705D01*
X756110Y178816D01*
X756041Y178913D01*
X755985Y178983D01*
X755930Y179038D01*
X755902Y179066D01*
X755888Y179080D01*
X755735Y179191D01*
X755569Y179288D01*
X755416Y179372D01*
X755263Y179427D01*
X755125Y179469D01*
X755013Y179497D01*
X754944Y179524D01*
X754916D01*
X754694Y179566D01*
X754444Y179594D01*
X754181Y179607D01*
X753945Y179621D01*
X753723Y179635D01*
D02*
G37*
G36*
X777444Y181606D02*
X773252D01*
Y174000D01*
X775611D01*
Y177081D01*
X775806D01*
X775931Y177067D01*
X776042Y177054D01*
X776139Y177026D01*
X776222Y176998D01*
X776292Y176956D01*
X776347Y176929D01*
X776375Y176915D01*
X776389Y176901D01*
X776458Y176831D01*
X776541Y176748D01*
X776680Y176554D01*
X776736Y176471D01*
X776777Y176387D01*
X776805Y176332D01*
X776819Y176318D01*
X778082Y174000D01*
X780747D01*
X779595Y176193D01*
X779553Y176262D01*
X779512Y176332D01*
X779401Y176498D01*
X779345Y176554D01*
X779303Y176609D01*
X779276Y176651D01*
X779262Y176665D01*
X779178Y176776D01*
X779095Y176859D01*
X779040Y176929D01*
X778984Y176984D01*
X778943Y177026D01*
X778915Y177054D01*
X778887Y177067D01*
X778804Y177123D01*
X778707Y177165D01*
X778512Y177262D01*
X778415Y177290D01*
X778346Y177317D01*
X778290Y177345D01*
X778276D01*
X778457Y177401D01*
X778623Y177442D01*
X778762Y177498D01*
X778887Y177539D01*
X778970Y177581D01*
X779040Y177623D01*
X779081Y177637D01*
X779095Y177650D01*
X779262Y177761D01*
X779415Y177886D01*
X779539Y178011D01*
X779650Y178122D01*
X779734Y178233D01*
X779803Y178317D01*
X779831Y178372D01*
X779845Y178386D01*
X779942Y178567D01*
X780011Y178761D01*
X780053Y178941D01*
X780095Y179108D01*
X780108Y179261D01*
X780122Y179372D01*
Y179455D01*
Y179483D01*
X780108Y179746D01*
X780067Y179982D01*
X780011Y180191D01*
X779942Y180371D01*
X779873Y180524D01*
X779817Y180635D01*
X779775Y180690D01*
X779762Y180718D01*
X779623Y180898D01*
X779470Y181037D01*
X779317Y181162D01*
X779165Y181259D01*
X779040Y181329D01*
X778929Y181370D01*
X778859Y181398D01*
X778831Y181412D01*
X778596Y181481D01*
X778332Y181523D01*
X778054Y181565D01*
X777790Y181579D01*
X777541Y181592D01*
X777444Y181606D01*
D02*
G37*
G36*
X733985Y179635D02*
X733902D01*
X733735Y179621D01*
X733597Y179607D01*
X733458Y179566D01*
X733347Y179524D01*
X733263Y179483D01*
X733194Y179455D01*
X733152Y179427D01*
X733139Y179413D01*
X733028Y179316D01*
X732930Y179191D01*
X732736Y178927D01*
X732667Y178803D01*
X732611Y178705D01*
X732570Y178636D01*
X732556Y178608D01*
Y179510D01*
X730585D01*
Y174000D01*
X732708D01*
Y175846D01*
Y176082D01*
X732722Y176304D01*
X732736Y176498D01*
X732764Y176679D01*
X732778Y176845D01*
X732805Y176998D01*
X732833Y177123D01*
X732875Y177248D01*
X732903Y177345D01*
X732930Y177428D01*
X732958Y177498D01*
X732972Y177553D01*
X733014Y177623D01*
X733028Y177650D01*
X733125Y177761D01*
X733236Y177845D01*
X733333Y177914D01*
X733444Y177956D01*
X733541Y177984D01*
X733610Y177997D01*
X733763D01*
X733860Y177970D01*
X734055Y177914D01*
X734138Y177886D01*
X734207Y177859D01*
X734249Y177845D01*
X734263Y177831D01*
X734929Y179344D01*
X734721Y179441D01*
X734527Y179510D01*
X734360Y179566D01*
X734207Y179594D01*
X734082Y179621D01*
X733985Y179635D01*
D02*
G37*
G36*
X794336Y179510D02*
X792198D01*
X791088Y176013D01*
X790019Y179510D01*
X787826D01*
X790116Y174000D01*
X791990D01*
X794336Y179510D01*
D02*
G37*
G36*
X611064Y181606D02*
X607969D01*
X606775Y176970D01*
X605595Y181606D01*
X602500D01*
Y174000D01*
X604429D01*
Y179802D01*
X605901Y174000D01*
X607650D01*
X609135Y179802D01*
Y174000D01*
X611064D01*
Y181606D01*
D02*
G37*
G36*
X703199D02*
X700104D01*
X698911Y176970D01*
X697731Y181606D01*
X694635D01*
Y174000D01*
X696565D01*
Y179802D01*
X698036Y174000D01*
X699785D01*
X701270Y179802D01*
Y174000D01*
X703199D01*
Y181606D01*
D02*
G37*
G36*
X647763Y179635D02*
X647679D01*
X647513Y179621D01*
X647374Y179607D01*
X647235Y179566D01*
X647124Y179524D01*
X647041Y179483D01*
X646972Y179455D01*
X646930Y179427D01*
X646916Y179413D01*
X646805Y179316D01*
X646708Y179191D01*
X646514Y178927D01*
X646444Y178803D01*
X646389Y178705D01*
X646347Y178636D01*
X646333Y178608D01*
Y179510D01*
X644362D01*
Y174000D01*
X646486D01*
Y175846D01*
Y176082D01*
X646500Y176304D01*
X646514Y176498D01*
X646541Y176679D01*
X646555Y176845D01*
X646583Y176998D01*
X646611Y177123D01*
X646652Y177248D01*
X646680Y177345D01*
X646708Y177428D01*
X646736Y177498D01*
X646749Y177553D01*
X646791Y177623D01*
X646805Y177650D01*
X646902Y177761D01*
X647013Y177845D01*
X647110Y177914D01*
X647221Y177956D01*
X647319Y177984D01*
X647388Y177997D01*
X647541D01*
X647638Y177970D01*
X647832Y177914D01*
X647915Y177886D01*
X647985Y177859D01*
X648026Y177845D01*
X648040Y177831D01*
X648706Y179344D01*
X648498Y179441D01*
X648304Y179510D01*
X648137Y179566D01*
X647985Y179594D01*
X647860Y179621D01*
X647763Y179635D01*
D02*
G37*
G36*
X683212D02*
X683129D01*
X682893Y179621D01*
X682685Y179594D01*
X682490Y179566D01*
X682324Y179524D01*
X682199Y179469D01*
X682102Y179441D01*
X682046Y179413D01*
X682019Y179399D01*
X681852Y179302D01*
X681699Y179177D01*
X681547Y179052D01*
X681408Y178913D01*
X681297Y178803D01*
X681214Y178705D01*
X681144Y178636D01*
X681130Y178608D01*
Y179510D01*
X679173D01*
Y174000D01*
X681283D01*
Y176637D01*
X681297Y176901D01*
X681324Y177123D01*
X681352Y177303D01*
X681408Y177456D01*
X681449Y177553D01*
X681477Y177637D01*
X681505Y177678D01*
X681519Y177692D01*
X681616Y177789D01*
X681713Y177859D01*
X681824Y177914D01*
X681921Y177942D01*
X682005Y177970D01*
X682074Y177984D01*
X682143D01*
X682268Y177970D01*
X682379Y177956D01*
X682463Y177914D01*
X682546Y177873D01*
X682601Y177831D01*
X682643Y177803D01*
X682671Y177775D01*
X682685Y177761D01*
X682754Y177664D01*
X682796Y177553D01*
X682851Y177317D01*
X682865Y177206D01*
X682879Y177109D01*
Y177054D01*
Y177026D01*
Y174000D01*
X685003D01*
Y177498D01*
X684975Y177873D01*
X684919Y178206D01*
X684850Y178483D01*
X684753Y178705D01*
X684656Y178886D01*
X684586Y179011D01*
X684531Y179080D01*
X684503Y179108D01*
X684295Y179288D01*
X684073Y179413D01*
X683851Y179510D01*
X683629Y179566D01*
X683434Y179607D01*
X683268Y179621D01*
X683212Y179635D01*
D02*
G37*
G36*
X670790D02*
X670706D01*
X670540Y179621D01*
X670401Y179607D01*
X670262Y179566D01*
X670151Y179524D01*
X670068Y179483D01*
X669998Y179455D01*
X669957Y179427D01*
X669943Y179413D01*
X669832Y179316D01*
X669735Y179191D01*
X669540Y178927D01*
X669471Y178803D01*
X669416Y178705D01*
X669374Y178636D01*
X669360Y178608D01*
Y179510D01*
X667389D01*
Y174000D01*
X669513D01*
Y175846D01*
Y176082D01*
X669526Y176304D01*
X669540Y176498D01*
X669568Y176679D01*
X669582Y176845D01*
X669610Y176998D01*
X669638Y177123D01*
X669679Y177248D01*
X669707Y177345D01*
X669735Y177428D01*
X669763Y177498D01*
X669776Y177553D01*
X669818Y177623D01*
X669832Y177650D01*
X669929Y177761D01*
X670040Y177845D01*
X670137Y177914D01*
X670248Y177956D01*
X670345Y177984D01*
X670415Y177997D01*
X670568D01*
X670665Y177970D01*
X670859Y177914D01*
X670942Y177886D01*
X671012Y177859D01*
X671053Y177845D01*
X671067Y177831D01*
X671733Y179344D01*
X671525Y179441D01*
X671331Y179510D01*
X671164Y179566D01*
X671012Y179594D01*
X670887Y179621D01*
X670790Y179635D01*
D02*
G37*
G36*
X632425Y179510D02*
X630315D01*
Y176859D01*
X630302Y176596D01*
X630274Y176374D01*
X630232Y176193D01*
X630191Y176040D01*
X630149Y175943D01*
X630107Y175860D01*
X630080Y175818D01*
X630066Y175804D01*
X629969Y175707D01*
X629871Y175638D01*
X629760Y175596D01*
X629663Y175568D01*
X629580Y175541D01*
X629510Y175527D01*
X629441D01*
X629316Y175541D01*
X629205Y175555D01*
X629122Y175596D01*
X629039Y175638D01*
X628983Y175666D01*
X628941Y175707D01*
X628914Y175721D01*
X628900Y175735D01*
X628844Y175832D01*
X628803Y175943D01*
X628747Y176193D01*
X628733Y176290D01*
X628719Y176387D01*
Y176443D01*
Y176471D01*
Y179510D01*
X626596D01*
Y175999D01*
X626623Y175624D01*
X626679Y175291D01*
X626748Y175013D01*
X626846Y174791D01*
X626929Y174611D01*
X627012Y174486D01*
X627068Y174416D01*
X627081Y174389D01*
X627290Y174222D01*
X627512Y174097D01*
X627734Y174000D01*
X627956Y173944D01*
X628150Y173903D01*
X628317Y173889D01*
X628372Y173875D01*
X628456D01*
X628692Y173889D01*
X628900Y173917D01*
X629094Y173944D01*
X629247Y173986D01*
X629372Y174028D01*
X629469Y174069D01*
X629538Y174083D01*
X629552Y174097D01*
X629719Y174194D01*
X629885Y174319D01*
X630038Y174458D01*
X630177Y174583D01*
X630288Y174694D01*
X630385Y174805D01*
X630440Y174861D01*
X630454Y174888D01*
Y174000D01*
X632425D01*
Y179510D01*
D02*
G37*
G36*
X718481Y181606D02*
X716371D01*
Y174000D01*
X718481D01*
Y176637D01*
X718495Y176901D01*
X718523Y177123D01*
X718551Y177303D01*
X718606Y177456D01*
X718648Y177553D01*
X718676Y177637D01*
X718703Y177678D01*
X718717Y177692D01*
X718814Y177789D01*
X718912Y177859D01*
X719023Y177914D01*
X719120Y177942D01*
X719203Y177970D01*
X719272Y177984D01*
X719342D01*
X719467Y177970D01*
X719578Y177956D01*
X719661Y177914D01*
X719744Y177873D01*
X719800Y177831D01*
X719841Y177803D01*
X719869Y177775D01*
X719883Y177761D01*
X719953Y177664D01*
X719994Y177553D01*
X720050Y177317D01*
X720064Y177206D01*
X720078Y177109D01*
Y177054D01*
Y177026D01*
Y174000D01*
X722201D01*
Y177498D01*
X722173Y177873D01*
X722118Y178206D01*
X722048Y178483D01*
X721951Y178705D01*
X721854Y178886D01*
X721785Y179011D01*
X721729Y179080D01*
X721701Y179108D01*
X721493Y179288D01*
X721285Y179413D01*
X721049Y179510D01*
X720841Y179566D01*
X720647Y179607D01*
X720480Y179621D01*
X720425Y179635D01*
X720341D01*
X720133Y179621D01*
X719939Y179607D01*
X719758Y179580D01*
X719619Y179538D01*
X719494Y179497D01*
X719411Y179469D01*
X719342Y179455D01*
X719328Y179441D01*
X719175Y179358D01*
X719023Y179261D01*
X718884Y179149D01*
X718745Y179052D01*
X718634Y178955D01*
X718551Y178872D01*
X718495Y178816D01*
X718481Y178803D01*
Y181606D01*
D02*
G37*
G36*
X688820D02*
X686696Y180510D01*
Y179510D01*
X685919D01*
Y177970D01*
X686696D01*
Y176026D01*
X686710Y175707D01*
X686724Y175430D01*
X686752Y175194D01*
X686779Y174999D01*
X686807Y174861D01*
X686835Y174763D01*
X686863Y174694D01*
Y174680D01*
X686932Y174541D01*
X687029Y174416D01*
X687113Y174305D01*
X687210Y174222D01*
X687293Y174153D01*
X687362Y174111D01*
X687404Y174083D01*
X687418Y174069D01*
X687570Y174000D01*
X687765Y173958D01*
X687945Y173917D01*
X688140Y173903D01*
X688320Y173889D01*
X688459Y173875D01*
X688584D01*
X688847Y173889D01*
X689097Y173903D01*
X689347Y173931D01*
X689569Y173958D01*
X689764Y173986D01*
X689916Y174014D01*
X689972Y174028D01*
X690013Y174042D01*
X690055D01*
X689888Y175499D01*
X689736Y175457D01*
X689611Y175430D01*
X689500Y175402D01*
X689403Y175388D01*
X689333D01*
X689278Y175374D01*
X689236D01*
X689153Y175388D01*
X689070Y175402D01*
X688959Y175457D01*
X688903Y175513D01*
X688875Y175541D01*
X688861Y175596D01*
X688847Y175666D01*
X688834Y175818D01*
X688820Y175888D01*
Y175957D01*
Y175999D01*
Y176013D01*
Y177970D01*
X689986D01*
Y179510D01*
X688820D01*
Y181606D01*
D02*
G37*
G36*
X675120Y179635D02*
X674926D01*
X674662Y179621D01*
X674412Y179607D01*
X674176Y179566D01*
X673954Y179510D01*
X673746Y179455D01*
X673566Y179385D01*
X673385Y179302D01*
X673233Y179233D01*
X673094Y179163D01*
X672983Y179080D01*
X672872Y179011D01*
X672788Y178955D01*
X672719Y178900D01*
X672677Y178872D01*
X672649Y178844D01*
X672636Y178830D01*
X672497Y178678D01*
X672372Y178511D01*
X672261Y178344D01*
X672164Y178164D01*
X672080Y177984D01*
X672011Y177817D01*
X671914Y177484D01*
X671886Y177331D01*
X671858Y177192D01*
X671844Y177054D01*
X671831Y176943D01*
X671817Y176859D01*
Y176790D01*
Y176748D01*
Y176734D01*
X671831Y176401D01*
X671886Y176110D01*
X671942Y175832D01*
X672025Y175610D01*
X672094Y175416D01*
X672164Y175277D01*
X672178Y175221D01*
X672205Y175180D01*
X672219Y175166D01*
Y175152D01*
X672386Y174916D01*
X672552Y174722D01*
X672733Y174555D01*
X672899Y174416D01*
X673038Y174319D01*
X673163Y174236D01*
X673233Y174194D01*
X673260Y174180D01*
X673510Y174083D01*
X673788Y174000D01*
X674079Y173944D01*
X674357Y173917D01*
X674607Y173889D01*
X674704D01*
X674801Y173875D01*
X675217D01*
X675425Y173889D01*
X675634Y173903D01*
X675814Y173931D01*
X675995Y173958D01*
X676147Y173986D01*
X676286Y174028D01*
X676425Y174056D01*
X676536Y174083D01*
X676633Y174125D01*
X676716Y174153D01*
X676786Y174180D01*
X676841Y174208D01*
X676883Y174222D01*
X676897Y174236D01*
X676911D01*
X677161Y174389D01*
X677383Y174569D01*
X677577Y174777D01*
X677743Y174972D01*
X677882Y175152D01*
X677993Y175291D01*
X678021Y175346D01*
X678049Y175388D01*
X678077Y175416D01*
Y175430D01*
X675995Y175624D01*
X675925Y175527D01*
X675842Y175457D01*
X675786Y175388D01*
X675731Y175346D01*
X675648Y175277D01*
X675634Y175263D01*
X675620D01*
X675509Y175208D01*
X675412Y175180D01*
X675231Y175124D01*
X675148D01*
X675092Y175110D01*
X675037D01*
X674856Y175124D01*
X674704Y175166D01*
X674565Y175221D01*
X674454Y175291D01*
X674357Y175360D01*
X674287Y175416D01*
X674246Y175457D01*
X674232Y175471D01*
X674162Y175582D01*
X674107Y175693D01*
X674024Y175943D01*
X673996Y176054D01*
X673982Y176151D01*
X673968Y176207D01*
Y176235D01*
X678201D01*
Y176471D01*
X678188Y176859D01*
X678146Y177206D01*
X678090Y177498D01*
X678021Y177761D01*
X677952Y177956D01*
X677924Y178039D01*
X677896Y178109D01*
X677868Y178164D01*
X677854Y178206D01*
X677841Y178219D01*
Y178233D01*
X677688Y178469D01*
X677521Y178678D01*
X677355Y178858D01*
X677174Y179011D01*
X677022Y179122D01*
X676897Y179205D01*
X676814Y179261D01*
X676800Y179274D01*
X676786D01*
X676508Y179399D01*
X676203Y179483D01*
X675897Y179552D01*
X675606Y179594D01*
X675342Y179621D01*
X675217D01*
X675120Y179635D01*
D02*
G37*
G36*
X714206Y181606D02*
X712083Y180510D01*
Y179510D01*
X711305D01*
Y177970D01*
X712083D01*
Y176026D01*
X712097Y175707D01*
X712110Y175430D01*
X712138Y175194D01*
X712166Y174999D01*
X712194Y174861D01*
X712221Y174763D01*
X712249Y174694D01*
Y174680D01*
X712319Y174541D01*
X712416Y174416D01*
X712499Y174305D01*
X712596Y174222D01*
X712679Y174153D01*
X712749Y174111D01*
X712790Y174083D01*
X712804Y174069D01*
X712957Y174000D01*
X713151Y173958D01*
X713332Y173917D01*
X713526Y173903D01*
X713707Y173889D01*
X713845Y173875D01*
X713970D01*
X714234Y173889D01*
X714484Y173903D01*
X714734Y173931D01*
X714956Y173958D01*
X715150Y173986D01*
X715303Y174014D01*
X715358Y174028D01*
X715400Y174042D01*
X715442D01*
X715275Y175499D01*
X715122Y175457D01*
X714997Y175430D01*
X714886Y175402D01*
X714789Y175388D01*
X714720D01*
X714664Y175374D01*
X714623D01*
X714539Y175388D01*
X714456Y175402D01*
X714345Y175457D01*
X714290Y175513D01*
X714262Y175541D01*
X714248Y175596D01*
X714234Y175666D01*
X714220Y175818D01*
X714206Y175888D01*
Y175957D01*
Y175999D01*
Y176013D01*
Y177970D01*
X715372D01*
Y179510D01*
X714206D01*
Y181606D01*
D02*
G37*
G36*
X707599Y179635D02*
X707447D01*
X707183Y179621D01*
X706933Y179594D01*
X706697Y179566D01*
X706475Y179510D01*
X706267Y179441D01*
X706073Y179372D01*
X705906Y179302D01*
X705753Y179233D01*
X705615Y179149D01*
X705490Y179080D01*
X705379Y179011D01*
X705295Y178941D01*
X705226Y178886D01*
X705184Y178858D01*
X705157Y178830D01*
X705143Y178816D01*
X704990Y178664D01*
X704865Y178497D01*
X704754Y178317D01*
X704657Y178150D01*
X704573Y177970D01*
X704504Y177803D01*
X704407Y177470D01*
X704365Y177317D01*
X704338Y177179D01*
X704324Y177054D01*
X704310Y176943D01*
X704296Y176859D01*
Y176790D01*
Y176748D01*
Y176734D01*
X704310Y176485D01*
X704338Y176249D01*
X704393Y176026D01*
X704449Y175818D01*
X704532Y175624D01*
X704615Y175443D01*
X704698Y175277D01*
X704796Y175124D01*
X704893Y174999D01*
X704976Y174874D01*
X705059Y174777D01*
X705143Y174694D01*
X705198Y174625D01*
X705254Y174583D01*
X705281Y174555D01*
X705295Y174541D01*
X705448Y174430D01*
X705628Y174319D01*
X705975Y174153D01*
X706336Y174042D01*
X706683Y173958D01*
X706836Y173931D01*
X706989Y173917D01*
X707114Y173889D01*
X707225D01*
X707322Y173875D01*
X707447D01*
X707724Y173889D01*
X707974Y173917D01*
X708224Y173944D01*
X708446Y174000D01*
X708654Y174056D01*
X708849Y174125D01*
X709029Y174208D01*
X709182Y174278D01*
X709320Y174347D01*
X709445Y174430D01*
X709556Y174500D01*
X709640Y174555D01*
X709709Y174611D01*
X709751Y174652D01*
X709778Y174666D01*
X709792Y174680D01*
X709945Y174833D01*
X710070Y174999D01*
X710181Y175180D01*
X710278Y175346D01*
X710361Y175527D01*
X710431Y175693D01*
X710528Y176026D01*
X710570Y176179D01*
X710597Y176318D01*
X710611Y176443D01*
X710625Y176554D01*
X710639Y176637D01*
Y176707D01*
Y176748D01*
Y176762D01*
X710625Y176970D01*
X710611Y177165D01*
X710528Y177539D01*
X710417Y177859D01*
X710292Y178136D01*
X710223Y178261D01*
X710167Y178358D01*
X710112Y178455D01*
X710056Y178525D01*
X710014Y178580D01*
X709973Y178636D01*
X709959Y178650D01*
X709945Y178664D01*
X709778Y178830D01*
X709598Y178983D01*
X709404Y179108D01*
X709196Y179233D01*
X708987Y179316D01*
X708779Y179399D01*
X708571Y179469D01*
X708377Y179510D01*
X708196Y179552D01*
X708016Y179580D01*
X707849Y179607D01*
X707724Y179621D01*
X707599Y179635D01*
D02*
G37*
G36*
X615464D02*
X615311D01*
X615048Y179621D01*
X614798Y179594D01*
X614562Y179566D01*
X614340Y179510D01*
X614131Y179441D01*
X613937Y179372D01*
X613771Y179302D01*
X613618Y179233D01*
X613479Y179149D01*
X613354Y179080D01*
X613243Y179011D01*
X613160Y178941D01*
X613090Y178886D01*
X613049Y178858D01*
X613021Y178830D01*
X613007Y178816D01*
X612854Y178664D01*
X612730Y178497D01*
X612618Y178317D01*
X612521Y178150D01*
X612438Y177970D01*
X612369Y177803D01*
X612271Y177470D01*
X612230Y177317D01*
X612202Y177179D01*
X612188Y177054D01*
X612174Y176943D01*
X612160Y176859D01*
Y176790D01*
Y176748D01*
Y176734D01*
X612174Y176485D01*
X612202Y176249D01*
X612258Y176026D01*
X612313Y175818D01*
X612396Y175624D01*
X612480Y175443D01*
X612563Y175277D01*
X612660Y175124D01*
X612757Y174999D01*
X612841Y174874D01*
X612924Y174777D01*
X613007Y174694D01*
X613063Y174625D01*
X613118Y174583D01*
X613146Y174555D01*
X613160Y174541D01*
X613312Y174430D01*
X613493Y174319D01*
X613840Y174153D01*
X614201Y174042D01*
X614548Y173958D01*
X614701Y173931D01*
X614853Y173917D01*
X614978Y173889D01*
X615089D01*
X615186Y173875D01*
X615311D01*
X615589Y173889D01*
X615839Y173917D01*
X616088Y173944D01*
X616311Y174000D01*
X616519Y174056D01*
X616713Y174125D01*
X616894Y174208D01*
X617046Y174278D01*
X617185Y174347D01*
X617310Y174430D01*
X617421Y174500D01*
X617504Y174555D01*
X617574Y174611D01*
X617615Y174652D01*
X617643Y174666D01*
X617657Y174680D01*
X617810Y174833D01*
X617935Y174999D01*
X618046Y175180D01*
X618143Y175346D01*
X618226Y175527D01*
X618295Y175693D01*
X618393Y176026D01*
X618434Y176179D01*
X618462Y176318D01*
X618476Y176443D01*
X618490Y176554D01*
X618504Y176637D01*
Y176707D01*
Y176748D01*
Y176762D01*
X618490Y176970D01*
X618476Y177165D01*
X618393Y177539D01*
X618282Y177859D01*
X618157Y178136D01*
X618087Y178261D01*
X618032Y178358D01*
X617976Y178455D01*
X617921Y178525D01*
X617879Y178580D01*
X617837Y178636D01*
X617824Y178650D01*
X617810Y178664D01*
X617643Y178830D01*
X617463Y178983D01*
X617268Y179108D01*
X617060Y179233D01*
X616852Y179316D01*
X616644Y179399D01*
X616435Y179469D01*
X616241Y179510D01*
X616061Y179552D01*
X615880Y179580D01*
X615714Y179607D01*
X615589Y179621D01*
X615464Y179635D01*
D02*
G37*
G36*
X726504D02*
X726310D01*
X726046Y179621D01*
X725796Y179607D01*
X725560Y179566D01*
X725338Y179510D01*
X725130Y179455D01*
X724949Y179385D01*
X724769Y179302D01*
X724616Y179233D01*
X724477Y179163D01*
X724366Y179080D01*
X724255Y179011D01*
X724172Y178955D01*
X724103Y178900D01*
X724061Y178872D01*
X724033Y178844D01*
X724019Y178830D01*
X723881Y178678D01*
X723756Y178511D01*
X723645Y178344D01*
X723548Y178164D01*
X723464Y177984D01*
X723395Y177817D01*
X723298Y177484D01*
X723270Y177331D01*
X723242Y177192D01*
X723228Y177054D01*
X723214Y176943D01*
X723201Y176859D01*
Y176790D01*
Y176748D01*
Y176734D01*
X723214Y176401D01*
X723270Y176110D01*
X723325Y175832D01*
X723409Y175610D01*
X723478Y175416D01*
X723548Y175277D01*
X723561Y175221D01*
X723589Y175180D01*
X723603Y175166D01*
Y175152D01*
X723770Y174916D01*
X723936Y174722D01*
X724117Y174555D01*
X724283Y174416D01*
X724422Y174319D01*
X724547Y174236D01*
X724616Y174194D01*
X724644Y174180D01*
X724894Y174083D01*
X725171Y174000D01*
X725463Y173944D01*
X725740Y173917D01*
X725990Y173889D01*
X726088D01*
X726185Y173875D01*
X726601D01*
X726809Y173889D01*
X727017Y173903D01*
X727198Y173931D01*
X727378Y173958D01*
X727531Y173986D01*
X727670Y174028D01*
X727809Y174056D01*
X727920Y174083D01*
X728017Y174125D01*
X728100Y174153D01*
X728169Y174180D01*
X728225Y174208D01*
X728267Y174222D01*
X728281Y174236D01*
X728294D01*
X728544Y174389D01*
X728766Y174569D01*
X728961Y174777D01*
X729127Y174972D01*
X729266Y175152D01*
X729377Y175291D01*
X729405Y175346D01*
X729433Y175388D01*
X729460Y175416D01*
Y175430D01*
X727378Y175624D01*
X727309Y175527D01*
X727226Y175457D01*
X727170Y175388D01*
X727115Y175346D01*
X727031Y175277D01*
X727017Y175263D01*
X727004D01*
X726893Y175208D01*
X726795Y175180D01*
X726615Y175124D01*
X726532D01*
X726476Y175110D01*
X726421D01*
X726240Y175124D01*
X726088Y175166D01*
X725949Y175221D01*
X725838Y175291D01*
X725740Y175360D01*
X725671Y175416D01*
X725630Y175457D01*
X725616Y175471D01*
X725546Y175582D01*
X725491Y175693D01*
X725407Y175943D01*
X725380Y176054D01*
X725366Y176151D01*
X725352Y176207D01*
Y176235D01*
X729585D01*
Y176471D01*
X729571Y176859D01*
X729530Y177206D01*
X729474Y177498D01*
X729405Y177761D01*
X729335Y177956D01*
X729308Y178039D01*
X729280Y178109D01*
X729252Y178164D01*
X729238Y178206D01*
X729224Y178219D01*
Y178233D01*
X729072Y178469D01*
X728905Y178678D01*
X728739Y178858D01*
X728558Y179011D01*
X728406Y179122D01*
X728281Y179205D01*
X728197Y179261D01*
X728183Y179274D01*
X728169D01*
X727892Y179399D01*
X727587Y179483D01*
X727281Y179552D01*
X726990Y179594D01*
X726726Y179621D01*
X726601D01*
X726504Y179635D01*
D02*
G37*
G36*
X663350D02*
X662795D01*
X662586Y179621D01*
X662406Y179607D01*
X662240Y179594D01*
X662101Y179566D01*
X661990Y179552D01*
X661934Y179538D01*
X661906D01*
X661726Y179510D01*
X661573Y179469D01*
X661435Y179427D01*
X661323Y179385D01*
X661240Y179344D01*
X661171Y179316D01*
X661129Y179302D01*
X661115Y179288D01*
X660976Y179205D01*
X660851Y179108D01*
X660741Y179025D01*
X660657Y178941D01*
X660588Y178872D01*
X660532Y178816D01*
X660504Y178775D01*
X660491Y178761D01*
X660421Y178636D01*
X660352Y178497D01*
X660296Y178358D01*
X660255Y178233D01*
X660213Y178109D01*
X660199Y178011D01*
X660171Y177956D01*
Y177928D01*
X662198Y177720D01*
X662240Y177845D01*
X662295Y177942D01*
X662351Y178025D01*
X662406Y178095D01*
X662448Y178150D01*
X662489Y178178D01*
X662503Y178206D01*
X662517D01*
X662628Y178261D01*
X662753Y178303D01*
X663003Y178358D01*
X663114D01*
X663211Y178372D01*
X663433D01*
X663558Y178344D01*
X663655Y178317D01*
X663725Y178289D01*
X663794Y178261D01*
X663836Y178233D01*
X663850Y178219D01*
X663864Y178206D01*
X663919Y178136D01*
X663961Y178053D01*
X664016Y177886D01*
Y177803D01*
X664030Y177734D01*
Y177692D01*
Y177678D01*
X663739Y177567D01*
X663614Y177525D01*
X663503Y177484D01*
X663405Y177456D01*
X663336Y177428D01*
X663280Y177415D01*
X663267D01*
X663197Y177401D01*
X663100Y177373D01*
X662878Y177317D01*
X662628Y177262D01*
X662364Y177206D01*
X662128Y177165D01*
X662017Y177137D01*
X661920Y177123D01*
X661837Y177109D01*
X661782Y177095D01*
X661740Y177081D01*
X661726D01*
X661546Y177040D01*
X661379Y176998D01*
X661101Y176901D01*
X660865Y176804D01*
X660671Y176707D01*
X660532Y176623D01*
X660435Y176554D01*
X660380Y176498D01*
X660366Y176485D01*
X660241Y176332D01*
X660157Y176151D01*
X660088Y175985D01*
X660046Y175818D01*
X660019Y175680D01*
X660005Y175568D01*
Y175485D01*
Y175471D01*
Y175457D01*
X660033Y175208D01*
X660088Y174999D01*
X660157Y174805D01*
X660255Y174638D01*
X660352Y174500D01*
X660421Y174402D01*
X660477Y174347D01*
X660504Y174319D01*
X660713Y174167D01*
X660963Y174069D01*
X661212Y173986D01*
X661448Y173931D01*
X661670Y173903D01*
X661768Y173889D01*
X661851D01*
X661920Y173875D01*
X662017D01*
X662281Y173889D01*
X662531Y173917D01*
X662753Y173944D01*
X662947Y173986D01*
X663100Y174028D01*
X663225Y174069D01*
X663294Y174083D01*
X663322Y174097D01*
X663475Y174167D01*
X663614Y174264D01*
X663752Y174347D01*
X663877Y174444D01*
X663988Y174527D01*
X664072Y174597D01*
X664127Y174652D01*
X664141Y174666D01*
X664169Y174514D01*
X664197Y174402D01*
X664211Y174347D01*
Y174319D01*
X664252Y174222D01*
X664308Y174125D01*
X664363Y174042D01*
X664377Y174014D01*
Y174000D01*
X666362D01*
X666251Y174222D01*
X666223Y174319D01*
X666195Y174402D01*
X666168Y174472D01*
X666154Y174514D01*
X666140Y174541D01*
Y174555D01*
X666126Y174652D01*
X666112Y174750D01*
X666098Y174944D01*
Y175027D01*
Y175096D01*
Y175152D01*
Y175166D01*
Y177595D01*
Y177748D01*
X666070Y177886D01*
X666043Y178025D01*
X666015Y178150D01*
X665987Y178261D01*
X665959Y178344D01*
X665945Y178400D01*
X665932Y178414D01*
X665876Y178567D01*
X665807Y178705D01*
X665737Y178816D01*
X665668Y178913D01*
X665612Y178983D01*
X665557Y179038D01*
X665529Y179066D01*
X665515Y179080D01*
X665363Y179191D01*
X665196Y179288D01*
X665043Y179372D01*
X664891Y179427D01*
X664752Y179469D01*
X664641Y179497D01*
X664571Y179524D01*
X664544D01*
X664322Y179566D01*
X664072Y179594D01*
X663808Y179607D01*
X663572Y179621D01*
X663350Y179635D01*
D02*
G37*
G36*
X635895Y181606D02*
X633772D01*
Y174000D01*
X635895D01*
Y181606D01*
D02*
G37*
G36*
X656743D02*
X652718D01*
Y174000D01*
X655077D01*
Y176831D01*
X656354D01*
X656618Y176845D01*
X656854Y176859D01*
X657076Y176887D01*
X657284Y176929D01*
X657479Y176984D01*
X657659Y177040D01*
X657812Y177095D01*
X657951Y177151D01*
X658076Y177206D01*
X658187Y177262D01*
X658270Y177317D01*
X658353Y177373D01*
X658409Y177415D01*
X658450Y177442D01*
X658464Y177470D01*
X658478D01*
X658603Y177595D01*
X658714Y177734D01*
X658797Y177873D01*
X658881Y178025D01*
X659005Y178331D01*
X659089Y178622D01*
X659130Y178872D01*
X659158Y178983D01*
Y179080D01*
X659172Y179163D01*
Y179219D01*
Y179261D01*
Y179274D01*
Y179483D01*
X659144Y179663D01*
X659075Y180010D01*
X658964Y180301D01*
X658853Y180551D01*
X658742Y180746D01*
X658631Y180885D01*
X658589Y180926D01*
X658561Y180968D01*
X658547Y180996D01*
X658534D01*
X658409Y181107D01*
X658270Y181204D01*
X657965Y181342D01*
X657645Y181454D01*
X657340Y181537D01*
X657062Y181579D01*
X656937Y181592D01*
X656826D01*
X656743Y181606D01*
D02*
G37*
G36*
X640323Y179635D02*
X639768D01*
X639560Y179621D01*
X639379Y179607D01*
X639213Y179594D01*
X639074Y179566D01*
X638963Y179552D01*
X638907Y179538D01*
X638879D01*
X638699Y179510D01*
X638546Y179469D01*
X638408Y179427D01*
X638297Y179385D01*
X638213Y179344D01*
X638144Y179316D01*
X638102Y179302D01*
X638088Y179288D01*
X637950Y179205D01*
X637825Y179108D01*
X637714Y179025D01*
X637630Y178941D01*
X637561Y178872D01*
X637505Y178816D01*
X637478Y178775D01*
X637464Y178761D01*
X637394Y178636D01*
X637325Y178497D01*
X637269Y178358D01*
X637228Y178233D01*
X637186Y178109D01*
X637172Y178011D01*
X637145Y177956D01*
Y177928D01*
X639171Y177720D01*
X639213Y177845D01*
X639268Y177942D01*
X639324Y178025D01*
X639379Y178095D01*
X639421Y178150D01*
X639462Y178178D01*
X639476Y178206D01*
X639490D01*
X639601Y178261D01*
X639726Y178303D01*
X639976Y178358D01*
X640087D01*
X640184Y178372D01*
X640406D01*
X640531Y178344D01*
X640628Y178317D01*
X640698Y178289D01*
X640767Y178261D01*
X640809Y178233D01*
X640823Y178219D01*
X640837Y178206D01*
X640892Y178136D01*
X640934Y178053D01*
X640989Y177886D01*
Y177803D01*
X641003Y177734D01*
Y177692D01*
Y177678D01*
X640712Y177567D01*
X640587Y177525D01*
X640476Y177484D01*
X640379Y177456D01*
X640309Y177428D01*
X640254Y177415D01*
X640240D01*
X640170Y177401D01*
X640073Y177373D01*
X639851Y177317D01*
X639601Y177262D01*
X639337Y177206D01*
X639102Y177165D01*
X638990Y177137D01*
X638893Y177123D01*
X638810Y177109D01*
X638755Y177095D01*
X638713Y177081D01*
X638699D01*
X638519Y177040D01*
X638352Y176998D01*
X638074Y176901D01*
X637839Y176804D01*
X637644Y176707D01*
X637505Y176623D01*
X637408Y176554D01*
X637353Y176498D01*
X637339Y176485D01*
X637214Y176332D01*
X637131Y176151D01*
X637061Y175985D01*
X637020Y175818D01*
X636992Y175680D01*
X636978Y175568D01*
Y175485D01*
Y175471D01*
Y175457D01*
X637006Y175208D01*
X637061Y174999D01*
X637131Y174805D01*
X637228Y174638D01*
X637325Y174500D01*
X637394Y174402D01*
X637450Y174347D01*
X637478Y174319D01*
X637686Y174167D01*
X637936Y174069D01*
X638186Y173986D01*
X638421Y173931D01*
X638644Y173903D01*
X638741Y173889D01*
X638824D01*
X638893Y173875D01*
X638990D01*
X639254Y173889D01*
X639504Y173917D01*
X639726Y173944D01*
X639921Y173986D01*
X640073Y174028D01*
X640198Y174069D01*
X640268Y174083D01*
X640295Y174097D01*
X640448Y174167D01*
X640587Y174264D01*
X640726Y174347D01*
X640850Y174444D01*
X640962Y174527D01*
X641045Y174597D01*
X641100Y174652D01*
X641114Y174666D01*
X641142Y174514D01*
X641170Y174402D01*
X641184Y174347D01*
Y174319D01*
X641225Y174222D01*
X641281Y174125D01*
X641336Y174042D01*
X641350Y174014D01*
Y174000D01*
X643335D01*
X643224Y174222D01*
X643196Y174319D01*
X643168Y174402D01*
X643141Y174472D01*
X643127Y174514D01*
X643113Y174541D01*
Y174555D01*
X643099Y174652D01*
X643085Y174750D01*
X643071Y174944D01*
Y175027D01*
Y175096D01*
Y175152D01*
Y175166D01*
Y177595D01*
Y177748D01*
X643044Y177886D01*
X643016Y178025D01*
X642988Y178150D01*
X642960Y178261D01*
X642932Y178344D01*
X642919Y178400D01*
X642905Y178414D01*
X642849Y178567D01*
X642780Y178705D01*
X642710Y178816D01*
X642641Y178913D01*
X642585Y178983D01*
X642530Y179038D01*
X642502Y179066D01*
X642488Y179080D01*
X642336Y179191D01*
X642169Y179288D01*
X642016Y179372D01*
X641864Y179427D01*
X641725Y179469D01*
X641614Y179497D01*
X641544Y179524D01*
X641517D01*
X641295Y179566D01*
X641045Y179594D01*
X640781Y179607D01*
X640545Y179621D01*
X640323Y179635D01*
D02*
G37*
G36*
X746588D02*
X746436D01*
X746172Y179621D01*
X745922Y179594D01*
X745686Y179566D01*
X745464Y179510D01*
X745256Y179441D01*
X745061Y179372D01*
X744895Y179302D01*
X744742Y179233D01*
X744603Y179149D01*
X744479Y179080D01*
X744368Y179011D01*
X744284Y178941D01*
X744215Y178886D01*
X744173Y178858D01*
X744145Y178830D01*
X744132Y178816D01*
X743979Y178664D01*
X743854Y178497D01*
X743743Y178317D01*
X743646Y178150D01*
X743562Y177970D01*
X743493Y177803D01*
X743396Y177470D01*
X743354Y177317D01*
X743327Y177179D01*
X743313Y177054D01*
X743299Y176943D01*
X743285Y176859D01*
Y176790D01*
Y176748D01*
Y176734D01*
X743299Y176485D01*
X743327Y176249D01*
X743382Y176026D01*
X743437Y175818D01*
X743521Y175624D01*
X743604Y175443D01*
X743687Y175277D01*
X743785Y175124D01*
X743882Y174999D01*
X743965Y174874D01*
X744048Y174777D01*
X744132Y174694D01*
X744187Y174625D01*
X744243Y174583D01*
X744270Y174555D01*
X744284Y174541D01*
X744437Y174430D01*
X744617Y174319D01*
X744964Y174153D01*
X745325Y174042D01*
X745672Y173958D01*
X745825Y173931D01*
X745978Y173917D01*
X746103Y173889D01*
X746213D01*
X746311Y173875D01*
X746436D01*
X746713Y173889D01*
X746963Y173917D01*
X747213Y173944D01*
X747435Y174000D01*
X747643Y174056D01*
X747837Y174125D01*
X748018Y174208D01*
X748171Y174278D01*
X748309Y174347D01*
X748434Y174430D01*
X748545Y174500D01*
X748629Y174555D01*
X748698Y174611D01*
X748740Y174652D01*
X748767Y174666D01*
X748781Y174680D01*
X748934Y174833D01*
X749059Y174999D01*
X749170Y175180D01*
X749267Y175346D01*
X749350Y175527D01*
X749420Y175693D01*
X749517Y176026D01*
X749559Y176179D01*
X749586Y176318D01*
X749600Y176443D01*
X749614Y176554D01*
X749628Y176637D01*
Y176707D01*
Y176748D01*
Y176762D01*
X749614Y176970D01*
X749600Y177165D01*
X749517Y177539D01*
X749406Y177859D01*
X749281Y178136D01*
X749212Y178261D01*
X749156Y178358D01*
X749101Y178455D01*
X749045Y178525D01*
X749003Y178580D01*
X748962Y178636D01*
X748948Y178650D01*
X748934Y178664D01*
X748767Y178830D01*
X748587Y178983D01*
X748393Y179108D01*
X748184Y179233D01*
X747976Y179316D01*
X747768Y179399D01*
X747560Y179469D01*
X747366Y179510D01*
X747185Y179552D01*
X747005Y179580D01*
X746838Y179607D01*
X746713Y179621D01*
X746588Y179635D01*
D02*
G37*
G36*
X784397D02*
X784203D01*
X783939Y179621D01*
X783689Y179607D01*
X783454Y179566D01*
X783231Y179510D01*
X783023Y179455D01*
X782843Y179385D01*
X782662Y179302D01*
X782510Y179233D01*
X782371Y179163D01*
X782260Y179080D01*
X782149Y179011D01*
X782066Y178955D01*
X781996Y178900D01*
X781954Y178872D01*
X781927Y178844D01*
X781913Y178830D01*
X781774Y178678D01*
X781649Y178511D01*
X781538Y178344D01*
X781441Y178164D01*
X781358Y177984D01*
X781288Y177817D01*
X781191Y177484D01*
X781163Y177331D01*
X781136Y177192D01*
X781122Y177054D01*
X781108Y176943D01*
X781094Y176859D01*
Y176790D01*
Y176748D01*
Y176734D01*
X781108Y176401D01*
X781163Y176110D01*
X781219Y175832D01*
X781302Y175610D01*
X781372Y175416D01*
X781441Y175277D01*
X781455Y175221D01*
X781483Y175180D01*
X781496Y175166D01*
Y175152D01*
X781663Y174916D01*
X781830Y174722D01*
X782010Y174555D01*
X782177Y174416D01*
X782315Y174319D01*
X782440Y174236D01*
X782510Y174194D01*
X782538Y174180D01*
X782787Y174083D01*
X783065Y174000D01*
X783356Y173944D01*
X783634Y173917D01*
X783884Y173889D01*
X783981D01*
X784078Y173875D01*
X784495D01*
X784703Y173889D01*
X784911Y173903D01*
X785091Y173931D01*
X785272Y173958D01*
X785425Y173986D01*
X785563Y174028D01*
X785702Y174056D01*
X785813Y174083D01*
X785910Y174125D01*
X785994Y174153D01*
X786063Y174180D01*
X786119Y174208D01*
X786160Y174222D01*
X786174Y174236D01*
X786188D01*
X786438Y174389D01*
X786660Y174569D01*
X786854Y174777D01*
X787021Y174972D01*
X787159Y175152D01*
X787271Y175291D01*
X787298Y175346D01*
X787326Y175388D01*
X787354Y175416D01*
Y175430D01*
X785272Y175624D01*
X785202Y175527D01*
X785119Y175457D01*
X785064Y175388D01*
X785008Y175346D01*
X784925Y175277D01*
X784911Y175263D01*
X784897D01*
X784786Y175208D01*
X784689Y175180D01*
X784508Y175124D01*
X784425D01*
X784370Y175110D01*
X784314D01*
X784134Y175124D01*
X783981Y175166D01*
X783842Y175221D01*
X783731Y175291D01*
X783634Y175360D01*
X783565Y175416D01*
X783523Y175457D01*
X783509Y175471D01*
X783440Y175582D01*
X783384Y175693D01*
X783301Y175943D01*
X783273Y176054D01*
X783259Y176151D01*
X783245Y176207D01*
Y176235D01*
X787479D01*
Y176471D01*
X787465Y176859D01*
X787423Y177206D01*
X787368Y177498D01*
X787298Y177761D01*
X787229Y177956D01*
X787201Y178039D01*
X787173Y178109D01*
X787146Y178164D01*
X787132Y178206D01*
X787118Y178219D01*
Y178233D01*
X786965Y178469D01*
X786799Y178678D01*
X786632Y178858D01*
X786452Y179011D01*
X786299Y179122D01*
X786174Y179205D01*
X786091Y179261D01*
X786077Y179274D01*
X786063D01*
X785785Y179399D01*
X785480Y179483D01*
X785175Y179552D01*
X784883Y179594D01*
X784620Y179621D01*
X784495D01*
X784397Y179635D01*
D02*
G37*
%LPD*%
G36*
X765312Y178039D02*
X765451Y177997D01*
X765562Y177956D01*
X765659Y177900D01*
X765743Y177831D01*
X765798Y177789D01*
X765840Y177748D01*
X765854Y177734D01*
X765951Y177595D01*
X766020Y177442D01*
X766062Y177290D01*
X766104Y177123D01*
X766117Y176984D01*
X766131Y176873D01*
Y176790D01*
Y176776D01*
Y176762D01*
X766117Y176512D01*
X766090Y176290D01*
X766048Y176110D01*
X765992Y175971D01*
X765937Y175860D01*
X765895Y175777D01*
X765868Y175735D01*
X765854Y175721D01*
X765757Y175624D01*
X765646Y175541D01*
X765521Y175485D01*
X765423Y175457D01*
X765326Y175430D01*
X765257Y175416D01*
X765188D01*
X765049Y175430D01*
X764924Y175457D01*
X764813Y175513D01*
X764729Y175568D01*
X764646Y175624D01*
X764591Y175680D01*
X764563Y175707D01*
X764549Y175721D01*
X764466Y175860D01*
X764410Y176013D01*
X764355Y176179D01*
X764327Y176332D01*
X764313Y176485D01*
X764299Y176596D01*
Y176679D01*
Y176693D01*
Y176707D01*
X764313Y176956D01*
X764341Y177179D01*
X764369Y177345D01*
X764424Y177498D01*
X764466Y177595D01*
X764494Y177678D01*
X764521Y177720D01*
X764535Y177734D01*
X764632Y177845D01*
X764743Y177914D01*
X764841Y177970D01*
X764938Y178011D01*
X765035Y178039D01*
X765104Y178053D01*
X765160D01*
X765312Y178039D01*
D02*
G37*
G36*
X622376D02*
X622515Y177997D01*
X622626Y177956D01*
X622723Y177900D01*
X622806Y177831D01*
X622862Y177789D01*
X622904Y177748D01*
X622918Y177734D01*
X623015Y177595D01*
X623084Y177442D01*
X623126Y177290D01*
X623167Y177123D01*
X623181Y176984D01*
X623195Y176873D01*
Y176790D01*
Y176776D01*
Y176762D01*
X623181Y176512D01*
X623153Y176290D01*
X623112Y176110D01*
X623056Y175971D01*
X623001Y175860D01*
X622959Y175777D01*
X622931Y175735D01*
X622918Y175721D01*
X622820Y175624D01*
X622709Y175541D01*
X622584Y175485D01*
X622487Y175457D01*
X622390Y175430D01*
X622321Y175416D01*
X622251D01*
X622112Y175430D01*
X621987Y175457D01*
X621876Y175513D01*
X621793Y175568D01*
X621710Y175624D01*
X621654Y175680D01*
X621627Y175707D01*
X621613Y175721D01*
X621529Y175860D01*
X621474Y176013D01*
X621418Y176179D01*
X621391Y176332D01*
X621377Y176485D01*
X621363Y176596D01*
Y176679D01*
Y176693D01*
Y176707D01*
X621377Y176956D01*
X621405Y177179D01*
X621432Y177345D01*
X621488Y177498D01*
X621529Y177595D01*
X621557Y177678D01*
X621585Y177720D01*
X621599Y177734D01*
X621696Y177845D01*
X621807Y177914D01*
X621904Y177970D01*
X622001Y178011D01*
X622099Y178039D01*
X622168Y178053D01*
X622224D01*
X622376Y178039D01*
D02*
G37*
G36*
X802219Y180052D02*
X802386Y180038D01*
X802511Y180010D01*
X802608Y179968D01*
X802691Y179927D01*
X802747Y179899D01*
X802775Y179885D01*
X802788Y179871D01*
X802858Y179802D01*
X802913Y179719D01*
X802955Y179635D01*
X802983Y179552D01*
X802997Y179469D01*
X803010Y179413D01*
Y179372D01*
Y179358D01*
X802997Y179233D01*
X802983Y179122D01*
X802941Y179025D01*
X802899Y178941D01*
X802858Y178886D01*
X802830Y178844D01*
X802802Y178816D01*
X802788Y178803D01*
X802691Y178747D01*
X802580Y178705D01*
X802330Y178650D01*
X802205Y178636D01*
X802108Y178622D01*
X800998D01*
Y180066D01*
X802039D01*
X802219Y180052D01*
D02*
G37*
G36*
X802400Y177165D02*
X802580Y177151D01*
X802733Y177109D01*
X802844Y177081D01*
X802941Y177040D01*
X803010Y176998D01*
X803038Y176984D01*
X803052Y176970D01*
X803135Y176887D01*
X803191Y176804D01*
X803246Y176707D01*
X803274Y176623D01*
X803288Y176540D01*
X803302Y176485D01*
Y176443D01*
Y176429D01*
X803288Y176304D01*
X803260Y176193D01*
X803219Y176082D01*
X803177Y175999D01*
X803135Y175929D01*
X803094Y175888D01*
X803066Y175860D01*
X803052Y175846D01*
X802941Y175777D01*
X802816Y175721D01*
X802677Y175693D01*
X802525Y175666D01*
X802400Y175652D01*
X802289Y175638D01*
X800998D01*
Y177179D01*
X802178D01*
X802400Y177165D01*
D02*
G37*
G36*
X739010Y180052D02*
X739176Y180038D01*
X739301Y180010D01*
X739398Y179968D01*
X739482Y179927D01*
X739537Y179899D01*
X739565Y179885D01*
X739579Y179871D01*
X739648Y179802D01*
X739704Y179719D01*
X739745Y179635D01*
X739773Y179552D01*
X739787Y179469D01*
X739801Y179413D01*
Y179372D01*
Y179358D01*
X739787Y179233D01*
X739773Y179122D01*
X739732Y179025D01*
X739690Y178941D01*
X739648Y178886D01*
X739620Y178844D01*
X739593Y178816D01*
X739579Y178803D01*
X739482Y178747D01*
X739371Y178705D01*
X739121Y178650D01*
X738996Y178636D01*
X738899Y178622D01*
X737788D01*
Y180066D01*
X738829D01*
X739010Y180052D01*
D02*
G37*
G36*
X739190Y177165D02*
X739371Y177151D01*
X739523Y177109D01*
X739634Y177081D01*
X739732Y177040D01*
X739801Y176998D01*
X739829Y176984D01*
X739843Y176970D01*
X739926Y176887D01*
X739981Y176804D01*
X740037Y176707D01*
X740065Y176623D01*
X740079Y176540D01*
X740092Y176485D01*
Y176443D01*
Y176429D01*
X740079Y176304D01*
X740051Y176193D01*
X740009Y176082D01*
X739967Y175999D01*
X739926Y175929D01*
X739884Y175888D01*
X739856Y175860D01*
X739843Y175846D01*
X739732Y175777D01*
X739607Y175721D01*
X739468Y175693D01*
X739315Y175666D01*
X739190Y175652D01*
X739079Y175638D01*
X737788D01*
Y177179D01*
X738968D01*
X739190Y177165D01*
D02*
G37*
G36*
X754403Y176262D02*
Y176124D01*
X754375Y175999D01*
X754361Y175888D01*
X754333Y175804D01*
X754306Y175721D01*
X754292Y175666D01*
X754264Y175638D01*
Y175624D01*
X754208Y175541D01*
X754139Y175457D01*
X754000Y175332D01*
X753931Y175291D01*
X753889Y175249D01*
X753848Y175235D01*
X753834Y175221D01*
X753723Y175166D01*
X753598Y175124D01*
X753487Y175096D01*
X753390Y175083D01*
X753306Y175069D01*
X753237Y175055D01*
X753181D01*
X753070Y175069D01*
X752959Y175083D01*
X752876Y175110D01*
X752807Y175138D01*
X752737Y175166D01*
X752696Y175180D01*
X752682Y175208D01*
X752668D01*
X752612Y175263D01*
X752571Y175332D01*
X752529Y175471D01*
X752515Y175527D01*
X752501Y175568D01*
Y175596D01*
Y175610D01*
X752515Y175693D01*
X752529Y175763D01*
X752584Y175888D01*
X752640Y175971D01*
X752668Y175985D01*
Y175999D01*
X752751Y176068D01*
X752876Y176124D01*
X753001Y176179D01*
X753140Y176235D01*
X753278Y176276D01*
X753390Y176304D01*
X753459Y176318D01*
X753487Y176332D01*
X753834Y176429D01*
X753986Y176471D01*
X754125Y176512D01*
X754236Y176554D01*
X754333Y176582D01*
X754389Y176609D01*
X754403D01*
Y176262D01*
D02*
G37*
G36*
X776861Y180052D02*
X777055Y180038D01*
X777208Y179996D01*
X777332Y179968D01*
X777416Y179927D01*
X777485Y179885D01*
X777513Y179871D01*
X777527Y179857D01*
X777610Y179774D01*
X777666Y179691D01*
X777707Y179594D01*
X777735Y179510D01*
X777749Y179427D01*
X777763Y179358D01*
Y179316D01*
Y179302D01*
Y179205D01*
X777735Y179122D01*
X777693Y178983D01*
X777666Y178927D01*
X777638Y178900D01*
X777624Y178872D01*
X777610Y178858D01*
X777555Y178789D01*
X777485Y178733D01*
X777360Y178664D01*
X777305Y178650D01*
X777263Y178636D01*
X777235Y178622D01*
X777221D01*
X777069Y178594D01*
X776930Y178567D01*
X776819Y178553D01*
X776736Y178539D01*
X776680Y178525D01*
X775611D01*
Y180066D01*
X776639D01*
X776861Y180052D01*
D02*
G37*
G36*
X675162Y178372D02*
X675315Y178344D01*
X675425Y178303D01*
X675537Y178247D01*
X675606Y178192D01*
X675675Y178150D01*
X675703Y178122D01*
X675717Y178109D01*
X675814Y177997D01*
X675884Y177859D01*
X675939Y177720D01*
X675981Y177581D01*
X676009Y177456D01*
X676036Y177345D01*
X676050Y177276D01*
Y177262D01*
Y177248D01*
X673968D01*
X673996Y177415D01*
X674024Y177567D01*
X674065Y177692D01*
X674107Y177803D01*
X674149Y177873D01*
X674176Y177942D01*
X674190Y177970D01*
X674204Y177984D01*
X674329Y178122D01*
X674454Y178219D01*
X674593Y178289D01*
X674718Y178331D01*
X674829Y178372D01*
X674926Y178386D01*
X675009D01*
X675162Y178372D01*
D02*
G37*
G36*
X707627Y178164D02*
X707780Y178122D01*
X707905Y178067D01*
X708016Y177997D01*
X708099Y177928D01*
X708155Y177873D01*
X708196Y177831D01*
X708210Y177817D01*
X708307Y177678D01*
X708391Y177512D01*
X708446Y177331D01*
X708474Y177165D01*
X708502Y176998D01*
X708515Y176873D01*
Y176790D01*
Y176776D01*
Y176762D01*
X708502Y176485D01*
X708474Y176262D01*
X708418Y176068D01*
X708363Y175915D01*
X708307Y175791D01*
X708252Y175707D01*
X708224Y175652D01*
X708210Y175638D01*
X708099Y175527D01*
X707974Y175443D01*
X707849Y175388D01*
X707724Y175346D01*
X707627Y175319D01*
X707544Y175305D01*
X707461D01*
X707308Y175319D01*
X707155Y175360D01*
X707030Y175416D01*
X706919Y175485D01*
X706836Y175541D01*
X706767Y175596D01*
X706725Y175638D01*
X706711Y175652D01*
X706614Y175804D01*
X706544Y175971D01*
X706489Y176151D01*
X706461Y176318D01*
X706433Y176485D01*
X706420Y176609D01*
Y176665D01*
Y176707D01*
Y176720D01*
Y176734D01*
X706433Y176984D01*
X706461Y177206D01*
X706517Y177401D01*
X706572Y177553D01*
X706614Y177664D01*
X706669Y177748D01*
X706697Y177803D01*
X706711Y177817D01*
X706836Y177942D01*
X706961Y178025D01*
X707086Y178095D01*
X707211Y178136D01*
X707308Y178164D01*
X707405Y178178D01*
X707474D01*
X707627Y178164D01*
D02*
G37*
G36*
X615492D02*
X615644Y178122D01*
X615769Y178067D01*
X615880Y177997D01*
X615964Y177928D01*
X616019Y177873D01*
X616061Y177831D01*
X616075Y177817D01*
X616172Y177678D01*
X616255Y177512D01*
X616311Y177331D01*
X616338Y177165D01*
X616366Y176998D01*
X616380Y176873D01*
Y176790D01*
Y176776D01*
Y176762D01*
X616366Y176485D01*
X616338Y176262D01*
X616283Y176068D01*
X616227Y175915D01*
X616172Y175791D01*
X616116Y175707D01*
X616088Y175652D01*
X616075Y175638D01*
X615964Y175527D01*
X615839Y175443D01*
X615714Y175388D01*
X615589Y175346D01*
X615492Y175319D01*
X615408Y175305D01*
X615325D01*
X615172Y175319D01*
X615020Y175360D01*
X614895Y175416D01*
X614784Y175485D01*
X614701Y175541D01*
X614631Y175596D01*
X614590Y175638D01*
X614576Y175652D01*
X614478Y175804D01*
X614409Y175971D01*
X614354Y176151D01*
X614326Y176318D01*
X614298Y176485D01*
X614284Y176609D01*
Y176665D01*
Y176707D01*
Y176720D01*
Y176734D01*
X614298Y176984D01*
X614326Y177206D01*
X614381Y177401D01*
X614437Y177553D01*
X614478Y177664D01*
X614534Y177748D01*
X614562Y177803D01*
X614576Y177817D01*
X614701Y177942D01*
X614825Y178025D01*
X614950Y178095D01*
X615075Y178136D01*
X615172Y178164D01*
X615270Y178178D01*
X615339D01*
X615492Y178164D01*
D02*
G37*
G36*
X726546Y178372D02*
X726698Y178344D01*
X726809Y178303D01*
X726920Y178247D01*
X726990Y178192D01*
X727059Y178150D01*
X727087Y178122D01*
X727101Y178109D01*
X727198Y177997D01*
X727267Y177859D01*
X727323Y177720D01*
X727364Y177581D01*
X727392Y177456D01*
X727420Y177345D01*
X727434Y177276D01*
Y177262D01*
Y177248D01*
X725352D01*
X725380Y177415D01*
X725407Y177567D01*
X725449Y177692D01*
X725491Y177803D01*
X725532Y177873D01*
X725560Y177942D01*
X725574Y177970D01*
X725588Y177984D01*
X725713Y178122D01*
X725838Y178219D01*
X725977Y178289D01*
X726101Y178331D01*
X726212Y178372D01*
X726310Y178386D01*
X726393D01*
X726546Y178372D01*
D02*
G37*
G36*
X664030Y176262D02*
Y176124D01*
X664002Y175999D01*
X663988Y175888D01*
X663961Y175804D01*
X663933Y175721D01*
X663919Y175666D01*
X663891Y175638D01*
Y175624D01*
X663836Y175541D01*
X663766Y175457D01*
X663627Y175332D01*
X663558Y175291D01*
X663517Y175249D01*
X663475Y175235D01*
X663461Y175221D01*
X663350Y175166D01*
X663225Y175124D01*
X663114Y175096D01*
X663017Y175083D01*
X662933Y175069D01*
X662864Y175055D01*
X662809D01*
X662698Y175069D01*
X662586Y175083D01*
X662503Y175110D01*
X662434Y175138D01*
X662364Y175166D01*
X662323Y175180D01*
X662309Y175208D01*
X662295D01*
X662240Y175263D01*
X662198Y175332D01*
X662156Y175471D01*
X662142Y175527D01*
X662128Y175568D01*
Y175596D01*
Y175610D01*
X662142Y175693D01*
X662156Y175763D01*
X662212Y175888D01*
X662267Y175971D01*
X662295Y175985D01*
Y175999D01*
X662378Y176068D01*
X662503Y176124D01*
X662628Y176179D01*
X662767Y176235D01*
X662906Y176276D01*
X663017Y176304D01*
X663086Y176318D01*
X663114Y176332D01*
X663461Y176429D01*
X663614Y176471D01*
X663752Y176512D01*
X663864Y176554D01*
X663961Y176582D01*
X664016Y176609D01*
X664030D01*
Y176262D01*
D02*
G37*
G36*
X655966Y180052D02*
X656160Y180024D01*
X656313Y179982D01*
X656438Y179941D01*
X656521Y179899D01*
X656590Y179857D01*
X656618Y179830D01*
X656632Y179816D01*
X656715Y179719D01*
X656771Y179621D01*
X656826Y179510D01*
X656854Y179413D01*
X656868Y179330D01*
X656882Y179261D01*
Y179219D01*
Y179205D01*
X656868Y179066D01*
X656840Y178955D01*
X656799Y178844D01*
X656743Y178761D01*
X656687Y178691D01*
X656646Y178636D01*
X656618Y178608D01*
X656604Y178594D01*
X656479Y178525D01*
X656341Y178469D01*
X656174Y178428D01*
X656021Y178400D01*
X655883Y178386D01*
X655758Y178372D01*
X655077D01*
Y180066D01*
X655744D01*
X655966Y180052D01*
D02*
G37*
G36*
X641003Y176262D02*
Y176124D01*
X640975Y175999D01*
X640962Y175888D01*
X640934Y175804D01*
X640906Y175721D01*
X640892Y175666D01*
X640864Y175638D01*
Y175624D01*
X640809Y175541D01*
X640739Y175457D01*
X640601Y175332D01*
X640531Y175291D01*
X640490Y175249D01*
X640448Y175235D01*
X640434Y175221D01*
X640323Y175166D01*
X640198Y175124D01*
X640087Y175096D01*
X639990Y175083D01*
X639907Y175069D01*
X639837Y175055D01*
X639782D01*
X639671Y175069D01*
X639560Y175083D01*
X639476Y175110D01*
X639407Y175138D01*
X639337Y175166D01*
X639296Y175180D01*
X639282Y175208D01*
X639268D01*
X639213Y175263D01*
X639171Y175332D01*
X639129Y175471D01*
X639115Y175527D01*
X639102Y175568D01*
Y175596D01*
Y175610D01*
X639115Y175693D01*
X639129Y175763D01*
X639185Y175888D01*
X639240Y175971D01*
X639268Y175985D01*
Y175999D01*
X639351Y176068D01*
X639476Y176124D01*
X639601Y176179D01*
X639740Y176235D01*
X639879Y176276D01*
X639990Y176304D01*
X640059Y176318D01*
X640087Y176332D01*
X640434Y176429D01*
X640587Y176471D01*
X640726Y176512D01*
X640837Y176554D01*
X640934Y176582D01*
X640989Y176609D01*
X641003D01*
Y176262D01*
D02*
G37*
G36*
X746616Y178164D02*
X746769Y178122D01*
X746894Y178067D01*
X747005Y177997D01*
X747088Y177928D01*
X747144Y177873D01*
X747185Y177831D01*
X747199Y177817D01*
X747296Y177678D01*
X747379Y177512D01*
X747435Y177331D01*
X747463Y177165D01*
X747491Y176998D01*
X747504Y176873D01*
Y176790D01*
Y176776D01*
Y176762D01*
X747491Y176485D01*
X747463Y176262D01*
X747407Y176068D01*
X747352Y175915D01*
X747296Y175791D01*
X747241Y175707D01*
X747213Y175652D01*
X747199Y175638D01*
X747088Y175527D01*
X746963Y175443D01*
X746838Y175388D01*
X746713Y175346D01*
X746616Y175319D01*
X746533Y175305D01*
X746450D01*
X746297Y175319D01*
X746144Y175360D01*
X746019Y175416D01*
X745908Y175485D01*
X745825Y175541D01*
X745755Y175596D01*
X745714Y175638D01*
X745700Y175652D01*
X745603Y175804D01*
X745533Y175971D01*
X745478Y176151D01*
X745450Y176318D01*
X745422Y176485D01*
X745408Y176609D01*
Y176665D01*
Y176707D01*
Y176720D01*
Y176734D01*
X745422Y176984D01*
X745450Y177206D01*
X745506Y177401D01*
X745561Y177553D01*
X745603Y177664D01*
X745658Y177748D01*
X745686Y177803D01*
X745700Y177817D01*
X745825Y177942D01*
X745950Y178025D01*
X746075Y178095D01*
X746200Y178136D01*
X746297Y178164D01*
X746394Y178178D01*
X746463D01*
X746616Y178164D01*
D02*
G37*
G36*
X784439Y178372D02*
X784592Y178344D01*
X784703Y178303D01*
X784814Y178247D01*
X784883Y178192D01*
X784953Y178150D01*
X784980Y178122D01*
X784994Y178109D01*
X785091Y177997D01*
X785161Y177859D01*
X785216Y177720D01*
X785258Y177581D01*
X785286Y177456D01*
X785314Y177345D01*
X785327Y177276D01*
Y177262D01*
Y177248D01*
X783245D01*
X783273Y177415D01*
X783301Y177567D01*
X783343Y177692D01*
X783384Y177803D01*
X783426Y177873D01*
X783454Y177942D01*
X783467Y177970D01*
X783481Y177984D01*
X783606Y178122D01*
X783731Y178219D01*
X783870Y178289D01*
X783995Y178331D01*
X784106Y178372D01*
X784203Y178386D01*
X784286D01*
X784439Y178372D01*
D02*
G37*
%LPC*%
G36*
X658952Y153922D02*
X658563D01*
Y151156D01*
X659026D01*
X659109Y151165D01*
X659220D01*
X659331Y151184D01*
X659451Y151202D01*
X659553Y151221D01*
X659646Y151258D01*
X659655Y151267D01*
X659683Y151277D01*
X659720Y151304D01*
X659766Y151350D01*
X659821Y151397D01*
X659877Y151462D01*
X659932Y151545D01*
X659978Y151637D01*
X659988Y151646D01*
X659997Y151693D01*
X660015Y151758D01*
X660043Y151850D01*
X660062Y151970D01*
X660080Y152128D01*
X660089Y152303D01*
X660099Y152516D01*
Y152525D01*
Y152553D01*
Y152590D01*
Y152646D01*
X660089Y152710D01*
Y152784D01*
X660062Y152960D01*
X660034Y153136D01*
X659988Y153321D01*
X659923Y153487D01*
X659877Y153552D01*
X659831Y153617D01*
X659821Y153626D01*
X659775Y153663D01*
X659710Y153709D01*
X659618Y153774D01*
X659497Y153830D01*
X659349Y153876D01*
X659164Y153913D01*
X658952Y153922D01*
D02*
G37*
G36*
X685563Y144718D02*
X685544D01*
X685507Y144709D01*
X685442Y144700D01*
X685368Y144672D01*
X685285Y144635D01*
X685202Y144570D01*
X685119Y144477D01*
X685054Y144357D01*
X685045Y144339D01*
X685036Y144320D01*
X685026Y144283D01*
X685017Y144246D01*
X685008Y144200D01*
X684989Y144135D01*
X684980Y144061D01*
X684962Y143978D01*
X684943Y143886D01*
X684934Y143774D01*
X684925Y143664D01*
X684915Y143525D01*
X684906Y143386D01*
X684897Y143229D01*
Y143053D01*
Y143044D01*
Y143007D01*
Y142961D01*
Y142896D01*
X684906Y142822D01*
Y142729D01*
X684915Y142526D01*
X684934Y142304D01*
X684971Y142082D01*
X684989Y141980D01*
X685008Y141887D01*
X685036Y141804D01*
X685063Y141730D01*
X685073Y141712D01*
X685100Y141675D01*
X685137Y141619D01*
X685193Y141554D01*
X685267Y141490D01*
X685350Y141434D01*
X685452Y141397D01*
X685563Y141379D01*
X685600D01*
X685646Y141388D01*
X685692Y141397D01*
X685757Y141416D01*
X685813Y141444D01*
X685877Y141481D01*
X685942Y141527D01*
X685951Y141536D01*
X685970Y141554D01*
X685997Y141592D01*
X686034Y141638D01*
X686071Y141712D01*
X686108Y141786D01*
X686145Y141887D01*
X686173Y141999D01*
Y142017D01*
X686182Y142063D01*
X686201Y142137D01*
X686220Y142248D01*
X686229Y142387D01*
X686247Y142563D01*
X686257Y142766D01*
Y143007D01*
Y143016D01*
Y143053D01*
Y143099D01*
Y143173D01*
X686247Y143247D01*
Y143349D01*
X686238Y143552D01*
X686210Y143784D01*
X686182Y144006D01*
X686164Y144107D01*
X686136Y144209D01*
X686108Y144292D01*
X686081Y144367D01*
X686071Y144385D01*
X686044Y144422D01*
X686007Y144477D01*
X685951Y144542D01*
X685877Y144607D01*
X685785Y144662D01*
X685683Y144700D01*
X685563Y144718D01*
D02*
G37*
G36*
X701713D02*
X701695D01*
X701658Y144709D01*
X701593Y144700D01*
X701519Y144672D01*
X701436Y144635D01*
X701353Y144570D01*
X701269Y144477D01*
X701204Y144357D01*
X701195Y144339D01*
X701186Y144320D01*
X701177Y144283D01*
X701167Y144246D01*
X701158Y144200D01*
X701140Y144135D01*
X701130Y144061D01*
X701112Y143978D01*
X701093Y143886D01*
X701084Y143774D01*
X701075Y143664D01*
X701066Y143525D01*
X701056Y143386D01*
X701047Y143229D01*
Y143053D01*
Y143044D01*
Y143007D01*
Y142961D01*
Y142896D01*
X701056Y142822D01*
Y142729D01*
X701066Y142526D01*
X701084Y142304D01*
X701121Y142082D01*
X701140Y141980D01*
X701158Y141887D01*
X701186Y141804D01*
X701214Y141730D01*
X701223Y141712D01*
X701251Y141675D01*
X701288Y141619D01*
X701343Y141554D01*
X701417Y141490D01*
X701501Y141434D01*
X701602Y141397D01*
X701713Y141379D01*
X701750D01*
X701796Y141388D01*
X701843Y141397D01*
X701907Y141416D01*
X701963Y141444D01*
X702028Y141481D01*
X702093Y141527D01*
X702102Y141536D01*
X702120Y141554D01*
X702148Y141592D01*
X702185Y141638D01*
X702222Y141712D01*
X702259Y141786D01*
X702296Y141887D01*
X702324Y141999D01*
Y142017D01*
X702333Y142063D01*
X702352Y142137D01*
X702370Y142248D01*
X702379Y142387D01*
X702398Y142563D01*
X702407Y142766D01*
Y143007D01*
Y143016D01*
Y143053D01*
Y143099D01*
Y143173D01*
X702398Y143247D01*
Y143349D01*
X702388Y143552D01*
X702361Y143784D01*
X702333Y144006D01*
X702315Y144107D01*
X702287Y144209D01*
X702259Y144292D01*
X702231Y144367D01*
X702222Y144385D01*
X702194Y144422D01*
X702157Y144477D01*
X702102Y144542D01*
X702028Y144607D01*
X701935Y144662D01*
X701833Y144700D01*
X701713Y144718D01*
D02*
G37*
G36*
X690660Y144135D02*
X689291Y142535D01*
X690660D01*
Y144135D01*
D02*
G37*
G36*
X711167Y144718D02*
X711148D01*
X711111Y144709D01*
X711047Y144700D01*
X710972Y144672D01*
X710889Y144635D01*
X710806Y144570D01*
X710723Y144477D01*
X710658Y144357D01*
X710649Y144339D01*
X710639Y144320D01*
X710630Y144283D01*
X710621Y144246D01*
X710612Y144200D01*
X710593Y144135D01*
X710584Y144061D01*
X710566Y143978D01*
X710547Y143886D01*
X710538Y143774D01*
X710529Y143664D01*
X710519Y143525D01*
X710510Y143386D01*
X710501Y143229D01*
Y143053D01*
Y143044D01*
Y143007D01*
Y142961D01*
Y142896D01*
X710510Y142822D01*
Y142729D01*
X710519Y142526D01*
X710538Y142304D01*
X710575Y142082D01*
X710593Y141980D01*
X710612Y141887D01*
X710639Y141804D01*
X710667Y141730D01*
X710676Y141712D01*
X710704Y141675D01*
X710741Y141619D01*
X710797Y141554D01*
X710871Y141490D01*
X710954Y141434D01*
X711056Y141397D01*
X711167Y141379D01*
X711204D01*
X711250Y141388D01*
X711296Y141397D01*
X711361Y141416D01*
X711416Y141444D01*
X711481Y141481D01*
X711546Y141527D01*
X711555Y141536D01*
X711574Y141554D01*
X711601Y141592D01*
X711638Y141638D01*
X711676Y141712D01*
X711713Y141786D01*
X711750Y141887D01*
X711777Y141999D01*
Y142017D01*
X711787Y142063D01*
X711805Y142137D01*
X711824Y142248D01*
X711833Y142387D01*
X711851Y142563D01*
X711861Y142766D01*
Y143007D01*
Y143016D01*
Y143053D01*
Y143099D01*
Y143173D01*
X711851Y143247D01*
Y143349D01*
X711842Y143552D01*
X711814Y143784D01*
X711787Y144006D01*
X711768Y144107D01*
X711740Y144209D01*
X711713Y144292D01*
X711685Y144367D01*
X711676Y144385D01*
X711648Y144422D01*
X711611Y144477D01*
X711555Y144542D01*
X711481Y144607D01*
X711389Y144662D01*
X711287Y144700D01*
X711167Y144718D01*
D02*
G37*
G36*
X694370Y153922D02*
X693982D01*
Y151156D01*
X694444D01*
X694527Y151165D01*
X694638D01*
X694749Y151184D01*
X694870Y151202D01*
X694971Y151221D01*
X695064Y151258D01*
X695073Y151267D01*
X695101Y151277D01*
X695138Y151304D01*
X695184Y151350D01*
X695239Y151397D01*
X695295Y151462D01*
X695351Y151545D01*
X695397Y151637D01*
X695406Y151646D01*
X695415Y151693D01*
X695434Y151758D01*
X695462Y151850D01*
X695480Y151970D01*
X695499Y152128D01*
X695508Y152303D01*
X695517Y152516D01*
Y152525D01*
Y152553D01*
Y152590D01*
Y152646D01*
X695508Y152710D01*
Y152784D01*
X695480Y152960D01*
X695452Y153136D01*
X695406Y153321D01*
X695341Y153487D01*
X695295Y153552D01*
X695249Y153617D01*
X695239Y153626D01*
X695193Y153663D01*
X695128Y153709D01*
X695036Y153774D01*
X694916Y153830D01*
X694768Y153876D01*
X694583Y153913D01*
X694370Y153922D01*
D02*
G37*
G36*
X735699D02*
X735311D01*
Y151156D01*
X735773D01*
X735856Y151165D01*
X735967D01*
X736078Y151184D01*
X736199Y151202D01*
X736300Y151221D01*
X736393Y151258D01*
X736402Y151267D01*
X736430Y151277D01*
X736467Y151304D01*
X736513Y151350D01*
X736568Y151397D01*
X736624Y151462D01*
X736680Y151545D01*
X736726Y151637D01*
X736735Y151646D01*
X736744Y151693D01*
X736763Y151758D01*
X736791Y151850D01*
X736809Y151970D01*
X736828Y152128D01*
X736837Y152303D01*
X736846Y152516D01*
Y152525D01*
Y152553D01*
Y152590D01*
Y152646D01*
X736837Y152710D01*
Y152784D01*
X736809Y152960D01*
X736781Y153136D01*
X736735Y153321D01*
X736670Y153487D01*
X736624Y153552D01*
X736578Y153617D01*
X736568Y153626D01*
X736522Y153663D01*
X736457Y153709D01*
X736365Y153774D01*
X736245Y153830D01*
X736097Y153876D01*
X735912Y153913D01*
X735699Y153922D01*
D02*
G37*
G36*
X741471Y153746D02*
X740916Y151933D01*
X742026D01*
X741471Y153746D01*
D02*
G37*
G36*
X730445D02*
X729890Y151933D01*
X731000D01*
X730445Y153746D01*
D02*
G37*
G36*
X719031D02*
X718475Y151933D01*
X719586D01*
X719031Y153746D01*
D02*
G37*
%LPD*%
D69*
X798205Y303185D02*
G03*
X798205Y303185I-492J0D01*
G01*
X759138Y352153D02*
G03*
X759138Y352153I-492J0D01*
G01*
X796161Y366087D02*
G03*
X796161Y366087I-492J0D01*
G01*
X792807Y370276D02*
G03*
X792807Y370276I-492J0D01*
G01*
X878079Y364543D02*
G03*
X878079Y364543I-492J0D01*
G01*
X897177Y365724D02*
G03*
X897177Y365724I-492J0D01*
G01*
X271823Y528913D02*
G03*
X271823Y528913I-492J0D01*
G01*
X271654Y233413D02*
G03*
X271654Y233413I-492J0D01*
G01*
X363823Y262413D02*
G03*
X363823Y262413I-492J0D01*
G01*
X298323Y380913D02*
G03*
X298323Y380913I-492J0D01*
G01*
X139323Y391913D02*
G03*
X139323Y391913I-492J0D01*
G01*
X184323Y477413D02*
G03*
X184323Y477413I-492J0D01*
G01*
X847508Y414461D02*
G03*
X847508Y414461I-492J0D01*
G01*
X902146Y457748D02*
G03*
X902146Y457748I-492J0D01*
G01*
X156661Y312587D02*
G03*
X156661Y312587I-492J0D01*
G01*
D70*
X906811Y466213D02*
G03*
X906811Y466213I-787J0D01*
G01*
D71*
X697693Y251685D02*
X741000Y263496D01*
X784307Y251685D01*
X697693D02*
X708323Y206803D01*
X773677D02*
X784307Y251685D01*
X708323Y206803D02*
X741000Y194598D01*
X773677Y206803D01*
D72*
X642575Y250110D02*
X698252Y249323D01*
X783748D02*
X839425Y250110D01*
X679583Y209165D02*
X707857Y208772D01*
X774143D02*
X802417Y209165D01*
X661079Y230031D02*
X703008Y229244D01*
X778992D02*
X820921Y230031D01*
D73*
X642575Y250110D02*
X660685Y247354D01*
X699092Y245779D01*
X821315Y247354D02*
X839425Y250110D01*
X782908Y245779D02*
X821315Y247354D01*
X661079Y230031D02*
X677220Y226882D01*
X703847Y225701D01*
X804780Y226882D02*
X820921Y230031D01*
X778153Y225701D02*
X804780Y226882D01*
D74*
X679583Y209165D02*
X689032Y206803D01*
X709110Y205622D01*
X792969Y206803D02*
X802417Y209165D01*
X772890Y205622D02*
X792969Y206803D01*
D75*
X862339Y113189D02*
X880842D01*
Y136811D01*
X862339D02*
X880842D01*
X939189Y293158D02*
Y311661D01*
Y293158D02*
X962811D01*
Y311661D01*
X939189Y166157D02*
Y184661D01*
Y166157D02*
X962811D01*
Y184661D01*
X594158Y136811D02*
X612661D01*
X594158Y113189D02*
Y136811D01*
Y113189D02*
X612661D01*
X428657Y136811D02*
X447161D01*
X428657Y113189D02*
Y136811D01*
Y113189D02*
X447161D01*
X190157Y136811D02*
X208661D01*
X190157Y113189D02*
Y136811D01*
Y113189D02*
X208661D01*
X886339Y622189D02*
X904842D01*
Y645811D01*
X886339D02*
X904842D01*
X538158D02*
X556661D01*
X538158Y622189D02*
Y645811D01*
Y622189D02*
X556661D01*
X385157Y651811D02*
X403661D01*
X385157Y628189D02*
Y651811D01*
Y628189D02*
X403661D01*
X115689Y185158D02*
Y203661D01*
Y185158D02*
X139311D01*
Y203661D01*
Y537339D02*
Y555842D01*
X115689D02*
X139311D01*
X115689Y537339D02*
Y555842D01*
X724409Y310528D02*
X736417Y322535D01*
X695472D02*
X707480Y310528D01*
X724409D01*
Y351472D02*
X736417Y339465D01*
Y322535D02*
Y339465D01*
X707480Y351472D02*
X724409D01*
X695472Y339465D02*
X707480Y351472D01*
X695472Y322535D02*
Y339465D01*
X836130Y343091D02*
Y363957D01*
X814870Y343091D02*
Y363957D01*
X861130Y343091D02*
Y363957D01*
X839870Y343091D02*
Y363957D01*
X904535Y353732D02*
X959653D01*
X904535Y384047D02*
X959653D01*
Y353732D02*
Y384047D01*
X904535Y353732D02*
Y383653D01*
X139311Y592339D02*
Y610843D01*
X115689D02*
X139311D01*
X115689Y592339D02*
Y610843D01*
X770884Y442055D02*
X772555Y440384D01*
X763445Y445116D02*
X765116Y443445D01*
X750945Y589384D02*
X752616Y591055D01*
X750046Y586284D02*
X751716Y587954D01*
X810884Y552055D02*
X812555Y550384D01*
X808945Y555116D02*
X810616Y553445D01*
D76*
X673350Y327335D02*
Y331665D01*
X670425Y347776D02*
X673575D01*
X670425Y357224D02*
X673575D01*
X686276Y367925D02*
Y371075D01*
X695724Y367925D02*
Y371075D01*
X699776Y367925D02*
Y371075D01*
X709224Y367925D02*
Y371075D01*
X756335Y381000D02*
X760665D01*
X779005Y339504D02*
X787688D01*
Y297496D02*
Y339504D01*
X779005Y297496D02*
X787688D01*
X728213Y385378D02*
X729787D01*
X728213Y382622D02*
X729787D01*
X728213Y370622D02*
X729787D01*
X728213Y373378D02*
X729787D01*
X768776Y369425D02*
Y372575D01*
X778224Y369425D02*
Y372575D01*
X778224Y351925D02*
Y355075D01*
X768776Y351925D02*
Y355075D01*
X744276Y372843D02*
X753724D01*
X744276Y353157D02*
X753724D01*
X802756Y353095D02*
Y356244D01*
X798819Y353095D02*
X802756D01*
Y361756D02*
Y364906D01*
X798819D02*
X802756D01*
X793398Y373622D02*
Y376378D01*
X805602Y373622D02*
Y376378D01*
X793398Y373622D02*
X805602D01*
X793398Y376378D02*
X805602D01*
X870425Y378276D02*
X873575D01*
X870425Y387724D02*
X873575D01*
X874000Y370335D02*
Y374665D01*
X876406Y358244D02*
Y360606D01*
X873256Y358244D02*
X876406D01*
X864594D02*
Y360606D01*
Y358244D02*
X867744D01*
X895602Y359622D02*
Y362378D01*
X883398Y359622D02*
Y362378D01*
X895602D01*
X883398Y359622D02*
X895602D01*
X264244Y538756D02*
Y541905D01*
X268181D01*
X264244Y530094D02*
Y533244D01*
Y530094D02*
X268181D01*
X252622Y512713D02*
Y514287D01*
X255378Y512713D02*
Y514287D01*
X163622Y268713D02*
Y270287D01*
X166378Y268713D02*
Y270287D01*
X264075Y243256D02*
Y246406D01*
X268012D01*
X264075Y234594D02*
Y237744D01*
Y234594D02*
X268012D01*
X250213Y222378D02*
X251787D01*
X250213Y219622D02*
X251787D01*
X356244Y272256D02*
Y275406D01*
X360181D01*
X356244Y263595D02*
Y266744D01*
Y263595D02*
X360181D01*
X353622Y234713D02*
Y236287D01*
X356378Y234713D02*
Y236287D01*
X356378Y495213D02*
Y496787D01*
X353622Y495213D02*
Y496787D01*
X422122Y342213D02*
Y343787D01*
X424878Y342213D02*
Y343787D01*
X424878Y419713D02*
Y421287D01*
X422122Y419713D02*
Y421287D01*
X290744Y390756D02*
Y393905D01*
X294681D01*
X290744Y382095D02*
Y385244D01*
Y382095D02*
X294681D01*
X291213Y373122D02*
X292787D01*
X291213Y375878D02*
X292787D01*
X131744Y401756D02*
Y404906D01*
X135681D01*
X131744Y393094D02*
Y396244D01*
Y393094D02*
X135681D01*
X128622Y365213D02*
Y366787D01*
X131378Y365213D02*
Y366787D01*
X176744Y487256D02*
Y490406D01*
X180681D01*
X176744Y478594D02*
Y481744D01*
Y478594D02*
X180681D01*
X163622Y461713D02*
Y463287D01*
X166378Y461713D02*
Y463287D01*
X829276Y398425D02*
Y401575D01*
X838724Y398425D02*
Y401575D01*
X859811Y396350D02*
Y400287D01*
X849575Y396350D02*
X859811D01*
Y410524D02*
Y414461D01*
X849575D02*
X859811D01*
X902874Y463063D02*
X937126D01*
X902874Y470937D02*
X937126D01*
X902874Y463063D02*
Y470937D01*
X937126Y463063D02*
Y470937D01*
X159319Y311405D02*
X163256D01*
Y308256D02*
Y311405D01*
X159319Y299594D02*
X163256D01*
Y302744D01*
D77*
X867185Y180142D02*
X870531D01*
X832343D02*
X835689D01*
X867185Y162031D02*
X870531D01*
X832343D02*
X835689D01*
X870531Y179157D02*
Y180142D01*
X832343Y179157D02*
Y180142D01*
Y162031D02*
Y166165D01*
X870531Y162031D02*
Y166165D01*
X608532Y269717D02*
Y273063D01*
Y234874D02*
Y238221D01*
X626642Y269717D02*
Y273063D01*
Y234874D02*
Y238221D01*
X608532Y273063D02*
X609516D01*
X608532Y234874D02*
X609516D01*
X622508D02*
X626642D01*
X622508Y273063D02*
X626642D01*
X250850Y242949D02*
X257150D01*
X351850Y520599D02*
X358150D01*
X351850Y260799D02*
X358150D01*
X250850Y538449D02*
X257150D01*
X430399Y326800D02*
Y333100D01*
Y429400D02*
Y435700D01*
X276850Y390699D02*
X283150D01*
X161950Y487149D02*
X168250D01*
X126850Y390699D02*
X133150D01*
X161950Y294249D02*
X168250D01*
X462000Y506000D02*
Y525000D01*
X444000D02*
X462000D01*
X444000Y506000D02*
Y525000D01*
Y506000D02*
X462000D01*
X576000Y364500D02*
Y614500D01*
X368000Y364500D02*
X576000D01*
X368000Y614500D02*
X576000D01*
X368000Y364500D02*
Y614500D01*
X148126Y324000D02*
Y652500D01*
X360126D01*
X148126Y324000D02*
X360126D01*
Y652500D01*
X548173Y148153D02*
Y321654D01*
X148173Y148153D02*
Y321654D01*
Y148153D02*
X548173D01*
X148173Y321654D02*
X548173D01*
X267673Y261653D02*
Y280654D01*
X249673Y261653D02*
X267673D01*
X249673Y280654D02*
X267673D01*
X249673Y261653D02*
Y280654D01*
X579000Y390000D02*
X954000D01*
X579000D02*
Y614500D01*
X954000Y390000D02*
Y614500D01*
X579000D02*
X954000D01*
X523248Y434358D02*
X526594D01*
X558091D02*
X561437D01*
X523248Y452468D02*
X526594D01*
X558091D02*
X561437D01*
X523248Y434358D02*
Y435343D01*
X561437Y434358D02*
Y435343D01*
Y448335D02*
Y452468D01*
X523248Y448335D02*
Y452468D01*
X525280Y603968D02*
X528626D01*
X490437D02*
X493783D01*
X525280Y585858D02*
X528626D01*
X490437D02*
X493783D01*
X528626Y602984D02*
Y603968D01*
X490437Y602984D02*
Y603968D01*
Y585858D02*
Y589992D01*
X528626Y585858D02*
Y589992D01*
X449142Y214685D02*
Y218032D01*
Y249528D02*
Y252874D01*
X431032Y214685D02*
Y218032D01*
Y249528D02*
Y252874D01*
X448158Y214685D02*
X449142D01*
X448158Y252874D02*
X449142D01*
X431032D02*
X435165D01*
X431032Y214685D02*
X435165D01*
X613642Y411063D02*
Y414409D01*
Y445906D02*
Y449252D01*
X595532Y411063D02*
Y414409D01*
Y445906D02*
Y449252D01*
X612657Y411063D02*
X613642D01*
X612657Y449252D02*
X613642D01*
X595532D02*
X599665D01*
X595532Y411063D02*
X599665D01*
X608642Y505717D02*
Y509063D01*
Y540559D02*
Y543905D01*
X590531Y505717D02*
Y509063D01*
Y540559D02*
Y543905D01*
X607657Y505717D02*
X608642D01*
X607657Y543905D02*
X608642D01*
X590531D02*
X594665D01*
X590531Y505717D02*
X594665D01*
X784858Y595811D02*
Y599157D01*
Y560968D02*
Y564315D01*
X802969Y595811D02*
Y599157D01*
Y560968D02*
Y564315D01*
X784858Y599157D02*
X785843D01*
X784858Y560968D02*
X785843D01*
X798835D02*
X802969D01*
X798835Y599157D02*
X802969D01*
X767748Y415858D02*
X771095D01*
X802591D02*
X805937D01*
X767748Y433968D02*
X771095D01*
X802591D02*
X805937D01*
X767748Y415858D02*
Y416843D01*
X805937Y415858D02*
Y416843D01*
Y429835D02*
Y433968D01*
X767748Y429835D02*
Y433968D01*
X334968Y589142D02*
X338315D01*
X300126D02*
X303472D01*
X334968Y571032D02*
X338315D01*
X300126D02*
X303472D01*
X338315Y588158D02*
Y589142D01*
X300126Y588158D02*
Y589142D01*
Y571032D02*
Y575165D01*
X338315Y571032D02*
Y575165D01*
X197406Y411142D02*
X200752D01*
X162563D02*
X165909D01*
X197406Y393032D02*
X200752D01*
X162563D02*
X165909D01*
X200752Y410157D02*
Y411142D01*
X162563Y410157D02*
Y411142D01*
Y393032D02*
Y397165D01*
X200752Y393032D02*
Y397165D01*
X255358Y178012D02*
X258705D01*
X290201D02*
X293547D01*
X255358Y196122D02*
X258705D01*
X290201D02*
X293547D01*
X255358Y178012D02*
Y178996D01*
X293547Y178012D02*
Y178996D01*
Y191988D02*
Y196122D01*
X255358Y191988D02*
Y196122D01*
X808000Y359000D02*
X811999D01*
Y357001D01*
X811332Y356334D01*
X809999D01*
X809333Y357001D01*
Y359000D01*
Y357667D02*
X808000Y356334D01*
Y353002D02*
X811999D01*
X809999Y355001D01*
Y352336D01*
X811999Y348337D02*
X811332Y349670D01*
X809999Y351003D01*
X808666D01*
X808000Y350336D01*
Y349003D01*
X808666Y348337D01*
X809333D01*
X809999Y349003D01*
Y351003D01*
X249524Y196479D02*
X248191D01*
X248858D01*
Y193147D01*
X248191Y192480D01*
X247525D01*
X246858Y193147D01*
X250857Y195812D02*
X251523Y196479D01*
X252856D01*
X253523Y195812D01*
Y195146D01*
X252856Y194480D01*
X252190D01*
X252856D01*
X253523Y193813D01*
Y193147D01*
X252856Y192480D01*
X251523D01*
X250857Y193147D01*
X205154Y397085D02*
X203821D01*
X204487D01*
Y393753D01*
X203821Y393087D01*
X203155D01*
X202488Y393753D01*
X208486Y393087D02*
Y397085D01*
X206487Y395086D01*
X209153D01*
X342666Y574999D02*
X341333D01*
X341999D01*
Y571666D01*
X341333Y571000D01*
X340666D01*
X340000Y571666D01*
X343999Y571000D02*
X345332D01*
X344665D01*
Y574999D01*
X343999Y574332D01*
X865499Y400000D02*
X862167D01*
X861500Y399334D01*
Y398001D01*
X862167Y397334D01*
X865499D01*
X864832Y396001D02*
X865499Y395335D01*
Y394002D01*
X864832Y393336D01*
X864166D01*
X863499Y394002D01*
Y394668D01*
Y394002D01*
X862833Y393336D01*
X862167D01*
X861500Y394002D01*
Y395335D01*
X862167Y396001D01*
X896001Y464000D02*
X899333D01*
X900000Y464666D01*
Y465999D01*
X899333Y466666D01*
X896001D01*
X900000Y470665D02*
Y467999D01*
X897334Y470665D01*
X896668D01*
X896001Y469998D01*
Y468665D01*
X896668Y467999D01*
X760500Y346001D02*
Y349334D01*
X759834Y350000D01*
X758501D01*
X757834Y349334D01*
Y346001D01*
X756501Y350000D02*
X755168D01*
X755835D01*
Y346001D01*
X756501Y346668D01*
X928000Y452468D02*
X931999D01*
Y450469D01*
X931332Y449803D01*
X929999D01*
X929333Y450469D01*
Y452468D01*
Y451136D02*
X928000Y449803D01*
Y446470D02*
X931999D01*
X929999Y448470D01*
Y445804D01*
X931999Y441805D02*
Y444471D01*
X929999D01*
X930666Y443138D01*
Y442472D01*
X929999Y441805D01*
X928666D01*
X928000Y442472D01*
Y443805D01*
X928666Y444471D01*
X902000Y447500D02*
Y451499D01*
X903999D01*
X904666Y450832D01*
Y449499D01*
X903999Y448833D01*
X902000D01*
X903333D02*
X904666Y447500D01*
X907998D02*
Y451499D01*
X905999Y449499D01*
X908665D01*
X911997Y447500D02*
Y451499D01*
X909997Y449499D01*
X912663D01*
X309000Y376500D02*
Y372501D01*
X307001D01*
X306334Y373168D01*
Y374501D01*
X307001Y375167D01*
X309000D01*
X307667D02*
X306334Y376500D01*
X303002D02*
Y372501D01*
X305001Y374501D01*
X302336D01*
X301003Y373168D02*
X300336Y372501D01*
X299003D01*
X298337Y373168D01*
Y373834D01*
X299003Y374501D01*
X299670D01*
X299003D01*
X298337Y375167D01*
Y375834D01*
X299003Y376500D01*
X300336D01*
X301003Y375834D01*
X813000Y382500D02*
X816999D01*
Y380501D01*
X816332Y379834D01*
X814999D01*
X814333Y380501D01*
Y382500D01*
Y381167D02*
X813000Y379834D01*
Y376502D02*
X816999D01*
X814999Y378501D01*
Y375835D01*
X813000Y371837D02*
Y374503D01*
X815666Y371837D01*
X816332D01*
X816999Y372503D01*
Y373836D01*
X816332Y374503D01*
X815500Y592500D02*
X811501D01*
Y594499D01*
X812168Y595166D01*
X813501D01*
X814167Y594499D01*
Y592500D01*
Y593833D02*
X815500Y595166D01*
Y598498D02*
X811501D01*
X813501Y596499D01*
Y599164D01*
X815500Y600497D02*
Y601830D01*
Y601164D01*
X811501D01*
X812168Y600497D01*
X821000Y592531D02*
X817001D01*
Y594531D01*
X817668Y595197D01*
X819001D01*
X819667Y594531D01*
Y592531D01*
Y593864D02*
X821000Y595197D01*
Y598530D02*
X817001D01*
X819001Y596530D01*
Y599196D01*
X817668Y600529D02*
X817001Y601195D01*
Y602528D01*
X817668Y603195D01*
X820333D01*
X821000Y602528D01*
Y601195D01*
X820333Y600529D01*
X817668D01*
X826500Y570000D02*
X822501D01*
Y571999D01*
X823168Y572666D01*
X824501D01*
X825167Y571999D01*
Y570000D01*
Y571333D02*
X826500Y572666D01*
X823168Y573999D02*
X822501Y574665D01*
Y575998D01*
X823168Y576664D01*
X823834D01*
X824501Y575998D01*
Y575332D01*
Y575998D01*
X825167Y576664D01*
X825834D01*
X826500Y575998D01*
Y574665D01*
X825834Y573999D01*
Y577997D02*
X826500Y578664D01*
Y579997D01*
X825834Y580663D01*
X823168D01*
X822501Y579997D01*
Y578664D01*
X823168Y577997D01*
X823834D01*
X824501Y578664D01*
Y580663D01*
X821000Y570000D02*
X817001D01*
Y571999D01*
X817668Y572666D01*
X819001D01*
X819667Y571999D01*
Y570000D01*
Y571333D02*
X821000Y572666D01*
X817668Y573999D02*
X817001Y574665D01*
Y575998D01*
X817668Y576664D01*
X818334D01*
X819001Y575998D01*
Y575332D01*
Y575998D01*
X819667Y576664D01*
X820333D01*
X821000Y575998D01*
Y574665D01*
X820333Y573999D01*
X817668Y577997D02*
X817001Y578664D01*
Y579997D01*
X817668Y580663D01*
X818334D01*
X819001Y579997D01*
X819667Y580663D01*
X820333D01*
X821000Y579997D01*
Y578664D01*
X820333Y577997D01*
X819667D01*
X819001Y578664D01*
X818334Y577997D01*
X817668D01*
X819001Y578664D02*
Y579997D01*
X815500Y570000D02*
X811501D01*
Y571999D01*
X812168Y572666D01*
X813501D01*
X814167Y571999D01*
Y570000D01*
Y571333D02*
X815500Y572666D01*
X812168Y573999D02*
X811501Y574665D01*
Y575998D01*
X812168Y576664D01*
X812834D01*
X813501Y575998D01*
Y575332D01*
Y575998D01*
X814167Y576664D01*
X814834D01*
X815500Y575998D01*
Y574665D01*
X814834Y573999D01*
X811501Y577997D02*
Y580663D01*
X812168D01*
X814834Y577997D01*
X815500D01*
X620500Y542500D02*
X616501D01*
Y544499D01*
X617168Y545166D01*
X618501D01*
X619167Y544499D01*
Y542500D01*
Y543833D02*
X620500Y545166D01*
X617168Y546499D02*
X616501Y547165D01*
Y548498D01*
X617168Y549164D01*
X617834D01*
X618501Y548498D01*
Y547832D01*
Y548498D01*
X619167Y549164D01*
X619834D01*
X620500Y548498D01*
Y547165D01*
X619834Y546499D01*
X616501Y553163D02*
X617168Y551830D01*
X618501Y550497D01*
X619834D01*
X620500Y551164D01*
Y552497D01*
X619834Y553163D01*
X619167D01*
X618501Y552497D01*
Y550497D01*
X626500Y542500D02*
X622501D01*
Y544499D01*
X623168Y545166D01*
X624501D01*
X625167Y544499D01*
Y542500D01*
Y543833D02*
X626500Y545166D01*
X623168Y546499D02*
X622501Y547165D01*
Y548498D01*
X623168Y549164D01*
X623834D01*
X624501Y548498D01*
Y547832D01*
Y548498D01*
X625167Y549164D01*
X625834D01*
X626500Y548498D01*
Y547165D01*
X625834Y546499D01*
X622501Y553163D02*
Y550497D01*
X624501D01*
X623834Y551830D01*
Y552497D01*
X624501Y553163D01*
X625834D01*
X626500Y552497D01*
Y551164D01*
X625834Y550497D01*
X632000Y542500D02*
X628001D01*
Y544499D01*
X628668Y545166D01*
X630001D01*
X630667Y544499D01*
Y542500D01*
Y543833D02*
X632000Y545166D01*
X628668Y546499D02*
X628001Y547165D01*
Y548498D01*
X628668Y549164D01*
X629334D01*
X630001Y548498D01*
Y547832D01*
Y548498D01*
X630667Y549164D01*
X631334D01*
X632000Y548498D01*
Y547165D01*
X631334Y546499D01*
X632000Y552497D02*
X628001D01*
X630001Y550497D01*
Y553163D01*
X626000Y508000D02*
X622001D01*
Y509999D01*
X622668Y510666D01*
X624001D01*
X624667Y509999D01*
Y508000D01*
Y509333D02*
X626000Y510666D01*
X622668Y511999D02*
X622001Y512665D01*
Y513998D01*
X622668Y514665D01*
X623334D01*
X624001Y513998D01*
Y513332D01*
Y513998D01*
X624667Y514665D01*
X625334D01*
X626000Y513998D01*
Y512665D01*
X625334Y511999D01*
X622668Y515997D02*
X622001Y516664D01*
Y517997D01*
X622668Y518663D01*
X623334D01*
X624001Y517997D01*
Y517330D01*
Y517997D01*
X624667Y518663D01*
X625334D01*
X626000Y517997D01*
Y516664D01*
X625334Y515997D01*
X509000Y463000D02*
Y466999D01*
X510999D01*
X511666Y466332D01*
Y464999D01*
X510999Y464333D01*
X509000D01*
X510333D02*
X511666Y463000D01*
X512999Y466332D02*
X513665Y466999D01*
X514998D01*
X515664Y466332D01*
Y465666D01*
X514998Y464999D01*
X514332D01*
X514998D01*
X515664Y464333D01*
Y463666D01*
X514998Y463000D01*
X513665D01*
X512999Y463666D01*
X519663Y463000D02*
X516997D01*
X519663Y465666D01*
Y466332D01*
X518997Y466999D01*
X517664D01*
X516997Y466332D01*
X509000Y457500D02*
Y461499D01*
X510999D01*
X511666Y460832D01*
Y459499D01*
X510999Y458833D01*
X509000D01*
X510333D02*
X511666Y457500D01*
X512999Y460832D02*
X513665Y461499D01*
X514998D01*
X515664Y460832D01*
Y460166D01*
X514998Y459499D01*
X514332D01*
X514998D01*
X515664Y458833D01*
Y458166D01*
X514998Y457500D01*
X513665D01*
X512999Y458166D01*
X516997Y457500D02*
X518330D01*
X517664D01*
Y461499D01*
X516997Y460832D01*
X620500Y507969D02*
X616501D01*
Y509968D01*
X617168Y510634D01*
X618501D01*
X619167Y509968D01*
Y507969D01*
Y509301D02*
X620500Y510634D01*
X617168Y511967D02*
X616501Y512634D01*
Y513967D01*
X617168Y514633D01*
X617834D01*
X618501Y513967D01*
Y513300D01*
Y513967D01*
X619167Y514633D01*
X619834D01*
X620500Y513967D01*
Y512634D01*
X619834Y511967D01*
X617168Y515966D02*
X616501Y516632D01*
Y517965D01*
X617168Y518632D01*
X619834D01*
X620500Y517965D01*
Y516632D01*
X619834Y515966D01*
X617168D01*
X776500Y564032D02*
X772501D01*
Y566031D01*
X773168Y566697D01*
X774501D01*
X775167Y566031D01*
Y564032D01*
Y565364D02*
X776500Y566697D01*
Y570696D02*
Y568030D01*
X773834Y570696D01*
X773168D01*
X772501Y570030D01*
Y568697D01*
X773168Y568030D01*
X775834Y572029D02*
X776500Y572695D01*
Y574028D01*
X775834Y574695D01*
X773168D01*
X772501Y574028D01*
Y572695D01*
X773168Y572029D01*
X773834D01*
X774501Y572695D01*
Y574695D01*
X765500Y563969D02*
X761501D01*
Y565968D01*
X762168Y566634D01*
X763501D01*
X764167Y565968D01*
Y563969D01*
Y565301D02*
X765500Y566634D01*
Y570633D02*
Y567967D01*
X762834Y570633D01*
X762168D01*
X761501Y569967D01*
Y568634D01*
X762168Y567967D01*
Y571966D02*
X761501Y572632D01*
Y573965D01*
X762168Y574632D01*
X762834D01*
X763501Y573965D01*
X764167Y574632D01*
X764834D01*
X765500Y573965D01*
Y572632D01*
X764834Y571966D01*
X764167D01*
X763501Y572632D01*
X762834Y571966D01*
X762168D01*
X763501Y572632D02*
Y573965D01*
X796500Y453000D02*
Y456999D01*
X798499D01*
X799166Y456332D01*
Y454999D01*
X798499Y454333D01*
X796500D01*
X797833D02*
X799166Y453000D01*
X803164D02*
X800499D01*
X803164Y455666D01*
Y456332D01*
X802498Y456999D01*
X801165D01*
X800499Y456332D01*
X804497Y456999D02*
X807163D01*
Y456332D01*
X804497Y453666D01*
Y453000D01*
X796500Y459000D02*
Y462999D01*
X798499D01*
X799166Y462332D01*
Y460999D01*
X798499Y460333D01*
X796500D01*
X797833D02*
X799166Y459000D01*
X803164D02*
X800499D01*
X803164Y461666D01*
Y462332D01*
X802498Y462999D01*
X801165D01*
X800499Y462332D01*
X807163Y462999D02*
X805830Y462332D01*
X804497Y460999D01*
Y459666D01*
X805164Y459000D01*
X806497D01*
X807163Y459666D01*
Y460333D01*
X806497Y460999D01*
X804497D01*
X771000Y564000D02*
X767001D01*
Y565999D01*
X767668Y566666D01*
X769001D01*
X769667Y565999D01*
Y564000D01*
Y565333D02*
X771000Y566666D01*
Y570665D02*
Y567999D01*
X768334Y570665D01*
X767668D01*
X767001Y569998D01*
Y568665D01*
X767668Y567999D01*
X767001Y574663D02*
Y571997D01*
X769001D01*
X768334Y573330D01*
Y573997D01*
X769001Y574663D01*
X770334D01*
X771000Y573997D01*
Y572664D01*
X770334Y571997D01*
X760500Y458500D02*
Y462499D01*
X762499D01*
X763166Y461832D01*
Y460499D01*
X762499Y459833D01*
X760500D01*
X761833D02*
X763166Y458500D01*
X767165D02*
X764499D01*
X767165Y461166D01*
Y461832D01*
X766498Y462499D01*
X765165D01*
X764499Y461832D01*
X770497Y458500D02*
Y462499D01*
X768497Y460499D01*
X771163D01*
X760500Y453000D02*
Y456999D01*
X762499D01*
X763166Y456332D01*
Y454999D01*
X762499Y454333D01*
X760500D01*
X761833D02*
X763166Y453000D01*
X767165D02*
X764499D01*
X767165Y455666D01*
Y456332D01*
X766498Y456999D01*
X765165D01*
X764499Y456332D01*
X768497D02*
X769164Y456999D01*
X770497D01*
X771163Y456332D01*
Y455666D01*
X770497Y454999D01*
X769830D01*
X770497D01*
X771163Y454333D01*
Y453666D01*
X770497Y453000D01*
X769164D01*
X768497Y453666D01*
X631000Y421500D02*
Y425499D01*
X632999D01*
X633666Y424832D01*
Y423499D01*
X632999Y422833D01*
X631000D01*
X632333D02*
X633666Y421500D01*
X637665D02*
X634999D01*
X637665Y424166D01*
Y424832D01*
X636998Y425499D01*
X635665D01*
X634999Y424832D01*
X641663Y421500D02*
X638997D01*
X641663Y424166D01*
Y424832D01*
X640997Y425499D01*
X639664D01*
X638997Y424832D01*
X634500Y399500D02*
X630501D01*
Y401499D01*
X631168Y402166D01*
X632501D01*
X633167Y401499D01*
Y399500D01*
Y400833D02*
X634500Y402166D01*
Y406165D02*
Y403499D01*
X631834Y406165D01*
X631168D01*
X630501Y405498D01*
Y404165D01*
X631168Y403499D01*
X634500Y407497D02*
Y408830D01*
Y408164D01*
X630501D01*
X631168Y407497D01*
X628500Y399500D02*
X624501D01*
Y401499D01*
X625168Y402166D01*
X626501D01*
X627167Y401499D01*
Y399500D01*
Y400833D02*
X628500Y402166D01*
Y406165D02*
Y403499D01*
X625834Y406165D01*
X625168D01*
X624501Y405498D01*
Y404165D01*
X625168Y403499D01*
Y407497D02*
X624501Y408164D01*
Y409497D01*
X625168Y410163D01*
X627834D01*
X628500Y409497D01*
Y408164D01*
X627834Y407497D01*
X625168D01*
X161500Y264500D02*
X157501D01*
Y266499D01*
X158168Y267166D01*
X159501D01*
X160167Y266499D01*
Y264500D01*
Y265833D02*
X161500Y267166D01*
Y268499D02*
Y269832D01*
Y269165D01*
X157501D01*
X158168Y268499D01*
X160834Y271831D02*
X161500Y272497D01*
Y273830D01*
X160834Y274497D01*
X158168D01*
X157501Y273830D01*
Y272497D01*
X158168Y271831D01*
X158834D01*
X159501Y272497D01*
Y274497D01*
X234500Y219000D02*
Y222999D01*
X236499D01*
X237166Y222332D01*
Y220999D01*
X236499Y220333D01*
X234500D01*
X235833D02*
X237166Y219000D01*
X238499D02*
X239832D01*
X239165D01*
Y222999D01*
X238499Y222332D01*
X241831D02*
X242497Y222999D01*
X243830D01*
X244497Y222332D01*
Y221666D01*
X243830Y220999D01*
X244497Y220333D01*
Y219666D01*
X243830Y219000D01*
X242497D01*
X241831Y219666D01*
Y220333D01*
X242497Y220999D01*
X241831Y221666D01*
Y222332D01*
X242497Y220999D02*
X243830D01*
X351500Y231453D02*
X347501D01*
Y233452D01*
X348168Y234119D01*
X349501D01*
X350167Y233452D01*
Y231453D01*
Y232786D02*
X351500Y234119D01*
Y235452D02*
Y236784D01*
Y236118D01*
X347501D01*
X348168Y235452D01*
X347501Y238784D02*
Y241449D01*
X348168D01*
X350834Y238784D01*
X351500D01*
X126500Y361547D02*
X122501D01*
Y363547D01*
X123168Y364213D01*
X124501D01*
X125167Y363547D01*
Y361547D01*
Y362880D02*
X126500Y364213D01*
Y365546D02*
Y366879D01*
Y366212D01*
X122501D01*
X123168Y365546D01*
X122501Y371544D02*
X123168Y370211D01*
X124501Y368878D01*
X125833D01*
X126500Y369545D01*
Y370878D01*
X125833Y371544D01*
X125167D01*
X124501Y370878D01*
Y368878D01*
X423500Y351547D02*
X419501D01*
Y353547D01*
X420168Y354213D01*
X421501D01*
X422167Y353547D01*
Y351547D01*
Y352880D02*
X423500Y354213D01*
Y355546D02*
Y356879D01*
Y356212D01*
X419501D01*
X420168Y355546D01*
X419501Y361544D02*
Y358878D01*
X421501D01*
X420834Y360211D01*
Y360878D01*
X421501Y361544D01*
X422833D01*
X423500Y360878D01*
Y359545D01*
X422833Y358878D01*
X420000Y416047D02*
X416001D01*
Y418047D01*
X416668Y418713D01*
X418001D01*
X418667Y418047D01*
Y416047D01*
Y417380D02*
X420000Y418713D01*
Y420046D02*
Y421379D01*
Y420712D01*
X416001D01*
X416668Y420046D01*
X420000Y425378D02*
X416001D01*
X418001Y423378D01*
Y426044D01*
X250500Y508500D02*
X246501D01*
Y510499D01*
X247168Y511166D01*
X248501D01*
X249167Y510499D01*
Y508500D01*
Y509833D02*
X250500Y511166D01*
Y512499D02*
Y513832D01*
Y513165D01*
X246501D01*
X247168Y512499D01*
Y515831D02*
X246501Y516497D01*
Y517830D01*
X247168Y518497D01*
X247834D01*
X248501Y517830D01*
Y517164D01*
Y517830D01*
X249167Y518497D01*
X249834D01*
X250500Y517830D01*
Y516497D01*
X249834Y515831D01*
X161000Y457500D02*
X157001D01*
Y459499D01*
X157668Y460166D01*
X159001D01*
X159667Y459499D01*
Y457500D01*
Y458833D02*
X161000Y460166D01*
Y461499D02*
Y462832D01*
Y462165D01*
X157001D01*
X157668Y461499D01*
X161000Y467497D02*
Y464831D01*
X158334Y467497D01*
X157668D01*
X157001Y466830D01*
Y465497D01*
X157668Y464831D01*
X880500Y370500D02*
Y374499D01*
X882499D01*
X883166Y373832D01*
Y372499D01*
X882499Y371833D01*
X880500D01*
X881833D02*
X883166Y370500D01*
X884499D02*
X885832D01*
X885165D01*
Y374499D01*
X884499Y373832D01*
X887831Y370500D02*
X889164D01*
X888497D01*
Y374499D01*
X887831Y373832D01*
X885000Y378000D02*
X881001D01*
Y379999D01*
X881668Y380666D01*
X883001D01*
X883667Y379999D01*
Y378000D01*
Y379333D02*
X885000Y380666D01*
Y381999D02*
Y383332D01*
Y382665D01*
X881001D01*
X881668Y381999D01*
Y385331D02*
X881001Y385997D01*
Y387330D01*
X881668Y387997D01*
X884334D01*
X885000Y387330D01*
Y385997D01*
X884334Y385331D01*
X881668D01*
X351000Y492500D02*
X347001D01*
Y494499D01*
X347668Y495166D01*
X349001D01*
X349667Y494499D01*
Y492500D01*
Y493833D02*
X351000Y495166D01*
X350334Y496499D02*
X351000Y497165D01*
Y498498D01*
X350334Y499164D01*
X347668D01*
X347001Y498498D01*
Y497165D01*
X347668Y496499D01*
X348334D01*
X349001Y497165D01*
Y499164D01*
X687350Y331500D02*
Y327501D01*
X685351D01*
X684685Y328168D01*
Y329501D01*
X685351Y330167D01*
X687350D01*
X686018D02*
X684685Y331500D01*
X683352Y328168D02*
X682685Y327501D01*
X681352D01*
X680686Y328168D01*
Y328834D01*
X681352Y329501D01*
X680686Y330167D01*
Y330834D01*
X681352Y331500D01*
X682685D01*
X683352Y330834D01*
Y330167D01*
X682685Y329501D01*
X683352Y328834D01*
Y328168D01*
X682685Y329501D02*
X681352D01*
X723000Y386000D02*
Y382001D01*
X721001D01*
X720334Y382668D01*
Y384001D01*
X721001Y384667D01*
X723000D01*
X721667D02*
X720334Y386000D01*
X719001Y382001D02*
X716335D01*
Y382668D01*
X719001Y385334D01*
Y386000D01*
X723000Y374000D02*
Y370001D01*
X721001D01*
X720334Y370668D01*
Y372001D01*
X721001Y372667D01*
X723000D01*
X721667D02*
X720334Y374000D01*
X716335Y370001D02*
X717668Y370668D01*
X719001Y372001D01*
Y373334D01*
X718335Y374000D01*
X717002D01*
X716335Y373334D01*
Y372667D01*
X717002Y372001D01*
X719001D01*
X754000Y377000D02*
X750001D01*
Y378999D01*
X750668Y379666D01*
X752001D01*
X752667Y378999D01*
Y377000D01*
Y378333D02*
X754000Y379666D01*
X750001Y383664D02*
Y380999D01*
X752001D01*
X751334Y382332D01*
Y382998D01*
X752001Y383664D01*
X753334D01*
X754000Y382998D01*
Y381665D01*
X753334Y380999D01*
X640000Y267000D02*
X636001D01*
Y268999D01*
X636668Y269666D01*
X638001D01*
X638667Y268999D01*
Y267000D01*
Y268333D02*
X640000Y269666D01*
Y272998D02*
X636001D01*
X638001Y270999D01*
Y273664D01*
X259500Y202500D02*
X255501D01*
Y204499D01*
X256168Y205166D01*
X257501D01*
X258167Y204499D01*
Y202500D01*
Y203833D02*
X259500Y205166D01*
X256168Y206499D02*
X255501Y207165D01*
Y208498D01*
X256168Y209165D01*
X256834D01*
X257501Y208498D01*
Y207832D01*
Y208498D01*
X258167Y209165D01*
X258834D01*
X259500Y208498D01*
Y207165D01*
X258834Y206499D01*
X529500Y573500D02*
X525501D01*
Y575499D01*
X526168Y576166D01*
X527501D01*
X528167Y575499D01*
Y573500D01*
Y574833D02*
X529500Y576166D01*
Y580164D02*
Y577499D01*
X526834Y580164D01*
X526168D01*
X525501Y579498D01*
Y578165D01*
X526168Y577499D01*
X337500Y560000D02*
X333501D01*
Y561999D01*
X334168Y562666D01*
X335501D01*
X336167Y561999D01*
Y560000D01*
Y561333D02*
X337500Y562666D01*
Y563999D02*
Y565332D01*
Y564665D01*
X333501D01*
X334168Y563999D01*
X288664Y393406D02*
X285999D01*
X285332Y392740D01*
Y391407D01*
X285999Y390740D01*
X288664D01*
X289331Y391407D01*
Y392740D01*
X287998Y392073D02*
X289331Y393406D01*
Y392740D02*
X288664Y393406D01*
X289331Y394739D02*
Y396072D01*
Y395405D01*
X285332D01*
X285999Y394739D01*
Y398071D02*
X285332Y398738D01*
Y400070D01*
X285999Y400737D01*
X288664D01*
X289331Y400070D01*
Y398738D01*
X288664Y398071D01*
X285999D01*
X799166Y348334D02*
X801832D01*
X802499Y349001D01*
Y350334D01*
X801832Y351000D01*
X799166D01*
X798500Y350334D01*
Y349001D01*
X799833Y349667D02*
X798500Y348334D01*
Y349001D02*
X799166Y348334D01*
Y347001D02*
X798500Y346335D01*
Y345002D01*
X799166Y344336D01*
X801832D01*
X802499Y345002D01*
Y346335D01*
X801832Y347001D01*
X801166D01*
X800499Y346335D01*
Y344336D01*
X787666Y375334D02*
X790332D01*
X790999Y376001D01*
Y377334D01*
X790332Y378000D01*
X787666D01*
X787000Y377334D01*
Y376001D01*
X788333Y376667D02*
X787000Y375334D01*
Y376001D02*
X787666Y375334D01*
X790332Y374001D02*
X790999Y373335D01*
Y372002D01*
X790332Y371336D01*
X789666D01*
X788999Y372002D01*
X788333Y371336D01*
X787666D01*
X787000Y372002D01*
Y373335D01*
X787666Y374001D01*
X788333D01*
X788999Y373335D01*
X789666Y374001D01*
X790332D01*
X788999Y373335D02*
Y372002D01*
X165666Y300334D02*
X168332D01*
X168999Y301001D01*
Y302334D01*
X168332Y303000D01*
X165666D01*
X165000Y302334D01*
Y301001D01*
X166333Y301667D02*
X165000Y300334D01*
Y301001D02*
X165666Y300334D01*
X168999Y299001D02*
Y296336D01*
X168332D01*
X165666Y299001D01*
X165000D01*
X261834Y247166D02*
X259168D01*
X258501Y246499D01*
Y245166D01*
X259168Y244500D01*
X261834D01*
X262500Y245166D01*
Y246499D01*
X261167Y245833D02*
X262500Y247166D01*
Y246499D02*
X261834Y247166D01*
X258501Y251165D02*
X259168Y249832D01*
X260501Y248499D01*
X261834D01*
X262500Y249165D01*
Y250498D01*
X261834Y251165D01*
X261167D01*
X260501Y250498D01*
Y248499D01*
X353834Y274666D02*
X351168D01*
X350501Y273999D01*
Y272666D01*
X351168Y272000D01*
X353834D01*
X354500Y272666D01*
Y273999D01*
X353167Y273333D02*
X354500Y274666D01*
Y273999D02*
X353834Y274666D01*
X350501Y278664D02*
Y275999D01*
X352501D01*
X351834Y277332D01*
Y277998D01*
X352501Y278664D01*
X353834D01*
X354500Y277998D01*
Y276665D01*
X353834Y275999D01*
X129333Y404666D02*
X126668D01*
X126001Y403999D01*
Y402666D01*
X126668Y402000D01*
X129333D01*
X130000Y402666D01*
Y403999D01*
X128667Y403333D02*
X130000Y404666D01*
Y403999D02*
X129333Y404666D01*
X130000Y407998D02*
X126001D01*
X128001Y405999D01*
Y408665D01*
X261834Y541666D02*
X259168D01*
X258501Y540999D01*
Y539666D01*
X259168Y539000D01*
X261834D01*
X262500Y539666D01*
Y540999D01*
X261167Y540333D02*
X262500Y541666D01*
Y540999D02*
X261834Y541666D01*
X259168Y542999D02*
X258501Y543665D01*
Y544998D01*
X259168Y545665D01*
X259834D01*
X260501Y544998D01*
Y544332D01*
Y544998D01*
X261167Y545665D01*
X261834D01*
X262500Y544998D01*
Y543665D01*
X261834Y542999D01*
X174334Y490166D02*
X171668D01*
X171001Y489499D01*
Y488166D01*
X171668Y487500D01*
X174334D01*
X175000Y488166D01*
Y489499D01*
X173667Y488833D02*
X175000Y490166D01*
Y489499D02*
X174334Y490166D01*
X175000Y494165D02*
Y491499D01*
X172334Y494165D01*
X171668D01*
X171001Y493498D01*
Y492165D01*
X171668Y491499D01*
X898407Y359610D02*
X901072D01*
X901739Y360276D01*
Y361609D01*
X901072Y362276D01*
X898407D01*
X897740Y361609D01*
Y360276D01*
X899073Y360943D02*
X897740Y359610D01*
Y360276D02*
X898407Y359610D01*
X897740Y358277D02*
Y356944D01*
Y357610D01*
X901739D01*
X901072Y358277D01*
X718000Y353501D02*
Y357500D01*
X715334D01*
X714001D02*
X712668D01*
X713335D01*
Y353501D01*
X714001Y354168D01*
X874501Y476666D02*
Y475333D01*
Y475999D01*
X877833D01*
X878500Y475333D01*
Y474666D01*
X877833Y474000D01*
X878500Y477999D02*
Y479332D01*
Y478665D01*
X874501D01*
X875168Y477999D01*
X878500Y483330D02*
X874501D01*
X876501Y481331D01*
Y483997D01*
X898501Y375445D02*
Y374112D01*
Y374779D01*
X901834D01*
X902500Y374112D01*
Y373446D01*
X901834Y372779D01*
X902500Y376778D02*
Y378111D01*
Y377445D01*
X898501D01*
X899168Y376778D01*
Y380111D02*
X898501Y380777D01*
Y382110D01*
X899168Y382776D01*
X899834D01*
X900501Y382110D01*
Y381443D01*
Y382110D01*
X901167Y382776D01*
X901834D01*
X902500Y382110D01*
Y380777D01*
X901834Y380111D01*
X875166Y165999D02*
X873833D01*
X874499D01*
Y162666D01*
X873833Y162000D01*
X873166D01*
X872500Y162666D01*
X876499Y162000D02*
X877832D01*
X877165D01*
Y165999D01*
X876499Y165332D01*
X882497Y162000D02*
X879831D01*
X882497Y164666D01*
Y165332D01*
X881830Y165999D01*
X880497D01*
X879831Y165332D01*
X626499Y280834D02*
Y282167D01*
Y281501D01*
X623166D01*
X622500Y282167D01*
Y282834D01*
X623166Y283500D01*
X622500Y279501D02*
Y278168D01*
Y278835D01*
X626499D01*
X625832Y279501D01*
X622500Y276169D02*
Y274836D01*
Y275503D01*
X626499D01*
X625832Y276169D01*
X758839Y433912D02*
X757506D01*
X758173D01*
Y430580D01*
X757506Y429913D01*
X756840D01*
X756173Y430580D01*
X760172Y429913D02*
X761505D01*
X760838D01*
Y433912D01*
X760172Y433246D01*
X763504D02*
X764171Y433912D01*
X765504D01*
X766170Y433246D01*
Y430580D01*
X765504Y429913D01*
X764171D01*
X763504Y430580D01*
Y433246D01*
X803325Y604834D02*
Y606167D01*
Y605501D01*
X799993D01*
X799327Y606167D01*
Y606834D01*
X799993Y607500D01*
Y603501D02*
X799327Y602835D01*
Y601502D01*
X799993Y600836D01*
X802659D01*
X803325Y601502D01*
Y602835D01*
X802659Y603501D01*
X801993D01*
X801326Y602835D01*
Y600836D01*
X590501Y499697D02*
Y498364D01*
Y499031D01*
X593834D01*
X594500Y498364D01*
Y497698D01*
X593834Y497031D01*
X591168Y501030D02*
X590501Y501697D01*
Y503030D01*
X591168Y503696D01*
X591834D01*
X592501Y503030D01*
X593167Y503696D01*
X593834D01*
X594500Y503030D01*
Y501697D01*
X593834Y501030D01*
X593167D01*
X592501Y501697D01*
X591834Y501030D01*
X591168D01*
X592501Y501697D02*
Y503030D01*
X595501Y405603D02*
Y404270D01*
Y404936D01*
X598834D01*
X599500Y404270D01*
Y403604D01*
X598834Y402937D01*
X595501Y406936D02*
Y409602D01*
X596168D01*
X598834Y406936D01*
X599500D01*
X824666Y335499D02*
X822000D01*
Y333499D01*
X823333D01*
X822000D01*
Y331500D01*
X828664D02*
X825999D01*
X828664Y334166D01*
Y334832D01*
X827998Y335499D01*
X826665D01*
X825999Y334832D01*
X849666Y335546D02*
X847000D01*
Y333547D01*
X848333D01*
X847000D01*
Y331547D01*
X850999D02*
X852332D01*
X851665D01*
Y335546D01*
X850999Y334879D01*
X269501Y377000D02*
X273500D01*
Y378999D01*
X272834Y379666D01*
X270168D01*
X269501Y378999D01*
Y377000D01*
X273500Y380999D02*
Y382332D01*
Y381665D01*
X269501D01*
X270168Y380999D01*
Y384331D02*
X269501Y384997D01*
Y386330D01*
X270168Y386997D01*
X270834D01*
X271501Y386330D01*
X272167Y386997D01*
X272834D01*
X273500Y386330D01*
Y384997D01*
X272834Y384331D01*
X272167D01*
X271501Y384997D01*
X270834Y384331D01*
X270168D01*
X271501Y384997D02*
Y386330D01*
X797673Y551827D02*
X800500Y549000D01*
X801914Y550414D01*
Y551356D01*
X800029Y553241D01*
X799086D01*
X797673Y551827D01*
X803327D02*
X804270Y552770D01*
X803799Y552299D01*
X800971Y555126D01*
Y554184D01*
X802856Y557011D02*
X804741Y558896D01*
X805212Y558425D01*
X805212Y554655D01*
X805684Y554184D01*
X802672Y543328D02*
X805500Y540500D01*
X806914Y541914D01*
Y542856D01*
X805029Y544741D01*
X804086D01*
X802672Y543328D01*
X808327D02*
X809270Y544270D01*
X808799Y543799D01*
X805971Y546626D01*
Y545684D01*
X809741Y550396D02*
X809270Y548982D01*
Y547097D01*
X810213Y546155D01*
X811155D01*
X812097Y547097D01*
Y548040D01*
X811626Y548511D01*
X810684D01*
X809270Y547097D01*
X751673Y575980D02*
X754500Y578807D01*
X753086Y580221D01*
X752144D01*
X750259Y578336D01*
Y577393D01*
X751673Y575980D01*
Y581635D02*
X750730Y582577D01*
X751201Y582106D01*
X748374Y579278D01*
X749316D01*
X744604Y583048D02*
X746489Y581163D01*
X747902Y582577D01*
X746489Y583048D01*
X746018Y583520D01*
Y584462D01*
X746960Y585405D01*
X747902D01*
X748845Y584462D01*
Y583520D01*
X755172Y591173D02*
X758000Y594000D01*
X756586Y595414D01*
X755644D01*
X753759Y593529D01*
Y592586D01*
X755172Y591173D01*
Y596828D02*
X754230Y597770D01*
X754701Y597299D01*
X751874Y594471D01*
X752816D01*
X751403Y600597D02*
X748575Y597770D01*
X751403D01*
X749517Y599655D01*
X752173Y441827D02*
X755000Y439000D01*
X756414Y440414D01*
Y441356D01*
X754529Y443241D01*
X753586D01*
X752173Y441827D01*
X757828D02*
X758770Y442770D01*
X758299Y442299D01*
X755471Y445126D01*
Y444184D01*
X757828Y446540D02*
Y447482D01*
X758770Y448425D01*
X759713D01*
X760184Y447954D01*
Y447011D01*
X759713Y446540D01*
X760184Y447011D01*
X761126D01*
X761597Y446540D01*
Y445598D01*
X760655Y444655D01*
X759713D01*
X775672Y447827D02*
X778500Y445000D01*
X779914Y446414D01*
Y447356D01*
X778029Y449241D01*
X777086D01*
X775672Y447827D01*
X781327D02*
X782270Y448770D01*
X781799Y448299D01*
X778971Y451126D01*
Y450184D01*
X785569Y452069D02*
X783684Y450184D01*
Y453954D01*
X783213Y454425D01*
X782270D01*
X781327Y453482D01*
Y452540D01*
X155001Y281500D02*
X159000D01*
Y283499D01*
X158334Y284166D01*
X155668D01*
X155001Y283499D01*
Y281500D01*
X159000Y285499D02*
Y286832D01*
Y286165D01*
X155001D01*
X155668Y285499D01*
X159000Y288831D02*
Y290164D01*
Y289497D01*
X155001D01*
X155668Y288831D01*
X244501Y229000D02*
X248500D01*
Y230999D01*
X247834Y231666D01*
X245168D01*
X244501Y230999D01*
Y229000D01*
X248500Y232999D02*
Y234332D01*
Y233665D01*
X244501D01*
X245168Y232999D01*
Y236331D02*
X244501Y236997D01*
Y238330D01*
X245168Y238997D01*
X247834D01*
X248500Y238330D01*
Y236997D01*
X247834Y236331D01*
X245168D01*
X345001Y248500D02*
X349000D01*
Y250499D01*
X348334Y251166D01*
X345668D01*
X345001Y250499D01*
Y248500D01*
X348334Y252499D02*
X349000Y253165D01*
Y254498D01*
X348334Y255165D01*
X345668D01*
X345001Y254498D01*
Y253165D01*
X345668Y252499D01*
X346334D01*
X347001Y253165D01*
Y255165D01*
X121001Y384500D02*
X125000D01*
Y386499D01*
X124334Y387166D01*
X121668D01*
X121001Y386499D01*
Y384500D01*
X121668Y388499D02*
X121001Y389165D01*
Y390498D01*
X121668Y391164D01*
X122334D01*
X123001Y390498D01*
X123667Y391164D01*
X124334D01*
X125000Y390498D01*
Y389165D01*
X124334Y388499D01*
X123667D01*
X123001Y389165D01*
X122334Y388499D01*
X121668D01*
X123001Y389165D02*
Y390498D01*
X433000Y331999D02*
Y328000D01*
X434999D01*
X435666Y328666D01*
Y331332D01*
X434999Y331999D01*
X433000D01*
X436999D02*
X439665D01*
Y331332D01*
X436999Y328666D01*
Y328000D01*
X433000Y434499D02*
Y430500D01*
X434999D01*
X435666Y431166D01*
Y433832D01*
X434999Y434499D01*
X433000D01*
X439665D02*
X438332Y433832D01*
X436999Y432499D01*
Y431166D01*
X437665Y430500D01*
X438998D01*
X439665Y431166D01*
Y431833D01*
X438998Y432499D01*
X436999D01*
X244001Y526000D02*
X248000D01*
Y527999D01*
X247334Y528666D01*
X244668D01*
X244001Y527999D01*
Y526000D01*
Y532664D02*
Y529999D01*
X246001D01*
X245334Y531332D01*
Y531998D01*
X246001Y532664D01*
X247334D01*
X248000Y531998D01*
Y530665D01*
X247334Y529999D01*
X155101Y474700D02*
X159100D01*
Y476699D01*
X158433Y477366D01*
X155768D01*
X155101Y476699D01*
Y474700D01*
X159100Y480698D02*
X155101D01*
X157101Y478699D01*
Y481364D01*
X345001Y508000D02*
X349000D01*
Y509999D01*
X348334Y510666D01*
X345668D01*
X345001Y509999D01*
Y508000D01*
X345668Y511999D02*
X345001Y512665D01*
Y513998D01*
X345668Y514665D01*
X346334D01*
X347001Y513998D01*
Y513332D01*
Y513998D01*
X347667Y514665D01*
X348334D01*
X349000Y513998D01*
Y512665D01*
X348334Y511999D01*
X879500Y352501D02*
Y356500D01*
X877501D01*
X876834Y355834D01*
Y353168D01*
X877501Y352501D01*
X879500D01*
X872836Y356500D02*
X875501D01*
X872836Y353834D01*
Y353168D01*
X873502Y352501D01*
X874835D01*
X875501Y353168D01*
X795131Y316500D02*
X799130D01*
Y318499D01*
X798463Y319166D01*
X795798D01*
X795131Y318499D01*
Y316500D01*
X799130Y320499D02*
Y321832D01*
Y321165D01*
X795131D01*
X795798Y320499D01*
X841666Y419832D02*
X840999Y420499D01*
X839666D01*
X839000Y419832D01*
Y417166D01*
X839666Y416500D01*
X840999D01*
X841666Y417166D01*
X842999Y416500D02*
X844332D01*
X843665D01*
Y420499D01*
X842999Y419832D01*
X848330Y416500D02*
Y420499D01*
X846331Y418499D01*
X848997D01*
X822668Y397666D02*
X822001Y396999D01*
Y395666D01*
X822668Y395000D01*
X825333D01*
X826000Y395666D01*
Y396999D01*
X825333Y397666D01*
X826000Y398999D02*
Y400332D01*
Y399665D01*
X822001D01*
X822668Y398999D01*
Y402331D02*
X822001Y402997D01*
Y404330D01*
X822668Y404997D01*
X823334D01*
X824001Y404330D01*
Y403664D01*
Y404330D01*
X824667Y404997D01*
X825333D01*
X826000Y404330D01*
Y402997D01*
X825333Y402331D01*
X892666Y454332D02*
X891999Y454999D01*
X890666D01*
X890000Y454332D01*
Y451666D01*
X890666Y451000D01*
X891999D01*
X892666Y451666D01*
X893999Y451000D02*
X895332D01*
X894665D01*
Y454999D01*
X893999Y454332D01*
X899997Y451000D02*
X897331D01*
X899997Y453666D01*
Y454332D01*
X899330Y454999D01*
X897997D01*
X897331Y454332D01*
X675334Y365668D02*
X676001Y365001D01*
X677334D01*
X678000Y365668D01*
Y368334D01*
X677334Y369000D01*
X676001D01*
X675334Y368334D01*
X674001Y369000D02*
X672668D01*
X673335D01*
Y365001D01*
X674001Y365668D01*
X670669Y369000D02*
X669336D01*
X670003D01*
Y365001D01*
X670669Y365668D01*
X687366Y341168D02*
X688032Y340501D01*
X689365D01*
X690031Y341168D01*
Y343833D01*
X689365Y344500D01*
X688032D01*
X687366Y343833D01*
X686033Y344500D02*
X684700D01*
X685366D01*
Y340501D01*
X686033Y341168D01*
X682700D02*
X682034Y340501D01*
X680701D01*
X680035Y341168D01*
Y343833D01*
X680701Y344500D01*
X682034D01*
X682700Y343833D01*
Y341168D01*
X259334Y310168D02*
X260001Y309501D01*
X261334D01*
X262000Y310168D01*
Y312834D01*
X261334Y313500D01*
X260001D01*
X259334Y312834D01*
X258001D02*
X257335Y313500D01*
X256002D01*
X255335Y312834D01*
Y310168D01*
X256002Y309501D01*
X257335D01*
X258001Y310168D01*
Y310834D01*
X257335Y311501D01*
X255335D01*
X684517Y353334D02*
X685184Y354001D01*
Y355334D01*
X684517Y356000D01*
X681851D01*
X681185Y355334D01*
Y354001D01*
X681851Y353334D01*
X684517Y352001D02*
X685184Y351335D01*
Y350002D01*
X684517Y349336D01*
X683851D01*
X683184Y350002D01*
X682518Y349336D01*
X681851D01*
X681185Y350002D01*
Y351335D01*
X681851Y352001D01*
X682518D01*
X683184Y351335D01*
X683851Y352001D01*
X684517D01*
X683184Y351335D02*
Y350002D01*
X732332Y354078D02*
X732999Y354745D01*
Y356078D01*
X732332Y356744D01*
X729666D01*
X729000Y356078D01*
Y354745D01*
X729666Y354078D01*
X732999Y352745D02*
Y350080D01*
X732332D01*
X729666Y352745D01*
X729000D01*
X720334Y376668D02*
X721001Y376001D01*
X722334D01*
X723000Y376668D01*
Y379334D01*
X722334Y380000D01*
X721001D01*
X720334Y379334D01*
X716335Y376001D02*
X717668Y376668D01*
X719001Y378001D01*
Y379334D01*
X718335Y380000D01*
X717002D01*
X716335Y379334D01*
Y378667D01*
X717002Y378001D01*
X719001D01*
X704834Y357168D02*
X705501Y356501D01*
X706834D01*
X707500Y357168D01*
Y359834D01*
X706834Y360500D01*
X705501D01*
X704834Y359834D01*
X700836Y356501D02*
X703501D01*
Y358501D01*
X702168Y357834D01*
X701502D01*
X700836Y358501D01*
Y359834D01*
X701502Y360500D01*
X702835D01*
X703501Y359834D01*
X691334Y357168D02*
X692001Y356501D01*
X693334D01*
X694000Y357168D01*
Y359834D01*
X693334Y360500D01*
X692001D01*
X691334Y359834D01*
X688002Y360500D02*
Y356501D01*
X690001Y358501D01*
X687335D01*
X737382Y345168D02*
X738048Y344501D01*
X739381D01*
X740047Y345168D01*
Y347834D01*
X739381Y348500D01*
X738048D01*
X737382Y347834D01*
X736049Y345168D02*
X735382Y344501D01*
X734049D01*
X733383Y345168D01*
Y345834D01*
X734049Y346501D01*
X734716D01*
X734049D01*
X733383Y347167D01*
Y347834D01*
X734049Y348500D01*
X735382D01*
X736049Y347834D01*
X783832Y371334D02*
X784499Y372001D01*
Y373334D01*
X783832Y374000D01*
X781166D01*
X780500Y373334D01*
Y372001D01*
X781166Y371334D01*
X780500Y367336D02*
Y370001D01*
X783166Y367336D01*
X783832D01*
X784499Y368002D01*
Y369335D01*
X783832Y370001D01*
Y353834D02*
X784499Y354501D01*
Y355834D01*
X783832Y356500D01*
X781166D01*
X780500Y355834D01*
Y354501D01*
X781166Y353834D01*
X780500Y352501D02*
Y351168D01*
Y351835D01*
X784499D01*
X783832Y352501D01*
X430675Y208634D02*
Y207301D01*
Y207968D01*
X434007D01*
X434673Y207301D01*
Y206635D01*
X434007Y205968D01*
X430675Y212633D02*
X431341Y211300D01*
X432674Y209967D01*
X434007D01*
X434673Y210634D01*
Y211967D01*
X434007Y212633D01*
X433340D01*
X432674Y211967D01*
Y209967D01*
X533992Y585828D02*
X535324D01*
X534658D01*
Y589160D01*
X535324Y589827D01*
X535991D01*
X536657Y589160D01*
X529993Y589827D02*
X532659D01*
X529993Y587161D01*
Y586494D01*
X530659Y585828D01*
X531992D01*
X532659Y586494D01*
X517729Y452499D02*
X516396D01*
X517062D01*
Y449166D01*
X516396Y448500D01*
X515729D01*
X515063Y449166D01*
X521728Y452499D02*
X519062D01*
Y450499D01*
X520395Y451166D01*
X521061D01*
X521728Y450499D01*
Y449166D01*
X521061Y448500D01*
X519728D01*
X519062Y449166D01*
M02*
