M48
;Layer_Color=9474304
;FILE_FORMAT=2:5
INCH,TZ
;TYPE=PLATED
T1F00S00C0.00800
T2F00S00C0.02800
T3F00S00C0.04724
T4F00S00C0.11811
T5F00S00C0.17323
;TYPE=NON_PLATED
T6F00S00C0.02756
T7F00S00C0.04252
T8F00S00C0.09055
%
T01
X839500Y158000
X843500
X847500
X851500
X855500
X859500
X863000
X861000Y170000
X865000
X857500Y173000
X853500Y169500
X849500Y173000
X845500Y169500
X841500Y173000
X837500Y169500
Y195500
X839500Y193500
X843500Y196000
X847500
X851500
X855500
X859000
X862000Y187500
X863248Y184748
X866000Y183500
X808500Y259000
X787500Y258500
X783000Y262500
X782500Y285500
X786500Y292000
X811000Y289500
Y309000
X830500Y301000
X831000Y282000
X799000Y273000
X715500Y298000
X708000Y291000
X694500
X683000
X676500Y297500
X677000Y311000
X628000Y308500
Y274000
X632500Y276500
X633000Y264500
X632626Y259874
X631500Y256000
X632000Y252000
Y249000
Y245000
X632500Y242000
X632000Y239500
X625000Y236500
X639500Y264500
X617500Y264000
X618000Y259500
X617500Y256500
X618000Y252000
Y247500
X615500Y239500
X603000Y241000
X602500Y244000
X599500Y247000
X601000Y249000
X599500Y258000
Y260500
X601000Y264000
X603000Y272000
X452000Y253500
Y250500
X442500Y251000
X439000Y246000
Y242000
Y239000
X440000Y236000
X441500Y226500
Y223500
Y220000
X453500Y222000
X457000Y226000
Y228500
X425500
X426500Y231000
X426000Y235500
Y239500
Y243500
Y247500
X424000Y224000
X427000Y219500
X360047Y232953
X369500Y273000
X278500Y243500
X278000Y200500
X274453Y200453
X271000Y200500
X282000
X286000
X284000Y189000
X288000
X280000
X276500
Y186000
X272500
X268500
Y189000
X264500Y186000
X261000
X266500Y174000
X270500
X274500
X266500Y208000
X255000Y199500
X245000Y226000
X171000Y267000
X156500Y295000
X130000Y357500
X138500Y409500
X167000Y415000
X168500Y400500
X172000
Y403500
X176000
X179500
X183500
X187500
Y400500
X191500Y403500
X195500
X193500Y414500
X196000Y389500
X194000Y386500
X191500Y387500
X188500Y388500
X185000Y389000
X181500
X177500
X173500
X169500
X164500Y455500
X298000Y398500
X345000Y417500
X419500Y403500
X435500
X529500Y430000
X540000Y429500
X547000Y430500
X551000
X556000
X554500Y441500
X550000
X546500
X533500Y442000
X530000Y445000
X527000Y456000
X524000
X517000Y459500
Y465000
X529500Y466000
X540500Y458000
X544500
X548500
X552500
X591500Y444500
X590500Y441500
X588500Y437500
X592594Y434094
X591500Y430000
X589500Y427000
X589000Y424000
X591000Y421000
X589500Y419000
X587500Y417000
X589000Y409500
X594500Y407500
X574500Y410000
Y414500
X602500Y425000
X605000Y427500
X606500Y430500
X619000Y432000
Y426000
Y415000
X623500Y417500
X619500Y395000
X615500Y399000
X618000Y442500
X620500Y449000
X624000Y446500
X603500Y445000
X602000Y336000
X604500Y334000
X607000Y332000
X609500Y331000
X611500Y329000
X614500
X617500Y324500
Y321000
Y318000
X650000Y327000
X665000Y329500
X666500Y336500
Y342000
X661500Y352500
X650000Y351000
Y377000
X673000Y371500
X680500Y367500
X682000Y374500
X690500Y380000
X704000Y379500
X712500Y377000
X713000Y368000
X716000Y354500
X725000Y362000
X721500Y378000
X719000Y384000
X726500Y388500
X733500Y392000
X742500Y382500
X737000Y375500
X746000Y369500
X752000Y370500
X751000Y355000
X764500Y347500
X766500Y376500
X773000Y381000
X777000Y391500
X758500Y388000
X775000Y412000
X779000
X777500Y423000
X781000
X773500
X773000Y447500
X767000Y443500
X758000Y438000
X757000Y458000
X774000Y468000
X780500Y464500
X650500Y466500
X644000Y468000
Y465000
X646500Y454000
X649500
X649000Y443000
X646500
X627000Y444000
X628000Y427000
X636000Y418500
X632500Y409000
X634000Y395500
X639000Y398500
X664500Y392000
X684000
X705000
X683000Y354000
X683500Y339500
X683000Y333000
X677000Y323000
X715000Y317500
Y338000
X668000Y362000
X781500Y347000
X786500Y336500
X797500Y334500
X806000Y345500
X791000Y355000
X786500Y313500
X812000Y326500
X830000Y323500
X819000Y405000
X842000Y406000
X867500Y405000
X865500Y422500
X891000
X897500Y428500
Y438000
X889000Y457500
X892000Y405000
X877500Y392500
X882000Y376000
X920000Y403000
X919000Y421500
X800500Y423000
X797000
X793000
X789000
X785000
X786500Y412000
X790500
X782500
X798654Y412154
X796000Y446500
X797500Y451000
X794500
X792000Y449000
X790000Y451500
X800500Y455000
Y460500
X797500Y465000
X795000
X792000
X789500
X817500Y460500
X949000Y422000
X900500Y476252
X899000Y480500
X878500Y478000
X862000Y488000
X860500Y490500
X859000Y493500
X857000Y496000
X855000Y499000
X852500Y501000
X849500
X817500Y469000
X814000Y545500
X810500Y548000
X804000Y548500
X812500Y559000
X817500Y557000
X818500Y560000
X824000
X831000Y562000
Y565000
X818500Y572500
X812156Y571345
X813500Y582000
Y594000
X819000
X824000
X804500Y599000
X794500Y590500
X793500Y587500
X794500Y584000
X792500Y577000
X795000Y575000
X794000Y570000
X792500Y565500
X781500Y558500
X779500Y561000
X774000Y554500
X774500Y573000
X768500
X760500Y572000
X759000Y576000
Y579500
X757500Y586000
X749500Y583500
X745750Y586750
X746000Y596000
X768500Y585000
X777500Y582500
X739500Y560000
X736000
X741000Y557500
X742500Y555000
X744500Y552500
X746500Y550000
X748500Y548000
X750500Y545500
X752500Y543500
X754500Y541000
X774000Y505500
Y474000
X662500
X655500Y471000
X652000
X644000
Y474000
Y477000
Y480000
Y483000
Y486000
Y489000
Y492000
X652000Y492500
X652500Y489000
Y486000
X655000Y490000
X657000Y492000
X659500Y494000
X662000Y495000
X661500Y500500
X661000Y504500
X650000Y500500
X644000Y504500
X630000Y494000
X632000Y530500
X632500Y533000
X626500
X629500Y544000
X624000
X618500
X612000Y541000
X613000Y538000
X615000Y536000
X613500Y523000
X613000Y513000
Y509500
X599000Y507500
X593500Y507000
X584000Y509500
Y512500
Y515000
Y517500
Y520000
Y522500
Y525000
Y527500
X585000Y530500
X587500Y531000
X600000Y532000
Y530000
X601500Y527500
X600000Y525000
X599000Y522500
X600500Y518500
X598500Y516000
X600500Y513500
Y490500
X603500
X607500
X611000Y490000
X614000
X618500Y491500
Y494000
X624500Y491500
X620000Y484500
X618000Y482000
X597000Y490500
X598000Y538500
X600000Y536500
X581000Y555500
X521847Y549653
X516153
X522500Y571000
X513469Y582031
X509500Y582000
X505594Y582094
X497500Y582000
X496000Y593500
X500000
X504000
X507563Y593437
X511500Y597000
X515500Y593500
X519500Y597000
X521000Y608000
X517000
X513500
X509500
X528000
Y618000
X523500Y486500
X524500Y469000
X624500Y517500
X435000Y583500
X433000Y586000
X422157Y575343
X423500Y573000
X338000Y568500
X325500Y567500
X321500
X317500
X314000
X315000Y578500
X319000
X323000
X326500Y581500
X313500Y582000
X331000Y593500
X334000
X351000Y610500
X331000Y556000
X345000Y493000
X254000Y506500
X237000Y488000
X253000Y471500
X189500Y488000
X277500Y539500
X306000Y567500
X310000
X311000Y578500
X307500
X305500Y582000
X308000Y593500
X311500
X738000Y633000
X747000
X733000Y647500
X723500
T02
X283000Y173000
X786500Y383000
X704500Y525500
T03
X910441Y362000
Y375780
X938000
Y362000
T04
X577000Y154500
X898500
Y276500
X577000
X499173Y308653
Y161153
X174173Y167154
X183673Y308653
X161126Y344000
X347126
X452500Y462500
X695000Y421000
X939000Y405000
Y599500
X604000Y601500
X553500Y509500
X480000Y571000
X189626Y635500
X318626
T05
X130000Y130000
X510000
X945000
X130000Y632500
X510000
X945000
T06
X833524Y176992
X869350
X611681Y236055
Y271882
X445992Y251693
Y215866
X292366Y181161
X256539
X199571Y407992
X163744
X524429Y437508
X560256
X610492Y448071
Y412244
X768929Y419008
X804756
X788008Y562150
Y597976
X605492Y542724
Y506898
X527445Y600819
X491618
X337134Y585992
X301307
T07
X885000Y468500
X881000Y488500
X889000
T08
X355000Y251350
X254000Y233500
X165100Y284800
X130000Y381250
X280000
X420950Y432550
Y329950
X355000Y511150
X254000Y529000
X165100Y477700
M30
