G04 Layer_Physical_Order=4*
G04 Layer_Color=16711680*
%FSLAX25Y25*%
%MOIN*%
G70*
G01*
G75*
%ADD12R,0.02362X0.02362*%
%ADD13R,0.02362X0.02362*%
%ADD14R,0.02362X0.01968*%
%ADD18O,0.05512X0.01378*%
%ADD20R,0.07874X0.03347*%
%ADD30R,0.03937X0.05118*%
%ADD38R,0.10236X0.04331*%
%ADD45C,0.01500*%
%ADD46C,0.01000*%
%ADD48C,0.04000*%
%ADD49C,0.02000*%
%ADD50C,0.01300*%
%ADD51C,0.00700*%
%ADD56P,0.16703X4X317.0*%
%ADD57C,0.10512*%
%ADD58R,0.06000X0.06000*%
%ADD59C,0.06000*%
%ADD60C,0.06693*%
%ADD61C,0.29134*%
%ADD62C,0.20866*%
%ADD63C,0.00787*%
%ADD64C,0.01800*%
%ADD65C,0.02600*%
%ADD77R,0.06102X0.01181*%
%ADD78R,0.10827X0.04724*%
%ADD79R,0.12598X0.09055*%
%ADD80R,0.07874X0.02362*%
%ADD81R,0.17323X0.21260*%
G04:AMPARAMS|DCode=82|XSize=212.6mil|YSize=173.23mil|CornerRadius=0mil|HoleSize=0mil|Usage=FLASHONLY|Rotation=110.000|XOffset=0mil|YOffset=0mil|HoleType=Round|Shape=Rectangle|*
%AMROTATEDRECTD82*
4,1,4,0.11775,-0.07026,-0.04503,-0.12951,-0.11775,0.07026,0.04503,0.12951,0.11775,-0.07026,0.0*
%
%ADD82ROTATEDRECTD82*%

G04:AMPARAMS|DCode=83|XSize=212.6mil|YSize=173.23mil|CornerRadius=0mil|HoleSize=0mil|Usage=FLASHONLY|Rotation=150.000|XOffset=0mil|YOffset=0mil|HoleType=Round|Shape=Rectangle|*
%AMROTATEDRECTD83*
4,1,4,0.13537,0.02186,0.04875,-0.12816,-0.13537,-0.02186,-0.04875,0.12816,0.13537,0.02186,0.0*
%
%ADD83ROTATEDRECTD83*%

G04:AMPARAMS|DCode=84|XSize=212.6mil|YSize=173.23mil|CornerRadius=0mil|HoleSize=0mil|Usage=FLASHONLY|Rotation=130.000|XOffset=0mil|YOffset=0mil|HoleType=Round|Shape=Rectangle|*
%AMROTATEDRECTD84*
4,1,4,0.13468,-0.02576,0.00198,-0.13710,-0.13468,0.02576,-0.00198,0.13710,0.13468,-0.02576,0.0*
%
%ADD84ROTATEDRECTD84*%

%ADD85R,0.07874X0.06299*%
%ADD86R,0.01968X0.01772*%
%ADD87R,0.02559X0.01181*%
%ADD88R,0.01968X0.01476*%
%ADD89R,0.20472X0.09055*%
%ADD90C,0.01180*%
%ADD91C,0.02300*%
%ADD92R,0.17000X0.23000*%
%ADD93R,0.17500X0.16000*%
%ADD94R,0.12500X0.29000*%
%ADD95R,0.06500X0.19500*%
%ADD96R,0.41500X0.11000*%
%ADD97R,0.38000X0.11500*%
D12*
X464000Y238032D02*
D03*
Y241968D02*
D03*
Y246532D02*
D03*
Y250468D02*
D03*
X306000Y352031D02*
D03*
Y355968D02*
D03*
X302000Y352031D02*
D03*
Y355968D02*
D03*
X397000Y469468D02*
D03*
Y465531D02*
D03*
D13*
X368000Y484000D02*
D03*
X371937D02*
D03*
X368032Y488500D02*
D03*
X371969D02*
D03*
X368032Y493000D02*
D03*
X371969D02*
D03*
X409031Y266000D02*
D03*
X412968D02*
D03*
X280469Y362500D02*
D03*
X276532D02*
D03*
X280469Y366500D02*
D03*
X276532D02*
D03*
X280469Y379500D02*
D03*
X276532D02*
D03*
X279969Y385000D02*
D03*
X276031D02*
D03*
X280469Y372000D02*
D03*
X276532D02*
D03*
D14*
X454032Y478500D02*
D03*
X457969D02*
D03*
X425531Y288000D02*
D03*
X429468D02*
D03*
X418469Y288000D02*
D03*
X414532D02*
D03*
X412968Y187500D02*
D03*
X409031D02*
D03*
X412968Y192000D02*
D03*
X409031D02*
D03*
X341968Y372500D02*
D03*
X338032D02*
D03*
X341968Y369000D02*
D03*
X338032D02*
D03*
X394531Y389000D02*
D03*
X398468D02*
D03*
X394531Y393000D02*
D03*
X398468D02*
D03*
X340469Y413000D02*
D03*
X336531D02*
D03*
X340469Y417000D02*
D03*
X336531D02*
D03*
X343969Y464000D02*
D03*
X340032D02*
D03*
X343969Y467500D02*
D03*
X340032D02*
D03*
X293000Y393000D02*
D03*
X289063D02*
D03*
X302031Y393000D02*
D03*
X305968D02*
D03*
D18*
X310024Y387016D02*
D03*
Y384457D02*
D03*
Y381898D02*
D03*
Y379339D02*
D03*
Y376780D02*
D03*
Y374220D02*
D03*
Y371661D02*
D03*
Y369102D02*
D03*
Y366543D02*
D03*
Y363984D02*
D03*
X287976Y387016D02*
D03*
Y384457D02*
D03*
Y381898D02*
D03*
Y379339D02*
D03*
Y376780D02*
D03*
Y374220D02*
D03*
Y371661D02*
D03*
Y369102D02*
D03*
Y366543D02*
D03*
Y363984D02*
D03*
D20*
X441000Y306248D02*
D03*
Y299752D02*
D03*
D30*
X255744Y371000D02*
D03*
X261256D02*
D03*
D38*
X429500Y309815D02*
D03*
Y299185D02*
D03*
D45*
X219500Y214500D02*
X224500Y209500D01*
X464000Y233500D02*
X466500D01*
X464000D02*
Y238032D01*
X397000Y469468D02*
X397031Y469500D01*
X403000D01*
D46*
X152500Y265000D02*
X160000Y257500D01*
Y243000D02*
Y257500D01*
Y243000D02*
X174250Y228750D01*
Y225750D02*
Y228750D01*
Y225750D02*
X179500Y220500D01*
X189000D01*
X191000Y218500D01*
X223500D02*
X224500Y217500D01*
X231500D01*
X183500D02*
Y218000D01*
Y217500D02*
X184500Y216500D01*
X187500D01*
X196000Y208000D01*
Y205000D02*
Y208000D01*
Y205000D02*
X199500Y201500D01*
X243500D01*
X193600Y204900D02*
Y207370D01*
X203500Y212500D02*
X206500Y209500D01*
X210000Y208000D02*
Y209500D01*
X243500Y201500D02*
X251500Y209500D01*
X261000D01*
X263000Y207500D01*
Y205000D02*
Y207500D01*
X179000Y212000D02*
X188970D01*
X193600Y207370D01*
Y204900D02*
X199500Y199000D01*
X246000D01*
X253500Y206500D01*
X173500Y202500D02*
Y210000D01*
X250500Y180000D02*
X251000D01*
X255000Y176000D01*
Y156000D02*
Y176000D01*
Y156000D02*
X260500Y150500D01*
X165000Y204000D02*
Y210000D01*
Y204000D02*
X173600Y195400D01*
X250400D01*
X251000Y196000D01*
X310531Y352031D02*
X312500Y354000D01*
X306000Y352031D02*
X310531D01*
X302000D02*
X306000D01*
X464000Y250468D02*
Y255000D01*
X454000Y401000D02*
X464000D01*
X463000Y478500D02*
X463000Y478500D01*
X457969Y478500D02*
X463000D01*
X372500Y365000D02*
Y377000D01*
X367300Y359800D02*
X372500Y365000D01*
X328700Y359800D02*
X367300D01*
X374500Y364000D02*
Y378000D01*
X368500Y358000D02*
X374500Y364000D01*
X328096Y358000D02*
X368500D01*
X371000Y378500D02*
X372500Y377000D01*
X371000Y378500D02*
Y423500D01*
X373000Y379500D02*
X374500Y378000D01*
X373000Y379500D02*
Y421500D01*
X371000Y423500D02*
X375118Y427618D01*
X384784D01*
X373000Y421500D02*
X375969Y424469D01*
X384784D01*
X366000Y444000D02*
X371665Y449665D01*
X366000Y376000D02*
Y444000D01*
X353500Y363500D02*
X366000Y376000D01*
X368500Y443500D02*
X371516Y446516D01*
X368500Y375500D02*
Y443500D01*
X354500Y361500D02*
X368500Y375500D01*
X383500Y490000D02*
X383531Y489968D01*
X379000Y488500D02*
X379530Y487970D01*
X380000Y491500D02*
X380530Y492030D01*
X386907D01*
X387000Y491937D01*
X379530Y487970D02*
X386970D01*
X387000Y488000D01*
X383531Y489968D02*
X386705D01*
X389800Y487200D02*
Y491074D01*
X388937Y491937D02*
X389800Y491074D01*
X375800Y494300D02*
X390200D01*
X374500Y493000D02*
X375800Y494300D01*
X371969Y493000D02*
X374500D01*
X284000Y430500D02*
X302000Y412500D01*
X237000Y437000D02*
X247125D01*
X253625Y430500D01*
X302000Y386500D02*
Y412500D01*
X253625Y430500D02*
X284000D01*
X271500Y366500D02*
X276532D01*
X271000Y362500D02*
X276532D01*
X294500Y365000D02*
Y366000D01*
X293484Y363984D02*
X294500Y365000D01*
X287976Y363984D02*
X293484D01*
X272000Y385000D02*
X276532D01*
X271000Y384000D02*
X272000Y385000D01*
X228000Y384000D02*
X271000D01*
X282500Y387500D02*
Y389500D01*
X286000Y393000D01*
X289063D01*
X305000Y387500D02*
X305968Y388469D01*
Y393000D01*
X283469Y385000D02*
X285484Y387016D01*
X280469Y385000D02*
X283469D01*
X198500Y354500D02*
X228000Y384000D01*
X320902Y385098D02*
X352500D01*
X318984Y387016D02*
X320902Y385098D01*
X310024Y387016D02*
X318984D01*
X287976Y384457D02*
X292457D01*
X293000Y385000D01*
Y393000D01*
Y414500D01*
X284890Y422610D02*
X293000Y414500D01*
X261110Y422610D02*
X284890D01*
X310024Y363984D02*
X315984D01*
X317000Y365000D01*
Y368000D01*
X316957Y384457D02*
X317000Y384500D01*
X310024Y384457D02*
X316957D01*
X304043D02*
X310024D01*
X302000Y386500D02*
X304043Y384457D01*
X198500Y207000D02*
Y354500D01*
X229898Y381898D02*
X287976D01*
X201000Y353000D02*
X229898Y381898D01*
X201000Y209000D02*
Y353000D01*
X231000Y379500D02*
X276532D01*
X203500Y352000D02*
X231000Y379500D01*
X203500Y212500D02*
Y352000D01*
X231780Y376780D02*
X287976D01*
X206000Y351000D02*
X231780Y376780D01*
X206000Y213500D02*
Y351000D01*
X233759Y374759D02*
X263882D01*
X208500Y349500D02*
X233759Y374759D01*
X208500Y215500D02*
Y349500D01*
X233500Y371000D02*
X255744D01*
X211000Y348500D02*
X233500Y371000D01*
X211000Y216500D02*
Y348500D01*
X314000Y290000D02*
Y305500D01*
X356500Y348000D01*
X211000Y216500D02*
X217500Y210000D01*
Y208500D02*
Y210000D01*
X264260Y374381D02*
X287976D01*
X263882Y374759D02*
X264260Y374381D01*
X287976Y374220D02*
Y374381D01*
X208500Y215500D02*
X213500Y210500D01*
X214000D01*
Y208000D02*
Y210500D01*
X206000Y213500D02*
X210000Y209500D01*
X335000Y421500D02*
X344831D01*
X346587Y419744D01*
X352500D01*
X261256Y372000D02*
X276532D01*
X280469D02*
X280807Y371661D01*
X287976D01*
X280469Y379500D02*
X280630Y379339D01*
X287976D01*
X285484Y387016D02*
X287976D01*
X329000Y366000D02*
Y373500D01*
X323161Y379339D02*
X329000Y373500D01*
X310024Y379339D02*
X323161D01*
X327000Y364500D02*
Y372500D01*
X322721Y376780D02*
X327000Y372500D01*
X310024Y376780D02*
X322721D01*
X324500Y364000D02*
Y372000D01*
X322280Y374220D02*
X324500Y372000D01*
X310024Y374220D02*
X322280D01*
X322500Y363596D02*
Y370500D01*
X321339Y371661D02*
X322500Y370500D01*
X310024Y371661D02*
X321339D01*
X322500Y363596D02*
X328096Y358000D01*
X324500Y364000D02*
X328700Y359800D01*
X305500Y359500D02*
Y365500D01*
Y359500D02*
X306000Y359000D01*
X306543Y366543D02*
X310024D01*
X305500Y365500D02*
X306543Y366543D01*
X302000Y365000D02*
X306102Y369102D01*
X302000Y355968D02*
Y365000D01*
X306102Y369102D02*
X310024D01*
X327000Y364500D02*
X330000Y361500D01*
X354500D01*
X371516Y446516D02*
X384784D01*
X310075Y381949D02*
X352500D01*
X310024Y381898D02*
X310075Y381949D01*
X329000Y366000D02*
X331500Y363500D01*
X353500D01*
X371665Y449665D02*
X384784D01*
X280469Y366500D02*
X283071Y369102D01*
X287976D01*
X280469Y362500D02*
X283500D01*
Y364500D01*
X285543Y366543D01*
X287976D01*
X348000Y480000D02*
Y485500D01*
X345500Y388000D02*
X345748Y388248D01*
X352500D01*
X306000Y355968D02*
Y359000D01*
X376000Y467000D02*
Y469500D01*
Y467000D02*
X377587Y465413D01*
X384784D01*
X396882D02*
X397000Y465531D01*
X384784Y465413D02*
X396882D01*
X444000Y470685D02*
Y476000D01*
X443500Y476500D02*
X444000Y476000D01*
X422500Y476500D02*
X443500D01*
X407000Y485000D02*
X419000Y473000D01*
X392000Y485000D02*
X407000D01*
Y488000D02*
X424000Y471000D01*
X393693Y488000D02*
X407000D01*
X424000Y403000D02*
Y471000D01*
X389800Y487200D02*
X392000Y485000D01*
X391500Y488500D02*
Y493000D01*
Y488500D02*
X392000Y488000D01*
X393693D01*
X387000Y491937D02*
X388937D01*
X383500Y485000D02*
Y485500D01*
X382500Y484000D02*
X383500Y485000D01*
X371937Y484000D02*
X382500D01*
X368000Y476500D02*
Y484000D01*
Y476500D02*
X373500Y471000D01*
Y456500D02*
Y471000D01*
X361941Y444941D02*
X373500Y456500D01*
X352500Y444941D02*
X361941D01*
X427185Y470685D02*
X434000D01*
X427000Y470500D02*
X427185Y470685D01*
X418500Y470500D02*
X420000D01*
X407000Y482000D02*
X418500Y470500D01*
X391000Y482000D02*
X407000D01*
X387000Y486000D02*
X391000Y482000D01*
X387000Y486000D02*
Y488000D01*
X371969Y488500D02*
X379000D01*
X364500D02*
X368032D01*
X363500Y487500D02*
X364500Y488500D01*
X363500Y452000D02*
Y487500D01*
X359591Y448091D02*
X363500Y452000D01*
X352500Y448091D02*
X359591D01*
X426000Y401000D02*
X434000D01*
X424000Y403000D02*
X426000Y401000D01*
X390200Y494300D02*
X391500Y493000D01*
X365000D02*
X368032D01*
X361500Y489500D02*
X365000Y493000D01*
X361500Y454000D02*
Y489500D01*
X364000Y496000D02*
X393000D01*
X359500Y491500D02*
X364000Y496000D01*
X393000D02*
X393693Y495307D01*
X358740Y451240D02*
X361500Y454000D01*
X352500Y451240D02*
X358740D01*
X454000Y470685D02*
X454032Y470716D01*
Y478500D01*
Y482469D01*
X444563Y491937D02*
X454032Y482469D01*
X393693Y491937D02*
X444563D01*
X393693D02*
Y495307D01*
X359500Y455500D02*
Y491500D01*
X358390Y454390D02*
X359500Y455500D01*
X352500Y454390D02*
X358390D01*
D48*
X429500Y317000D02*
X429500Y317000D01*
X429500Y309815D02*
Y317000D01*
X416000Y310000D02*
X416185Y309815D01*
X429500D01*
X441000Y306248D02*
Y318000D01*
D49*
X442500Y228000D02*
X445000Y225500D01*
X416000Y228000D02*
X442500D01*
X414500Y226500D02*
X416000Y228000D01*
X414500Y213500D02*
Y226500D01*
X409031Y208032D02*
X414500Y213500D01*
X409031Y192000D02*
Y208032D01*
Y187500D02*
Y192000D01*
X410500Y290500D02*
Y292000D01*
Y290500D02*
X413000Y288000D01*
X414532D01*
X436000Y288000D02*
X436500Y288500D01*
X429468Y288000D02*
X436000D01*
D50*
X344047Y394547D02*
X352500D01*
X344000Y394500D02*
X344047Y394547D01*
X344197Y397697D02*
X352500D01*
X344000Y397500D02*
X344197Y397697D01*
D51*
X233500Y403000D02*
Y415000D01*
X190000Y359500D02*
X233500Y403000D01*
X190000Y282000D02*
Y359500D01*
Y282000D02*
X193000Y279000D01*
X196000D01*
X214500D02*
X217000D01*
X218000Y280000D01*
X325500D01*
X341500Y264000D01*
X405500D01*
X405731Y263769D01*
X246000Y421500D02*
Y423500D01*
X245400Y420900D02*
X246000Y421500D01*
X239420Y420900D02*
X245400D01*
X235600Y417080D02*
X239420Y420900D01*
X235600Y402100D02*
Y417080D01*
X192000Y358500D02*
X235600Y402100D01*
X192000Y282000D02*
Y358500D01*
Y282000D02*
X192500Y281500D01*
X196000D01*
X214500D02*
X215500D01*
X216500Y282500D01*
X326500D01*
X343000Y266000D01*
X409031D01*
X249500Y414500D02*
Y415000D01*
X245000Y419500D02*
X249500Y415000D01*
X240000Y419500D02*
X245000D01*
X237000Y416500D02*
X240000Y419500D01*
X237000Y400500D02*
Y416500D01*
X194000Y357500D02*
X237000Y400500D01*
X194000Y284500D02*
Y357500D01*
Y284500D02*
X194500Y284000D01*
X196000D01*
X214500D02*
X215000Y284500D01*
X327500D01*
X343769Y268231D01*
X239000Y399500D02*
Y413500D01*
X196000Y356500D02*
X239000Y399500D01*
X196000Y286500D02*
Y356500D01*
X214500Y286500D02*
X328500D01*
X344905Y270094D01*
X422000D01*
X343769Y268231D02*
X421895D01*
X422000Y268126D01*
X405731Y263769D02*
X414584D01*
X415005Y264189D01*
X422000D01*
X458953Y273047D02*
X469900Y262100D01*
X451724Y273047D02*
X458953D01*
X469900Y140920D02*
Y262100D01*
X323500Y178000D02*
Y184500D01*
X329000Y145000D02*
Y146500D01*
Y145000D02*
X339400Y134600D01*
X463580D01*
X469900Y140920D01*
X468500Y141500D02*
Y227000D01*
X465000Y230500D02*
X468500Y227000D01*
X443500Y230500D02*
X465000D01*
X332500Y146500D02*
Y149500D01*
Y146500D02*
X343000Y136000D01*
X463000D01*
X468500Y141500D01*
X433433Y240567D02*
X443500Y230500D01*
X422000Y240567D02*
X433433D01*
X412968Y266000D02*
X413126Y266158D01*
X422000D01*
X464000Y241968D02*
Y246532D01*
X461031Y241968D02*
X464000D01*
X459480Y243520D02*
X461031Y241968D01*
X451724Y243520D02*
X459480D01*
D56*
X401000Y374500D02*
D03*
D57*
X398252Y453192D02*
D03*
D58*
X388000Y301000D02*
D03*
D59*
Y348244D02*
D03*
D60*
X448500Y151000D02*
D03*
X434721D02*
D03*
X448500Y178559D02*
D03*
X434721D02*
D03*
D61*
X323709Y443598D02*
D03*
X134732Y177850D02*
D03*
D62*
X179469Y371319D02*
D03*
X158122Y333087D02*
D03*
X179469Y466595D02*
D03*
X158122Y148047D02*
D03*
D63*
X128433Y438480D02*
D03*
X302449D02*
D03*
X330008Y181000D02*
D03*
X155992D02*
D03*
D64*
X158500Y220000D02*
D03*
X137000Y260500D02*
D03*
X137500Y248000D02*
D03*
X157500Y255500D02*
D03*
X170000Y244500D02*
D03*
X195500Y250000D02*
D03*
X174000Y233500D02*
D03*
X139000Y233000D02*
D03*
X143000Y227000D02*
D03*
X153000Y242500D02*
D03*
X165500Y232000D02*
D03*
X152500Y265000D02*
D03*
X191000Y218500D02*
D03*
X223500D02*
D03*
X231500Y217500D02*
D03*
X183500Y218000D02*
D03*
X206500Y209500D02*
D03*
X210000Y208000D02*
D03*
X263000Y205000D02*
D03*
X179000Y212000D02*
D03*
X253500Y206500D02*
D03*
X173500Y210000D02*
D03*
Y202500D02*
D03*
X250500Y180000D02*
D03*
X260500Y150500D02*
D03*
X165000Y210000D02*
D03*
X251000Y196000D02*
D03*
X312500Y354000D02*
D03*
X445000Y225500D02*
D03*
X464000Y255000D02*
D03*
X458000Y270000D02*
D03*
X458500Y265000D02*
D03*
Y259000D02*
D03*
Y254000D02*
D03*
X459500Y250500D02*
D03*
X457000Y249500D02*
D03*
X460000Y248000D02*
D03*
X458500Y246000D02*
D03*
X458000Y240500D02*
D03*
Y235500D02*
D03*
X445500Y214000D02*
D03*
Y205500D02*
D03*
X442500Y221000D02*
D03*
X410500Y292000D02*
D03*
X436500Y288500D02*
D03*
X429500Y317000D02*
D03*
X416000Y310000D02*
D03*
X464000Y401000D02*
D03*
X463000Y478500D02*
D03*
X330500Y413000D02*
D03*
X336000Y409500D02*
D03*
X361500Y413500D02*
D03*
Y426000D02*
D03*
X362000Y400500D02*
D03*
Y391500D02*
D03*
X332500Y372500D02*
D03*
Y369000D02*
D03*
X360500Y377000D02*
D03*
X376500Y386500D02*
D03*
X403000Y396500D02*
D03*
Y386000D02*
D03*
X393000Y399000D02*
D03*
X376000Y399500D02*
D03*
Y408500D02*
D03*
X392870Y411870D02*
D03*
X393000Y421500D02*
D03*
X383500Y490000D02*
D03*
X380000Y491500D02*
D03*
X377000Y453000D02*
D03*
X393000Y443500D02*
D03*
X345000Y458500D02*
D03*
X335000Y464000D02*
D03*
Y469000D02*
D03*
X324500Y263000D02*
D03*
X320500Y271000D02*
D03*
X409000Y285500D02*
D03*
X398000D02*
D03*
X406000Y160000D02*
D03*
X240500Y150000D02*
D03*
X237000Y150000D02*
D03*
X212000Y150500D02*
D03*
X208500D02*
D03*
X190000Y150000D02*
D03*
X186500D02*
D03*
X187000Y206500D02*
D03*
X191500D02*
D03*
X223000Y471000D02*
D03*
X264500Y213000D02*
D03*
X275000Y202500D02*
D03*
X286500Y150000D02*
D03*
X296500Y155063D02*
D03*
X311000Y150500D02*
D03*
X317500D02*
D03*
X361500Y143500D02*
D03*
X298500Y179500D02*
D03*
X282500Y165000D02*
D03*
X260000Y197500D02*
D03*
X160500Y422500D02*
D03*
X170000Y436500D02*
D03*
X207500Y422500D02*
D03*
X217000D02*
D03*
X252500Y436500D02*
D03*
X270500Y437000D02*
D03*
X213866Y453866D02*
D03*
X204500Y454000D02*
D03*
X176071Y453429D02*
D03*
X157000Y454500D02*
D03*
X176000Y422500D02*
D03*
X192000Y417500D02*
D03*
X317500Y425000D02*
D03*
X309000Y408000D02*
D03*
X271500Y366500D02*
D03*
X271000Y362500D02*
D03*
X294500Y366000D02*
D03*
X282500Y387500D02*
D03*
X305000D02*
D03*
X142000Y393000D02*
D03*
X137000Y396000D02*
D03*
Y386000D02*
D03*
X141000D02*
D03*
X145500Y389000D02*
D03*
X155000Y393500D02*
D03*
X154500Y385500D02*
D03*
X141500Y367500D02*
D03*
X146000Y372500D02*
D03*
X137000D02*
D03*
Y363000D02*
D03*
X146000D02*
D03*
X340500Y409000D02*
D03*
X344000Y472000D02*
D03*
X395000Y384500D02*
D03*
X347500Y366500D02*
D03*
X195500Y197500D02*
D03*
X192000Y163500D02*
D03*
X214500D02*
D03*
X244500Y161500D02*
D03*
X324000Y259000D02*
D03*
X366500Y300000D02*
D03*
X341000D02*
D03*
X328500Y345500D02*
D03*
X336000Y318500D02*
D03*
X330000Y332000D02*
D03*
X316500Y328000D02*
D03*
X345500Y344500D02*
D03*
X315000Y343500D02*
D03*
X296000Y343000D02*
D03*
X287000D02*
D03*
X314000Y311000D02*
D03*
X322500Y306000D02*
D03*
X352500Y312000D02*
D03*
Y326000D02*
D03*
Y338000D02*
D03*
X323000Y291000D02*
D03*
X343000Y286000D02*
D03*
X373000Y284000D02*
D03*
X385500Y284500D02*
D03*
X261110Y422610D02*
D03*
X224500Y209500D02*
D03*
X219500Y214500D02*
D03*
X466500Y233500D02*
D03*
X403000Y469500D02*
D03*
X317000Y368000D02*
D03*
Y384500D02*
D03*
X237000Y437000D02*
D03*
X233500Y415000D02*
D03*
X196000Y279000D02*
D03*
X214500D02*
D03*
X246000Y423500D02*
D03*
X196000Y281500D02*
D03*
X214500D02*
D03*
X249500Y414500D02*
D03*
X196000Y284000D02*
D03*
X214500D02*
D03*
X239000Y413500D02*
D03*
X196000Y286500D02*
D03*
X214500D02*
D03*
X323500Y184500D02*
D03*
Y178000D02*
D03*
X329000Y146500D02*
D03*
X332500Y149500D02*
D03*
X314000Y290000D02*
D03*
X356500Y348000D02*
D03*
X217500Y208500D02*
D03*
X214000Y208000D02*
D03*
X201000Y209000D02*
D03*
X198500Y207000D02*
D03*
X335000Y421500D02*
D03*
X348000Y485500D02*
D03*
Y480000D02*
D03*
X345500Y388000D02*
D03*
X376000Y469500D02*
D03*
X422500Y476500D02*
D03*
X419000Y473000D02*
D03*
X383500Y485500D02*
D03*
X427000Y470500D02*
D03*
X420000D02*
D03*
X344000Y394500D02*
D03*
Y397500D02*
D03*
D65*
X415500Y166500D02*
D03*
X411000D02*
D03*
X162000Y385500D02*
D03*
X161500Y377000D02*
D03*
X411500Y229000D02*
D03*
X407000Y233500D02*
D03*
X427500Y243500D02*
D03*
X443500Y269500D02*
D03*
X442500Y273000D02*
D03*
X443500Y257500D02*
D03*
X443000Y239000D02*
D03*
X436000Y253500D02*
D03*
X426500Y232000D02*
D03*
X435500Y205500D02*
D03*
X429000Y196000D02*
D03*
X427500Y214000D02*
D03*
X436000Y221500D02*
D03*
X416000Y233500D02*
D03*
X403000Y250500D02*
D03*
X397500Y228000D02*
D03*
X402000Y234000D02*
D03*
X393500Y216500D02*
D03*
X391000Y199000D02*
D03*
X382500Y188500D02*
D03*
X383000Y176000D02*
D03*
X373000D02*
D03*
Y201500D02*
D03*
X363000D02*
D03*
X362500Y177000D02*
D03*
X353000Y177500D02*
D03*
Y201500D02*
D03*
X342500Y188000D02*
D03*
Y177500D02*
D03*
X342000Y201000D02*
D03*
X306500Y244500D02*
D03*
X306000Y233000D02*
D03*
X293000Y232500D02*
D03*
Y245000D02*
D03*
X275500Y245500D02*
D03*
Y232500D02*
D03*
X256000Y233000D02*
D03*
X256500Y245000D02*
D03*
X238500D02*
D03*
Y232500D02*
D03*
X218500Y233000D02*
D03*
Y244500D02*
D03*
Y258000D02*
D03*
X238000Y258500D02*
D03*
X256500D02*
D03*
X275000D02*
D03*
X292500Y259000D02*
D03*
X307000Y258500D02*
D03*
X306500Y273000D02*
D03*
X292500D02*
D03*
X274500Y273500D02*
D03*
X256500D02*
D03*
X238000Y274000D02*
D03*
X218000D02*
D03*
X229000Y301000D02*
D03*
X238500Y290500D02*
D03*
Y311500D02*
D03*
X218000Y290500D02*
D03*
X217500Y312500D02*
D03*
X267500Y358500D02*
D03*
X264000Y363000D02*
D03*
X298000Y380500D02*
D03*
X296500Y361000D02*
D03*
X282500Y355500D02*
D03*
X304500Y323000D02*
D03*
X305000Y311500D02*
D03*
Y301500D02*
D03*
Y292500D02*
D03*
X256500Y293500D02*
D03*
Y302500D02*
D03*
Y312500D02*
D03*
X163000Y350500D02*
D03*
Y358000D02*
D03*
X167500Y354500D02*
D03*
X452000Y295000D02*
D03*
X443500D02*
D03*
X428000D02*
D03*
X418000Y300500D02*
D03*
X420000Y295000D02*
D03*
X436500D02*
D03*
X454000Y300000D02*
D03*
X441000Y318000D02*
D03*
X171000Y350500D02*
D03*
Y358000D02*
D03*
D77*
X451724Y204150D02*
D03*
Y206118D02*
D03*
Y208087D02*
D03*
Y210055D02*
D03*
Y217929D02*
D03*
Y215961D02*
D03*
Y213992D02*
D03*
Y212024D02*
D03*
Y225803D02*
D03*
Y223835D02*
D03*
Y221866D02*
D03*
Y219898D02*
D03*
Y241551D02*
D03*
Y239583D02*
D03*
Y237614D02*
D03*
Y235646D02*
D03*
Y259268D02*
D03*
Y261236D02*
D03*
Y263205D02*
D03*
Y265173D02*
D03*
Y251394D02*
D03*
Y253362D02*
D03*
Y255331D02*
D03*
Y257299D02*
D03*
Y249425D02*
D03*
Y247457D02*
D03*
Y245488D02*
D03*
Y243520D02*
D03*
Y267142D02*
D03*
Y269110D02*
D03*
Y276984D02*
D03*
Y275016D02*
D03*
Y273047D02*
D03*
Y271079D02*
D03*
X422000Y205134D02*
D03*
Y207102D02*
D03*
Y209071D02*
D03*
Y211039D02*
D03*
Y213008D02*
D03*
Y214976D02*
D03*
Y224819D02*
D03*
Y222850D02*
D03*
Y220882D02*
D03*
Y218913D02*
D03*
Y216945D02*
D03*
Y252378D02*
D03*
Y250410D02*
D03*
Y248441D02*
D03*
Y246472D02*
D03*
Y244504D02*
D03*
Y242535D02*
D03*
Y240567D02*
D03*
Y238598D02*
D03*
Y236630D02*
D03*
Y234661D02*
D03*
Y262221D02*
D03*
Y260252D02*
D03*
Y258283D02*
D03*
Y256315D02*
D03*
Y254346D02*
D03*
Y272063D02*
D03*
Y270094D02*
D03*
Y268126D02*
D03*
Y266158D02*
D03*
Y264189D02*
D03*
Y276000D02*
D03*
Y274031D02*
D03*
D78*
X448673Y199819D02*
D03*
Y281315D02*
D03*
D79*
X382421Y361280D02*
D03*
Y476634D02*
D03*
D80*
X352500Y372500D02*
D03*
Y397697D02*
D03*
Y394547D02*
D03*
Y391398D02*
D03*
Y388248D02*
D03*
Y385098D02*
D03*
Y381949D02*
D03*
Y378799D02*
D03*
Y375650D02*
D03*
Y422894D02*
D03*
Y419744D02*
D03*
Y416595D02*
D03*
Y413445D02*
D03*
Y410295D02*
D03*
Y407146D02*
D03*
Y403996D02*
D03*
Y400846D02*
D03*
X384784Y374075D02*
D03*
Y377224D02*
D03*
Y402421D02*
D03*
Y399272D02*
D03*
Y396122D02*
D03*
Y392972D02*
D03*
Y389823D02*
D03*
Y386673D02*
D03*
Y383524D02*
D03*
Y380374D02*
D03*
Y427618D02*
D03*
Y424469D02*
D03*
Y421319D02*
D03*
Y418169D02*
D03*
Y415020D02*
D03*
Y411870D02*
D03*
Y408720D02*
D03*
Y405571D02*
D03*
X352500Y426043D02*
D03*
Y441791D02*
D03*
Y444941D02*
D03*
Y448091D02*
D03*
Y451240D02*
D03*
Y454390D02*
D03*
Y457539D02*
D03*
Y460689D02*
D03*
X384784Y443366D02*
D03*
Y446516D02*
D03*
Y449665D02*
D03*
Y452815D02*
D03*
Y455965D02*
D03*
Y459114D02*
D03*
Y462264D02*
D03*
X352500Y463839D02*
D03*
X384784Y465413D02*
D03*
D81*
X127500Y305000D02*
D03*
Y217000D02*
D03*
D82*
X148000Y471500D02*
D03*
D83*
X145000Y404000D02*
D03*
D84*
X144500Y437000D02*
D03*
D85*
X454000Y470685D02*
D03*
X444000D02*
D03*
X434000D02*
D03*
X454000Y401000D02*
D03*
X444000D02*
D03*
X434000D02*
D03*
D86*
X393693Y491937D02*
D03*
Y488000D02*
D03*
D87*
X386705Y489968D02*
D03*
D88*
X387000Y491937D02*
D03*
Y488000D02*
D03*
D89*
X146500Y378909D02*
D03*
Y354500D02*
D03*
D90*
X456921Y271079D02*
X458000Y270000D01*
X451724Y271079D02*
X456921D01*
X458327Y265173D02*
X458500Y265000D01*
X451724Y265173D02*
X458327D01*
X458232Y259268D02*
X458500Y259000D01*
X451724Y259268D02*
X458232D01*
X457862Y253362D02*
X458500Y254000D01*
X451724Y253362D02*
X457862D01*
X458606Y251394D02*
X459500Y250500D01*
X451724Y251394D02*
X458606D01*
X456925Y249425D02*
X457000Y249500D01*
X451724Y249425D02*
X456925D01*
X458000Y248000D02*
X460000D01*
X457457Y247457D02*
X458000Y248000D01*
X451724Y247457D02*
X457457D01*
X457988Y245488D02*
X458500Y246000D01*
X451724Y245488D02*
X457988D01*
X456949Y241551D02*
X458000Y240500D01*
X451724Y241551D02*
X456949D01*
X457854Y235646D02*
X458000Y235500D01*
X451724Y235646D02*
X457854D01*
X445500Y211610D02*
Y214000D01*
Y211610D02*
X447055Y210055D01*
X451724D01*
X445500Y205500D02*
X446850Y204150D01*
X451724D01*
X439000Y217500D02*
X442500Y221000D01*
X431500Y217500D02*
X439000D01*
X428118Y220882D02*
X431500Y217500D01*
X422000Y220882D02*
X428118D01*
D91*
X330500Y413000D02*
X334500Y417000D01*
X336531D01*
X336000Y409500D02*
X336531Y410032D01*
Y413000D01*
X361445Y413445D02*
X361500Y413500D01*
X352500Y413445D02*
X361445D01*
X361457Y426043D02*
X361500Y426000D01*
X352500Y426043D02*
X361457D01*
X361653Y400846D02*
X362000Y400500D01*
X352500Y400846D02*
X361653D01*
X361898Y391398D02*
X362000Y391500D01*
X352500Y391398D02*
X361898D01*
X332500Y372500D02*
X332500Y372500D01*
X338032D01*
X332500Y369000D02*
X332500Y369000D01*
X338032D01*
X359150Y375650D02*
X360500Y377000D01*
X352500Y375650D02*
X359150D01*
X376500Y386500D02*
X376673Y386673D01*
X384784D01*
X403000Y395500D02*
Y396500D01*
X400500Y393000D02*
X403000Y395500D01*
X398468Y393000D02*
X400500D01*
X403000Y386000D02*
Y387000D01*
X401000Y389000D02*
X403000Y387000D01*
X398468Y389000D02*
X401000D01*
X393000Y398000D02*
Y399000D01*
X391122Y396122D02*
X393000Y398000D01*
X384784Y396122D02*
X391122D01*
X376000Y399500D02*
X376228Y399272D01*
X384784D01*
X376000Y408500D02*
X376220Y408720D01*
X384784D01*
Y411870D02*
X392870D01*
X392819Y421319D02*
X393000Y421500D01*
X384784Y421319D02*
X392819D01*
X377000Y453000D02*
X377185Y452815D01*
X384784D01*
X392866Y443366D02*
X393000Y443500D01*
X384784Y443366D02*
X392866D01*
X345000Y458500D02*
Y459000D01*
X346689Y460689D01*
X352500D01*
X335000Y464000D02*
X335000Y464000D01*
X340032D01*
X335000Y469000D02*
X338531D01*
X340032Y467500D01*
X340469Y409031D02*
X340500Y409000D01*
X340469Y409031D02*
Y413000D01*
X345406Y416595D02*
X352500D01*
X345000Y417000D02*
X345406Y416595D01*
X340469Y417000D02*
X345000D01*
X340469Y413000D02*
Y417000D01*
X343969Y471969D02*
X344000Y472000D01*
X343969Y467500D02*
Y471969D01*
Y464000D02*
Y467500D01*
Y464000D02*
X344130Y463839D01*
X352500D01*
X384784Y389823D02*
Y392972D01*
X384811Y393000D01*
X394531D01*
Y389000D02*
Y393000D01*
Y384968D02*
X395000Y384500D01*
X394531Y384968D02*
Y389000D01*
X344468Y366500D02*
X347500D01*
X341968Y369000D02*
X344468Y366500D01*
X341968Y369000D02*
Y372500D01*
X341968Y372500D01*
X352500D01*
D92*
X143500D02*
D03*
D93*
X416750Y171500D02*
D03*
D94*
X419250Y193000D02*
D03*
D95*
X422250Y283250D02*
D03*
D96*
X436250Y297500D02*
D03*
D97*
X154000Y354250D02*
D03*
M02*
