G04 Layer_Color=16711935*
%FSLAX25Y25*%
%MOIN*%
G70*
G01*
G75*
%ADD12R,0.02362X0.02362*%
%ADD13R,0.02362X0.02362*%
%ADD14R,0.02362X0.01968*%
%ADD18O,0.05512X0.01378*%
%ADD20R,0.07874X0.03347*%
%ADD30R,0.03937X0.05118*%
%ADD38R,0.10236X0.04331*%
%ADD56P,0.16703X4X317.0*%
%ADD57C,0.10512*%
%ADD58R,0.06000X0.06000*%
%ADD59C,0.06000*%
%ADD60C,0.06693*%
%ADD61C,0.29134*%
%ADD62C,0.20866*%
%ADD63C,0.00787*%
%ADD64C,0.01800*%
%ADD65C,0.02600*%
%ADD79R,0.12598X0.09055*%
%ADD80R,0.07874X0.02362*%
%ADD81R,0.17323X0.21260*%
G04:AMPARAMS|DCode=82|XSize=212.6mil|YSize=173.23mil|CornerRadius=0mil|HoleSize=0mil|Usage=FLASHONLY|Rotation=110.000|XOffset=0mil|YOffset=0mil|HoleType=Round|Shape=Rectangle|*
%AMROTATEDRECTD82*
4,1,4,0.11775,-0.07026,-0.04503,-0.12951,-0.11775,0.07026,0.04503,0.12951,0.11775,-0.07026,0.0*
%
%ADD82ROTATEDRECTD82*%

G04:AMPARAMS|DCode=83|XSize=212.6mil|YSize=173.23mil|CornerRadius=0mil|HoleSize=0mil|Usage=FLASHONLY|Rotation=150.000|XOffset=0mil|YOffset=0mil|HoleType=Round|Shape=Rectangle|*
%AMROTATEDRECTD83*
4,1,4,0.13537,0.02186,0.04875,-0.12816,-0.13537,-0.02186,-0.04875,0.12816,0.13537,0.02186,0.0*
%
%ADD83ROTATEDRECTD83*%

G04:AMPARAMS|DCode=84|XSize=212.6mil|YSize=173.23mil|CornerRadius=0mil|HoleSize=0mil|Usage=FLASHONLY|Rotation=130.000|XOffset=0mil|YOffset=0mil|HoleType=Round|Shape=Rectangle|*
%AMROTATEDRECTD84*
4,1,4,0.13468,-0.02576,0.00198,-0.13710,-0.13468,0.02576,-0.00198,0.13710,0.13468,-0.02576,0.0*
%
%ADD84ROTATEDRECTD84*%

%ADD85R,0.07874X0.06299*%
%ADD86R,0.01968X0.01772*%
%ADD87R,0.02559X0.01181*%
%ADD88R,0.01968X0.01476*%
%ADD89R,0.20472X0.09055*%
%ADD105R,0.06902X0.01981*%
%ADD106R,0.11627X0.05524*%
D12*
X464000Y238032D02*
D03*
Y241968D02*
D03*
Y246532D02*
D03*
Y250468D02*
D03*
X306000Y352031D02*
D03*
Y355968D02*
D03*
X302000Y352031D02*
D03*
Y355968D02*
D03*
X397000Y469468D02*
D03*
Y465531D02*
D03*
D13*
X368000Y484000D02*
D03*
X371937D02*
D03*
X368032Y488500D02*
D03*
X371969D02*
D03*
X368032Y493000D02*
D03*
X371969D02*
D03*
X409031Y266000D02*
D03*
X412968D02*
D03*
X280469Y362500D02*
D03*
X276532D02*
D03*
X280469Y366500D02*
D03*
X276532D02*
D03*
X280469Y379500D02*
D03*
X276532D02*
D03*
X279969Y385000D02*
D03*
X276031D02*
D03*
X280469Y372000D02*
D03*
X276532D02*
D03*
D14*
X454032Y478500D02*
D03*
X457969D02*
D03*
X425531Y288000D02*
D03*
X429468D02*
D03*
X418469Y288000D02*
D03*
X414532D02*
D03*
X412968Y187500D02*
D03*
X409031D02*
D03*
X412968Y192000D02*
D03*
X409031D02*
D03*
X341968Y372500D02*
D03*
X338032D02*
D03*
X341968Y369000D02*
D03*
X338032D02*
D03*
X394531Y389000D02*
D03*
X398468D02*
D03*
X394531Y393000D02*
D03*
X398468D02*
D03*
X340469Y413000D02*
D03*
X336531D02*
D03*
X340469Y417000D02*
D03*
X336531D02*
D03*
X343969Y464000D02*
D03*
X340032D02*
D03*
X343969Y467500D02*
D03*
X340032D02*
D03*
X293000Y393000D02*
D03*
X289063D02*
D03*
X302031Y393000D02*
D03*
X305968D02*
D03*
D18*
X310024Y387016D02*
D03*
Y384457D02*
D03*
Y381898D02*
D03*
Y379339D02*
D03*
Y376780D02*
D03*
Y374220D02*
D03*
Y371661D02*
D03*
Y369102D02*
D03*
Y366543D02*
D03*
Y363984D02*
D03*
X287976Y387016D02*
D03*
Y384457D02*
D03*
Y381898D02*
D03*
Y379339D02*
D03*
Y376780D02*
D03*
Y374220D02*
D03*
Y371661D02*
D03*
Y369102D02*
D03*
Y366543D02*
D03*
Y363984D02*
D03*
D20*
X441000Y306248D02*
D03*
Y299752D02*
D03*
D30*
X255744Y371000D02*
D03*
X261256D02*
D03*
D38*
X429500Y309815D02*
D03*
Y299185D02*
D03*
D56*
X401000Y374500D02*
D03*
D57*
X398252Y453192D02*
D03*
D58*
X388000Y301000D02*
D03*
D59*
Y348244D02*
D03*
D60*
X448500Y151000D02*
D03*
X434721D02*
D03*
X448500Y178559D02*
D03*
X434721D02*
D03*
D61*
X323709Y443598D02*
D03*
X134732Y177850D02*
D03*
D62*
X179469Y371319D02*
D03*
X158122Y333087D02*
D03*
X179469Y466595D02*
D03*
X158122Y148047D02*
D03*
D63*
X128433Y438480D02*
D03*
X302449D02*
D03*
X330008Y181000D02*
D03*
X155992D02*
D03*
D64*
X158500Y220000D02*
D03*
X137000Y260500D02*
D03*
X137500Y248000D02*
D03*
X157500Y255500D02*
D03*
X170000Y244500D02*
D03*
X195500Y250000D02*
D03*
X174000Y233500D02*
D03*
X139000Y233000D02*
D03*
X143000Y227000D02*
D03*
X153000Y242500D02*
D03*
X165500Y232000D02*
D03*
X152500Y265000D02*
D03*
X191000Y218500D02*
D03*
X223500D02*
D03*
X231500Y217500D02*
D03*
X183500Y218000D02*
D03*
X206500Y209500D02*
D03*
X210000Y208000D02*
D03*
X263000Y205000D02*
D03*
X179000Y212000D02*
D03*
X253500Y206500D02*
D03*
X173500Y210000D02*
D03*
Y202500D02*
D03*
X250500Y180000D02*
D03*
X260500Y150500D02*
D03*
X165000Y210000D02*
D03*
X251000Y196000D02*
D03*
X312500Y354000D02*
D03*
X445000Y225500D02*
D03*
X464000Y255000D02*
D03*
X458000Y270000D02*
D03*
X458500Y265000D02*
D03*
Y259000D02*
D03*
Y254000D02*
D03*
X459500Y250500D02*
D03*
X457000Y249500D02*
D03*
X460000Y248000D02*
D03*
X458500Y246000D02*
D03*
X458000Y240500D02*
D03*
Y235500D02*
D03*
X445500Y214000D02*
D03*
Y205500D02*
D03*
X442500Y221000D02*
D03*
X410500Y292000D02*
D03*
X436500Y288500D02*
D03*
X429500Y317000D02*
D03*
X416000Y310000D02*
D03*
X464000Y401000D02*
D03*
X463000Y478500D02*
D03*
X330500Y413000D02*
D03*
X336000Y409500D02*
D03*
X361500Y413500D02*
D03*
Y426000D02*
D03*
X362000Y400500D02*
D03*
Y391500D02*
D03*
X332500Y372500D02*
D03*
Y369000D02*
D03*
X360500Y377000D02*
D03*
X376500Y386500D02*
D03*
X403000Y396500D02*
D03*
Y386000D02*
D03*
X393000Y399000D02*
D03*
X376000Y399500D02*
D03*
Y408500D02*
D03*
X392870Y411870D02*
D03*
X393000Y421500D02*
D03*
X383500Y490000D02*
D03*
X380000Y491500D02*
D03*
X377000Y453000D02*
D03*
X393000Y443500D02*
D03*
X345000Y458500D02*
D03*
X335000Y464000D02*
D03*
Y469000D02*
D03*
X324500Y263000D02*
D03*
X320500Y271000D02*
D03*
X409000Y285500D02*
D03*
X398000D02*
D03*
X406000Y160000D02*
D03*
X240500Y150000D02*
D03*
X237000Y150000D02*
D03*
X212000Y150500D02*
D03*
X208500D02*
D03*
X190000Y150000D02*
D03*
X186500D02*
D03*
X187000Y206500D02*
D03*
X191500D02*
D03*
X223000Y471000D02*
D03*
X264500Y213000D02*
D03*
X275000Y202500D02*
D03*
X286500Y150000D02*
D03*
X296500Y155063D02*
D03*
X311000Y150500D02*
D03*
X317500D02*
D03*
X361500Y143500D02*
D03*
X298500Y179500D02*
D03*
X282500Y165000D02*
D03*
X260000Y197500D02*
D03*
X160500Y422500D02*
D03*
X170000Y436500D02*
D03*
X207500Y422500D02*
D03*
X217000D02*
D03*
X252500Y436500D02*
D03*
X270500Y437000D02*
D03*
X213866Y453866D02*
D03*
X204500Y454000D02*
D03*
X176071Y453429D02*
D03*
X157000Y454500D02*
D03*
X176000Y422500D02*
D03*
X192000Y417500D02*
D03*
X317500Y425000D02*
D03*
X309000Y408000D02*
D03*
X271500Y366500D02*
D03*
X271000Y362500D02*
D03*
X294500Y366000D02*
D03*
X282500Y387500D02*
D03*
X305000D02*
D03*
X142000Y393000D02*
D03*
X137000Y396000D02*
D03*
Y386000D02*
D03*
X141000D02*
D03*
X145500Y389000D02*
D03*
X155000Y393500D02*
D03*
X154500Y385500D02*
D03*
X141500Y367500D02*
D03*
X146000Y372500D02*
D03*
X137000D02*
D03*
Y363000D02*
D03*
X146000D02*
D03*
X340500Y409000D02*
D03*
X344000Y472000D02*
D03*
X395000Y384500D02*
D03*
X347500Y366500D02*
D03*
X195500Y197500D02*
D03*
X192000Y163500D02*
D03*
X214500D02*
D03*
X244500Y161500D02*
D03*
X324000Y259000D02*
D03*
X366500Y300000D02*
D03*
X341000D02*
D03*
X328500Y345500D02*
D03*
X336000Y318500D02*
D03*
X330000Y332000D02*
D03*
X316500Y328000D02*
D03*
X345500Y344500D02*
D03*
X315000Y343500D02*
D03*
X296000Y343000D02*
D03*
X287000D02*
D03*
X314000Y311000D02*
D03*
X322500Y306000D02*
D03*
X352500Y312000D02*
D03*
Y326000D02*
D03*
Y338000D02*
D03*
X323000Y291000D02*
D03*
X343000Y286000D02*
D03*
X373000Y284000D02*
D03*
X385500Y284500D02*
D03*
X261110Y422610D02*
D03*
X224500Y209500D02*
D03*
X219500Y214500D02*
D03*
X466500Y233500D02*
D03*
X403000Y469500D02*
D03*
X317000Y368000D02*
D03*
Y384500D02*
D03*
X237000Y437000D02*
D03*
X233500Y415000D02*
D03*
X196000Y279000D02*
D03*
X214500D02*
D03*
X246000Y423500D02*
D03*
X196000Y281500D02*
D03*
X214500D02*
D03*
X249500Y414500D02*
D03*
X196000Y284000D02*
D03*
X214500D02*
D03*
X239000Y413500D02*
D03*
X196000Y286500D02*
D03*
X214500D02*
D03*
X323500Y184500D02*
D03*
Y178000D02*
D03*
X329000Y146500D02*
D03*
X332500Y149500D02*
D03*
X314000Y290000D02*
D03*
X356500Y348000D02*
D03*
X217500Y208500D02*
D03*
X214000Y208000D02*
D03*
X201000Y209000D02*
D03*
X198500Y207000D02*
D03*
X335000Y421500D02*
D03*
X348000Y485500D02*
D03*
Y480000D02*
D03*
X345500Y388000D02*
D03*
X376000Y469500D02*
D03*
X422500Y476500D02*
D03*
X419000Y473000D02*
D03*
X383500Y485500D02*
D03*
X427000Y470500D02*
D03*
X420000D02*
D03*
X344000Y394500D02*
D03*
Y397500D02*
D03*
D65*
X415500Y166500D02*
D03*
X411000D02*
D03*
X162000Y385500D02*
D03*
X161500Y377000D02*
D03*
X411500Y229000D02*
D03*
X407000Y233500D02*
D03*
X427500Y243500D02*
D03*
X443500Y269500D02*
D03*
X442500Y273000D02*
D03*
X443500Y257500D02*
D03*
X443000Y239000D02*
D03*
X436000Y253500D02*
D03*
X426500Y232000D02*
D03*
X435500Y205500D02*
D03*
X429000Y196000D02*
D03*
X427500Y214000D02*
D03*
X436000Y221500D02*
D03*
X416000Y233500D02*
D03*
X403000Y250500D02*
D03*
X397500Y228000D02*
D03*
X402000Y234000D02*
D03*
X393500Y216500D02*
D03*
X391000Y199000D02*
D03*
X382500Y188500D02*
D03*
X383000Y176000D02*
D03*
X373000D02*
D03*
Y201500D02*
D03*
X363000D02*
D03*
X362500Y177000D02*
D03*
X353000Y177500D02*
D03*
Y201500D02*
D03*
X342500Y188000D02*
D03*
Y177500D02*
D03*
X342000Y201000D02*
D03*
X306500Y244500D02*
D03*
X306000Y233000D02*
D03*
X293000Y232500D02*
D03*
Y245000D02*
D03*
X275500Y245500D02*
D03*
Y232500D02*
D03*
X256000Y233000D02*
D03*
X256500Y245000D02*
D03*
X238500D02*
D03*
Y232500D02*
D03*
X218500Y233000D02*
D03*
Y244500D02*
D03*
Y258000D02*
D03*
X238000Y258500D02*
D03*
X256500D02*
D03*
X275000D02*
D03*
X292500Y259000D02*
D03*
X307000Y258500D02*
D03*
X306500Y273000D02*
D03*
X292500D02*
D03*
X274500Y273500D02*
D03*
X256500D02*
D03*
X238000Y274000D02*
D03*
X218000D02*
D03*
X229000Y301000D02*
D03*
X238500Y290500D02*
D03*
Y311500D02*
D03*
X218000Y290500D02*
D03*
X217500Y312500D02*
D03*
X267500Y358500D02*
D03*
X264000Y363000D02*
D03*
X298000Y380500D02*
D03*
X296500Y361000D02*
D03*
X282500Y355500D02*
D03*
X304500Y323000D02*
D03*
X305000Y311500D02*
D03*
Y301500D02*
D03*
Y292500D02*
D03*
X256500Y293500D02*
D03*
Y302500D02*
D03*
Y312500D02*
D03*
X163000Y350500D02*
D03*
Y358000D02*
D03*
X167500Y354500D02*
D03*
X452000Y295000D02*
D03*
X443500D02*
D03*
X428000D02*
D03*
X418000Y300500D02*
D03*
X420000Y295000D02*
D03*
X436500D02*
D03*
X454000Y300000D02*
D03*
X441000Y318000D02*
D03*
X171000Y350500D02*
D03*
Y358000D02*
D03*
D79*
X382421Y361280D02*
D03*
Y476634D02*
D03*
D80*
X352500Y372500D02*
D03*
Y397697D02*
D03*
Y394547D02*
D03*
Y391398D02*
D03*
Y388248D02*
D03*
Y385098D02*
D03*
Y381949D02*
D03*
Y378799D02*
D03*
Y375650D02*
D03*
Y422894D02*
D03*
Y419744D02*
D03*
Y416595D02*
D03*
Y413445D02*
D03*
Y410295D02*
D03*
Y407146D02*
D03*
Y403996D02*
D03*
Y400846D02*
D03*
X384784Y374075D02*
D03*
Y377224D02*
D03*
Y402421D02*
D03*
Y399272D02*
D03*
Y396122D02*
D03*
Y392972D02*
D03*
Y389823D02*
D03*
Y386673D02*
D03*
Y383524D02*
D03*
Y380374D02*
D03*
Y427618D02*
D03*
Y424469D02*
D03*
Y421319D02*
D03*
Y418169D02*
D03*
Y415020D02*
D03*
Y411870D02*
D03*
Y408720D02*
D03*
Y405571D02*
D03*
X352500Y426043D02*
D03*
Y441791D02*
D03*
Y444941D02*
D03*
Y448091D02*
D03*
Y451240D02*
D03*
Y454390D02*
D03*
Y457539D02*
D03*
Y460689D02*
D03*
X384784Y443366D02*
D03*
Y446516D02*
D03*
Y449665D02*
D03*
Y452815D02*
D03*
Y455965D02*
D03*
Y459114D02*
D03*
Y462264D02*
D03*
X352500Y463839D02*
D03*
X384784Y465413D02*
D03*
D81*
X127500Y305000D02*
D03*
Y217000D02*
D03*
D82*
X148000Y471500D02*
D03*
D83*
X145000Y404000D02*
D03*
D84*
X144500Y437000D02*
D03*
D85*
X454000Y470685D02*
D03*
X444000D02*
D03*
X434000D02*
D03*
X454000Y401000D02*
D03*
X444000D02*
D03*
X434000D02*
D03*
D86*
X393693Y491937D02*
D03*
Y488000D02*
D03*
D87*
X386705Y489968D02*
D03*
D88*
X387000Y491937D02*
D03*
Y488000D02*
D03*
D89*
X146500Y378909D02*
D03*
Y354500D02*
D03*
D105*
X451724Y204150D02*
D03*
Y206118D02*
D03*
Y208087D02*
D03*
Y210055D02*
D03*
Y217929D02*
D03*
Y215961D02*
D03*
Y213992D02*
D03*
Y212024D02*
D03*
Y225803D02*
D03*
Y223835D02*
D03*
Y221866D02*
D03*
Y219898D02*
D03*
Y241551D02*
D03*
Y239583D02*
D03*
Y237614D02*
D03*
Y235646D02*
D03*
Y259268D02*
D03*
Y261236D02*
D03*
Y263205D02*
D03*
Y265173D02*
D03*
Y251394D02*
D03*
Y253362D02*
D03*
Y255331D02*
D03*
Y257299D02*
D03*
Y249425D02*
D03*
Y247457D02*
D03*
Y245488D02*
D03*
Y243520D02*
D03*
Y267142D02*
D03*
Y269110D02*
D03*
Y276984D02*
D03*
Y275016D02*
D03*
Y273047D02*
D03*
Y271079D02*
D03*
X422000Y205134D02*
D03*
Y207102D02*
D03*
Y209071D02*
D03*
Y211039D02*
D03*
Y213008D02*
D03*
Y214976D02*
D03*
Y224819D02*
D03*
Y222850D02*
D03*
Y220882D02*
D03*
Y218913D02*
D03*
Y216945D02*
D03*
Y252378D02*
D03*
Y250410D02*
D03*
Y248441D02*
D03*
Y246472D02*
D03*
Y244504D02*
D03*
Y242535D02*
D03*
Y240567D02*
D03*
Y238598D02*
D03*
Y236630D02*
D03*
Y234661D02*
D03*
Y262221D02*
D03*
Y260252D02*
D03*
Y258283D02*
D03*
Y256315D02*
D03*
Y254346D02*
D03*
Y272063D02*
D03*
Y270094D02*
D03*
Y268126D02*
D03*
Y266158D02*
D03*
Y264189D02*
D03*
Y276000D02*
D03*
Y274031D02*
D03*
D106*
X448673Y199819D02*
D03*
Y281315D02*
D03*
M02*
