G04 Layer_Physical_Order=2*
G04 Layer_Color=32768*
%FSLAX25Y25*%
%MOIN*%
G70*
G01*
G75*
%ADD45C,0.01500*%
%ADD48C,0.04000*%
%ADD66C,0.11906*%
%ADD67C,0.08756*%
%ADD68C,0.10724*%
%ADD69C,0.23323*%
%ADD70C,0.12693*%
%ADD71C,0.12299*%
%ADD72C,0.17811*%
%ADD73C,0.09150*%
%ADD74C,0.06800*%
%ADD75C,0.07600*%
D45*
X367750Y310750D02*
X390500Y288000D01*
X418500D01*
X426563Y279937D01*
X441063D01*
X446000Y275000D01*
Y231500D02*
Y275000D01*
X439500Y225000D02*
X446000Y231500D01*
X439500Y207000D02*
Y225000D01*
Y207000D02*
X457000Y189500D01*
Y179000D02*
Y189500D01*
X434721Y176221D02*
Y178559D01*
X430500Y172000D02*
X434721Y176221D01*
X341500Y172000D02*
X430500D01*
X337500Y176000D02*
X341500Y172000D01*
X337500Y176000D02*
Y280500D01*
X398000Y341000D01*
X483800D01*
X348000Y389000D02*
X358000D01*
Y406709D01*
X348000D02*
X358000D01*
X323709D02*
X348000D01*
X157000Y404500D02*
X181000D01*
X196500Y389000D01*
X332500Y150500D02*
X435000D01*
X316000Y167000D02*
X332500Y150500D01*
X265500Y217500D02*
X316000Y167000D01*
X201500Y217500D02*
X265500D01*
X157000Y262000D02*
X201500Y217500D01*
X157000Y262000D02*
Y404500D01*
X196500Y389000D02*
X348000D01*
X323709Y406709D02*
Y443598D01*
Y500991D01*
D48*
X120000Y505200D02*
G03*
X124000Y501200I4000J0D01*
G01*
X459800D02*
G03*
X463800Y505200I0J4000D01*
G01*
Y120000D02*
G03*
X459800Y124000I-4000J0D01*
G01*
X124000D02*
G03*
X120000Y120000I0J-4000D01*
G01*
X124000Y124000D02*
X459800D01*
X124000Y501200D02*
X459800D01*
X100000Y107900D02*
X120000D01*
Y120000D01*
X463800Y107900D02*
Y120000D01*
Y107900D02*
X483800D01*
Y517300D01*
X463800D02*
X483800D01*
X463800Y505200D02*
Y517300D01*
X120000Y505200D02*
Y517300D01*
X100000D02*
X120000D01*
X100000Y107900D02*
Y517300D01*
D66*
X401000Y374500D02*
D03*
D67*
X388000Y301000D02*
D03*
D68*
X434721Y151000D02*
D03*
Y178559D02*
D03*
X430957Y201197D02*
D03*
X368642Y369744D02*
D03*
X128433Y438480D02*
D03*
X155992Y181000D02*
D03*
D69*
X323709Y443598D02*
D03*
X134732Y177850D02*
D03*
D70*
X430957Y279937D02*
D03*
D71*
X368642Y468169D02*
D03*
D72*
X179469Y371319D02*
D03*
X158122Y333087D02*
D03*
X179469Y466595D02*
D03*
X158122Y148047D02*
D03*
D73*
X302449Y438480D02*
D03*
X330008Y181000D02*
D03*
D74*
X137500Y248000D02*
D03*
X170000Y244500D02*
D03*
X195500Y250000D02*
D03*
X152500Y265000D02*
D03*
X191000Y218500D02*
D03*
X223500D02*
D03*
X231500Y217500D02*
D03*
X183500Y218000D02*
D03*
X206500Y209500D02*
D03*
X210000Y208000D02*
D03*
X263000Y205000D02*
D03*
X179000Y212000D02*
D03*
X253500Y206500D02*
D03*
X173500Y210000D02*
D03*
Y202500D02*
D03*
X250500Y180000D02*
D03*
X260500Y150500D02*
D03*
X165000Y210000D02*
D03*
X251000Y196000D02*
D03*
X380000Y491500D02*
D03*
X142000Y393000D02*
D03*
X137000Y396000D02*
D03*
Y386000D02*
D03*
X141000D02*
D03*
X145500Y389000D02*
D03*
X155000Y393500D02*
D03*
X154500Y385500D02*
D03*
X141500Y367500D02*
D03*
X146000Y372500D02*
D03*
X137000D02*
D03*
Y363000D02*
D03*
X146000D02*
D03*
X340500Y409000D02*
D03*
X344000Y472000D02*
D03*
X395000Y384500D02*
D03*
X347500Y366500D02*
D03*
X195500Y197500D02*
D03*
X192000Y163500D02*
D03*
X214500D02*
D03*
X244500Y161500D02*
D03*
X324000Y259000D02*
D03*
X366500Y300000D02*
D03*
X341000D02*
D03*
X328500Y345500D02*
D03*
X336000Y318500D02*
D03*
X330000Y332000D02*
D03*
X316500Y328000D02*
D03*
X345500Y344500D02*
D03*
X315000Y343500D02*
D03*
X296000Y343000D02*
D03*
X287000D02*
D03*
X314000Y311000D02*
D03*
X322500Y306000D02*
D03*
X352500Y312000D02*
D03*
Y326000D02*
D03*
Y338000D02*
D03*
X323000Y291000D02*
D03*
X343000Y286000D02*
D03*
X373000Y284000D02*
D03*
X385500Y284500D02*
D03*
X261110Y422610D02*
D03*
X224500Y209500D02*
D03*
X219500Y214500D02*
D03*
X466500Y233500D02*
D03*
X403000Y469500D02*
D03*
X317000Y368000D02*
D03*
Y384500D02*
D03*
X237000Y437000D02*
D03*
X233500Y415000D02*
D03*
X196000Y279000D02*
D03*
X214500D02*
D03*
X246000Y423500D02*
D03*
X196000Y281500D02*
D03*
X214500D02*
D03*
X249500Y414500D02*
D03*
X196000Y284000D02*
D03*
X214500D02*
D03*
X239000Y413500D02*
D03*
X196000Y286500D02*
D03*
X214500D02*
D03*
X323500Y184500D02*
D03*
Y178000D02*
D03*
X329000Y146500D02*
D03*
X332500Y149500D02*
D03*
X314000Y290000D02*
D03*
X356500Y348000D02*
D03*
X217500Y208500D02*
D03*
X214000Y208000D02*
D03*
X201000Y209000D02*
D03*
X198500Y207000D02*
D03*
X335000Y421500D02*
D03*
X348000Y485500D02*
D03*
Y480000D02*
D03*
X345500Y388000D02*
D03*
X376000Y469500D02*
D03*
X422500Y476500D02*
D03*
X419000Y473000D02*
D03*
X383500Y485500D02*
D03*
X427000Y470500D02*
D03*
X420000D02*
D03*
X344000Y394500D02*
D03*
Y397500D02*
D03*
D75*
X415500Y166500D02*
D03*
X411000D02*
D03*
X163000Y350500D02*
D03*
Y358000D02*
D03*
X167500Y354500D02*
D03*
X452000Y295000D02*
D03*
X443500D02*
D03*
X428000D02*
D03*
X418000Y300500D02*
D03*
X420000Y295000D02*
D03*
X436500D02*
D03*
X454000Y300000D02*
D03*
X441000Y318000D02*
D03*
X171000Y350500D02*
D03*
Y358000D02*
D03*
M02*
