M48
;Layer_Color=9474304
;FILE_FORMAT=2:5
INCH,TZ
;TYPE=PLATED
T1F00S00C0.00800
T2F00S00C0.04724
T3F00S00C0.17323
;TYPE=NON_PLATED
T4F00S00C0.02756
%
T01
X104000Y103000
X135000Y103500
X103000Y138000
X191500Y139000
X197500Y130500
X191000Y153500
X175000Y117000
X216000Y113000
Y103000
X225500Y118000
X304500Y117000
X305000Y102500
X308000Y135000
X307500Y155000
X321000Y148500
Y141500
Y127500
X333000Y135000
Y155000
X368000Y144500
X382500Y119000
X497500Y120000
X499500Y102500
X515500Y124500
X569000Y122500
X559000Y138000
X579500Y137500
X569000Y152500
X598500Y153500
X624000Y154500
X612500Y138000
X623500Y122500
X626500Y120500
X630000Y119000
X637000Y118500
X638500Y122500
X639000Y126500
X645000
X645500Y123000
X646000Y118500
X645500Y113000
X640000Y109500
X638000Y107500
X636000Y104000
X626500Y111000
X635500Y137500
X657000Y136500
X663500Y129500
X668000Y129000
Y120500
X670500Y118000
X690500Y124000
X689000Y136500
Y143000
X680000Y139500
X667500Y144500
X647500Y156000
X701500Y136500
X704500Y126000
Y123000
Y120500
Y118000
X700000Y114500
X713000Y116000
X712500Y120500
Y123000
X716000Y125500
X719500Y129000
X714000Y133000
X720000Y143000
X729000Y149500
X741000Y143500
X742500Y137000
X735000Y133500
X732000Y115500
X713500Y108000
X767500Y122000
X768000Y134000
X755500Y137000
X745500Y152500
X774500Y115000
X789000Y123500
X803000Y132500
X792500Y145500
X793500Y155500
X800500
X831000Y155000
X840000Y149500
Y146500
Y144000
X848500Y146500
Y149500
X855500Y155000
X860000
X856500Y139000
X862500Y136500
X860000Y131000
X861500Y122500
X865500
X869500Y126500
X872500Y113000
X868500Y109500
X880500Y108500
X881000Y116000
X884000
X887000Y113500
X887500Y124500
X884500Y123500
X893000Y125000
X882000Y132500
X885000Y136000
X872000Y145500
X848000Y137000
X844000Y128000
X847500Y119500
X828000Y119000
X826000Y122000
X830500Y129500
X822000Y113000
X817500Y115500
X926500Y105000
X901000Y184000
X896500Y184500
X889500
X888500Y177500
X880000Y175000
X881500Y187000
X876500Y187500
X872500Y201000
X873000Y208000
X896500Y194000
X876524Y159653
X863000Y168500
X851500Y171000
X849500Y167500
X840000Y165000
X835000Y158000
X829000Y170500
X825500Y180000
X821500Y178500
X816000Y180000
X815500Y173000
X811000Y176500
X796524Y165000
X799500Y161500
X800500Y158500
X793500
X792000Y161500
X831500Y190000
X831000Y200500
X824500
Y211500
X826500Y213500
X821000Y210500
X812000Y228000
X809500Y226500
X806500Y225000
X802000Y229000
X816500Y234000
X820500Y259500
X816000Y263500
Y267000
X815000Y269500
X816000Y277000
X822500Y280500
X811000Y285500
X799000Y284500
X783500Y286500
X782000Y291500
X830500Y300000
X836500Y295000
X847000
X843500Y286500
Y278500
X840000Y280500
X841500Y273000
X839000Y270000
X847000Y275000
X849500Y282000
X857500Y287500
X872500Y283000
X881500Y284500
X883500Y282500
X888000Y287000
X886000Y289000
X880500Y295500
X879500Y308000
X878000Y276000
X894000Y260000
X883500Y241000
X867500Y242000
X861000Y237000
X854000Y241500
X851000Y252000
Y258000
X846500Y263000
X840000Y253500
X830500Y250000
X863500
X913500Y271500
X846500Y184000
X761500Y190000
X751000Y197500
X752000Y209500
X738500Y217000
X735500
X746500Y233000
X730500Y239500
X727500Y248000
X717500Y250000
X720000Y266500
X725500Y263000
X738500Y263500
X744000Y267000
X750500Y273500
X759000Y274500
Y272000
Y269000
Y266500
Y263500
X757000Y260000
X755500Y254000
X771500Y259500
X773000Y291500
Y297500
X754500Y296500
X755500Y291500
X745500
X744000Y296500
X747000Y285500
X756000Y281500
X715500Y288500
X704500Y284000
X689500Y299000
X657500Y295500
X658500Y270500
X647000Y244000
X639000Y240000
Y235500
X650500Y232000
X649000Y222000
Y210000
X637000
Y222000
X625500Y217500
X626500Y232500
Y187000
X634500Y188000
X641500Y189500
X648000Y188000
X656000Y203000
X664500
X672500Y210000
Y214500
X663500Y222000
X693000Y214000
X704000Y213000
Y226000
X695000Y228000
X723000Y198500
X720500Y170000
X725500Y161000
X730000Y158500
X735500Y161500
X738500
X741000Y158500
X744500Y161500
X704000Y160000
X687500Y161000
X690500Y169500
X663500Y179500
X657000Y165000
X637000Y159000
X625500Y299500
X630000Y304500
X738500Y249500
X771000Y216000
X623000Y218500
X618000Y230000
X608500Y229500
X591000Y227000
X585000Y197500
X594000Y188500
X598000Y186000
X602500Y174000
X584500Y170500
X604531Y197531
X618000Y188500
X623000Y246500
X613500Y289000
X607000Y299500
X588000Y310000
X587500Y289000
X582000Y280500
X585000Y267500
X575000Y265000
X472500Y289000
X469000Y299500
X466000Y296000
X463000Y294500
X462500Y298000
Y301500
X462000Y291500
X454000
X451000Y293500
X447500Y295000
X443500Y294000
X450500Y298000
Y301500
Y305000
Y308000
X451000Y312000
X447500
X454500Y283000
X367500Y293000
X367000Y298000
Y301500
Y305000
Y308000
X350000
Y305000
Y301500
Y298000
X350500Y292000
X331500Y274500
X332500Y248000
X333000Y238000
X349500Y233500
X348000Y216000
X349000Y203500
X331000Y205000
X320000Y211000
X327669Y222000
X321500Y255500
X367500Y225000
X367000Y212000
X370000Y202500
X387500Y205000
X389000Y211500
X416000Y220500
X412500Y195500
X323500Y179500
X321000Y161500
X338000Y164000
X302500Y171500
X305500Y176500
X297500Y181000
X288000Y177000
X280000Y180000
X274500Y184000
X271000Y199000
X278000
X290000Y201500
X297500Y211000
X306000Y205500
X311500
X284500Y217000
X252000Y215500
X250500Y226500
X248500Y236500
X248000Y260500
X249000Y264000
X248000Y276000
Y280000
Y283000
X247500Y287000
X230500Y287500
X232000Y283000
Y280000
Y276000
X226000Y260500
X226500Y250000
X217500
X221500Y226000
X230000Y223000
X210500Y220500
X205500Y229500
X199500Y226500
X194500Y227000
X187000Y222500
X176000Y212000
X166500Y224000
X158000Y217000
X167500Y257500
X189500Y259000
Y253000
X188000Y245500
X203000Y203000
X206000Y193500
Y187500
Y181000
X191000Y167500
X252000Y188000
X262500Y204000
X133500Y361500
X126500Y356000
X144000Y392000
X149000
X153000
X146500Y405000
X133000Y408000
X145000Y423000
X156000Y419500
X104000Y422500
X161500Y419500
X167500
X174000Y419000
X181000
X175000Y407500
X168500
X162000
X156500
X167000Y392000
X171000
X175000
X187000Y406000
X231500Y405500
Y410500
X229500Y416000
X230500Y422500
Y425000
X248000
X251000Y427500
X248000Y436000
X247500Y417000
X247000Y410500
X249000Y406000
X248500Y325500
Y321500
X231000Y320500
X230000Y325500
X229500Y331500
X166500Y329500
Y322500
X157500Y324500
X161000Y429500
X311000Y329000
X317000Y321500
X349500Y312500
X368000Y314000
X376500Y361000
X379500Y367500
X396000Y358500
X404500Y351500
X425500Y352000
X431500Y351500
X435500
X431500Y343000
X435000Y334000
X446500Y331000
X449500
X463000Y328500
X467500Y347500
X456500Y357500
X459000Y377500
X454500Y382000
X441000Y377500
X440000Y401500
X443500
X436500Y399500
X436000Y416500
X440000Y416000
X446500Y419500
X464000Y423000
X461000Y400000
X435000Y431000
X426000Y430500
X421500
X418500Y432000
X415000Y430500
X410500
X406500Y431000
X401500Y429500
X399000Y432000
X393000Y430500
X382500Y428000
X383500Y434000
X386500Y438500
X401500Y444000
X404500
X411500Y443500
X407000Y451000
X399000Y454500
X393500
X402500Y466000
X424500Y456000
X427000Y453000
X422500Y450000
X420500Y452000
X422500Y445500
X411000Y416500
X407000
X403000
X399000
X391000Y415000
X386000Y402500
X400000Y388500
X404000Y390500
X395500Y381000
X365000Y382000
X367000Y387000
X359500Y379000
X349000Y355000
X335000Y405500
X370500Y433500
X472500Y425500
X478000Y424000
X480500Y427000
X483500
X486728
X490000
X494000
X499500Y433500
X494000Y447500
X494500Y463500
X499500Y468000
X512000Y463500
X519500Y468000
X528500Y433500
X554500Y430500
X559000
X566000Y433000
X565500Y393500
X559000Y395000
X553500Y394000
X554000Y365000
X559000Y363000
Y355500
X553500Y352500
X566000Y365000
X572500Y341500
X588500Y337000
X596000Y367000
X608500Y394000
X613500Y396000
X616500Y423500
X623500Y425000
X620000Y436000
X608500Y432000
X501500Y393000
X494000Y399500
X490000
X485500
X481000
X474000Y400000
X469500Y401000
X470500Y377000
X483500Y363000
X486500
X490000
X494500Y365500
X490000Y355500
X487000
X483500
X480500Y346000
X473000Y331500
X472000Y443500
X480500Y457500
X646000Y465000
X663500Y455000
X661000Y442500
X632500Y432000
X628500Y427000
X626000Y393000
Y378500
X631500Y380500
X641500Y387500
Y391000
X649000
Y387500
X649500Y383000
X671500Y385000
X683000Y385500
X684000Y383000
X683500Y390000
Y393000
Y397000
Y401500
X697000Y402000
Y399500
X697500Y395500
Y391500
Y388000
X697000Y384500
X696500Y380000
X696000Y377500
X699000Y371000
X711500Y372000
Y383500
Y387000
X719000Y383500
X726000Y388500
X737000Y384000
X740500Y385500
Y378500
X744500
Y373000
X739500
X743500Y366000
X729000Y364500
X734000Y378500
X743000Y390500
X768500Y377500
X764000Y370500
X778500Y371500
X780000Y380000
X778000Y359000
X773000Y358000
X772500Y344500
X764500Y345000
X667000Y357000
X666000Y369500
X644500Y356000
X639500Y341500
X653500Y336000
X651500Y326000
X664500Y325500
X636000Y322500
X646000Y404000
X707000Y415500
X726000Y424000
X778500Y454500
X783000Y440500
X790000Y379000
Y373500
X787000Y371500
X783500
X794000
X798500
X800000Y365500
X797500Y358500
X794000
X790000
X786000
X782500
Y345000
X788500Y344500
X794500Y346000
X799500
X814000Y367000
X798500Y382000
X861000Y406000
X881000Y451000
Y514500
X875500Y511500
X866500
X857500Y506000
X858000Y517500
X848000Y511500
X833500
X832500Y517000
X832000Y502500
X836500Y496000
X837000Y582500
X847000
X850500Y578500
X866500Y581000
X865500Y585500
Y590500
Y594500
X865000Y602000
X865500Y606000
X878500Y594500
Y589000
Y585000
Y580000
X877500Y574500
X865000Y564000
X876500Y620500
X925000Y607500
X925500Y572500
X706000Y602000
X683000Y596500
X686000Y620000
X721000
X700000Y532000
X684000Y543500
X662500Y553000
X648000
X643500
X639000
X634500
X637500Y538500
X641500
X646000
Y517500
X647000Y511500
Y506500
X657500
X657000Y511500
X657500Y524000
X661000Y567000
X664500
X636000Y596000
X730000Y517000
X619000
X620000Y529000
X546500Y517500
X538000Y504500
X526500Y494500
X521000Y492500
X520500Y529000
X485500Y530500
X477500
X476500Y524500
X486500Y523500
X477000Y493500
X476500Y558000
X488500Y561500
X537500Y622000
X554000Y476500
X565500Y482000
X449000Y489000
X441500Y478000
X465500Y517000
X400500Y533500
X380000Y568500
X375000
X370500
X366500
X357000Y565500
X361000Y582500
X367000Y582000
X371000
X375000
X378500
X388000
X387500Y595500
X381500Y596000
X358000Y598500
X402500Y589500
X406000Y620000
X443000Y589000
X453500Y597500
X325000Y620000
X309500Y599000
X304000
X299000
X294500
X279000
X282000Y583500
X293000
X298500
X304000
X309500
X312000Y568000
X304500
X298000
X292500
X285000
X249500Y577000
X228000Y579000
X134500Y711000
X103000
Y682000
X338000Y702500
X497500Y711000
X530500Y711500
X710500Y702000
X740000Y641000
X886500Y638000
X897000Y711500
X925500Y712000
X926500Y682500
T02
X394220Y123500
X408000
Y151059
X394220
T03
X117500Y117500
X463000Y132000
X818500Y143000
X163000Y373000
X579500Y378500
X665500Y404000
X795500Y329000
X912500Y590500
X764000Y599000
X651500Y583500
X498500Y544000
X423000Y475500
X142500Y636500
X117500Y697500
X295500Y635500
X378000
X515000Y697500
X912500
T04
X585500Y135500
X607154
X142803Y399681
X178630
X392118Y425008
X427945
X605244Y377665
X621386
X703339Y369539
Y405366
X764618Y352681
X800445
X859508Y574524
Y610350
X668634Y558992
X632807
X460744Y518335
Y502193
X395134Y588319
X359307
X316193Y577681
X280366
M30
