G04 Layer_Color=16711935*
%FSLAX25Y25*%
%MOIN*%
G70*
G01*
G75*
%ADD61C,0.29134*%
%ADD62C,0.00394*%
%ADD63C,0.06693*%
%ADD64C,0.01181*%
%ADD65C,0.01800*%
D61*
X912500Y697500D02*
D03*
X117500D02*
D03*
X515000D02*
D03*
X764000Y599000D02*
D03*
X142500Y636500D02*
D03*
X818500Y143000D02*
D03*
X463000Y132000D02*
D03*
X117500Y117500D02*
D03*
X579500Y378500D02*
D03*
X498500Y544000D02*
D03*
X163000Y373000D02*
D03*
X423000Y475500D02*
D03*
X295500Y635500D02*
D03*
X378000D02*
D03*
X651500Y583500D02*
D03*
X665500Y404000D02*
D03*
X795500Y329000D02*
D03*
X912500Y590500D02*
D03*
D62*
X607154Y135500D02*
D03*
X585500D02*
D03*
D63*
X408000Y123500D02*
D03*
X394220D02*
D03*
X408000Y151059D02*
D03*
X394220D02*
D03*
D64*
X178630Y399681D02*
D03*
X142803D02*
D03*
X316193Y577681D02*
D03*
X280366D02*
D03*
X427945Y425008D02*
D03*
X392118D02*
D03*
X359307Y588319D02*
D03*
X395134D02*
D03*
X460744Y518335D02*
D03*
Y502193D02*
D03*
X703339Y405366D02*
D03*
Y369539D02*
D03*
X632807Y558992D02*
D03*
X668634D02*
D03*
X621386Y377665D02*
D03*
X605244D02*
D03*
X800445Y352681D02*
D03*
X764618D02*
D03*
X859508Y574524D02*
D03*
Y610350D02*
D03*
D65*
X637000Y159000D02*
D03*
X585000Y197500D02*
D03*
X591000Y227000D02*
D03*
X473000Y331500D02*
D03*
X572500Y341500D02*
D03*
X553500Y352500D02*
D03*
X501500Y393000D02*
D03*
X554000Y365000D02*
D03*
X553500Y394000D02*
D03*
X494500Y365500D02*
D03*
X663500Y455000D02*
D03*
X632500Y432000D02*
D03*
X623500Y425000D02*
D03*
X726000Y424000D02*
D03*
X707000Y415500D02*
D03*
X623000Y246500D02*
D03*
X830500Y250000D02*
D03*
X761500Y190000D02*
D03*
X515500Y124500D02*
D03*
X416000Y220500D02*
D03*
X367000Y212000D02*
D03*
X389000Y211500D02*
D03*
X367500Y225000D02*
D03*
Y293000D02*
D03*
X454500Y283000D02*
D03*
X443500Y294000D02*
D03*
X451000Y293500D02*
D03*
X472500Y289000D02*
D03*
X463000Y294500D02*
D03*
X480500Y346000D02*
D03*
X463000Y328500D02*
D03*
X451000Y312000D02*
D03*
X449500Y331000D02*
D03*
X446500D02*
D03*
X435000Y334000D02*
D03*
X435500Y351500D02*
D03*
X425500Y352000D02*
D03*
X404500Y351500D02*
D03*
X404000Y390500D02*
D03*
X436500Y399500D02*
D03*
X461000Y400000D02*
D03*
X454500Y382000D02*
D03*
X470500Y377000D02*
D03*
X467500Y347500D02*
D03*
X456500Y357500D02*
D03*
X368000Y314000D02*
D03*
X376500Y361000D02*
D03*
X395500Y381000D02*
D03*
X396000Y358500D02*
D03*
X472000Y443500D02*
D03*
X402500Y589500D02*
D03*
X400500Y533500D02*
D03*
X476500Y558000D02*
D03*
X443000Y589000D02*
D03*
X565500Y482000D02*
D03*
X566000Y433000D02*
D03*
X657500Y506500D02*
D03*
X778500Y454500D02*
D03*
X830500Y300000D02*
D03*
X798500Y382000D02*
D03*
X737000Y384000D02*
D03*
X743000Y390500D02*
D03*
X814000Y367000D02*
D03*
X811000Y285500D02*
D03*
X783500Y286500D02*
D03*
X799000Y284500D02*
D03*
X816500Y234000D02*
D03*
X802000Y229000D02*
D03*
X771500Y259500D02*
D03*
X756000Y281500D02*
D03*
X744000Y296500D02*
D03*
X754500D02*
D03*
X773000Y297500D02*
D03*
X799500Y346000D02*
D03*
X794500D02*
D03*
X788500Y344500D02*
D03*
X782500Y345000D02*
D03*
X800000Y365500D02*
D03*
X798500Y371500D02*
D03*
X794000D02*
D03*
X787000D02*
D03*
X783500D02*
D03*
X780000Y380000D02*
D03*
X778500Y371500D02*
D03*
X797500Y358500D02*
D03*
X794000D02*
D03*
X790000D02*
D03*
X786000D02*
D03*
X782500D02*
D03*
X778000Y359000D02*
D03*
X773000Y358000D02*
D03*
X772500Y344500D02*
D03*
X764500Y345000D02*
D03*
X768500Y377500D02*
D03*
X764000Y370500D02*
D03*
X743500Y366000D02*
D03*
X729000Y364500D02*
D03*
X739500Y373000D02*
D03*
X711500Y372000D02*
D03*
X699000Y371000D02*
D03*
X666000Y369500D02*
D03*
X667000Y357000D02*
D03*
X649500Y383000D02*
D03*
X631500Y380500D02*
D03*
X626000Y378500D02*
D03*
X644500Y356000D02*
D03*
X747000Y285500D02*
D03*
X744000Y267000D02*
D03*
X715500Y288500D02*
D03*
X658500Y270500D02*
D03*
X657500Y295500D02*
D03*
X664500Y325500D02*
D03*
X689500Y299000D02*
D03*
X704500Y284000D02*
D03*
X720000Y266500D02*
D03*
X575000Y265000D02*
D03*
X585000Y267500D02*
D03*
X582000Y280500D02*
D03*
X587500Y289000D02*
D03*
X613500D02*
D03*
X588500Y337000D02*
D03*
X639500Y341500D02*
D03*
X653500Y336000D02*
D03*
X651500Y326000D02*
D03*
X636000Y322500D02*
D03*
X630000Y304500D02*
D03*
X625500Y299500D02*
D03*
X607000D02*
D03*
X588000Y310000D02*
D03*
X565500Y393500D02*
D03*
X566000Y365000D02*
D03*
X596000Y367000D02*
D03*
X608500Y394000D02*
D03*
X626000Y393000D02*
D03*
X646000Y404000D02*
D03*
X671500Y385000D02*
D03*
X684000Y383000D02*
D03*
X683000Y385500D02*
D03*
X683500Y390000D02*
D03*
Y393000D02*
D03*
Y397000D02*
D03*
Y401500D02*
D03*
X697000Y402000D02*
D03*
Y399500D02*
D03*
X697500Y395500D02*
D03*
Y391500D02*
D03*
Y388000D02*
D03*
X697000Y384500D02*
D03*
X726000Y388500D02*
D03*
X719000Y383500D02*
D03*
X711500D02*
D03*
Y387000D02*
D03*
X661000Y442500D02*
D03*
X783000Y440500D02*
D03*
X861000Y406000D02*
D03*
X881000Y451000D02*
D03*
Y514500D02*
D03*
X913500Y271500D02*
D03*
X879500Y308000D02*
D03*
X880500Y295500D02*
D03*
X894000Y260000D02*
D03*
X883500Y241000D02*
D03*
X878000Y276000D02*
D03*
X822500Y280500D02*
D03*
X820500Y259500D02*
D03*
X846500Y263000D02*
D03*
X872500Y283000D02*
D03*
X840000Y280500D02*
D03*
X847000Y275000D02*
D03*
X849500Y282000D02*
D03*
X857500Y287500D02*
D03*
X832500Y517000D02*
D03*
X832000Y502500D02*
D03*
X836500Y496000D02*
D03*
X857500Y506000D02*
D03*
X858000Y517500D02*
D03*
X865000Y564000D02*
D03*
X850500Y578500D02*
D03*
X878500Y594500D02*
D03*
Y589000D02*
D03*
Y585000D02*
D03*
Y580000D02*
D03*
X877500Y574500D02*
D03*
X866500Y581000D02*
D03*
X865500Y585500D02*
D03*
Y590500D02*
D03*
Y594500D02*
D03*
X865000Y602000D02*
D03*
X865500Y606000D02*
D03*
X876500Y620500D02*
D03*
X730000Y517000D02*
D03*
X700000Y532000D02*
D03*
X706000Y602000D02*
D03*
X721000Y620000D02*
D03*
X683000Y596500D02*
D03*
X636000Y596000D02*
D03*
X453500Y597500D02*
D03*
X488500Y561500D02*
D03*
X520500Y529000D02*
D03*
X620000D02*
D03*
X646000Y517500D02*
D03*
X619000Y517000D02*
D03*
X608500Y432000D02*
D03*
X646000Y465000D02*
D03*
X647000Y506500D02*
D03*
X657500Y524000D02*
D03*
X646000Y538500D02*
D03*
X641500D02*
D03*
X637500D02*
D03*
X634500Y553000D02*
D03*
X639000D02*
D03*
X643500D02*
D03*
X648000D02*
D03*
X684000Y543500D02*
D03*
X662500Y553000D02*
D03*
X664500Y567000D02*
D03*
X661000D02*
D03*
X886500Y638000D02*
D03*
X740000Y641000D02*
D03*
X710500Y702000D02*
D03*
X686000Y620000D02*
D03*
X537500Y622000D02*
D03*
X338000Y702500D02*
D03*
X406000Y620000D02*
D03*
X325000D02*
D03*
X228000Y579000D02*
D03*
X161000Y429500D02*
D03*
X166500Y329500D02*
D03*
X229500Y416000D02*
D03*
X231500Y405500D02*
D03*
X229500Y331500D02*
D03*
X133500Y361500D02*
D03*
X187000Y406000D02*
D03*
X133000Y408000D02*
D03*
X144000Y392000D02*
D03*
X153000D02*
D03*
X149000D02*
D03*
X146500Y405000D02*
D03*
X175000Y392000D02*
D03*
X171000D02*
D03*
X167000D02*
D03*
X175000Y407500D02*
D03*
X168500D02*
D03*
X162000D02*
D03*
X156500D02*
D03*
X181000Y419000D02*
D03*
X174000D02*
D03*
X167500Y419500D02*
D03*
X161500D02*
D03*
X156000D02*
D03*
X357000Y565500D02*
D03*
X402500Y466000D02*
D03*
X382500Y428000D02*
D03*
X370500Y433500D02*
D03*
X248000Y436000D02*
D03*
X249500Y577000D02*
D03*
X279000Y599000D02*
D03*
X282000Y583500D02*
D03*
X285000Y568000D02*
D03*
X292500D02*
D03*
X298000D02*
D03*
X304500D02*
D03*
X312000D02*
D03*
X309500Y583500D02*
D03*
X304000D02*
D03*
X298500D02*
D03*
X293000D02*
D03*
X309500Y599000D02*
D03*
X304000D02*
D03*
X299000D02*
D03*
X294500D02*
D03*
X358000Y598500D02*
D03*
X380000Y568500D02*
D03*
X375000D02*
D03*
X370500D02*
D03*
X366500D02*
D03*
X361000Y582500D02*
D03*
X367000Y582000D02*
D03*
X371000D02*
D03*
X375000D02*
D03*
X378500D02*
D03*
X388000D02*
D03*
X387500Y595500D02*
D03*
X381500Y596000D02*
D03*
X538000Y504500D02*
D03*
X546500Y517500D02*
D03*
X485500Y530500D02*
D03*
X477500D02*
D03*
X465500Y517000D02*
D03*
X480500Y457500D02*
D03*
X528500Y433500D02*
D03*
X499500Y468000D02*
D03*
X519500D02*
D03*
X477000Y493500D02*
D03*
X521000Y492500D02*
D03*
X554000Y476500D02*
D03*
X526500Y494500D02*
D03*
X554500Y430500D02*
D03*
X499500Y433500D02*
D03*
X494000Y447500D02*
D03*
X512000Y463500D02*
D03*
X494500D02*
D03*
X449000Y489000D02*
D03*
X441500Y478000D02*
D03*
X472500Y425500D02*
D03*
X446500Y419500D02*
D03*
X407000Y451000D02*
D03*
X411500Y443500D02*
D03*
X422500Y445500D02*
D03*
X435000Y431000D02*
D03*
X436000Y416500D02*
D03*
X418500Y432000D02*
D03*
X426000Y430500D02*
D03*
X421500D02*
D03*
X415000D02*
D03*
X410500D02*
D03*
X406500Y431000D02*
D03*
X401500Y429500D02*
D03*
X411000Y416500D02*
D03*
X407000D02*
D03*
X403000D02*
D03*
X399000D02*
D03*
X393000Y430500D02*
D03*
X391000Y415000D02*
D03*
X367000Y387000D02*
D03*
X247500Y417000D02*
D03*
X249000Y406000D02*
D03*
X335000Y405500D02*
D03*
X359500Y379000D02*
D03*
X311000Y329000D02*
D03*
X317000Y321500D02*
D03*
X349000Y355000D02*
D03*
X248500Y321500D02*
D03*
X349500Y312500D02*
D03*
X247500Y287000D02*
D03*
X249000Y264000D02*
D03*
X332500Y248000D02*
D03*
X331500Y274500D02*
D03*
X350500Y292000D02*
D03*
X333000Y238000D02*
D03*
X323500Y179500D02*
D03*
X338000Y164000D02*
D03*
X311500Y205500D02*
D03*
X320000Y211000D02*
D03*
X331000Y205000D02*
D03*
X349000Y203500D02*
D03*
X348000Y216000D02*
D03*
X327669Y222000D02*
D03*
X321500Y255500D02*
D03*
X248500Y236500D02*
D03*
X382500Y119000D02*
D03*
X368000Y144500D02*
D03*
X370000Y202500D02*
D03*
X412500Y195500D02*
D03*
X499500Y102500D02*
D03*
X497500Y120000D02*
D03*
X569000Y122500D02*
D03*
X559000Y138000D02*
D03*
X569000Y152500D02*
D03*
X579500Y137500D02*
D03*
X584500Y170500D02*
D03*
X602500Y174000D02*
D03*
X598500Y153500D02*
D03*
X816000Y180000D02*
D03*
X717500Y250000D02*
D03*
X704000Y226000D02*
D03*
X730500Y239500D02*
D03*
X746500Y233000D02*
D03*
X771000Y216000D02*
D03*
X751000Y197500D02*
D03*
X723000Y198500D02*
D03*
X693000Y214000D02*
D03*
X695000Y228000D02*
D03*
X672500Y214500D02*
D03*
Y210000D02*
D03*
X664500Y203000D02*
D03*
X656000D02*
D03*
X663500Y179500D02*
D03*
X641500Y189500D02*
D03*
X634500Y188000D02*
D03*
X626500Y187000D02*
D03*
X618000Y188500D02*
D03*
X604531Y197531D02*
D03*
X608500Y229500D02*
D03*
X618000Y230000D02*
D03*
X639000Y240000D02*
D03*
X647000Y244000D02*
D03*
X663500Y222000D02*
D03*
X626500Y232500D02*
D03*
X637000Y210000D02*
D03*
X649000Y222000D02*
D03*
Y210000D02*
D03*
X637000Y222000D02*
D03*
X863500Y250000D02*
D03*
X840000Y253500D02*
D03*
X861000Y237000D02*
D03*
X854000Y241500D02*
D03*
X867500Y242000D02*
D03*
X873000Y208000D02*
D03*
X825500Y180000D02*
D03*
X831500Y190000D02*
D03*
X846500Y184000D02*
D03*
X872500Y201000D02*
D03*
X896500Y194000D02*
D03*
X881500Y187000D02*
D03*
X888500Y177500D02*
D03*
X901000Y184000D02*
D03*
X880000Y175000D02*
D03*
X829000Y170500D02*
D03*
X851500Y171000D02*
D03*
X863000Y168500D02*
D03*
X860000Y155000D02*
D03*
X855500D02*
D03*
X803000Y132500D02*
D03*
X831000Y155000D02*
D03*
X799500Y161500D02*
D03*
X792000D02*
D03*
X744500D02*
D03*
X690500Y169500D02*
D03*
X720500Y170000D02*
D03*
X725500Y161000D02*
D03*
X687500D02*
D03*
X647500Y156000D02*
D03*
X657000Y136500D02*
D03*
X624000Y154500D02*
D03*
X612500Y138000D02*
D03*
X623500Y122500D02*
D03*
X635500Y137500D02*
D03*
X638500Y122500D02*
D03*
X626500Y111000D02*
D03*
X636000Y104000D02*
D03*
X700000Y114500D02*
D03*
X645500Y113000D02*
D03*
Y123000D02*
D03*
X663500Y129500D02*
D03*
X680000Y139500D02*
D03*
X689000Y143000D02*
D03*
Y136500D02*
D03*
X690500Y124000D02*
D03*
X720000Y143000D02*
D03*
X729000Y149500D02*
D03*
X792500Y145500D02*
D03*
X745500Y152500D02*
D03*
X742500Y137000D02*
D03*
X755500D02*
D03*
X732000Y115500D02*
D03*
X701500Y136500D02*
D03*
X714000Y133000D02*
D03*
X719500Y129000D02*
D03*
X767500Y122000D02*
D03*
X774500Y115000D02*
D03*
X768000Y134000D02*
D03*
X789000Y123500D02*
D03*
X817500Y115500D02*
D03*
X893000Y125000D02*
D03*
X885000Y136000D02*
D03*
X872000Y145500D02*
D03*
X848000Y137000D02*
D03*
X844000Y128000D02*
D03*
X830500Y129500D02*
D03*
X826000Y122000D02*
D03*
X847500Y119500D02*
D03*
X861500Y122500D02*
D03*
X869500Y126500D02*
D03*
X872500Y113000D02*
D03*
X880500Y108500D02*
D03*
X713500Y108000D02*
D03*
X926500Y105000D02*
D03*
X925500Y572500D02*
D03*
X925000Y607500D02*
D03*
X926500Y682500D02*
D03*
X925500Y712000D02*
D03*
X897000Y711500D02*
D03*
X530500D02*
D03*
X497500Y711000D02*
D03*
X134500D02*
D03*
X103000Y682000D02*
D03*
Y711000D02*
D03*
X104000Y422500D02*
D03*
X145000Y423000D02*
D03*
X126500Y356000D02*
D03*
X135000Y103500D02*
D03*
X103000Y138000D02*
D03*
X104000Y103000D02*
D03*
X175000Y117000D02*
D03*
X158000Y217000D02*
D03*
X157500Y324500D02*
D03*
X166500Y322500D02*
D03*
X231000Y320500D02*
D03*
X230500Y287500D02*
D03*
X167500Y257500D02*
D03*
X166500Y224000D02*
D03*
X176000Y212000D02*
D03*
X188000Y245500D02*
D03*
X217500Y250000D02*
D03*
X205500Y229500D02*
D03*
X199500Y226500D02*
D03*
X194500Y227000D02*
D03*
X187000Y222500D02*
D03*
X226500Y250000D02*
D03*
X230000Y223000D02*
D03*
X221500Y226000D02*
D03*
X210500Y220500D02*
D03*
X203000Y203000D02*
D03*
X206000Y193500D02*
D03*
Y187500D02*
D03*
Y181000D02*
D03*
X191000Y167500D02*
D03*
Y153500D02*
D03*
X191500Y139000D02*
D03*
X197500Y130500D02*
D03*
X216000Y103000D02*
D03*
Y113000D02*
D03*
X225500Y118000D02*
D03*
X305000Y102500D02*
D03*
X304500Y117000D02*
D03*
X333000Y135000D02*
D03*
X321000Y127500D02*
D03*
Y141500D02*
D03*
X333000Y155000D02*
D03*
X321000Y161500D02*
D03*
Y148500D02*
D03*
X308000Y135000D02*
D03*
X307500Y155000D02*
D03*
X305500Y176500D02*
D03*
X302500Y171500D02*
D03*
X297500Y181000D02*
D03*
X288000Y177000D02*
D03*
X306000Y205500D02*
D03*
X297500Y211000D02*
D03*
X284500Y217000D02*
D03*
X250500Y226500D02*
D03*
X252000Y215500D02*
D03*
X262500Y204000D02*
D03*
X252000Y188000D02*
D03*
X290000Y201500D02*
D03*
X280000Y180000D02*
D03*
X274500Y184000D02*
D03*
X271000Y199000D02*
D03*
X278000D02*
D03*
X860000Y131000D02*
D03*
X840000Y144000D02*
D03*
X835000Y158000D02*
D03*
X476500Y524500D02*
D03*
X486500Y523500D02*
D03*
X856500Y139000D02*
D03*
X862500Y136500D02*
D03*
X865500Y122500D02*
D03*
X868500Y109500D02*
D03*
X848500Y146500D02*
D03*
X840000D02*
D03*
X800500Y155500D02*
D03*
X793500D02*
D03*
X741000Y143500D02*
D03*
X735000Y133500D02*
D03*
X848500Y149500D02*
D03*
X840000D02*
D03*
X800500Y158500D02*
D03*
X793500D02*
D03*
X741000D02*
D03*
X730000D02*
D03*
X828000Y119000D02*
D03*
X822000Y113000D02*
D03*
X716000Y125500D02*
D03*
X704500Y126000D02*
D03*
X887500Y124500D02*
D03*
X887000Y113500D02*
D03*
X713000Y116000D02*
D03*
X704500Y118000D02*
D03*
X670500D02*
D03*
X667500Y144500D02*
D03*
X882000Y132500D02*
D03*
X881000Y116000D02*
D03*
X712500Y123000D02*
D03*
X704500D02*
D03*
X712500Y120500D02*
D03*
X704500D02*
D03*
X668000D02*
D03*
Y129000D02*
D03*
X447500Y295000D02*
D03*
Y312000D02*
D03*
X248000Y260500D02*
D03*
X226000D02*
D03*
X431500Y343000D02*
D03*
Y351500D02*
D03*
X441000Y377500D02*
D03*
X459000D02*
D03*
X884500Y123500D02*
D03*
X884000Y116000D02*
D03*
X875500Y511500D02*
D03*
X866500D02*
D03*
X848000D02*
D03*
X833500D02*
D03*
X657000D02*
D03*
X647000D02*
D03*
X821500Y178500D02*
D03*
X821000Y210500D02*
D03*
X806500Y225000D02*
D03*
X782000Y291500D02*
D03*
X773000D02*
D03*
X755500D02*
D03*
X745500D02*
D03*
X735500Y161500D02*
D03*
Y217000D02*
D03*
X727500Y248000D02*
D03*
X725500Y263000D02*
D03*
X738500Y249500D02*
D03*
X559000Y355500D02*
D03*
Y363000D02*
D03*
Y395000D02*
D03*
Y430500D02*
D03*
X738500Y161500D02*
D03*
Y217000D02*
D03*
Y263500D02*
D03*
X638000Y107500D02*
D03*
X626500Y120500D02*
D03*
X640000Y109500D02*
D03*
X630000Y119000D02*
D03*
X645000Y126500D02*
D03*
X639000D02*
D03*
X387500Y205000D02*
D03*
X349500Y233500D02*
D03*
X704000Y160000D02*
D03*
Y213000D02*
D03*
X755500Y254000D02*
D03*
X750500Y273500D02*
D03*
X646000Y118500D02*
D03*
X637000D02*
D03*
X648000Y188000D02*
D03*
X657000Y165000D02*
D03*
X639000Y235500D02*
D03*
X650500Y232000D02*
D03*
X752000Y209500D02*
D03*
X796524Y165000D02*
D03*
X876500Y187500D02*
D03*
X876524Y159653D02*
D03*
X849500Y167500D02*
D03*
X840000Y165000D02*
D03*
X888000Y287000D02*
D03*
X883500Y282500D02*
D03*
X886000Y289000D02*
D03*
X881500Y284500D02*
D03*
X757000Y260000D02*
D03*
X816000Y277000D02*
D03*
X841500Y273000D02*
D03*
X759000Y274500D02*
D03*
X469000Y299500D02*
D03*
X450500Y308000D02*
D03*
X367000D02*
D03*
X350000D02*
D03*
Y305000D02*
D03*
Y301500D02*
D03*
X248000Y283000D02*
D03*
X232000D02*
D03*
X839000Y270000D02*
D03*
X759000Y272000D02*
D03*
X466000Y296000D02*
D03*
X450500Y305000D02*
D03*
X367000D02*
D03*
X248000Y280000D02*
D03*
X232000D02*
D03*
X189500Y259000D02*
D03*
Y253000D02*
D03*
X490000Y355500D02*
D03*
Y363000D02*
D03*
X641500Y387500D02*
D03*
X649000D02*
D03*
X744500Y373000D02*
D03*
Y378500D02*
D03*
X487000Y355500D02*
D03*
X486500Y363000D02*
D03*
X490000Y399500D02*
D03*
X494000D02*
D03*
X641500Y391000D02*
D03*
X649000D02*
D03*
X613500Y396000D02*
D03*
X483500Y355500D02*
D03*
Y363000D02*
D03*
X494000Y427000D02*
D03*
X480500D02*
D03*
X478000Y424000D02*
D03*
X490000Y427000D02*
D03*
X483500D02*
D03*
X486728D02*
D03*
X620000Y436000D02*
D03*
X628500Y427000D02*
D03*
X837000Y582500D02*
D03*
X847000D02*
D03*
X462500Y298000D02*
D03*
X450500D02*
D03*
X462500Y301500D02*
D03*
X450500D02*
D03*
X367000D02*
D03*
X248000Y276000D02*
D03*
X232000D02*
D03*
X367000Y298000D02*
D03*
X350000D02*
D03*
X815000Y269500D02*
D03*
X759000Y269000D02*
D03*
X462000Y291500D02*
D03*
X454000D02*
D03*
X816000Y267000D02*
D03*
X759000Y266500D02*
D03*
X816000Y263500D02*
D03*
X759000D02*
D03*
X400000Y388500D02*
D03*
X386000Y402500D02*
D03*
X386500Y438500D02*
D03*
X383500Y434000D02*
D03*
X393500Y454500D02*
D03*
X399000D02*
D03*
X379500Y367500D02*
D03*
X365000Y382000D02*
D03*
X247000Y410500D02*
D03*
X231500D02*
D03*
X469500Y401000D02*
D03*
X474000Y400000D02*
D03*
X485500Y399500D02*
D03*
X481000D02*
D03*
X464000Y423000D02*
D03*
X443500Y401500D02*
D03*
X440000D02*
D03*
Y416000D02*
D03*
X616500Y423500D02*
D03*
X427000Y453000D02*
D03*
X422500Y450000D02*
D03*
X404500Y444000D02*
D03*
X740500Y385500D02*
D03*
X424500Y456000D02*
D03*
X420500Y452000D02*
D03*
X824500Y200500D02*
D03*
X831000D02*
D03*
X401500Y444000D02*
D03*
X251000Y427500D02*
D03*
X230500Y422500D02*
D03*
X399000Y432000D02*
D03*
X248000Y425000D02*
D03*
X230500D02*
D03*
X790000Y373500D02*
D03*
Y379000D02*
D03*
X740500Y378500D02*
D03*
X696500Y380000D02*
D03*
X734000Y378500D02*
D03*
X696000Y377500D02*
D03*
X824500Y211500D02*
D03*
X809500Y226500D02*
D03*
X826500Y213500D02*
D03*
X812000Y228000D02*
D03*
X889500Y184500D02*
D03*
X896500D02*
D03*
X815500Y173000D02*
D03*
X811000Y176500D02*
D03*
X230000Y325500D02*
D03*
X248500D02*
D03*
X594000Y188500D02*
D03*
X598000Y186000D02*
D03*
X623000Y218500D02*
D03*
X625500Y217500D02*
D03*
X843500Y286500D02*
D03*
Y278500D02*
D03*
X847000Y295000D02*
D03*
X836500D02*
D03*
X851000Y258000D02*
D03*
Y252000D02*
D03*
M02*
