G04 Layer_Physical_Order=2*
G04 Layer_Color=16711680*
%FSLAX25Y25*%
%MOIN*%
G70*
G01*
G75*
%ADD50C,0.01000*%
%ADD52C,0.01180*%
%ADD53C,0.01500*%
%ADD61C,0.29134*%
%ADD62C,0.00394*%
%ADD63C,0.06693*%
%ADD64C,0.01181*%
%ADD65C,0.01800*%
G36*
X930000Y100000D02*
X100000D01*
Y715000D01*
X930000D01*
Y100000D01*
D02*
G37*
%LPC*%
G36*
X750500Y275131D02*
X749876Y275007D01*
X749346Y274654D01*
X748993Y274124D01*
X748869Y273500D01*
X748993Y272876D01*
X749276Y272451D01*
Y259000D01*
X749370Y258532D01*
X749635Y258135D01*
X753893Y253876D01*
X753993Y253376D01*
X754347Y252847D01*
X754876Y252493D01*
X755500Y252369D01*
X756124Y252493D01*
X756653Y252847D01*
X757007Y253376D01*
X757131Y254000D01*
X757007Y254624D01*
X756653Y255153D01*
X756124Y255507D01*
X755623Y255607D01*
X751723Y259507D01*
Y272451D01*
X752007Y272876D01*
X752131Y273500D01*
X752007Y274124D01*
X751653Y274654D01*
X751124Y275007D01*
X750500Y275131D01*
D02*
G37*
G36*
X189500Y260631D02*
X188876Y260507D01*
X188347Y260154D01*
X187993Y259624D01*
X187869Y259000D01*
X187993Y258376D01*
X188277Y257951D01*
Y254049D01*
X187993Y253624D01*
X187869Y253000D01*
X187993Y252376D01*
X188347Y251847D01*
X188876Y251493D01*
X189500Y251369D01*
X190124Y251493D01*
X190654Y251847D01*
X191007Y252376D01*
X191131Y253000D01*
X191007Y253624D01*
X190724Y254049D01*
Y257951D01*
X191007Y258376D01*
X191131Y259000D01*
X191007Y259624D01*
X190654Y260154D01*
X190124Y260507D01*
X189500Y260631D01*
D02*
G37*
G36*
X851000Y259631D02*
X850376Y259507D01*
X849846Y259154D01*
X849493Y258624D01*
X849369Y258000D01*
X849493Y257376D01*
X849776Y256951D01*
Y253049D01*
X849493Y252624D01*
X849369Y252000D01*
X849493Y251376D01*
X849846Y250847D01*
X850376Y250493D01*
X851000Y250369D01*
X851624Y250493D01*
X852153Y250847D01*
X852507Y251376D01*
X852631Y252000D01*
X852507Y252624D01*
X852223Y253049D01*
Y256951D01*
X852507Y257376D01*
X852631Y258000D01*
X852507Y258624D01*
X852153Y259154D01*
X851624Y259507D01*
X851000Y259631D01*
D02*
G37*
G36*
X248000Y262131D02*
X247376Y262007D01*
X246951Y261723D01*
X227049D01*
X226624Y262007D01*
X226000Y262131D01*
X225376Y262007D01*
X224847Y261653D01*
X224493Y261124D01*
X224369Y260500D01*
X224493Y259876D01*
X224847Y259347D01*
X225376Y258993D01*
X226000Y258869D01*
X226624Y258993D01*
X227049Y259277D01*
X246951D01*
X247376Y258993D01*
X248000Y258869D01*
X248624Y258993D01*
X249153Y259347D01*
X249507Y259876D01*
X249631Y260500D01*
X249507Y261124D01*
X249153Y261653D01*
X248624Y262007D01*
X248000Y262131D01*
D02*
G37*
G36*
Y277631D02*
X247376Y277507D01*
X246951Y277223D01*
X233049D01*
X232624Y277507D01*
X232000Y277631D01*
X231376Y277507D01*
X230847Y277153D01*
X230493Y276624D01*
X230369Y276000D01*
X230493Y275376D01*
X230847Y274847D01*
X231376Y274493D01*
X232000Y274369D01*
X232624Y274493D01*
X233049Y274777D01*
X246951D01*
X247376Y274493D01*
X248000Y274369D01*
X248624Y274493D01*
X249153Y274847D01*
X249507Y275376D01*
X249631Y276000D01*
X249507Y276624D01*
X249153Y277153D01*
X248624Y277507D01*
X248000Y277631D01*
D02*
G37*
G36*
X843500Y288131D02*
X842876Y288007D01*
X842346Y287653D01*
X841993Y287124D01*
X841869Y286500D01*
X841993Y285876D01*
X842276Y285451D01*
Y279549D01*
X841993Y279124D01*
X841869Y278500D01*
X841993Y277876D01*
X842346Y277346D01*
X842876Y276993D01*
X843500Y276869D01*
X844124Y276993D01*
X844654Y277346D01*
X845007Y277876D01*
X845131Y278500D01*
X845007Y279124D01*
X844724Y279549D01*
Y285451D01*
X845007Y285876D01*
X845131Y286500D01*
X845007Y287124D01*
X844654Y287653D01*
X844124Y288007D01*
X843500Y288131D01*
D02*
G37*
G36*
X816000Y278631D02*
X815376Y278507D01*
X814951Y278223D01*
X756000D01*
X755532Y278130D01*
X755135Y277865D01*
X753635Y276365D01*
X753370Y275968D01*
X753276Y275500D01*
Y262500D01*
X753370Y262032D01*
X753635Y261635D01*
X755393Y259876D01*
X755493Y259376D01*
X755847Y258846D01*
X756376Y258493D01*
X757000Y258369D01*
X757624Y258493D01*
X758153Y258846D01*
X758507Y259376D01*
X758631Y260000D01*
X758507Y260624D01*
X758153Y261154D01*
X757624Y261507D01*
X757124Y261607D01*
X755723Y263007D01*
Y274993D01*
X756507Y275777D01*
X757327D01*
X757594Y275276D01*
X757493Y275124D01*
X757369Y274500D01*
X757493Y273876D01*
X757658Y273629D01*
X757808Y273250D01*
X757658Y272871D01*
X757493Y272624D01*
X757369Y272000D01*
X757493Y271376D01*
X757846Y270847D01*
X757991Y270750D01*
Y270250D01*
X757846Y270153D01*
X757493Y269624D01*
X757369Y269000D01*
X757493Y268376D01*
X757658Y268129D01*
X757808Y267750D01*
X757658Y267371D01*
X757493Y267124D01*
X757369Y266500D01*
X757493Y265876D01*
X757846Y265347D01*
X757991Y265250D01*
Y264750D01*
X757846Y264653D01*
X757493Y264124D01*
X757369Y263500D01*
X757493Y262876D01*
X757846Y262347D01*
X758376Y261993D01*
X759000Y261869D01*
X759624Y261993D01*
X760049Y262277D01*
X814951D01*
X815376Y261993D01*
X816000Y261869D01*
X816624Y261993D01*
X817153Y262347D01*
X817507Y262876D01*
X817631Y263500D01*
X817507Y264124D01*
X817153Y264653D01*
X816652Y264989D01*
X816624Y265202D01*
Y265298D01*
X816652Y265511D01*
X817153Y265846D01*
X817507Y266376D01*
X817631Y267000D01*
X817507Y267624D01*
X817153Y268154D01*
X816624Y268507D01*
X816539Y269034D01*
X816631Y269500D01*
X816507Y270124D01*
X816405Y270276D01*
X816673Y270777D01*
X836493D01*
X837393Y269877D01*
X837493Y269376D01*
X837846Y268847D01*
X838376Y268493D01*
X839000Y268369D01*
X839624Y268493D01*
X840154Y268847D01*
X840507Y269376D01*
X840631Y270000D01*
X840507Y270624D01*
X840154Y271153D01*
X839624Y271507D01*
X839124Y271607D01*
X837954Y272777D01*
X838041Y273122D01*
X838146Y273276D01*
X839493D01*
X839893Y272877D01*
X839993Y272376D01*
X840347Y271847D01*
X840876Y271493D01*
X841500Y271369D01*
X842124Y271493D01*
X842653Y271847D01*
X843007Y272376D01*
X843131Y273000D01*
X843007Y273624D01*
X842653Y274153D01*
X842124Y274507D01*
X841623Y274607D01*
X840865Y275365D01*
X840468Y275630D01*
X840000Y275724D01*
X817673D01*
X817406Y276223D01*
X817507Y276376D01*
X817631Y277000D01*
X817507Y277624D01*
X817153Y278153D01*
X816624Y278507D01*
X816000Y278631D01*
D02*
G37*
G36*
X738500Y218631D02*
X737876Y218507D01*
X737347Y218154D01*
X737250Y218009D01*
X736750D01*
X736654Y218154D01*
X736124Y218507D01*
X735500Y218631D01*
X734876Y218507D01*
X734346Y218154D01*
X733993Y217624D01*
X733869Y217000D01*
X733993Y216376D01*
X734276Y215951D01*
Y162549D01*
X733993Y162124D01*
X733869Y161500D01*
X733993Y160876D01*
X734346Y160346D01*
X734530Y160223D01*
X734379Y159723D01*
X731049D01*
X730624Y160007D01*
X730000Y160131D01*
X729376Y160007D01*
X728847Y159653D01*
X728493Y159124D01*
X728369Y158500D01*
X728493Y157876D01*
X728847Y157346D01*
X729376Y156993D01*
X730000Y156869D01*
X730624Y156993D01*
X731049Y157276D01*
X739951D01*
X740376Y156993D01*
X741000Y156869D01*
X741624Y156993D01*
X742154Y157346D01*
X742507Y157876D01*
X742631Y158500D01*
X742507Y159124D01*
X742154Y159653D01*
X741624Y160007D01*
X741000Y160131D01*
X740376Y160007D01*
X740095Y159819D01*
X739855Y159880D01*
X739774Y160066D01*
X739710Y160431D01*
X740007Y160876D01*
X740131Y161500D01*
X740007Y162124D01*
X739723Y162549D01*
Y215951D01*
X740007Y216376D01*
X740131Y217000D01*
X740007Y217624D01*
X739653Y218154D01*
X739124Y218507D01*
X738500Y218631D01*
D02*
G37*
G36*
X349500Y235131D02*
X348876Y235007D01*
X348346Y234653D01*
X347993Y234124D01*
X347869Y233500D01*
X347993Y232876D01*
X348346Y232347D01*
X348876Y231993D01*
X349377Y231893D01*
X377135Y204135D01*
X377532Y203870D01*
X378000Y203777D01*
X386451D01*
X386876Y203493D01*
X387500Y203369D01*
X388124Y203493D01*
X388653Y203847D01*
X389007Y204376D01*
X389131Y205000D01*
X389007Y205624D01*
X388653Y206153D01*
X388124Y206507D01*
X387500Y206631D01*
X386876Y206507D01*
X386451Y206224D01*
X378507D01*
X351107Y233624D01*
X351007Y234124D01*
X350654Y234653D01*
X350124Y235007D01*
X349500Y235131D01*
D02*
G37*
G36*
X831000Y202131D02*
X830376Y202007D01*
X829951Y201724D01*
X825549D01*
X825124Y202007D01*
X824500Y202131D01*
X823876Y202007D01*
X823347Y201654D01*
X822993Y201124D01*
X822869Y200500D01*
X822993Y199876D01*
X823347Y199346D01*
X823876Y198993D01*
X824500Y198869D01*
X825124Y198993D01*
X825549Y199276D01*
X829951D01*
X830376Y198993D01*
X831000Y198869D01*
X831624Y198993D01*
X832154Y199346D01*
X832507Y199876D01*
X832631Y200500D01*
X832507Y201124D01*
X832154Y201654D01*
X831624Y202007D01*
X831000Y202131D01*
D02*
G37*
G36*
X812000Y229631D02*
X811376Y229507D01*
X810847Y229153D01*
X810493Y228624D01*
X810447Y228393D01*
X810139Y228025D01*
X809908Y228050D01*
X809500Y228131D01*
X808876Y228007D01*
X808346Y227654D01*
X807993Y227124D01*
X807888Y226598D01*
X807589Y226399D01*
X807393Y226327D01*
X807124Y226507D01*
X806500Y226631D01*
X805876Y226507D01*
X805346Y226153D01*
X804993Y225624D01*
X804869Y225000D01*
X804993Y224376D01*
X805346Y223847D01*
X805876Y223493D01*
X806376Y223393D01*
X819393Y210377D01*
X819493Y209876D01*
X819847Y209347D01*
X820376Y208993D01*
X821000Y208869D01*
X821624Y208993D01*
X822153Y209347D01*
X822507Y209876D01*
X822631Y210500D01*
X822627Y210524D01*
X823098Y210719D01*
X823347Y210347D01*
X823876Y209993D01*
X824500Y209869D01*
X825124Y209993D01*
X825653Y210347D01*
X826007Y210876D01*
X826118Y211435D01*
X826212Y211603D01*
X826397Y211788D01*
X826565Y211882D01*
X827124Y211993D01*
X827654Y212347D01*
X828007Y212876D01*
X828131Y213500D01*
X828007Y214124D01*
X827654Y214653D01*
X827124Y215007D01*
X826624Y215107D01*
X813607Y228123D01*
X813507Y228624D01*
X813153Y229153D01*
X812624Y229507D01*
X812000Y229631D01*
D02*
G37*
G36*
X738500Y265131D02*
X737876Y265007D01*
X737347Y264653D01*
X736993Y264124D01*
X736869Y263500D01*
X736993Y262876D01*
X737277Y262451D01*
Y250549D01*
X736993Y250124D01*
X736869Y249500D01*
X736993Y248876D01*
X737347Y248346D01*
X737876Y247993D01*
X738500Y247869D01*
X739124Y247993D01*
X739653Y248346D01*
X740007Y248876D01*
X740131Y249500D01*
X740007Y250124D01*
X739723Y250549D01*
Y262451D01*
X740007Y262876D01*
X740131Y263500D01*
X740007Y264124D01*
X739653Y264653D01*
X739124Y265007D01*
X738500Y265131D01*
D02*
G37*
G36*
X725500Y264631D02*
X724876Y264507D01*
X724346Y264154D01*
X723993Y263624D01*
X723869Y263000D01*
X723993Y262376D01*
X724276Y261951D01*
Y250000D01*
X724370Y249532D01*
X724635Y249135D01*
X725893Y247877D01*
X725993Y247376D01*
X726346Y246847D01*
X726876Y246493D01*
X727500Y246369D01*
X728124Y246493D01*
X728653Y246847D01*
X729007Y247376D01*
X729131Y248000D01*
X729007Y248624D01*
X728653Y249153D01*
X728124Y249507D01*
X727624Y249607D01*
X726723Y250507D01*
Y261951D01*
X727007Y262376D01*
X727131Y263000D01*
X727007Y263624D01*
X726653Y264154D01*
X726124Y264507D01*
X725500Y264631D01*
D02*
G37*
G36*
X639000Y237131D02*
X638376Y237007D01*
X637847Y236653D01*
X637493Y236124D01*
X637369Y235500D01*
X637493Y234876D01*
X637847Y234347D01*
X638376Y233993D01*
X638426Y233983D01*
X641455Y230955D01*
X641934Y230634D01*
X642500Y230522D01*
X649833D01*
X649876Y230493D01*
X650500Y230369D01*
X651124Y230493D01*
X651653Y230847D01*
X652007Y231376D01*
X652131Y232000D01*
X652007Y232624D01*
X651653Y233154D01*
X651124Y233507D01*
X650500Y233631D01*
X649876Y233507D01*
X649833Y233478D01*
X643112D01*
X640517Y236073D01*
X640507Y236124D01*
X640154Y236653D01*
X639624Y237007D01*
X639000Y237131D01*
D02*
G37*
G36*
X248500Y327131D02*
X247876Y327007D01*
X247588Y326815D01*
X230911D01*
X230624Y327007D01*
X230000Y327131D01*
X229376Y327007D01*
X228847Y326654D01*
X228493Y326124D01*
X228369Y325500D01*
X228493Y324876D01*
X228847Y324346D01*
X229376Y323993D01*
X230000Y323869D01*
X230624Y323993D01*
X230911Y324185D01*
X247588D01*
X247876Y323993D01*
X248500Y323869D01*
X249124Y323993D01*
X249654Y324346D01*
X250007Y324876D01*
X250131Y325500D01*
X250007Y326124D01*
X249654Y326654D01*
X249124Y327007D01*
X248500Y327131D01*
D02*
G37*
G36*
X795500Y344314D02*
X793104Y344126D01*
X790768Y343565D01*
X788548Y342645D01*
X786499Y341389D01*
X784671Y339829D01*
X783111Y338001D01*
X781855Y335952D01*
X780935Y333732D01*
X780374Y331396D01*
X780186Y329000D01*
X780374Y326604D01*
X780935Y324268D01*
X781855Y322047D01*
X783111Y319999D01*
X784671Y318171D01*
X786499Y316611D01*
X788548Y315355D01*
X790768Y314435D01*
X793104Y313874D01*
X795500Y313686D01*
X797896Y313874D01*
X800232Y314435D01*
X802452Y315355D01*
X804501Y316611D01*
X806329Y318171D01*
X807889Y319999D01*
X809145Y322047D01*
X810065Y324268D01*
X810626Y326604D01*
X810814Y329000D01*
X810626Y331396D01*
X810065Y333732D01*
X809145Y335952D01*
X807889Y338001D01*
X806329Y339829D01*
X804501Y341389D01*
X802452Y342645D01*
X800232Y343565D01*
X797896Y344126D01*
X795500Y344314D01*
D02*
G37*
G36*
X367000Y309631D02*
X366376Y309507D01*
X365951Y309224D01*
X351049D01*
X350624Y309507D01*
X350000Y309631D01*
X349376Y309507D01*
X348847Y309154D01*
X348493Y308624D01*
X348369Y308000D01*
X348493Y307376D01*
X348847Y306846D01*
X348991Y306750D01*
Y306250D01*
X348847Y306153D01*
X348493Y305624D01*
X348369Y305000D01*
X348493Y304376D01*
X348847Y303847D01*
X349348Y303511D01*
X349376Y303298D01*
Y303202D01*
X349348Y302989D01*
X348847Y302654D01*
X348493Y302124D01*
X348369Y301500D01*
X348493Y300876D01*
X348847Y300346D01*
X349348Y300011D01*
X349376Y299798D01*
Y299702D01*
X349348Y299489D01*
X348847Y299153D01*
X348493Y298624D01*
X348369Y298000D01*
X348493Y297376D01*
X348847Y296847D01*
X349376Y296493D01*
X350000Y296369D01*
X350624Y296493D01*
X351049Y296777D01*
X365951D01*
X366376Y296493D01*
X367000Y296369D01*
X367624Y296493D01*
X368154Y296847D01*
X368507Y297376D01*
X368631Y298000D01*
X368507Y298624D01*
X368154Y299153D01*
X367652Y299489D01*
X367624Y299702D01*
Y299798D01*
X367652Y300011D01*
X368154Y300346D01*
X368507Y300876D01*
X368631Y301500D01*
X368507Y302124D01*
X368154Y302654D01*
X367652Y302989D01*
X367624Y303202D01*
Y303298D01*
X367652Y303511D01*
X368154Y303847D01*
X368507Y304376D01*
X368631Y305000D01*
X368507Y305624D01*
X368154Y306153D01*
X368009Y306250D01*
Y306750D01*
X368154Y306846D01*
X368507Y307376D01*
X368631Y308000D01*
X368507Y308624D01*
X368154Y309154D01*
X367624Y309507D01*
X367000Y309631D01*
D02*
G37*
G36*
X431500Y353131D02*
X430876Y353007D01*
X430346Y352654D01*
X429993Y352124D01*
X429869Y351500D01*
X429993Y350876D01*
X430022Y350833D01*
Y343667D01*
X429993Y343624D01*
X429869Y343000D01*
X429993Y342376D01*
X430346Y341846D01*
X430876Y341493D01*
X431500Y341369D01*
X432124Y341493D01*
X432654Y341846D01*
X433007Y342376D01*
X433131Y343000D01*
X433007Y343624D01*
X432978Y343667D01*
Y350833D01*
X433007Y350876D01*
X433131Y351500D01*
X433007Y352124D01*
X432654Y352654D01*
X432124Y353007D01*
X431500Y353131D01*
D02*
G37*
G36*
X559000Y364631D02*
X558376Y364507D01*
X557846Y364154D01*
X557493Y363624D01*
X557369Y363000D01*
X557493Y362376D01*
X557776Y361951D01*
Y356549D01*
X557493Y356124D01*
X557369Y355500D01*
X557493Y354876D01*
X557846Y354346D01*
X558376Y353993D01*
X559000Y353869D01*
X559624Y353993D01*
X560153Y354346D01*
X560507Y354876D01*
X560631Y355500D01*
X560507Y356124D01*
X560223Y356549D01*
Y361951D01*
X560507Y362376D01*
X560631Y363000D01*
X560507Y363624D01*
X560153Y364154D01*
X559624Y364507D01*
X559000Y364631D01*
D02*
G37*
G36*
X800445Y354800D02*
X799634Y354639D01*
X798947Y354179D01*
X798488Y353492D01*
X798326Y352681D01*
X798488Y351870D01*
X798947Y351183D01*
X799634Y350724D01*
X800445Y350562D01*
X801256Y350724D01*
X801943Y351183D01*
X802402Y351870D01*
X802564Y352681D01*
X802402Y353492D01*
X801943Y354179D01*
X801256Y354639D01*
X800445Y354800D01*
D02*
G37*
G36*
X764618D02*
X763807Y354639D01*
X763120Y354179D01*
X762661Y353492D01*
X762500Y352681D01*
X762661Y351870D01*
X763120Y351183D01*
X763807Y350724D01*
X764618Y350562D01*
X765429Y350724D01*
X766116Y351183D01*
X766575Y351870D01*
X766737Y352681D01*
X766575Y353492D01*
X766116Y354179D01*
X765429Y354639D01*
X764618Y354800D01*
D02*
G37*
G36*
X462000Y293131D02*
X461376Y293007D01*
X460951Y292723D01*
X455049D01*
X454624Y293007D01*
X454000Y293131D01*
X453376Y293007D01*
X452846Y292653D01*
X452493Y292124D01*
X452369Y291500D01*
X452493Y290876D01*
X452846Y290347D01*
X453376Y289993D01*
X454000Y289869D01*
X454624Y289993D01*
X455049Y290277D01*
X460951D01*
X461376Y289993D01*
X462000Y289869D01*
X462624Y289993D01*
X463154Y290347D01*
X463507Y290876D01*
X463631Y291500D01*
X463507Y292124D01*
X463154Y292653D01*
X462624Y293007D01*
X462000Y293131D01*
D02*
G37*
G36*
X248000Y284631D02*
X247376Y284507D01*
X246951Y284224D01*
X233049D01*
X232624Y284507D01*
X232000Y284631D01*
X231376Y284507D01*
X230847Y284154D01*
X230493Y283624D01*
X230369Y283000D01*
X230493Y282376D01*
X230847Y281846D01*
X230991Y281750D01*
Y281250D01*
X230847Y281153D01*
X230493Y280624D01*
X230369Y280000D01*
X230493Y279376D01*
X230847Y278847D01*
X231376Y278493D01*
X232000Y278369D01*
X232624Y278493D01*
X233049Y278777D01*
X246951D01*
X247376Y278493D01*
X248000Y278369D01*
X248624Y278493D01*
X249153Y278847D01*
X249507Y279376D01*
X249631Y280000D01*
X249507Y280624D01*
X249153Y281153D01*
X249009Y281250D01*
Y281750D01*
X249153Y281846D01*
X249507Y282376D01*
X249631Y283000D01*
X249507Y283624D01*
X249153Y284154D01*
X248624Y284507D01*
X248000Y284631D01*
D02*
G37*
G36*
X886000Y290631D02*
X885376Y290507D01*
X884846Y290154D01*
X884493Y289624D01*
X884393Y289124D01*
X881376Y286107D01*
X880876Y286007D01*
X880346Y285653D01*
X879993Y285124D01*
X879869Y284500D01*
X879993Y283876D01*
X880346Y283347D01*
X880876Y282993D01*
X881435Y282882D01*
X881603Y282788D01*
X881788Y282603D01*
X881882Y282435D01*
X881993Y281876D01*
X882347Y281347D01*
X882876Y280993D01*
X883500Y280869D01*
X884124Y280993D01*
X884653Y281347D01*
X885007Y281876D01*
X885107Y282377D01*
X888124Y285393D01*
X888624Y285493D01*
X889153Y285846D01*
X889507Y286376D01*
X889631Y287000D01*
X889507Y287624D01*
X889153Y288154D01*
X888624Y288507D01*
X888065Y288618D01*
X887897Y288712D01*
X887712Y288897D01*
X887618Y289065D01*
X887507Y289624D01*
X887154Y290154D01*
X886624Y290507D01*
X886000Y290631D01*
D02*
G37*
G36*
X755500Y293131D02*
X754876Y293007D01*
X754451Y292723D01*
X746549D01*
X746124Y293007D01*
X745500Y293131D01*
X744876Y293007D01*
X744347Y292653D01*
X743993Y292124D01*
X743869Y291500D01*
X743993Y290876D01*
X744347Y290347D01*
X744876Y289993D01*
X745500Y289869D01*
X746124Y289993D01*
X746549Y290277D01*
X754451D01*
X754876Y289993D01*
X755500Y289869D01*
X756124Y289993D01*
X756653Y290347D01*
X757007Y290876D01*
X757131Y291500D01*
X757007Y292124D01*
X756653Y292653D01*
X756124Y293007D01*
X755500Y293131D01*
D02*
G37*
G36*
X447500Y313631D02*
X446876Y313507D01*
X446347Y313154D01*
X445993Y312624D01*
X445869Y312000D01*
X445993Y311376D01*
X446022Y311333D01*
Y295667D01*
X445993Y295624D01*
X445869Y295000D01*
X445993Y294376D01*
X446347Y293847D01*
X446876Y293493D01*
X447500Y293369D01*
X448124Y293493D01*
X448654Y293847D01*
X449007Y294376D01*
X449131Y295000D01*
X449007Y295624D01*
X448978Y295667D01*
Y296537D01*
X449042Y296590D01*
X449478Y296758D01*
X449876Y296493D01*
X450500Y296369D01*
X451124Y296493D01*
X451549Y296777D01*
X461451D01*
X461876Y296493D01*
X462500Y296369D01*
X463124Y296493D01*
X463654Y296847D01*
X464007Y297376D01*
X464131Y298000D01*
X464007Y298624D01*
X463654Y299153D01*
X463152Y299489D01*
X463124Y299702D01*
Y299798D01*
X463152Y300011D01*
X463654Y300346D01*
X464007Y300876D01*
X464131Y301500D01*
X464007Y302124D01*
X463654Y302654D01*
X463124Y303007D01*
X462500Y303131D01*
X461876Y303007D01*
X461451Y302724D01*
X451549D01*
X451152Y302989D01*
X451124Y303202D01*
Y303298D01*
X451152Y303511D01*
X451549Y303777D01*
X463993D01*
X464777Y302993D01*
Y297049D01*
X464493Y296624D01*
X464369Y296000D01*
X464493Y295376D01*
X464847Y294847D01*
X465376Y294493D01*
X466000Y294369D01*
X466624Y294493D01*
X467154Y294847D01*
X467507Y295376D01*
X467631Y296000D01*
X467507Y296624D01*
X467224Y297049D01*
Y298379D01*
X467724Y298531D01*
X467846Y298346D01*
X468376Y297993D01*
X469000Y297869D01*
X469624Y297993D01*
X470154Y298346D01*
X470507Y298876D01*
X470631Y299500D01*
X470507Y300124D01*
X470224Y300549D01*
Y306000D01*
X470130Y306468D01*
X469865Y306865D01*
X467865Y308865D01*
X467468Y309130D01*
X467000Y309224D01*
X451549D01*
X451124Y309507D01*
X450500Y309631D01*
X449876Y309507D01*
X449478Y309242D01*
X449042Y309410D01*
X448978Y309463D01*
Y311333D01*
X449007Y311376D01*
X449131Y312000D01*
X449007Y312624D01*
X448654Y313154D01*
X448124Y313507D01*
X447500Y313631D01*
D02*
G37*
G36*
X847000Y296631D02*
X846376Y296507D01*
X845951Y296223D01*
X837549D01*
X837124Y296507D01*
X836500Y296631D01*
X835876Y296507D01*
X835347Y296153D01*
X834993Y295624D01*
X834869Y295000D01*
X834993Y294376D01*
X835347Y293847D01*
X835876Y293493D01*
X836500Y293369D01*
X837124Y293493D01*
X837549Y293776D01*
X845951D01*
X846376Y293493D01*
X847000Y293369D01*
X847624Y293493D01*
X848153Y293847D01*
X848507Y294376D01*
X848631Y295000D01*
X848507Y295624D01*
X848153Y296153D01*
X847624Y296507D01*
X847000Y296631D01*
D02*
G37*
G36*
X782000Y293131D02*
X781376Y293007D01*
X780951Y292723D01*
X774049D01*
X773624Y293007D01*
X773000Y293131D01*
X772376Y293007D01*
X771846Y292653D01*
X771493Y292124D01*
X771369Y291500D01*
X771493Y290876D01*
X771846Y290347D01*
X772376Y289993D01*
X773000Y289869D01*
X773624Y289993D01*
X774049Y290277D01*
X780951D01*
X781376Y289993D01*
X782000Y289869D01*
X782624Y289993D01*
X783153Y290347D01*
X783507Y290876D01*
X783631Y291500D01*
X783507Y292124D01*
X783153Y292653D01*
X782624Y293007D01*
X782000Y293131D01*
D02*
G37*
G36*
X818500Y158314D02*
X816104Y158126D01*
X813768Y157565D01*
X811547Y156645D01*
X809499Y155389D01*
X807671Y153829D01*
X806111Y152001D01*
X804855Y149952D01*
X803935Y147732D01*
X803374Y145396D01*
X803186Y143000D01*
X803374Y140604D01*
X803935Y138268D01*
X804855Y136047D01*
X806111Y133999D01*
X807671Y132171D01*
X809499Y130611D01*
X811547Y129355D01*
X813768Y128435D01*
X816104Y127874D01*
X818500Y127686D01*
X820896Y127874D01*
X823232Y128435D01*
X825453Y129355D01*
X827501Y130611D01*
X829329Y132171D01*
X830889Y133999D01*
X832145Y136047D01*
X833065Y138268D01*
X833626Y140604D01*
X833814Y143000D01*
X833626Y145396D01*
X833065Y147732D01*
X832145Y149952D01*
X830889Y152001D01*
X829329Y153829D01*
X827501Y155389D01*
X825453Y156645D01*
X823232Y157565D01*
X820896Y158126D01*
X818500Y158314D01*
D02*
G37*
G36*
X704500Y127631D02*
X703876Y127507D01*
X703346Y127154D01*
X702993Y126624D01*
X702869Y126000D01*
X702993Y125376D01*
X703346Y124846D01*
X703491Y124750D01*
Y124250D01*
X703346Y124153D01*
X702993Y123624D01*
X702869Y123000D01*
X702993Y122376D01*
X703158Y122129D01*
X703308Y121750D01*
X703158Y121371D01*
X702993Y121124D01*
X702869Y120500D01*
X702993Y119876D01*
X703346Y119346D01*
X703158Y118871D01*
X702993Y118624D01*
X702869Y118000D01*
X702993Y117376D01*
X703346Y116847D01*
X703876Y116493D01*
X704500Y116369D01*
X705124Y116493D01*
X705549Y116777D01*
X710493D01*
X711393Y115876D01*
X711493Y115376D01*
X711846Y114847D01*
X712376Y114493D01*
X713000Y114369D01*
X713624Y114493D01*
X714153Y114847D01*
X714507Y115376D01*
X714631Y116000D01*
X714507Y116624D01*
X714153Y117154D01*
X713624Y117507D01*
X713124Y117607D01*
X712339Y118391D01*
X712437Y118681D01*
X712557Y118880D01*
X713124Y118993D01*
X713654Y119346D01*
X714007Y119876D01*
X714131Y120500D01*
X714007Y121124D01*
X713842Y121371D01*
X713692Y121750D01*
X713842Y122129D01*
X714007Y122376D01*
X714131Y123000D01*
X714007Y123624D01*
X713654Y124153D01*
X713470Y124276D01*
X713621Y124776D01*
X714559D01*
X714847Y124346D01*
X715376Y123993D01*
X716000Y123869D01*
X716624Y123993D01*
X717154Y124346D01*
X717507Y124876D01*
X717631Y125500D01*
X717507Y126124D01*
X717154Y126654D01*
X716624Y127007D01*
X716000Y127131D01*
X715974Y127126D01*
X715968Y127130D01*
X715500Y127224D01*
X705549D01*
X705124Y127507D01*
X704500Y127631D01*
D02*
G37*
G36*
X646000Y120131D02*
X645376Y120007D01*
X644951Y119723D01*
X638049D01*
X637624Y120007D01*
X637000Y120131D01*
X636376Y120007D01*
X635847Y119653D01*
X635493Y119124D01*
X635369Y118500D01*
X635493Y117876D01*
X635847Y117347D01*
X636376Y116993D01*
X637000Y116869D01*
X637624Y116993D01*
X638049Y117277D01*
X644951D01*
X645376Y116993D01*
X646000Y116869D01*
X646624Y116993D01*
X647154Y117347D01*
X647507Y117876D01*
X647631Y118500D01*
X647507Y119124D01*
X647154Y119653D01*
X646624Y120007D01*
X646000Y120131D01*
D02*
G37*
G36*
X645000Y128131D02*
X644376Y128007D01*
X643951Y127724D01*
X640049D01*
X639624Y128007D01*
X639000Y128131D01*
X638376Y128007D01*
X637847Y127654D01*
X637493Y127124D01*
X637369Y126500D01*
X637493Y125876D01*
X637847Y125347D01*
X638376Y124993D01*
X639000Y124869D01*
X639624Y124993D01*
X640049Y125277D01*
X643951D01*
X644376Y124993D01*
X645000Y124869D01*
X645624Y124993D01*
X646153Y125347D01*
X646507Y125876D01*
X646631Y126500D01*
X646507Y127124D01*
X646153Y127654D01*
X645624Y128007D01*
X645000Y128131D01*
D02*
G37*
G36*
X585500Y137619D02*
X584689Y137457D01*
X584002Y136998D01*
X583543Y136311D01*
X583381Y135500D01*
X583543Y134689D01*
X584002Y134002D01*
X584689Y133543D01*
X585500Y133381D01*
X586311Y133543D01*
X586998Y134002D01*
X587457Y134689D01*
X587619Y135500D01*
X587457Y136311D01*
X586998Y136998D01*
X586311Y137457D01*
X585500Y137619D01*
D02*
G37*
G36*
X741000Y145131D02*
X740376Y145007D01*
X739847Y144653D01*
X739493Y144124D01*
X739369Y143500D01*
X739493Y142876D01*
X739777Y142451D01*
Y140007D01*
X734876Y135107D01*
X734376Y135007D01*
X733847Y134653D01*
X733493Y134124D01*
X733369Y133500D01*
X733493Y132876D01*
X733847Y132346D01*
X734376Y131993D01*
X735000Y131869D01*
X735624Y131993D01*
X736154Y132346D01*
X736507Y132876D01*
X736607Y133377D01*
X741865Y138635D01*
X742130Y139032D01*
X742224Y139500D01*
Y142451D01*
X742507Y142876D01*
X742631Y143500D01*
X742507Y144124D01*
X742154Y144653D01*
X741624Y145007D01*
X741000Y145131D01*
D02*
G37*
G36*
X667500Y146131D02*
X666876Y146007D01*
X666347Y145653D01*
X665993Y145124D01*
X665869Y144500D01*
X665993Y143876D01*
X666347Y143347D01*
X666876Y142993D01*
X667377Y142893D01*
X669277Y140993D01*
Y130673D01*
X668777Y130405D01*
X668624Y130507D01*
X668000Y130631D01*
X667376Y130507D01*
X666847Y130154D01*
X666493Y129624D01*
X666369Y129000D01*
X666493Y128376D01*
X666777Y127951D01*
Y121549D01*
X666493Y121124D01*
X666369Y120500D01*
X666493Y119876D01*
X666847Y119346D01*
X667376Y118993D01*
X668000Y118869D01*
X668624Y118993D01*
X668649Y119009D01*
X669009Y118649D01*
X668993Y118624D01*
X668869Y118000D01*
X668993Y117376D01*
X669347Y116847D01*
X669876Y116493D01*
X670500Y116369D01*
X671124Y116493D01*
X671654Y116847D01*
X672007Y117376D01*
X672131Y118000D01*
X672007Y118624D01*
X671724Y119049D01*
Y141500D01*
X671630Y141968D01*
X671365Y142365D01*
X669107Y144623D01*
X669007Y145124D01*
X668653Y145653D01*
X668124Y146007D01*
X667500Y146131D01*
D02*
G37*
G36*
X865500Y124131D02*
X864876Y124007D01*
X864347Y123653D01*
X863993Y123124D01*
X863869Y122500D01*
X863993Y121876D01*
X864347Y121346D01*
X864876Y120993D01*
X865376Y120893D01*
X867276Y118993D01*
Y110549D01*
X866993Y110124D01*
X866869Y109500D01*
X866993Y108876D01*
X867346Y108346D01*
X867876Y107993D01*
X868500Y107869D01*
X869124Y107993D01*
X869654Y108346D01*
X870007Y108876D01*
X870131Y109500D01*
X870007Y110124D01*
X869724Y110549D01*
Y119500D01*
X869630Y119968D01*
X869365Y120365D01*
X867107Y122624D01*
X867007Y123124D01*
X866654Y123653D01*
X866124Y124007D01*
X865500Y124131D01*
D02*
G37*
G36*
X626500Y122131D02*
X625876Y122007D01*
X625347Y121653D01*
X624993Y121124D01*
X624869Y120500D01*
X624993Y119876D01*
X625277Y119451D01*
Y117500D01*
X625370Y117032D01*
X625635Y116635D01*
X635635Y106635D01*
X636032Y106370D01*
X636500Y106277D01*
X636951D01*
X637376Y105993D01*
X638000Y105869D01*
X638624Y105993D01*
X639153Y106346D01*
X639507Y106876D01*
X639631Y107500D01*
X639628Y107519D01*
X639897Y107788D01*
X640065Y107882D01*
X640624Y107993D01*
X641153Y108346D01*
X641507Y108876D01*
X641631Y109500D01*
X641507Y110124D01*
X641153Y110653D01*
X640624Y111007D01*
X640000Y111131D01*
X639666Y111065D01*
X631607Y119123D01*
X631507Y119624D01*
X631153Y120153D01*
X630624Y120507D01*
X630000Y120631D01*
X629376Y120507D01*
X628847Y120153D01*
X628493Y119624D01*
X628369Y119000D01*
X628493Y118376D01*
X628847Y117847D01*
X629376Y117493D01*
X629877Y117393D01*
X637690Y109580D01*
X637526Y109037D01*
X637376Y109007D01*
X636984Y108746D01*
X627724Y118007D01*
Y119451D01*
X628007Y119876D01*
X628131Y120500D01*
X628007Y121124D01*
X627654Y121653D01*
X627124Y122007D01*
X626500Y122131D01*
D02*
G37*
G36*
X117500Y132814D02*
X115104Y132626D01*
X112768Y132065D01*
X110547Y131145D01*
X108499Y129889D01*
X106671Y128329D01*
X105111Y126501D01*
X103855Y124452D01*
X102935Y122232D01*
X102374Y119896D01*
X102186Y117500D01*
X102374Y115104D01*
X102935Y112768D01*
X103855Y110547D01*
X105111Y108499D01*
X106671Y106671D01*
X108499Y105111D01*
X110547Y103855D01*
X112768Y102935D01*
X115104Y102374D01*
X117500Y102186D01*
X119896Y102374D01*
X122232Y102935D01*
X124452Y103855D01*
X126501Y105111D01*
X128329Y106671D01*
X129889Y108499D01*
X131145Y110547D01*
X132065Y112768D01*
X132626Y115104D01*
X132814Y117500D01*
X132626Y119896D01*
X132065Y122232D01*
X131145Y124452D01*
X129889Y126501D01*
X128329Y128329D01*
X126501Y129889D01*
X124452Y131145D01*
X122232Y132065D01*
X119896Y132626D01*
X117500Y132814D01*
D02*
G37*
G36*
X828000Y120631D02*
X827376Y120507D01*
X826847Y120153D01*
X826493Y119624D01*
X826393Y119123D01*
X821877Y114607D01*
X821376Y114507D01*
X820846Y114154D01*
X820493Y113624D01*
X820369Y113000D01*
X820493Y112376D01*
X820846Y111846D01*
X821376Y111493D01*
X822000Y111369D01*
X822624Y111493D01*
X823153Y111846D01*
X823507Y112376D01*
X823607Y112876D01*
X828123Y117393D01*
X828624Y117493D01*
X829154Y117847D01*
X829507Y118376D01*
X829631Y119000D01*
X829507Y119624D01*
X829154Y120153D01*
X828624Y120507D01*
X828000Y120631D01*
D02*
G37*
G36*
X394220Y127581D02*
X393164Y127442D01*
X392180Y127035D01*
X391335Y126386D01*
X390686Y125541D01*
X390278Y124556D01*
X390139Y123500D01*
X390278Y122444D01*
X390686Y121459D01*
X391335Y120614D01*
X392180Y119965D01*
X393164Y119558D01*
X394220Y119419D01*
X395277Y119558D01*
X396261Y119965D01*
X397106Y120614D01*
X397755Y121459D01*
X398163Y122444D01*
X398302Y123500D01*
X398163Y124556D01*
X397755Y125541D01*
X397106Y126386D01*
X396261Y127035D01*
X395277Y127442D01*
X394220Y127581D01*
D02*
G37*
G36*
X463000Y147314D02*
X460604Y147126D01*
X458268Y146565D01*
X456047Y145645D01*
X453999Y144389D01*
X452171Y142829D01*
X450611Y141001D01*
X449355Y138953D01*
X448435Y136732D01*
X447874Y134396D01*
X447686Y132000D01*
X447874Y129604D01*
X448435Y127268D01*
X449355Y125048D01*
X450611Y122999D01*
X452171Y121171D01*
X453999Y119611D01*
X456047Y118355D01*
X458268Y117435D01*
X460604Y116874D01*
X463000Y116686D01*
X465396Y116874D01*
X467732Y117435D01*
X469952Y118355D01*
X472001Y119611D01*
X473829Y121171D01*
X475389Y122999D01*
X476645Y125048D01*
X477565Y127268D01*
X478126Y129604D01*
X478314Y132000D01*
X478126Y134396D01*
X477565Y136732D01*
X476645Y138953D01*
X475389Y141001D01*
X473829Y142829D01*
X472001Y144389D01*
X469952Y145645D01*
X467732Y146565D01*
X465396Y147126D01*
X463000Y147314D01*
D02*
G37*
G36*
X882000Y134131D02*
X881376Y134007D01*
X880847Y133653D01*
X880493Y133124D01*
X880393Y132624D01*
X880135Y132365D01*
X879870Y131968D01*
X879776Y131500D01*
Y117049D01*
X879493Y116624D01*
X879369Y116000D01*
X879493Y115376D01*
X879846Y114847D01*
X880376Y114493D01*
X881000Y114369D01*
X881624Y114493D01*
X882154Y114847D01*
X882250Y114991D01*
X882750D01*
X882847Y114847D01*
X883376Y114493D01*
X884000Y114369D01*
X884624Y114493D01*
X885069Y114790D01*
X885434Y114726D01*
X885620Y114645D01*
X885680Y114405D01*
X885493Y114124D01*
X885369Y113500D01*
X885493Y112876D01*
X885847Y112346D01*
X886376Y111993D01*
X887000Y111869D01*
X887624Y111993D01*
X888153Y112346D01*
X888507Y112876D01*
X888631Y113500D01*
X888507Y114124D01*
X888223Y114549D01*
Y123059D01*
X888653Y123346D01*
X889007Y123876D01*
X889131Y124500D01*
X889007Y125124D01*
X888653Y125654D01*
X888124Y126007D01*
X887500Y126131D01*
X886876Y126007D01*
X886347Y125654D01*
X885993Y125124D01*
X885970Y125011D01*
X885420Y124809D01*
X885124Y125007D01*
X884500Y125131D01*
X883876Y125007D01*
X883346Y124653D01*
X882993Y124124D01*
X882869Y123500D01*
X882874Y123474D01*
X882870Y123468D01*
X882777Y123000D01*
Y117574D01*
X882361Y117414D01*
X882224Y117526D01*
Y130913D01*
X882624Y130993D01*
X883154Y131346D01*
X883507Y131876D01*
X883631Y132500D01*
X883507Y133124D01*
X883154Y133653D01*
X882624Y134007D01*
X882000Y134131D01*
D02*
G37*
G36*
X752000Y211131D02*
X751376Y211007D01*
X750846Y210653D01*
X750493Y210124D01*
X750369Y209500D01*
X750493Y208876D01*
X750846Y208347D01*
X751376Y207993D01*
X751456Y207977D01*
X795006Y164427D01*
X795016Y164376D01*
X795370Y163847D01*
X795899Y163493D01*
X796524Y163369D01*
X797148Y163493D01*
X797677Y163847D01*
X798031Y164376D01*
X798155Y165000D01*
X798031Y165624D01*
X797677Y166154D01*
X797148Y166507D01*
X797097Y166517D01*
X753511Y210103D01*
X753507Y210124D01*
X753154Y210653D01*
X752624Y211007D01*
X752000Y211131D01*
D02*
G37*
G36*
X648000Y189631D02*
X647376Y189507D01*
X646846Y189154D01*
X646493Y188624D01*
X646369Y188000D01*
X646493Y187376D01*
X646846Y186846D01*
X647376Y186493D01*
X647427Y186483D01*
X655522Y178388D01*
Y165667D01*
X655493Y165624D01*
X655369Y165000D01*
X655493Y164376D01*
X655847Y163847D01*
X656376Y163493D01*
X657000Y163369D01*
X657624Y163493D01*
X658153Y163847D01*
X658507Y164376D01*
X658631Y165000D01*
X658507Y165624D01*
X658478Y165667D01*
Y179000D01*
X658366Y179566D01*
X658045Y180045D01*
X649517Y188574D01*
X649507Y188624D01*
X649154Y189154D01*
X648624Y189507D01*
X648000Y189631D01*
D02*
G37*
G36*
X800500Y160131D02*
X799876Y160007D01*
X799451Y159723D01*
X794549D01*
X794124Y160007D01*
X793500Y160131D01*
X792876Y160007D01*
X792346Y159653D01*
X791993Y159124D01*
X791869Y158500D01*
X791993Y157876D01*
X792346Y157346D01*
X792491Y157250D01*
Y156750D01*
X792346Y156653D01*
X791993Y156124D01*
X791869Y155500D01*
X791993Y154876D01*
X792346Y154347D01*
X792876Y153993D01*
X793500Y153869D01*
X794124Y153993D01*
X794549Y154277D01*
X799451D01*
X799876Y153993D01*
X800500Y153869D01*
X801124Y153993D01*
X801653Y154347D01*
X802007Y154876D01*
X802131Y155500D01*
X802007Y156124D01*
X801653Y156653D01*
X801509Y156750D01*
Y157250D01*
X801653Y157346D01*
X802007Y157876D01*
X802131Y158500D01*
X802007Y159124D01*
X801653Y159653D01*
X801124Y160007D01*
X800500Y160131D01*
D02*
G37*
G36*
X849500Y169131D02*
X848876Y169007D01*
X848833Y168978D01*
X842500D01*
X841934Y168866D01*
X841455Y168545D01*
X839427Y166517D01*
X839376Y166507D01*
X838846Y166154D01*
X838493Y165624D01*
X838369Y165000D01*
X838493Y164376D01*
X838846Y163847D01*
X839376Y163493D01*
X840000Y163369D01*
X840624Y163493D01*
X841154Y163847D01*
X841507Y164376D01*
X841517Y164427D01*
X843112Y166022D01*
X848833D01*
X848876Y165993D01*
X849500Y165869D01*
X850124Y165993D01*
X850653Y166347D01*
X851007Y166876D01*
X851131Y167500D01*
X851007Y168124D01*
X850653Y168654D01*
X850124Y169007D01*
X849500Y169131D01*
D02*
G37*
G36*
X623000Y220131D02*
X622376Y220007D01*
X621846Y219654D01*
X621493Y219124D01*
X621369Y218500D01*
X621493Y217876D01*
X621676Y217601D01*
Y206907D01*
X604493Y189724D01*
X595049D01*
X594624Y190007D01*
X594000Y190131D01*
X593376Y190007D01*
X592846Y189654D01*
X592493Y189124D01*
X592369Y188500D01*
X592493Y187876D01*
X592846Y187346D01*
X593376Y186993D01*
X594000Y186869D01*
X594624Y186993D01*
X595049Y187276D01*
X596327D01*
X596594Y186776D01*
X596493Y186624D01*
X596369Y186000D01*
X596493Y185376D01*
X596846Y184846D01*
X597376Y184493D01*
X598000Y184369D01*
X598624Y184493D01*
X599049Y184776D01*
X605500D01*
X605968Y184870D01*
X606365Y185135D01*
X626365Y205135D01*
X626630Y205532D01*
X626723Y206000D01*
Y216451D01*
X627007Y216876D01*
X627131Y217500D01*
X627007Y218124D01*
X626653Y218653D01*
X626124Y219007D01*
X625500Y219131D01*
X625034Y219039D01*
X624507Y219124D01*
X624154Y219654D01*
X623624Y220007D01*
X623000Y220131D01*
D02*
G37*
G36*
X896500Y186131D02*
X895876Y186007D01*
X895451Y185723D01*
X890549D01*
X890124Y186007D01*
X889500Y186131D01*
X888876Y186007D01*
X888346Y185653D01*
X887993Y185124D01*
X887869Y184500D01*
X887993Y183876D01*
X888346Y183346D01*
X888876Y182993D01*
X889500Y182869D01*
X890124Y182993D01*
X890549Y183276D01*
X895451D01*
X895876Y182993D01*
X896500Y182869D01*
X897124Y182993D01*
X897653Y183346D01*
X898007Y183876D01*
X898131Y184500D01*
X898007Y185124D01*
X897653Y185653D01*
X897124Y186007D01*
X896500Y186131D01*
D02*
G37*
G36*
X811000Y178131D02*
X810376Y178007D01*
X809846Y177654D01*
X809493Y177124D01*
X809369Y176500D01*
X809493Y175876D01*
X809846Y175347D01*
X810376Y174993D01*
X811000Y174869D01*
X811624Y174993D01*
X811716Y175054D01*
X813893Y172877D01*
X813993Y172376D01*
X814347Y171846D01*
X814876Y171493D01*
X815500Y171369D01*
X816124Y171493D01*
X816654Y171846D01*
X817007Y172376D01*
X817131Y173000D01*
X817007Y173624D01*
X816654Y174153D01*
X816124Y174507D01*
X815623Y174607D01*
X812865Y177365D01*
X812468Y177630D01*
X812070Y177710D01*
X811624Y178007D01*
X811000Y178131D01*
D02*
G37*
G36*
X394220Y155140D02*
X393164Y155001D01*
X392180Y154594D01*
X391335Y153945D01*
X390686Y153100D01*
X390278Y152115D01*
X390139Y151059D01*
X390278Y150003D01*
X390686Y149018D01*
X391335Y148173D01*
X392180Y147524D01*
X393164Y147117D01*
X394220Y146978D01*
X395277Y147117D01*
X396261Y147524D01*
X397106Y148173D01*
X397755Y149018D01*
X398163Y150003D01*
X398302Y151059D01*
X398163Y152115D01*
X397755Y153100D01*
X397106Y153945D01*
X396261Y154594D01*
X395277Y155001D01*
X394220Y155140D01*
D02*
G37*
G36*
X856500Y140631D02*
X855876Y140507D01*
X855346Y140154D01*
X854993Y139624D01*
X854869Y139000D01*
X854993Y138376D01*
X855346Y137847D01*
X855612Y137669D01*
X855635Y137635D01*
X857635Y135635D01*
X858032Y135370D01*
X858500Y135276D01*
X861451D01*
X861876Y134993D01*
X862500Y134869D01*
X863124Y134993D01*
X863653Y135346D01*
X864007Y135876D01*
X864131Y136500D01*
X864007Y137124D01*
X863653Y137654D01*
X863124Y138007D01*
X862500Y138131D01*
X861876Y138007D01*
X861451Y137724D01*
X859007D01*
X858065Y138665D01*
X858131Y139000D01*
X858007Y139624D01*
X857654Y140154D01*
X857124Y140507D01*
X856500Y140631D01*
D02*
G37*
G36*
X607154Y137619D02*
X606343Y137457D01*
X605655Y136998D01*
X605196Y136311D01*
X605035Y135500D01*
X605196Y134689D01*
X605655Y134002D01*
X606343Y133543D01*
X607154Y133381D01*
X607964Y133543D01*
X608652Y134002D01*
X609111Y134689D01*
X609272Y135500D01*
X609111Y136311D01*
X608652Y136998D01*
X607964Y137457D01*
X607154Y137619D01*
D02*
G37*
G36*
X848500Y151131D02*
X847876Y151007D01*
X847451Y150724D01*
X841049D01*
X840624Y151007D01*
X840000Y151131D01*
X839376Y151007D01*
X838846Y150654D01*
X838493Y150124D01*
X838369Y149500D01*
X838493Y148876D01*
X838846Y148346D01*
X838991Y148250D01*
Y147750D01*
X838846Y147653D01*
X838493Y147124D01*
X838369Y146500D01*
X838493Y145876D01*
X838658Y145629D01*
X838808Y145250D01*
X838658Y144871D01*
X838493Y144624D01*
X838369Y144000D01*
X838493Y143376D01*
X838846Y142847D01*
X839376Y142493D01*
X840000Y142369D01*
X840624Y142493D01*
X841049Y142777D01*
X845493D01*
X858135Y130135D01*
X858532Y129870D01*
X858930Y129790D01*
X859376Y129493D01*
X860000Y129369D01*
X860624Y129493D01*
X861154Y129847D01*
X861507Y130376D01*
X861631Y131000D01*
X861507Y131624D01*
X861154Y132153D01*
X860624Y132507D01*
X860000Y132631D01*
X859376Y132507D01*
X859284Y132446D01*
X847118Y144612D01*
X847241Y145158D01*
X847488Y145252D01*
X847876Y144993D01*
X848500Y144869D01*
X849124Y144993D01*
X849654Y145346D01*
X850007Y145876D01*
X850131Y146500D01*
X850007Y147124D01*
X849654Y147653D01*
X849509Y147750D01*
Y148250D01*
X849654Y148346D01*
X850007Y148876D01*
X850131Y149500D01*
X850007Y150124D01*
X849654Y150654D01*
X849124Y151007D01*
X848500Y151131D01*
D02*
G37*
G36*
X704000Y214631D02*
X703376Y214507D01*
X702846Y214154D01*
X702493Y213624D01*
X702369Y213000D01*
X702493Y212376D01*
X702776Y211951D01*
Y161049D01*
X702493Y160624D01*
X702369Y160000D01*
X702493Y159376D01*
X702846Y158846D01*
X703376Y158493D01*
X704000Y158369D01*
X704624Y158493D01*
X705154Y158846D01*
X705507Y159376D01*
X705631Y160000D01*
X705507Y160624D01*
X705224Y161049D01*
Y211951D01*
X705507Y212376D01*
X705631Y213000D01*
X705507Y213624D01*
X705154Y214154D01*
X704624Y214507D01*
X704000Y214631D01*
D02*
G37*
G36*
X876500Y189131D02*
X875876Y189007D01*
X875346Y188654D01*
X874993Y188124D01*
X874869Y187500D01*
X874993Y186876D01*
X875045Y186797D01*
Y160321D01*
X875016Y160278D01*
X874892Y159653D01*
X875016Y159029D01*
X875370Y158500D01*
X875899Y158146D01*
X876524Y158022D01*
X877148Y158146D01*
X877677Y158500D01*
X878031Y159029D01*
X878155Y159653D01*
X878031Y160278D01*
X878002Y160321D01*
Y186868D01*
X878007Y186876D01*
X878131Y187500D01*
X878007Y188124D01*
X877654Y188654D01*
X877124Y189007D01*
X876500Y189131D01*
D02*
G37*
G36*
X821500Y180131D02*
X820876Y180007D01*
X820347Y179654D01*
X819993Y179124D01*
X819869Y178500D01*
X819993Y177876D01*
X820277Y177451D01*
Y170000D01*
X820370Y169532D01*
X820635Y169135D01*
X832635Y157135D01*
X833032Y156870D01*
X833500Y156776D01*
X833951D01*
X834376Y156493D01*
X835000Y156369D01*
X835624Y156493D01*
X836154Y156846D01*
X836507Y157376D01*
X836631Y158000D01*
X836507Y158624D01*
X836154Y159153D01*
X835624Y159507D01*
X835000Y159631D01*
X834376Y159507D01*
X833984Y159246D01*
X822723Y170507D01*
Y177451D01*
X823007Y177876D01*
X823131Y178500D01*
X823007Y179124D01*
X822653Y179654D01*
X822124Y180007D01*
X821500Y180131D01*
D02*
G37*
G36*
X476500Y526131D02*
X475876Y526007D01*
X475347Y525654D01*
X474993Y525124D01*
X474869Y524500D01*
X474993Y523876D01*
X475347Y523347D01*
X475876Y522993D01*
X476500Y522869D01*
X477124Y522993D01*
X477549Y523277D01*
X478993D01*
X479635Y522635D01*
X480032Y522370D01*
X480500Y522276D01*
X485451D01*
X485876Y521993D01*
X486500Y521869D01*
X487124Y521993D01*
X487653Y522346D01*
X488007Y522876D01*
X488131Y523500D01*
X488007Y524124D01*
X487653Y524653D01*
X487124Y525007D01*
X486500Y525131D01*
X485876Y525007D01*
X485451Y524723D01*
X481007D01*
X480365Y525365D01*
X479968Y525630D01*
X479500Y525724D01*
X477549D01*
X477124Y526007D01*
X476500Y526131D01*
D02*
G37*
G36*
X460744Y520453D02*
X459933Y520292D01*
X459246Y519833D01*
X458787Y519145D01*
X458625Y518335D01*
X458787Y517524D01*
X459246Y516837D01*
X459933Y516377D01*
X460744Y516216D01*
X461555Y516377D01*
X462242Y516837D01*
X462702Y517524D01*
X462863Y518335D01*
X462702Y519145D01*
X462242Y519833D01*
X461555Y520292D01*
X460744Y520453D01*
D02*
G37*
G36*
X875500Y513131D02*
X874876Y513007D01*
X874451Y512723D01*
X867549D01*
X867124Y513007D01*
X866500Y513131D01*
X865876Y513007D01*
X865347Y512653D01*
X864993Y512124D01*
X864869Y511500D01*
X864993Y510876D01*
X865347Y510347D01*
X865876Y509993D01*
X866500Y509869D01*
X867124Y509993D01*
X867549Y510277D01*
X874451D01*
X874876Y509993D01*
X875500Y509869D01*
X876124Y509993D01*
X876653Y510347D01*
X877007Y510876D01*
X877131Y511500D01*
X877007Y512124D01*
X876653Y512653D01*
X876124Y513007D01*
X875500Y513131D01*
D02*
G37*
G36*
X498500Y559314D02*
X496104Y559126D01*
X493768Y558565D01*
X491547Y557645D01*
X489499Y556389D01*
X487671Y554829D01*
X486111Y553001D01*
X484855Y550952D01*
X483935Y548732D01*
X483374Y546396D01*
X483186Y544000D01*
X483374Y541604D01*
X483935Y539268D01*
X484855Y537047D01*
X486111Y534999D01*
X487671Y533171D01*
X489499Y531611D01*
X491547Y530355D01*
X493768Y529435D01*
X496104Y528874D01*
X498500Y528686D01*
X500896Y528874D01*
X503232Y529435D01*
X505452Y530355D01*
X507501Y531611D01*
X509329Y533171D01*
X510889Y534999D01*
X512145Y537047D01*
X513065Y539268D01*
X513626Y541604D01*
X513814Y544000D01*
X513626Y546396D01*
X513065Y548732D01*
X512145Y550952D01*
X510889Y553001D01*
X509329Y554829D01*
X507501Y556389D01*
X505452Y557645D01*
X503232Y558565D01*
X500896Y559126D01*
X498500Y559314D01*
D02*
G37*
G36*
X651500Y598814D02*
X649104Y598626D01*
X646768Y598065D01*
X644548Y597145D01*
X642499Y595889D01*
X640671Y594329D01*
X639111Y592501D01*
X637855Y590452D01*
X636935Y588232D01*
X636374Y585896D01*
X636186Y583500D01*
X636374Y581104D01*
X636935Y578768D01*
X637855Y576547D01*
X639111Y574499D01*
X640671Y572671D01*
X642499Y571111D01*
X644548Y569855D01*
X646768Y568935D01*
X649104Y568374D01*
X651500Y568186D01*
X653896Y568374D01*
X656232Y568935D01*
X658453Y569855D01*
X660501Y571111D01*
X662329Y572671D01*
X663889Y574499D01*
X665145Y576547D01*
X666065Y578768D01*
X666626Y581104D01*
X666814Y583500D01*
X666626Y585896D01*
X666065Y588232D01*
X665145Y590452D01*
X663889Y592501D01*
X662329Y594329D01*
X660501Y595889D01*
X658453Y597145D01*
X656232Y598065D01*
X653896Y598626D01*
X651500Y598814D01*
D02*
G37*
G36*
X668634Y561111D02*
X667823Y560950D01*
X667136Y560490D01*
X666677Y559803D01*
X666515Y558992D01*
X666677Y558181D01*
X667136Y557494D01*
X667823Y557035D01*
X668634Y556874D01*
X669445Y557035D01*
X670132Y557494D01*
X670591Y558181D01*
X670752Y558992D01*
X670591Y559803D01*
X670132Y560490D01*
X669445Y560950D01*
X668634Y561111D01*
D02*
G37*
G36*
X632807D02*
X631996Y560950D01*
X631309Y560490D01*
X630850Y559803D01*
X630688Y558992D01*
X630850Y558181D01*
X631309Y557494D01*
X631996Y557035D01*
X632807Y556874D01*
X633618Y557035D01*
X634305Y557494D01*
X634764Y558181D01*
X634926Y558992D01*
X634764Y559803D01*
X634305Y560490D01*
X633618Y560950D01*
X632807Y561111D01*
D02*
G37*
G36*
X399000Y456131D02*
X398376Y456007D01*
X397951Y455723D01*
X394549D01*
X394124Y456007D01*
X393500Y456131D01*
X392876Y456007D01*
X392347Y455653D01*
X391993Y455124D01*
X391869Y454500D01*
X391993Y453876D01*
X392347Y453346D01*
X392876Y452993D01*
X393500Y452869D01*
X394124Y452993D01*
X394549Y453276D01*
X397951D01*
X398376Y452993D01*
X399000Y452869D01*
X399624Y452993D01*
X400153Y453346D01*
X400507Y453876D01*
X400631Y454500D01*
X400507Y455124D01*
X400153Y455653D01*
X399624Y456007D01*
X399000Y456131D01*
D02*
G37*
G36*
X424500Y457631D02*
X423876Y457507D01*
X423347Y457154D01*
X422993Y456624D01*
X422893Y456123D01*
X420376Y453607D01*
X419876Y453507D01*
X419347Y453154D01*
X418993Y452624D01*
X418869Y452000D01*
X418993Y451376D01*
X419347Y450846D01*
X419876Y450493D01*
X420435Y450382D01*
X420603Y450288D01*
X420788Y450103D01*
X420882Y449935D01*
X420993Y449376D01*
X421347Y448846D01*
X421876Y448493D01*
X422500Y448369D01*
X423124Y448493D01*
X423654Y448846D01*
X424007Y449376D01*
X424107Y449876D01*
X425984Y451754D01*
X426376Y451493D01*
X427000Y451369D01*
X427624Y451493D01*
X428154Y451847D01*
X428507Y452376D01*
X428631Y453000D01*
X428507Y453624D01*
X428154Y454153D01*
X427624Y454507D01*
X427000Y454631D01*
X426376Y454507D01*
X426082Y454311D01*
X425832Y454364D01*
X425742Y454607D01*
X425693Y454906D01*
X426007Y455376D01*
X426131Y456000D01*
X426007Y456624D01*
X425654Y457154D01*
X425124Y457507D01*
X424500Y457631D01*
D02*
G37*
G36*
X404500Y445631D02*
X403876Y445507D01*
X403346Y445154D01*
X403250Y445009D01*
X402750D01*
X402654Y445154D01*
X402124Y445507D01*
X401500Y445631D01*
X400876Y445507D01*
X400451Y445224D01*
X398000D01*
X397532Y445130D01*
X397135Y444865D01*
X391993Y439723D01*
X387549D01*
X387124Y440007D01*
X386500Y440131D01*
X385876Y440007D01*
X385347Y439653D01*
X384993Y439124D01*
X384869Y438500D01*
X384993Y437876D01*
X385347Y437347D01*
X385876Y436993D01*
X386500Y436869D01*
X387124Y436993D01*
X387549Y437277D01*
X392500D01*
X392968Y437370D01*
X393365Y437635D01*
X398507Y442776D01*
X399839D01*
X400046Y442276D01*
X398135Y440365D01*
X397870Y439968D01*
X397777Y439500D01*
Y435480D01*
X397276Y435169D01*
X397000Y435223D01*
X384549D01*
X384124Y435507D01*
X383500Y435631D01*
X382876Y435507D01*
X382347Y435153D01*
X381993Y434624D01*
X381869Y434000D01*
X381993Y433376D01*
X382347Y432846D01*
X382876Y432493D01*
X383500Y432369D01*
X384124Y432493D01*
X384549Y432776D01*
X396493D01*
X397393Y431877D01*
X397493Y431376D01*
X397847Y430847D01*
X398376Y430493D01*
X399000Y430369D01*
X399624Y430493D01*
X400153Y430847D01*
X400507Y431376D01*
X400631Y432000D01*
X400507Y432624D01*
X400223Y433049D01*
Y438993D01*
X401907Y440676D01*
X402370D01*
X402838Y440770D01*
X403235Y441035D01*
X404586Y442386D01*
X405124Y442493D01*
X405653Y442846D01*
X406007Y443376D01*
X406131Y444000D01*
X406007Y444624D01*
X405653Y445154D01*
X405124Y445507D01*
X404500Y445631D01*
D02*
G37*
G36*
X423000Y490814D02*
X420604Y490626D01*
X418268Y490065D01*
X416047Y489145D01*
X413999Y487889D01*
X412171Y486329D01*
X410611Y484501D01*
X409355Y482452D01*
X408435Y480232D01*
X407874Y477896D01*
X407686Y475500D01*
X407874Y473104D01*
X408435Y470768D01*
X409355Y468547D01*
X410611Y466499D01*
X412171Y464671D01*
X413999Y463111D01*
X416047Y461855D01*
X418268Y460935D01*
X420604Y460374D01*
X423000Y460186D01*
X425396Y460374D01*
X427732Y460935D01*
X429952Y461855D01*
X432001Y463111D01*
X433829Y464671D01*
X435389Y466499D01*
X436645Y468547D01*
X437565Y470768D01*
X438126Y473104D01*
X438314Y475500D01*
X438126Y477896D01*
X437565Y480232D01*
X436645Y482452D01*
X435389Y484501D01*
X433829Y486329D01*
X432001Y487889D01*
X429952Y489145D01*
X427732Y490065D01*
X425396Y490626D01*
X423000Y490814D01*
D02*
G37*
G36*
X848000Y513131D02*
X847376Y513007D01*
X846951Y512723D01*
X834549D01*
X834124Y513007D01*
X833500Y513131D01*
X832876Y513007D01*
X832347Y512653D01*
X831993Y512124D01*
X831869Y511500D01*
X831993Y510876D01*
X832347Y510347D01*
X832876Y509993D01*
X833500Y509869D01*
X834124Y509993D01*
X834549Y510277D01*
X846951D01*
X847376Y509993D01*
X848000Y509869D01*
X848624Y509993D01*
X849154Y510347D01*
X849507Y510876D01*
X849631Y511500D01*
X849507Y512124D01*
X849154Y512653D01*
X848624Y513007D01*
X848000Y513131D01*
D02*
G37*
G36*
X657000D02*
X656376Y513007D01*
X655951Y512723D01*
X648049D01*
X647624Y513007D01*
X647000Y513131D01*
X646376Y513007D01*
X645847Y512653D01*
X645493Y512124D01*
X645369Y511500D01*
X645493Y510876D01*
X645847Y510347D01*
X646376Y509993D01*
X647000Y509869D01*
X647624Y509993D01*
X648049Y510277D01*
X655951D01*
X656376Y509993D01*
X657000Y509869D01*
X657624Y509993D01*
X658153Y510347D01*
X658507Y510876D01*
X658631Y511500D01*
X658507Y512124D01*
X658153Y512653D01*
X657624Y513007D01*
X657000Y513131D01*
D02*
G37*
G36*
X460744Y504312D02*
X459933Y504150D01*
X459246Y503691D01*
X458787Y503004D01*
X458625Y502193D01*
X458787Y501382D01*
X459246Y500695D01*
X459933Y500236D01*
X460744Y500074D01*
X461555Y500236D01*
X462242Y500695D01*
X462702Y501382D01*
X462863Y502193D01*
X462702Y503004D01*
X462242Y503691D01*
X461555Y504150D01*
X460744Y504312D01*
D02*
G37*
G36*
X859508Y576642D02*
X858697Y576481D01*
X858010Y576022D01*
X857551Y575334D01*
X857389Y574524D01*
X857551Y573713D01*
X858010Y573026D01*
X858697Y572566D01*
X859508Y572405D01*
X860319Y572566D01*
X861006Y573026D01*
X861465Y573713D01*
X861627Y574524D01*
X861465Y575334D01*
X861006Y576022D01*
X860319Y576481D01*
X859508Y576642D01*
D02*
G37*
G36*
X378000Y650814D02*
X375604Y650626D01*
X373268Y650065D01*
X371047Y649145D01*
X368999Y647889D01*
X367171Y646329D01*
X365611Y644501D01*
X364355Y642452D01*
X363435Y640232D01*
X362874Y637896D01*
X362686Y635500D01*
X362874Y633104D01*
X363435Y630768D01*
X364355Y628547D01*
X365611Y626499D01*
X367171Y624671D01*
X368999Y623111D01*
X371047Y621855D01*
X373268Y620935D01*
X375604Y620374D01*
X378000Y620186D01*
X380396Y620374D01*
X382732Y620935D01*
X384952Y621855D01*
X387001Y623111D01*
X388829Y624671D01*
X390389Y626499D01*
X391645Y628547D01*
X392565Y630768D01*
X393126Y633104D01*
X393314Y635500D01*
X393126Y637896D01*
X392565Y640232D01*
X391645Y642452D01*
X390389Y644501D01*
X388829Y646329D01*
X387001Y647889D01*
X384952Y649145D01*
X382732Y650065D01*
X380396Y650626D01*
X378000Y650814D01*
D02*
G37*
G36*
X295500D02*
X293104Y650626D01*
X290768Y650065D01*
X288547Y649145D01*
X286499Y647889D01*
X284671Y646329D01*
X283111Y644501D01*
X281855Y642452D01*
X280935Y640232D01*
X280374Y637896D01*
X280186Y635500D01*
X280374Y633104D01*
X280935Y630768D01*
X281855Y628547D01*
X283111Y626499D01*
X284671Y624671D01*
X286499Y623111D01*
X288547Y621855D01*
X290768Y620935D01*
X293104Y620374D01*
X295500Y620186D01*
X297896Y620374D01*
X300232Y620935D01*
X302452Y621855D01*
X304501Y623111D01*
X306329Y624671D01*
X307889Y626499D01*
X309145Y628547D01*
X310065Y630768D01*
X310626Y633104D01*
X310814Y635500D01*
X310626Y637896D01*
X310065Y640232D01*
X309145Y642452D01*
X307889Y644501D01*
X306329Y646329D01*
X304501Y647889D01*
X302452Y649145D01*
X300232Y650065D01*
X297896Y650626D01*
X295500Y650814D01*
D02*
G37*
G36*
X859508Y612469D02*
X858697Y612308D01*
X858010Y611848D01*
X857551Y611161D01*
X857389Y610350D01*
X857551Y609540D01*
X858010Y608852D01*
X858697Y608393D01*
X859508Y608232D01*
X860319Y608393D01*
X861006Y608852D01*
X861465Y609540D01*
X861627Y610350D01*
X861465Y611161D01*
X861006Y611848D01*
X860319Y612308D01*
X859508Y612469D01*
D02*
G37*
G36*
X142500Y651814D02*
X140104Y651626D01*
X137768Y651065D01*
X135547Y650145D01*
X133499Y648889D01*
X131671Y647329D01*
X130111Y645501D01*
X128855Y643453D01*
X127935Y641232D01*
X127374Y638896D01*
X127186Y636500D01*
X127374Y634104D01*
X127935Y631768D01*
X128855Y629548D01*
X130111Y627499D01*
X131671Y625671D01*
X133499Y624111D01*
X135547Y622855D01*
X137768Y621935D01*
X140104Y621374D01*
X142500Y621186D01*
X144896Y621374D01*
X147232Y621935D01*
X149452Y622855D01*
X151501Y624111D01*
X153329Y625671D01*
X154889Y627499D01*
X156145Y629548D01*
X157065Y631768D01*
X157626Y634104D01*
X157814Y636500D01*
X157626Y638896D01*
X157065Y641232D01*
X156145Y643453D01*
X154889Y645501D01*
X153329Y647329D01*
X151501Y648889D01*
X149452Y650145D01*
X147232Y651065D01*
X144896Y651626D01*
X142500Y651814D01*
D02*
G37*
G36*
X912500Y712814D02*
X910104Y712626D01*
X907768Y712065D01*
X905548Y711145D01*
X903499Y709889D01*
X901671Y708329D01*
X900111Y706501D01*
X898855Y704453D01*
X897935Y702232D01*
X897374Y699896D01*
X897186Y697500D01*
X897374Y695104D01*
X897935Y692768D01*
X898855Y690548D01*
X900111Y688499D01*
X901671Y686671D01*
X903499Y685111D01*
X905548Y683855D01*
X907768Y682935D01*
X910104Y682374D01*
X912500Y682186D01*
X914896Y682374D01*
X917232Y682935D01*
X919452Y683855D01*
X921501Y685111D01*
X923329Y686671D01*
X924889Y688499D01*
X926145Y690548D01*
X927065Y692768D01*
X927626Y695104D01*
X927814Y697500D01*
X927626Y699896D01*
X927065Y702232D01*
X926145Y704453D01*
X924889Y706501D01*
X923329Y708329D01*
X921501Y709889D01*
X919452Y711145D01*
X917232Y712065D01*
X914896Y712626D01*
X912500Y712814D01*
D02*
G37*
G36*
X515000D02*
X512604Y712626D01*
X510268Y712065D01*
X508047Y711145D01*
X505999Y709889D01*
X504171Y708329D01*
X502611Y706501D01*
X501355Y704453D01*
X500435Y702232D01*
X499874Y699896D01*
X499686Y697500D01*
X499874Y695104D01*
X500435Y692768D01*
X501355Y690548D01*
X502611Y688499D01*
X504171Y686671D01*
X505999Y685111D01*
X508047Y683855D01*
X510268Y682935D01*
X512604Y682374D01*
X515000Y682186D01*
X517396Y682374D01*
X519732Y682935D01*
X521952Y683855D01*
X524001Y685111D01*
X525829Y686671D01*
X527389Y688499D01*
X528645Y690548D01*
X529565Y692768D01*
X530126Y695104D01*
X530314Y697500D01*
X530126Y699896D01*
X529565Y702232D01*
X528645Y704453D01*
X527389Y706501D01*
X525829Y708329D01*
X524001Y709889D01*
X521952Y711145D01*
X519732Y712065D01*
X517396Y712626D01*
X515000Y712814D01*
D02*
G37*
G36*
X117500D02*
X115104Y712626D01*
X112768Y712065D01*
X110547Y711145D01*
X108499Y709889D01*
X106671Y708329D01*
X105111Y706501D01*
X103855Y704453D01*
X102935Y702232D01*
X102374Y699896D01*
X102186Y697500D01*
X102374Y695104D01*
X102935Y692768D01*
X103855Y690548D01*
X105111Y688499D01*
X106671Y686671D01*
X108499Y685111D01*
X110547Y683855D01*
X112768Y682935D01*
X115104Y682374D01*
X117500Y682186D01*
X119896Y682374D01*
X122232Y682935D01*
X124452Y683855D01*
X126501Y685111D01*
X128329Y686671D01*
X129889Y688499D01*
X131145Y690548D01*
X132065Y692768D01*
X132626Y695104D01*
X132814Y697500D01*
X132626Y699896D01*
X132065Y702232D01*
X131145Y704453D01*
X129889Y706501D01*
X128329Y708329D01*
X126501Y709889D01*
X124452Y711145D01*
X122232Y712065D01*
X119896Y712626D01*
X117500Y712814D01*
D02*
G37*
G36*
X316193Y579800D02*
X315382Y579638D01*
X314695Y579179D01*
X314235Y578492D01*
X314074Y577681D01*
X314235Y576870D01*
X314695Y576183D01*
X315382Y575724D01*
X316193Y575562D01*
X317004Y575724D01*
X317691Y576183D01*
X318150Y576870D01*
X318312Y577681D01*
X318150Y578492D01*
X317691Y579179D01*
X317004Y579638D01*
X316193Y579800D01*
D02*
G37*
G36*
X280366D02*
X279555Y579638D01*
X278868Y579179D01*
X278409Y578492D01*
X278247Y577681D01*
X278409Y576870D01*
X278868Y576183D01*
X279555Y575724D01*
X280366Y575562D01*
X281177Y575724D01*
X281864Y576183D01*
X282324Y576870D01*
X282485Y577681D01*
X282324Y578492D01*
X281864Y579179D01*
X281177Y579638D01*
X280366Y579800D01*
D02*
G37*
G36*
X912500Y605814D02*
X910104Y605626D01*
X907768Y605065D01*
X905548Y604145D01*
X903499Y602889D01*
X901671Y601329D01*
X900111Y599501D01*
X898855Y597452D01*
X897935Y595232D01*
X897374Y592896D01*
X897186Y590500D01*
X897374Y588104D01*
X897935Y585768D01*
X898855Y583547D01*
X900111Y581499D01*
X901671Y579671D01*
X903499Y578111D01*
X905548Y576855D01*
X907768Y575935D01*
X910104Y575374D01*
X912500Y575186D01*
X914896Y575374D01*
X917232Y575935D01*
X919452Y576855D01*
X921501Y578111D01*
X923329Y579671D01*
X924889Y581499D01*
X926145Y583547D01*
X927065Y585768D01*
X927626Y588104D01*
X927814Y590500D01*
X927626Y592896D01*
X927065Y595232D01*
X926145Y597452D01*
X924889Y599501D01*
X923329Y601329D01*
X921501Y602889D01*
X919452Y604145D01*
X917232Y605065D01*
X914896Y605626D01*
X912500Y605814D01*
D02*
G37*
G36*
X764000Y614314D02*
X761604Y614126D01*
X759268Y613565D01*
X757048Y612645D01*
X754999Y611389D01*
X753171Y609829D01*
X751611Y608001D01*
X750355Y605953D01*
X749435Y603732D01*
X748874Y601396D01*
X748686Y599000D01*
X748874Y596604D01*
X749435Y594268D01*
X750355Y592048D01*
X751611Y589999D01*
X753171Y588171D01*
X754999Y586611D01*
X757048Y585355D01*
X759268Y584435D01*
X761604Y583874D01*
X764000Y583686D01*
X766396Y583874D01*
X768732Y584435D01*
X770953Y585355D01*
X773001Y586611D01*
X774829Y588171D01*
X776389Y589999D01*
X777645Y592048D01*
X778565Y594268D01*
X779126Y596604D01*
X779314Y599000D01*
X779126Y601396D01*
X778565Y603732D01*
X777645Y605953D01*
X776389Y608001D01*
X774829Y609829D01*
X773001Y611389D01*
X770953Y612645D01*
X768732Y613565D01*
X766396Y614126D01*
X764000Y614314D01*
D02*
G37*
G36*
X395134Y590438D02*
X394323Y590276D01*
X393636Y589817D01*
X393177Y589130D01*
X393015Y588319D01*
X393177Y587508D01*
X393636Y586821D01*
X394323Y586362D01*
X395134Y586200D01*
X395945Y586362D01*
X396632Y586821D01*
X397091Y587508D01*
X397252Y588319D01*
X397091Y589130D01*
X396632Y589817D01*
X395945Y590276D01*
X395134Y590438D01*
D02*
G37*
G36*
X359307D02*
X358496Y590276D01*
X357809Y589817D01*
X357350Y589130D01*
X357188Y588319D01*
X357350Y587508D01*
X357809Y586821D01*
X358496Y586362D01*
X359307Y586200D01*
X360118Y586362D01*
X360805Y586821D01*
X361264Y587508D01*
X361426Y588319D01*
X361264Y589130D01*
X360805Y589817D01*
X360118Y590276D01*
X359307Y590438D01*
D02*
G37*
G36*
X847000Y584131D02*
X846376Y584007D01*
X845951Y583723D01*
X838049D01*
X837624Y584007D01*
X837000Y584131D01*
X836376Y584007D01*
X835847Y583653D01*
X835493Y583124D01*
X835369Y582500D01*
X835493Y581876D01*
X835847Y581347D01*
X836376Y580993D01*
X837000Y580869D01*
X837624Y580993D01*
X838049Y581277D01*
X845951D01*
X846376Y580993D01*
X847000Y580869D01*
X847624Y580993D01*
X848153Y581347D01*
X848507Y581876D01*
X848631Y582500D01*
X848507Y583124D01*
X848153Y583653D01*
X847624Y584007D01*
X847000Y584131D01*
D02*
G37*
G36*
X490000Y428631D02*
X489376Y428507D01*
X488846Y428154D01*
X488658Y427871D01*
X488071D01*
X487882Y428154D01*
X487353Y428507D01*
X486728Y428631D01*
X486104Y428507D01*
X485575Y428154D01*
X485415Y427914D01*
X484813D01*
X484654Y428154D01*
X484124Y428507D01*
X483500Y428631D01*
X482876Y428507D01*
X482346Y428154D01*
X482250Y428009D01*
X481750D01*
X481653Y428154D01*
X481124Y428507D01*
X480500Y428631D01*
X479876Y428507D01*
X479347Y428154D01*
X478993Y427624D01*
X478869Y427000D01*
X478993Y426376D01*
X479160Y426125D01*
X479089Y425769D01*
X478697Y425548D01*
X478582Y425516D01*
X478000Y425631D01*
X477376Y425507D01*
X476847Y425153D01*
X476493Y424624D01*
X476369Y424000D01*
X476493Y423376D01*
X476777Y422951D01*
Y404507D01*
X475993Y403723D01*
X471000D01*
X470532Y403630D01*
X470135Y403365D01*
X469377Y402607D01*
X468876Y402507D01*
X468347Y402153D01*
X467993Y401624D01*
X467869Y401000D01*
X467993Y400376D01*
X468347Y399847D01*
X468876Y399493D01*
X469500Y399369D01*
X470124Y399493D01*
X470653Y399847D01*
X471007Y400376D01*
X471107Y400877D01*
X471507Y401276D01*
X472327D01*
X472594Y400776D01*
X472493Y400624D01*
X472369Y400000D01*
X472493Y399376D01*
X472847Y398847D01*
X473376Y398493D01*
X474000Y398369D01*
X474624Y398493D01*
X475049Y398777D01*
X477500D01*
X477968Y398870D01*
X478365Y399135D01*
X478891Y399660D01*
X479180Y399563D01*
X479380Y399443D01*
X479493Y398876D01*
X479846Y398346D01*
X480376Y397993D01*
X481000Y397869D01*
X481624Y397993D01*
X482154Y398346D01*
X482507Y398876D01*
X482607Y399377D01*
X483563Y400333D01*
X483748Y400243D01*
X483976Y400038D01*
X483869Y399500D01*
X483993Y398876D01*
X484346Y398346D01*
X484876Y397993D01*
X485500Y397869D01*
X486124Y397993D01*
X486654Y398346D01*
X487007Y398876D01*
X487131Y399500D01*
X487065Y399834D01*
X487865Y400635D01*
X488130Y401032D01*
X488224Y401500D01*
X488130Y401968D01*
X487952Y402235D01*
Y425878D01*
X488125Y425954D01*
X488509Y425962D01*
X488776Y425679D01*
Y400549D01*
X488493Y400124D01*
X488369Y399500D01*
X488493Y398876D01*
X488846Y398346D01*
X489376Y397993D01*
X490000Y397869D01*
X490624Y397993D01*
X491153Y398346D01*
X491507Y398876D01*
X491631Y399500D01*
X491507Y400124D01*
X491223Y400549D01*
Y425951D01*
X491507Y426376D01*
X491631Y427000D01*
X491507Y427624D01*
X491153Y428154D01*
X490624Y428507D01*
X490000Y428631D01*
D02*
G37*
G36*
X740500Y387131D02*
X739876Y387007D01*
X739347Y386653D01*
X738993Y386124D01*
X738869Y385500D01*
X738993Y384876D01*
X739277Y384451D01*
Y379724D01*
X738507D01*
X736365Y381865D01*
X735968Y382130D01*
X735500Y382224D01*
X733000D01*
X732532Y382130D01*
X732135Y381865D01*
X731493Y381224D01*
X697549D01*
X697124Y381507D01*
X696500Y381631D01*
X695876Y381507D01*
X695346Y381153D01*
X694993Y380624D01*
X694869Y380000D01*
X694993Y379376D01*
X695281Y378944D01*
X694846Y378654D01*
X694493Y378124D01*
X694369Y377500D01*
X694493Y376876D01*
X694846Y376346D01*
X695376Y375993D01*
X696000Y375869D01*
X696624Y375993D01*
X697049Y376276D01*
X733000D01*
X733468Y376370D01*
X733865Y376635D01*
X734124Y376893D01*
X734624Y376993D01*
X735153Y377346D01*
X735507Y377876D01*
X735620Y378443D01*
X735819Y378563D01*
X736109Y378660D01*
X737135Y377635D01*
X737532Y377370D01*
X738000Y377276D01*
X739451D01*
X739876Y376993D01*
X740500Y376869D01*
X741124Y376993D01*
X741653Y377346D01*
X742007Y377876D01*
X742131Y378500D01*
X742007Y379124D01*
X741723Y379549D01*
Y384451D01*
X742007Y384876D01*
X742131Y385500D01*
X742007Y386124D01*
X741653Y386653D01*
X741124Y387007D01*
X740500Y387131D01*
D02*
G37*
G36*
X459000Y379131D02*
X458376Y379007D01*
X458333Y378978D01*
X441667D01*
X441624Y379007D01*
X441000Y379131D01*
X440376Y379007D01*
X439847Y378654D01*
X439493Y378124D01*
X439369Y377500D01*
X439493Y376876D01*
X439847Y376346D01*
X440376Y375993D01*
X441000Y375869D01*
X441624Y375993D01*
X441667Y376022D01*
X458333D01*
X458376Y375993D01*
X459000Y375869D01*
X459624Y375993D01*
X460153Y376346D01*
X460507Y376876D01*
X460631Y377500D01*
X460507Y378124D01*
X460153Y378654D01*
X459624Y379007D01*
X459000Y379131D01*
D02*
G37*
G36*
X621386Y379784D02*
X620575Y379623D01*
X619888Y379164D01*
X619428Y378476D01*
X619267Y377665D01*
X619428Y376855D01*
X619888Y376167D01*
X620575Y375708D01*
X621386Y375547D01*
X622197Y375708D01*
X622884Y376167D01*
X623343Y376855D01*
X623504Y377665D01*
X623343Y378476D01*
X622884Y379164D01*
X622197Y379623D01*
X621386Y379784D01*
D02*
G37*
G36*
X386000Y404131D02*
X385376Y404007D01*
X384846Y403653D01*
X384493Y403124D01*
X384369Y402500D01*
X384493Y401876D01*
X384846Y401346D01*
X385376Y400993D01*
X385876Y400893D01*
X398393Y388376D01*
X398493Y387876D01*
X398847Y387347D01*
X399376Y386993D01*
X400000Y386869D01*
X400624Y386993D01*
X401154Y387347D01*
X401507Y387876D01*
X401631Y388500D01*
X401507Y389124D01*
X401154Y389653D01*
X400624Y390007D01*
X400124Y390107D01*
X387607Y402624D01*
X387507Y403124D01*
X387154Y403653D01*
X386624Y404007D01*
X386000Y404131D01*
D02*
G37*
G36*
X559000Y432131D02*
X558376Y432007D01*
X557846Y431653D01*
X557493Y431124D01*
X557369Y430500D01*
X557493Y429876D01*
X557776Y429451D01*
Y396049D01*
X557493Y395624D01*
X557369Y395000D01*
X557493Y394376D01*
X557846Y393847D01*
X558376Y393493D01*
X559000Y393369D01*
X559624Y393493D01*
X560153Y393847D01*
X560507Y394376D01*
X560631Y395000D01*
X560507Y395624D01*
X560223Y396049D01*
Y429451D01*
X560507Y429876D01*
X560631Y430500D01*
X560507Y431124D01*
X560153Y431653D01*
X559624Y432007D01*
X559000Y432131D01*
D02*
G37*
G36*
X649000Y392631D02*
X648376Y392507D01*
X647951Y392224D01*
X642549D01*
X642124Y392507D01*
X641500Y392631D01*
X640876Y392507D01*
X640346Y392154D01*
X639993Y391624D01*
X639869Y391000D01*
X639993Y390376D01*
X640346Y389846D01*
X640848Y389511D01*
X640876Y389298D01*
Y389202D01*
X640848Y388989D01*
X640346Y388653D01*
X639993Y388124D01*
X639869Y387500D01*
X639993Y386876D01*
X640346Y386347D01*
X640876Y385993D01*
X641500Y385869D01*
X642124Y385993D01*
X642549Y386277D01*
X647951D01*
X648376Y385993D01*
X649000Y385869D01*
X649624Y385993D01*
X650153Y386347D01*
X650507Y386876D01*
X650631Y387500D01*
X650507Y388124D01*
X650153Y388653D01*
X649652Y388989D01*
X649624Y389202D01*
Y389298D01*
X649652Y389511D01*
X650153Y389846D01*
X650507Y390376D01*
X650631Y391000D01*
X650507Y391624D01*
X650153Y392154D01*
X649624Y392507D01*
X649000Y392631D01*
D02*
G37*
G36*
X665500Y419314D02*
X663104Y419126D01*
X660768Y418565D01*
X658547Y417645D01*
X656499Y416389D01*
X654671Y414829D01*
X653111Y413001D01*
X651855Y410953D01*
X650935Y408732D01*
X650374Y406396D01*
X650186Y404000D01*
X650374Y401604D01*
X650935Y399268D01*
X651855Y397047D01*
X653111Y394999D01*
X654671Y393171D01*
X656499Y391611D01*
X658547Y390355D01*
X660768Y389435D01*
X663104Y388874D01*
X665500Y388686D01*
X667896Y388874D01*
X670232Y389435D01*
X672452Y390355D01*
X674501Y391611D01*
X676329Y393171D01*
X677889Y394999D01*
X679145Y397047D01*
X680065Y399268D01*
X680626Y401604D01*
X680814Y404000D01*
X680626Y406396D01*
X680065Y408732D01*
X679145Y410953D01*
X677889Y413001D01*
X676329Y414829D01*
X674501Y416389D01*
X672452Y417645D01*
X670232Y418565D01*
X667896Y419126D01*
X665500Y419314D01*
D02*
G37*
G36*
X605244Y379784D02*
X604433Y379623D01*
X603746Y379164D01*
X603287Y378476D01*
X603125Y377665D01*
X603287Y376855D01*
X603746Y376167D01*
X604433Y375708D01*
X605244Y375547D01*
X606055Y375708D01*
X606742Y376167D01*
X607201Y376855D01*
X607363Y377665D01*
X607201Y378476D01*
X606742Y379164D01*
X606055Y379623D01*
X605244Y379784D01*
D02*
G37*
G36*
X490000Y364631D02*
X489376Y364507D01*
X488846Y364154D01*
X488511Y363652D01*
X488298Y363624D01*
X488202D01*
X487989Y363652D01*
X487653Y364154D01*
X487124Y364507D01*
X486500Y364631D01*
X485876Y364507D01*
X485347Y364154D01*
X485250Y364009D01*
X484750D01*
X484654Y364154D01*
X484124Y364507D01*
X483500Y364631D01*
X482876Y364507D01*
X482346Y364154D01*
X481993Y363624D01*
X481869Y363000D01*
X481993Y362376D01*
X482276Y361951D01*
Y356549D01*
X481993Y356124D01*
X481869Y355500D01*
X481993Y354876D01*
X482346Y354346D01*
X482876Y353993D01*
X483500Y353869D01*
X484124Y353993D01*
X484654Y354346D01*
X484989Y354848D01*
X485202Y354876D01*
X485298D01*
X485511Y354848D01*
X485847Y354346D01*
X486376Y353993D01*
X487000Y353869D01*
X487624Y353993D01*
X488154Y354346D01*
X488250Y354491D01*
X488750D01*
X488846Y354346D01*
X489376Y353993D01*
X490000Y353869D01*
X490624Y353993D01*
X491153Y354346D01*
X491507Y354876D01*
X491631Y355500D01*
X491507Y356124D01*
X491223Y356549D01*
Y361951D01*
X491507Y362376D01*
X491631Y363000D01*
X491507Y363624D01*
X491153Y364154D01*
X490624Y364507D01*
X490000Y364631D01*
D02*
G37*
G36*
X579500Y393814D02*
X577104Y393626D01*
X574768Y393065D01*
X572547Y392145D01*
X570499Y390889D01*
X568671Y389329D01*
X567111Y387501D01*
X565855Y385453D01*
X564935Y383232D01*
X564374Y380896D01*
X564186Y378500D01*
X564374Y376104D01*
X564935Y373768D01*
X565855Y371548D01*
X567111Y369499D01*
X568671Y367671D01*
X570499Y366111D01*
X572547Y364855D01*
X574768Y363935D01*
X577104Y363374D01*
X579500Y363186D01*
X581896Y363374D01*
X584232Y363935D01*
X586452Y364855D01*
X588501Y366111D01*
X590329Y367671D01*
X591889Y369499D01*
X593145Y371548D01*
X594065Y373768D01*
X594626Y376104D01*
X594814Y378500D01*
X594626Y380896D01*
X594065Y383232D01*
X593145Y385453D01*
X591889Y387501D01*
X590329Y389329D01*
X588501Y390889D01*
X586452Y392145D01*
X584232Y393065D01*
X581896Y393626D01*
X579500Y393814D01*
D02*
G37*
G36*
X163000Y388314D02*
X160604Y388126D01*
X158268Y387565D01*
X156047Y386645D01*
X153999Y385389D01*
X152171Y383829D01*
X150611Y382001D01*
X149355Y379953D01*
X148435Y377732D01*
X147874Y375396D01*
X147686Y373000D01*
X147874Y370604D01*
X148435Y368268D01*
X149355Y366048D01*
X150611Y363999D01*
X152171Y362171D01*
X153999Y360611D01*
X156047Y359355D01*
X158268Y358435D01*
X160604Y357874D01*
X163000Y357686D01*
X165396Y357874D01*
X167732Y358435D01*
X169952Y359355D01*
X172001Y360611D01*
X173829Y362171D01*
X175389Y363999D01*
X176645Y366048D01*
X177565Y368268D01*
X178126Y370604D01*
X178314Y373000D01*
X178126Y375396D01*
X177565Y377732D01*
X176645Y379953D01*
X175389Y382001D01*
X173829Y383829D01*
X172001Y385389D01*
X169952Y386645D01*
X167732Y387565D01*
X165396Y388126D01*
X163000Y388314D01*
D02*
G37*
G36*
X365000Y383631D02*
X364376Y383507D01*
X363846Y383154D01*
X363493Y382624D01*
X363369Y382000D01*
X363493Y381376D01*
X363846Y380847D01*
X364376Y380493D01*
X364877Y380393D01*
X377893Y367376D01*
X377993Y366876D01*
X378346Y366347D01*
X378876Y365993D01*
X379500Y365869D01*
X380124Y365993D01*
X380654Y366347D01*
X381007Y366876D01*
X381131Y367500D01*
X381007Y368124D01*
X380654Y368653D01*
X380124Y369007D01*
X379624Y369107D01*
X366607Y382123D01*
X366507Y382624D01*
X366154Y383154D01*
X365624Y383507D01*
X365000Y383631D01*
D02*
G37*
G36*
X790000Y380631D02*
X789376Y380507D01*
X788846Y380153D01*
X788493Y379624D01*
X788369Y379000D01*
X788493Y378376D01*
X788776Y377951D01*
Y374549D01*
X788493Y374124D01*
X788369Y373500D01*
X788493Y372876D01*
X788846Y372346D01*
X789376Y371993D01*
X790000Y371869D01*
X790624Y371993D01*
X791153Y372346D01*
X791507Y372876D01*
X791631Y373500D01*
X791507Y374124D01*
X791223Y374549D01*
Y377951D01*
X791507Y378376D01*
X791631Y379000D01*
X791507Y379624D01*
X791153Y380153D01*
X790624Y380507D01*
X790000Y380631D01*
D02*
G37*
G36*
X744500Y380131D02*
X743876Y380007D01*
X743347Y379654D01*
X742993Y379124D01*
X742869Y378500D01*
X742993Y377876D01*
X743277Y377451D01*
Y374049D01*
X742993Y373624D01*
X742869Y373000D01*
X742993Y372376D01*
X743347Y371847D01*
X743876Y371493D01*
X744500Y371369D01*
X745124Y371493D01*
X745653Y371847D01*
X746007Y372376D01*
X746131Y373000D01*
X746007Y373624D01*
X745723Y374049D01*
Y377451D01*
X746007Y377876D01*
X746131Y378500D01*
X746007Y379124D01*
X745653Y379654D01*
X745124Y380007D01*
X744500Y380131D01*
D02*
G37*
G36*
X703339Y371658D02*
X702528Y371497D01*
X701840Y371038D01*
X701381Y370350D01*
X701220Y369539D01*
X701381Y368729D01*
X701840Y368041D01*
X702528Y367582D01*
X703339Y367421D01*
X704149Y367582D01*
X704837Y368041D01*
X705296Y368729D01*
X705457Y369539D01*
X705296Y370350D01*
X704837Y371038D01*
X704149Y371497D01*
X703339Y371658D01*
D02*
G37*
G36*
X247000Y412131D02*
X246376Y412007D01*
X245951Y411724D01*
X232549D01*
X232124Y412007D01*
X231500Y412131D01*
X230876Y412007D01*
X230346Y411654D01*
X229993Y411124D01*
X229869Y410500D01*
X229993Y409876D01*
X230346Y409346D01*
X230876Y408993D01*
X231500Y408869D01*
X232124Y408993D01*
X232549Y409276D01*
X245951D01*
X246376Y408993D01*
X247000Y408869D01*
X247624Y408993D01*
X248153Y409346D01*
X248507Y409876D01*
X248631Y410500D01*
X248507Y411124D01*
X248153Y411654D01*
X247624Y412007D01*
X247000Y412131D01*
D02*
G37*
G36*
X703339Y407485D02*
X702528Y407324D01*
X701840Y406864D01*
X701381Y406177D01*
X701220Y405366D01*
X701381Y404555D01*
X701840Y403868D01*
X702528Y403409D01*
X703339Y403247D01*
X704149Y403409D01*
X704837Y403868D01*
X705296Y404555D01*
X705457Y405366D01*
X705296Y406177D01*
X704837Y406864D01*
X704149Y407324D01*
X703339Y407485D01*
D02*
G37*
G36*
X464000Y424631D02*
X463376Y424507D01*
X462847Y424154D01*
X462493Y423624D01*
X462369Y423000D01*
X462493Y422376D01*
X462554Y422284D01*
X443376Y403107D01*
X442876Y403007D01*
X442346Y402654D01*
X442011Y402152D01*
X441798Y402124D01*
X441702D01*
X441489Y402152D01*
X441223Y402549D01*
Y414951D01*
X441507Y415376D01*
X441631Y416000D01*
X441507Y416624D01*
X441153Y417154D01*
X440624Y417507D01*
X440000Y417631D01*
X439376Y417507D01*
X438846Y417154D01*
X438493Y416624D01*
X438369Y416000D01*
X438493Y415376D01*
X438776Y414951D01*
Y402549D01*
X438493Y402124D01*
X438369Y401500D01*
X438493Y400876D01*
X438846Y400347D01*
X439376Y399993D01*
X440000Y399869D01*
X440624Y399993D01*
X441153Y400347D01*
X441489Y400848D01*
X441702Y400876D01*
X441798D01*
X442011Y400848D01*
X442346Y400347D01*
X442876Y399993D01*
X443500Y399869D01*
X444124Y399993D01*
X444654Y400347D01*
X445007Y400876D01*
X445107Y401376D01*
X464865Y421135D01*
X465130Y421532D01*
X465210Y421931D01*
X465507Y422376D01*
X465631Y423000D01*
X465507Y423624D01*
X465154Y424154D01*
X464624Y424507D01*
X464000Y424631D01*
D02*
G37*
G36*
X392118Y427127D02*
X391307Y426965D01*
X390620Y426506D01*
X390161Y425819D01*
X390000Y425008D01*
X390161Y424197D01*
X390620Y423510D01*
X391307Y423050D01*
X392118Y422889D01*
X392929Y423050D01*
X393616Y423510D01*
X394075Y424197D01*
X394237Y425008D01*
X394075Y425819D01*
X393616Y426506D01*
X392929Y426965D01*
X392118Y427127D01*
D02*
G37*
G36*
X251000Y429131D02*
X250376Y429007D01*
X249847Y428653D01*
X249493Y428124D01*
X249369Y427500D01*
X249493Y426876D01*
X249680Y426595D01*
X249620Y426355D01*
X249434Y426274D01*
X249069Y426210D01*
X248624Y426507D01*
X248000Y426631D01*
X247376Y426507D01*
X246951Y426224D01*
X231549D01*
X231124Y426507D01*
X230500Y426631D01*
X229876Y426507D01*
X229346Y426154D01*
X228993Y425624D01*
X228869Y425000D01*
X228993Y424376D01*
X229158Y424129D01*
X229308Y423750D01*
X229158Y423371D01*
X228993Y423124D01*
X228869Y422500D01*
X228993Y421876D01*
X229346Y421347D01*
X229876Y420993D01*
X230500Y420869D01*
X231124Y420993D01*
X231549Y421277D01*
X250000D01*
X250468Y421370D01*
X250865Y421635D01*
X251865Y422635D01*
X252130Y423032D01*
X252223Y423500D01*
Y426451D01*
X252507Y426876D01*
X252631Y427500D01*
X252507Y428124D01*
X252153Y428653D01*
X251624Y429007D01*
X251000Y429131D01*
D02*
G37*
G36*
X620000Y437631D02*
X619376Y437507D01*
X618847Y437153D01*
X618493Y436624D01*
X618369Y436000D01*
X618493Y435376D01*
X618847Y434846D01*
X619112Y434669D01*
X619135Y434635D01*
X626893Y426876D01*
X626993Y426376D01*
X627347Y425846D01*
X627876Y425493D01*
X628500Y425369D01*
X629124Y425493D01*
X629654Y425846D01*
X630007Y426376D01*
X630131Y427000D01*
X630007Y427624D01*
X629654Y428154D01*
X629124Y428507D01*
X628623Y428607D01*
X621565Y435666D01*
X621631Y436000D01*
X621507Y436624D01*
X621153Y437153D01*
X620624Y437507D01*
X620000Y437631D01*
D02*
G37*
G36*
X427945Y427127D02*
X427134Y426965D01*
X426447Y426506D01*
X425987Y425819D01*
X425826Y425008D01*
X425987Y424197D01*
X426447Y423510D01*
X427134Y423050D01*
X427945Y422889D01*
X428756Y423050D01*
X429443Y423510D01*
X429902Y424197D01*
X430064Y425008D01*
X429902Y425819D01*
X429443Y426506D01*
X428756Y426965D01*
X427945Y427127D01*
D02*
G37*
G36*
X178630Y401800D02*
X177819Y401639D01*
X177132Y401179D01*
X176672Y400492D01*
X176511Y399681D01*
X176672Y398870D01*
X177132Y398183D01*
X177819Y397724D01*
X178630Y397562D01*
X179441Y397724D01*
X180128Y398183D01*
X180587Y398870D01*
X180749Y399681D01*
X180587Y400492D01*
X180128Y401179D01*
X179441Y401639D01*
X178630Y401800D01*
D02*
G37*
G36*
X142803D02*
X141992Y401639D01*
X141305Y401179D01*
X140846Y400492D01*
X140684Y399681D01*
X140846Y398870D01*
X141305Y398183D01*
X141992Y397724D01*
X142803Y397562D01*
X143614Y397724D01*
X144301Y398183D01*
X144761Y398870D01*
X144922Y399681D01*
X144761Y400492D01*
X144301Y401179D01*
X143614Y401639D01*
X142803Y401800D01*
D02*
G37*
G36*
X616500Y425131D02*
X615876Y425007D01*
X615346Y424653D01*
X614993Y424124D01*
X614925Y423785D01*
X612570Y421430D01*
X612285Y421003D01*
X612185Y420500D01*
X612185Y420500D01*
Y396912D01*
X611993Y396624D01*
X611869Y396000D01*
X611993Y395376D01*
X612347Y394847D01*
X612876Y394493D01*
X613500Y394369D01*
X614124Y394493D01*
X614653Y394847D01*
X615007Y395376D01*
X615131Y396000D01*
X615007Y396624D01*
X614815Y396912D01*
Y419955D01*
X616785Y421925D01*
X617124Y421993D01*
X617654Y422346D01*
X618007Y422876D01*
X618131Y423500D01*
X618007Y424124D01*
X617654Y424653D01*
X617124Y425007D01*
X616500Y425131D01*
D02*
G37*
G36*
X494000Y428631D02*
X493376Y428507D01*
X492846Y428154D01*
X492493Y427624D01*
X492369Y427000D01*
X492493Y426376D01*
X492776Y425951D01*
Y400549D01*
X492493Y400124D01*
X492369Y399500D01*
X492493Y398876D01*
X492846Y398346D01*
X493376Y397993D01*
X494000Y397869D01*
X494624Y397993D01*
X495154Y398346D01*
X495507Y398876D01*
X495631Y399500D01*
X495507Y400124D01*
X495224Y400549D01*
Y425951D01*
X495507Y426376D01*
X495631Y427000D01*
X495507Y427624D01*
X495154Y428154D01*
X494624Y428507D01*
X494000Y428631D01*
D02*
G37*
%LPD*%
G36*
X814563Y264776D02*
X814524Y264723D01*
X760574D01*
X760414Y265139D01*
X760526Y265277D01*
X814312D01*
X814563Y264776D01*
D02*
G37*
G36*
X813088Y270276D02*
X813056Y270223D01*
X760574D01*
X760414Y270639D01*
X760526Y270777D01*
X812804D01*
X813088Y270276D01*
D02*
G37*
G36*
X737277Y215474D02*
Y163074D01*
X736861Y162914D01*
X736724Y163026D01*
Y215426D01*
X737139Y215586D01*
X737277Y215474D01*
D02*
G37*
G36*
X485246Y425893D02*
X485505Y425623D01*
Y401772D01*
X485511Y401741D01*
X484635Y400865D01*
X484440Y400843D01*
X484018Y401271D01*
X484024Y401300D01*
Y421793D01*
X484365Y422135D01*
X484630Y422532D01*
X484724Y423000D01*
Y425715D01*
X485183Y425900D01*
X485246Y425893D01*
D02*
G37*
D50*
X859000Y131000D02*
X860000D01*
X846000Y144000D02*
X859000Y131000D01*
X840000Y144000D02*
X846000D01*
X833500Y158000D02*
X835000D01*
X821500Y170000D02*
X833500Y158000D01*
X821500Y170000D02*
Y178500D01*
X479500Y524500D02*
X480500Y523500D01*
X476500Y524500D02*
X479500D01*
X480500Y523500D02*
X486500D01*
X856500Y138500D02*
Y139000D01*
Y138500D02*
X858500Y136500D01*
X862500D01*
X865500Y122500D02*
X868500Y119500D01*
Y109500D02*
Y119500D01*
X840000Y146500D02*
X848500D01*
X793500Y155500D02*
X800500D01*
X741000Y139500D02*
Y143500D01*
X735000Y133500D02*
X741000Y139500D01*
X840000Y149500D02*
X848500D01*
X793500Y158500D02*
X800500D01*
X730000D02*
X741000D01*
X822000Y113000D02*
X828000Y119000D01*
X715500Y126000D02*
X716000Y125500D01*
X704500Y126000D02*
X715500D01*
X887000Y124000D02*
X887500Y124500D01*
X887000Y113500D02*
Y124000D01*
X667500Y144500D02*
X670500Y141500D01*
Y118000D02*
Y141500D01*
X711000Y118000D02*
X713000Y116000D01*
X704500Y118000D02*
X711000D01*
X881000Y131500D02*
X882000Y132500D01*
X881000Y116000D02*
Y131500D01*
X704500Y123000D02*
X712500D01*
X704500Y120500D02*
X712500D01*
X668000D02*
Y129000D01*
X226000Y260500D02*
X248000D01*
X884000Y123000D02*
X884500Y123500D01*
X884000Y116000D02*
Y123000D01*
X866500Y511500D02*
X875500D01*
X833500D02*
X848000D01*
X647000D02*
X657000D01*
X806500Y225000D02*
X821000Y210500D01*
X773000Y291500D02*
X782000D01*
X745500D02*
X755500D01*
X735500Y161500D02*
Y217000D01*
X725500Y250000D02*
X727500Y248000D01*
X725500Y250000D02*
Y263000D01*
X738500Y249500D02*
Y263500D01*
X559000Y355500D02*
Y363000D01*
Y395000D02*
Y430500D01*
X738500Y161500D02*
Y217000D01*
X636500Y107500D02*
X638000D01*
X626500Y117500D02*
X636500Y107500D01*
X626500Y117500D02*
Y120500D01*
X639500Y109500D02*
X640000D01*
X630000Y119000D02*
X639500Y109500D01*
X639000Y126500D02*
X645000D01*
X378000Y205000D02*
X387500D01*
X349500Y233500D02*
X378000Y205000D01*
X704000Y160000D02*
Y213000D01*
X750500Y259000D02*
X755500Y254000D01*
X750500Y259000D02*
Y273500D01*
X637000Y118500D02*
X646000D01*
X883500Y282500D02*
X888000Y287000D01*
X881500Y284500D02*
X886000Y289000D01*
X754500Y262500D02*
X757000Y260000D01*
X754500Y262500D02*
Y275500D01*
X756000Y277000D01*
X816000D01*
X840000Y274500D02*
X841500Y273000D01*
X759000Y274500D02*
X840000D01*
X469000Y299500D02*
Y306000D01*
X467000Y308000D02*
X469000Y306000D01*
X450500Y308000D02*
X467000D01*
X350000D02*
X367000D01*
X350000Y305000D02*
X367000D01*
X350000Y301500D02*
X367000D01*
X232000Y283000D02*
X248000D01*
X837000Y272000D02*
X839000Y270000D01*
X759000Y272000D02*
X837000D01*
X466000Y296000D02*
Y303500D01*
X464500Y305000D02*
X466000Y303500D01*
X450500Y305000D02*
X464500D01*
X232000Y280000D02*
X248000D01*
X189500Y253000D02*
Y259000D01*
X490000Y355500D02*
Y363000D01*
X641500Y387500D02*
X649000D01*
X744500Y373000D02*
Y378500D01*
X487000Y355500D02*
Y362500D01*
X486500Y363000D02*
X487000Y362500D01*
X490000Y399500D02*
Y427000D01*
X494000Y399500D02*
Y427000D01*
X641500Y391000D02*
X649000D01*
X483500Y355500D02*
Y363000D01*
X480500Y403000D02*
Y427000D01*
X478000Y404000D02*
Y424000D01*
X483500Y423000D02*
Y427000D01*
X486728Y401772D02*
Y427000D01*
X620000Y435500D02*
Y436000D01*
Y435500D02*
X628500Y427000D01*
X837000Y582500D02*
X847000D01*
X450500Y298000D02*
X462500D01*
X450500Y301500D02*
X462500D01*
X232000Y276000D02*
X248000D01*
X350000Y298000D02*
X367000D01*
X814500Y269000D02*
X815000Y269500D01*
X759000Y269000D02*
X814500D01*
X454000Y291500D02*
X462000D01*
X815500Y266500D02*
X816000Y267000D01*
X759000Y266500D02*
X815500D01*
X759000Y263500D02*
X816000D01*
X386000Y402500D02*
X400000Y388500D01*
X386500Y438500D02*
X392500D01*
X398000Y444000D01*
X383500Y434000D02*
X397000D01*
X393500Y454500D02*
X399000D01*
X365000Y382000D02*
X379500Y367500D01*
X231500Y410500D02*
X247000D01*
X469500Y401000D02*
X471000Y402500D01*
X476500D01*
X478000Y404000D01*
X482800Y422300D02*
X483500Y423000D01*
X482800Y401300D02*
Y422300D01*
X486728Y401772D02*
X487000Y401500D01*
X485500Y400000D02*
X487000Y401500D01*
X474000Y400000D02*
X477500D01*
X480500Y403000D01*
X485500Y399500D02*
Y400000D01*
X481000Y399500D02*
X482800Y401300D01*
X464000Y422000D02*
Y423000D01*
X443500Y401500D02*
X464000Y422000D01*
X440000Y401500D02*
Y416000D01*
X425500Y453000D02*
X427000D01*
X422500Y450000D02*
X425500Y453000D01*
X404470Y444000D02*
X404500D01*
X402370Y441900D02*
X404470Y444000D01*
X401400Y441900D02*
X402370D01*
X399000Y439500D02*
X401400Y441900D01*
X399000Y432000D02*
Y439500D01*
X738000Y378500D02*
X740500D01*
X735500Y381000D02*
X738000Y378500D01*
X733000Y381000D02*
X735500D01*
X740500Y378500D02*
Y385500D01*
X420500Y452000D02*
X424500Y456000D01*
X824500Y200500D02*
X831000D01*
X398000Y444000D02*
X401500D01*
X251000Y423500D02*
Y427500D01*
X250000Y422500D02*
X251000Y423500D01*
X230500Y422500D02*
X250000D01*
X397000Y434000D02*
X399000Y432000D01*
X230500Y425000D02*
X248000D01*
X790000Y373500D02*
Y379000D01*
X732000Y380000D02*
X733000Y381000D01*
X696500Y380000D02*
X732000D01*
X733000Y377500D02*
X734000Y378500D01*
X696000Y377500D02*
X733000D01*
X809500Y226500D02*
X824500Y211500D01*
X812000Y228000D02*
X826500Y213500D01*
X889500Y184500D02*
X896500D01*
X812000Y176500D02*
X815500Y173000D01*
X811000Y176500D02*
X812000D01*
X594000Y188500D02*
X605000D01*
X598000Y186000D02*
X605500D01*
X622900Y206400D02*
Y218400D01*
X605000Y188500D02*
X622900Y206400D01*
Y218400D02*
X623000Y218500D01*
X605500Y186000D02*
X625500Y206000D01*
Y217500D01*
X843500Y278500D02*
Y286500D01*
X836500Y295000D02*
X847000D01*
X851000Y252000D02*
Y258000D01*
D52*
X613500Y396000D02*
Y420500D01*
X616500Y423500D01*
X230000Y325500D02*
X248500D01*
D53*
X447500Y295000D02*
Y312000D01*
X431500Y343000D02*
Y351500D01*
X441000Y377500D02*
X459000D01*
X648000Y188000D02*
X657000Y179000D01*
Y165000D02*
Y179000D01*
X639000Y235500D02*
X642500Y232000D01*
X650500D01*
X752000Y209500D02*
X752024D01*
X796524Y165000D01*
X876500Y187500D02*
X876524Y187476D01*
Y159653D02*
Y187476D01*
X842500Y167500D02*
X849500D01*
X840000Y165000D02*
X842500Y167500D01*
D61*
X912500Y697500D02*
D03*
X117500D02*
D03*
X515000D02*
D03*
X764000Y599000D02*
D03*
X142500Y636500D02*
D03*
X818500Y143000D02*
D03*
X463000Y132000D02*
D03*
X117500Y117500D02*
D03*
X579500Y378500D02*
D03*
X498500Y544000D02*
D03*
X163000Y373000D02*
D03*
X423000Y475500D02*
D03*
X295500Y635500D02*
D03*
X378000D02*
D03*
X651500Y583500D02*
D03*
X665500Y404000D02*
D03*
X795500Y329000D02*
D03*
X912500Y590500D02*
D03*
D62*
X607154Y135500D02*
D03*
X585500D02*
D03*
D63*
X408000Y123500D02*
D03*
X394220D02*
D03*
X408000Y151059D02*
D03*
X394220D02*
D03*
D64*
X178630Y399681D02*
D03*
X142803D02*
D03*
X316193Y577681D02*
D03*
X280366D02*
D03*
X427945Y425008D02*
D03*
X392118D02*
D03*
X359307Y588319D02*
D03*
X395134D02*
D03*
X460744Y518335D02*
D03*
Y502193D02*
D03*
X703339Y405366D02*
D03*
Y369539D02*
D03*
X632807Y558992D02*
D03*
X668634D02*
D03*
X621386Y377665D02*
D03*
X605244D02*
D03*
X800445Y352681D02*
D03*
X764618D02*
D03*
X859508Y574524D02*
D03*
Y610350D02*
D03*
D65*
X637000Y159000D02*
D03*
X585000Y197500D02*
D03*
X591000Y227000D02*
D03*
X473000Y331500D02*
D03*
X572500Y341500D02*
D03*
X553500Y352500D02*
D03*
X501500Y393000D02*
D03*
X554000Y365000D02*
D03*
X553500Y394000D02*
D03*
X494500Y365500D02*
D03*
X663500Y455000D02*
D03*
X632500Y432000D02*
D03*
X623500Y425000D02*
D03*
X726000Y424000D02*
D03*
X707000Y415500D02*
D03*
X623000Y246500D02*
D03*
X830500Y250000D02*
D03*
X761500Y190000D02*
D03*
X515500Y124500D02*
D03*
X416000Y220500D02*
D03*
X367000Y212000D02*
D03*
X389000Y211500D02*
D03*
X367500Y225000D02*
D03*
Y293000D02*
D03*
X454500Y283000D02*
D03*
X443500Y294000D02*
D03*
X451000Y293500D02*
D03*
X472500Y289000D02*
D03*
X463000Y294500D02*
D03*
X480500Y346000D02*
D03*
X463000Y328500D02*
D03*
X451000Y312000D02*
D03*
X449500Y331000D02*
D03*
X446500D02*
D03*
X435000Y334000D02*
D03*
X435500Y351500D02*
D03*
X425500Y352000D02*
D03*
X404500Y351500D02*
D03*
X404000Y390500D02*
D03*
X436500Y399500D02*
D03*
X461000Y400000D02*
D03*
X454500Y382000D02*
D03*
X470500Y377000D02*
D03*
X467500Y347500D02*
D03*
X456500Y357500D02*
D03*
X368000Y314000D02*
D03*
X376500Y361000D02*
D03*
X395500Y381000D02*
D03*
X396000Y358500D02*
D03*
X472000Y443500D02*
D03*
X402500Y589500D02*
D03*
X400500Y533500D02*
D03*
X476500Y558000D02*
D03*
X443000Y589000D02*
D03*
X565500Y482000D02*
D03*
X566000Y433000D02*
D03*
X657500Y506500D02*
D03*
X778500Y454500D02*
D03*
X830500Y300000D02*
D03*
X798500Y382000D02*
D03*
X737000Y384000D02*
D03*
X743000Y390500D02*
D03*
X814000Y367000D02*
D03*
X811000Y285500D02*
D03*
X783500Y286500D02*
D03*
X799000Y284500D02*
D03*
X816500Y234000D02*
D03*
X802000Y229000D02*
D03*
X771500Y259500D02*
D03*
X756000Y281500D02*
D03*
X744000Y296500D02*
D03*
X754500D02*
D03*
X773000Y297500D02*
D03*
X799500Y346000D02*
D03*
X794500D02*
D03*
X788500Y344500D02*
D03*
X782500Y345000D02*
D03*
X800000Y365500D02*
D03*
X798500Y371500D02*
D03*
X794000D02*
D03*
X787000D02*
D03*
X783500D02*
D03*
X780000Y380000D02*
D03*
X778500Y371500D02*
D03*
X797500Y358500D02*
D03*
X794000D02*
D03*
X790000D02*
D03*
X786000D02*
D03*
X782500D02*
D03*
X778000Y359000D02*
D03*
X773000Y358000D02*
D03*
X772500Y344500D02*
D03*
X764500Y345000D02*
D03*
X768500Y377500D02*
D03*
X764000Y370500D02*
D03*
X743500Y366000D02*
D03*
X729000Y364500D02*
D03*
X739500Y373000D02*
D03*
X711500Y372000D02*
D03*
X699000Y371000D02*
D03*
X666000Y369500D02*
D03*
X667000Y357000D02*
D03*
X649500Y383000D02*
D03*
X631500Y380500D02*
D03*
X626000Y378500D02*
D03*
X644500Y356000D02*
D03*
X747000Y285500D02*
D03*
X744000Y267000D02*
D03*
X715500Y288500D02*
D03*
X658500Y270500D02*
D03*
X657500Y295500D02*
D03*
X664500Y325500D02*
D03*
X689500Y299000D02*
D03*
X704500Y284000D02*
D03*
X720000Y266500D02*
D03*
X575000Y265000D02*
D03*
X585000Y267500D02*
D03*
X582000Y280500D02*
D03*
X587500Y289000D02*
D03*
X613500D02*
D03*
X588500Y337000D02*
D03*
X639500Y341500D02*
D03*
X653500Y336000D02*
D03*
X651500Y326000D02*
D03*
X636000Y322500D02*
D03*
X630000Y304500D02*
D03*
X625500Y299500D02*
D03*
X607000D02*
D03*
X588000Y310000D02*
D03*
X565500Y393500D02*
D03*
X566000Y365000D02*
D03*
X596000Y367000D02*
D03*
X608500Y394000D02*
D03*
X626000Y393000D02*
D03*
X646000Y404000D02*
D03*
X671500Y385000D02*
D03*
X684000Y383000D02*
D03*
X683000Y385500D02*
D03*
X683500Y390000D02*
D03*
Y393000D02*
D03*
Y397000D02*
D03*
Y401500D02*
D03*
X697000Y402000D02*
D03*
Y399500D02*
D03*
X697500Y395500D02*
D03*
Y391500D02*
D03*
Y388000D02*
D03*
X697000Y384500D02*
D03*
X726000Y388500D02*
D03*
X719000Y383500D02*
D03*
X711500D02*
D03*
Y387000D02*
D03*
X661000Y442500D02*
D03*
X783000Y440500D02*
D03*
X861000Y406000D02*
D03*
X881000Y451000D02*
D03*
Y514500D02*
D03*
X913500Y271500D02*
D03*
X879500Y308000D02*
D03*
X880500Y295500D02*
D03*
X894000Y260000D02*
D03*
X883500Y241000D02*
D03*
X878000Y276000D02*
D03*
X822500Y280500D02*
D03*
X820500Y259500D02*
D03*
X846500Y263000D02*
D03*
X872500Y283000D02*
D03*
X840000Y280500D02*
D03*
X847000Y275000D02*
D03*
X849500Y282000D02*
D03*
X857500Y287500D02*
D03*
X832500Y517000D02*
D03*
X832000Y502500D02*
D03*
X836500Y496000D02*
D03*
X857500Y506000D02*
D03*
X858000Y517500D02*
D03*
X865000Y564000D02*
D03*
X850500Y578500D02*
D03*
X878500Y594500D02*
D03*
Y589000D02*
D03*
Y585000D02*
D03*
Y580000D02*
D03*
X877500Y574500D02*
D03*
X866500Y581000D02*
D03*
X865500Y585500D02*
D03*
Y590500D02*
D03*
Y594500D02*
D03*
X865000Y602000D02*
D03*
X865500Y606000D02*
D03*
X876500Y620500D02*
D03*
X730000Y517000D02*
D03*
X700000Y532000D02*
D03*
X706000Y602000D02*
D03*
X721000Y620000D02*
D03*
X683000Y596500D02*
D03*
X636000Y596000D02*
D03*
X453500Y597500D02*
D03*
X488500Y561500D02*
D03*
X520500Y529000D02*
D03*
X620000D02*
D03*
X646000Y517500D02*
D03*
X619000Y517000D02*
D03*
X608500Y432000D02*
D03*
X646000Y465000D02*
D03*
X647000Y506500D02*
D03*
X657500Y524000D02*
D03*
X646000Y538500D02*
D03*
X641500D02*
D03*
X637500D02*
D03*
X634500Y553000D02*
D03*
X639000D02*
D03*
X643500D02*
D03*
X648000D02*
D03*
X684000Y543500D02*
D03*
X662500Y553000D02*
D03*
X664500Y567000D02*
D03*
X661000D02*
D03*
X886500Y638000D02*
D03*
X740000Y641000D02*
D03*
X710500Y702000D02*
D03*
X686000Y620000D02*
D03*
X537500Y622000D02*
D03*
X338000Y702500D02*
D03*
X406000Y620000D02*
D03*
X325000D02*
D03*
X228000Y579000D02*
D03*
X161000Y429500D02*
D03*
X166500Y329500D02*
D03*
X229500Y416000D02*
D03*
X231500Y405500D02*
D03*
X229500Y331500D02*
D03*
X133500Y361500D02*
D03*
X187000Y406000D02*
D03*
X133000Y408000D02*
D03*
X144000Y392000D02*
D03*
X153000D02*
D03*
X149000D02*
D03*
X146500Y405000D02*
D03*
X175000Y392000D02*
D03*
X171000D02*
D03*
X167000D02*
D03*
X175000Y407500D02*
D03*
X168500D02*
D03*
X162000D02*
D03*
X156500D02*
D03*
X181000Y419000D02*
D03*
X174000D02*
D03*
X167500Y419500D02*
D03*
X161500D02*
D03*
X156000D02*
D03*
X357000Y565500D02*
D03*
X402500Y466000D02*
D03*
X382500Y428000D02*
D03*
X370500Y433500D02*
D03*
X248000Y436000D02*
D03*
X249500Y577000D02*
D03*
X279000Y599000D02*
D03*
X282000Y583500D02*
D03*
X285000Y568000D02*
D03*
X292500D02*
D03*
X298000D02*
D03*
X304500D02*
D03*
X312000D02*
D03*
X309500Y583500D02*
D03*
X304000D02*
D03*
X298500D02*
D03*
X293000D02*
D03*
X309500Y599000D02*
D03*
X304000D02*
D03*
X299000D02*
D03*
X294500D02*
D03*
X358000Y598500D02*
D03*
X380000Y568500D02*
D03*
X375000D02*
D03*
X370500D02*
D03*
X366500D02*
D03*
X361000Y582500D02*
D03*
X367000Y582000D02*
D03*
X371000D02*
D03*
X375000D02*
D03*
X378500D02*
D03*
X388000D02*
D03*
X387500Y595500D02*
D03*
X381500Y596000D02*
D03*
X538000Y504500D02*
D03*
X546500Y517500D02*
D03*
X485500Y530500D02*
D03*
X477500D02*
D03*
X465500Y517000D02*
D03*
X480500Y457500D02*
D03*
X528500Y433500D02*
D03*
X499500Y468000D02*
D03*
X519500D02*
D03*
X477000Y493500D02*
D03*
X521000Y492500D02*
D03*
X554000Y476500D02*
D03*
X526500Y494500D02*
D03*
X554500Y430500D02*
D03*
X499500Y433500D02*
D03*
X494000Y447500D02*
D03*
X512000Y463500D02*
D03*
X494500D02*
D03*
X449000Y489000D02*
D03*
X441500Y478000D02*
D03*
X472500Y425500D02*
D03*
X446500Y419500D02*
D03*
X407000Y451000D02*
D03*
X411500Y443500D02*
D03*
X422500Y445500D02*
D03*
X435000Y431000D02*
D03*
X436000Y416500D02*
D03*
X418500Y432000D02*
D03*
X426000Y430500D02*
D03*
X421500D02*
D03*
X415000D02*
D03*
X410500D02*
D03*
X406500Y431000D02*
D03*
X401500Y429500D02*
D03*
X411000Y416500D02*
D03*
X407000D02*
D03*
X403000D02*
D03*
X399000D02*
D03*
X393000Y430500D02*
D03*
X391000Y415000D02*
D03*
X367000Y387000D02*
D03*
X247500Y417000D02*
D03*
X249000Y406000D02*
D03*
X335000Y405500D02*
D03*
X359500Y379000D02*
D03*
X311000Y329000D02*
D03*
X317000Y321500D02*
D03*
X349000Y355000D02*
D03*
X248500Y321500D02*
D03*
X349500Y312500D02*
D03*
X247500Y287000D02*
D03*
X249000Y264000D02*
D03*
X332500Y248000D02*
D03*
X331500Y274500D02*
D03*
X350500Y292000D02*
D03*
X333000Y238000D02*
D03*
X323500Y179500D02*
D03*
X338000Y164000D02*
D03*
X311500Y205500D02*
D03*
X320000Y211000D02*
D03*
X331000Y205000D02*
D03*
X349000Y203500D02*
D03*
X348000Y216000D02*
D03*
X327669Y222000D02*
D03*
X321500Y255500D02*
D03*
X248500Y236500D02*
D03*
X382500Y119000D02*
D03*
X368000Y144500D02*
D03*
X370000Y202500D02*
D03*
X412500Y195500D02*
D03*
X499500Y102500D02*
D03*
X497500Y120000D02*
D03*
X569000Y122500D02*
D03*
X559000Y138000D02*
D03*
X569000Y152500D02*
D03*
X579500Y137500D02*
D03*
X584500Y170500D02*
D03*
X602500Y174000D02*
D03*
X598500Y153500D02*
D03*
X816000Y180000D02*
D03*
X717500Y250000D02*
D03*
X704000Y226000D02*
D03*
X730500Y239500D02*
D03*
X746500Y233000D02*
D03*
X771000Y216000D02*
D03*
X751000Y197500D02*
D03*
X723000Y198500D02*
D03*
X693000Y214000D02*
D03*
X695000Y228000D02*
D03*
X672500Y214500D02*
D03*
Y210000D02*
D03*
X664500Y203000D02*
D03*
X656000D02*
D03*
X663500Y179500D02*
D03*
X641500Y189500D02*
D03*
X634500Y188000D02*
D03*
X626500Y187000D02*
D03*
X618000Y188500D02*
D03*
X604531Y197531D02*
D03*
X608500Y229500D02*
D03*
X618000Y230000D02*
D03*
X639000Y240000D02*
D03*
X647000Y244000D02*
D03*
X663500Y222000D02*
D03*
X626500Y232500D02*
D03*
X637000Y210000D02*
D03*
X649000Y222000D02*
D03*
Y210000D02*
D03*
X637000Y222000D02*
D03*
X863500Y250000D02*
D03*
X840000Y253500D02*
D03*
X861000Y237000D02*
D03*
X854000Y241500D02*
D03*
X867500Y242000D02*
D03*
X873000Y208000D02*
D03*
X825500Y180000D02*
D03*
X831500Y190000D02*
D03*
X846500Y184000D02*
D03*
X872500Y201000D02*
D03*
X896500Y194000D02*
D03*
X881500Y187000D02*
D03*
X888500Y177500D02*
D03*
X901000Y184000D02*
D03*
X880000Y175000D02*
D03*
X829000Y170500D02*
D03*
X851500Y171000D02*
D03*
X863000Y168500D02*
D03*
X860000Y155000D02*
D03*
X855500D02*
D03*
X803000Y132500D02*
D03*
X831000Y155000D02*
D03*
X799500Y161500D02*
D03*
X792000D02*
D03*
X744500D02*
D03*
X690500Y169500D02*
D03*
X720500Y170000D02*
D03*
X725500Y161000D02*
D03*
X687500D02*
D03*
X647500Y156000D02*
D03*
X657000Y136500D02*
D03*
X624000Y154500D02*
D03*
X612500Y138000D02*
D03*
X623500Y122500D02*
D03*
X635500Y137500D02*
D03*
X638500Y122500D02*
D03*
X626500Y111000D02*
D03*
X636000Y104000D02*
D03*
X700000Y114500D02*
D03*
X645500Y113000D02*
D03*
Y123000D02*
D03*
X663500Y129500D02*
D03*
X680000Y139500D02*
D03*
X689000Y143000D02*
D03*
Y136500D02*
D03*
X690500Y124000D02*
D03*
X720000Y143000D02*
D03*
X729000Y149500D02*
D03*
X792500Y145500D02*
D03*
X745500Y152500D02*
D03*
X742500Y137000D02*
D03*
X755500D02*
D03*
X732000Y115500D02*
D03*
X701500Y136500D02*
D03*
X714000Y133000D02*
D03*
X719500Y129000D02*
D03*
X767500Y122000D02*
D03*
X774500Y115000D02*
D03*
X768000Y134000D02*
D03*
X789000Y123500D02*
D03*
X817500Y115500D02*
D03*
X893000Y125000D02*
D03*
X885000Y136000D02*
D03*
X872000Y145500D02*
D03*
X848000Y137000D02*
D03*
X844000Y128000D02*
D03*
X830500Y129500D02*
D03*
X826000Y122000D02*
D03*
X847500Y119500D02*
D03*
X861500Y122500D02*
D03*
X869500Y126500D02*
D03*
X872500Y113000D02*
D03*
X880500Y108500D02*
D03*
X713500Y108000D02*
D03*
X926500Y105000D02*
D03*
X925500Y572500D02*
D03*
X925000Y607500D02*
D03*
X926500Y682500D02*
D03*
X925500Y712000D02*
D03*
X897000Y711500D02*
D03*
X530500D02*
D03*
X497500Y711000D02*
D03*
X134500D02*
D03*
X103000Y682000D02*
D03*
Y711000D02*
D03*
X104000Y422500D02*
D03*
X145000Y423000D02*
D03*
X126500Y356000D02*
D03*
X135000Y103500D02*
D03*
X103000Y138000D02*
D03*
X104000Y103000D02*
D03*
X175000Y117000D02*
D03*
X158000Y217000D02*
D03*
X157500Y324500D02*
D03*
X166500Y322500D02*
D03*
X231000Y320500D02*
D03*
X230500Y287500D02*
D03*
X167500Y257500D02*
D03*
X166500Y224000D02*
D03*
X176000Y212000D02*
D03*
X188000Y245500D02*
D03*
X217500Y250000D02*
D03*
X205500Y229500D02*
D03*
X199500Y226500D02*
D03*
X194500Y227000D02*
D03*
X187000Y222500D02*
D03*
X226500Y250000D02*
D03*
X230000Y223000D02*
D03*
X221500Y226000D02*
D03*
X210500Y220500D02*
D03*
X203000Y203000D02*
D03*
X206000Y193500D02*
D03*
Y187500D02*
D03*
Y181000D02*
D03*
X191000Y167500D02*
D03*
Y153500D02*
D03*
X191500Y139000D02*
D03*
X197500Y130500D02*
D03*
X216000Y103000D02*
D03*
Y113000D02*
D03*
X225500Y118000D02*
D03*
X305000Y102500D02*
D03*
X304500Y117000D02*
D03*
X333000Y135000D02*
D03*
X321000Y127500D02*
D03*
Y141500D02*
D03*
X333000Y155000D02*
D03*
X321000Y161500D02*
D03*
Y148500D02*
D03*
X308000Y135000D02*
D03*
X307500Y155000D02*
D03*
X305500Y176500D02*
D03*
X302500Y171500D02*
D03*
X297500Y181000D02*
D03*
X288000Y177000D02*
D03*
X306000Y205500D02*
D03*
X297500Y211000D02*
D03*
X284500Y217000D02*
D03*
X250500Y226500D02*
D03*
X252000Y215500D02*
D03*
X262500Y204000D02*
D03*
X252000Y188000D02*
D03*
X290000Y201500D02*
D03*
X280000Y180000D02*
D03*
X274500Y184000D02*
D03*
X271000Y199000D02*
D03*
X278000D02*
D03*
X860000Y131000D02*
D03*
X840000Y144000D02*
D03*
X835000Y158000D02*
D03*
X476500Y524500D02*
D03*
X486500Y523500D02*
D03*
X856500Y139000D02*
D03*
X862500Y136500D02*
D03*
X865500Y122500D02*
D03*
X868500Y109500D02*
D03*
X848500Y146500D02*
D03*
X840000D02*
D03*
X800500Y155500D02*
D03*
X793500D02*
D03*
X741000Y143500D02*
D03*
X735000Y133500D02*
D03*
X848500Y149500D02*
D03*
X840000D02*
D03*
X800500Y158500D02*
D03*
X793500D02*
D03*
X741000D02*
D03*
X730000D02*
D03*
X828000Y119000D02*
D03*
X822000Y113000D02*
D03*
X716000Y125500D02*
D03*
X704500Y126000D02*
D03*
X887500Y124500D02*
D03*
X887000Y113500D02*
D03*
X713000Y116000D02*
D03*
X704500Y118000D02*
D03*
X670500D02*
D03*
X667500Y144500D02*
D03*
X882000Y132500D02*
D03*
X881000Y116000D02*
D03*
X712500Y123000D02*
D03*
X704500D02*
D03*
X712500Y120500D02*
D03*
X704500D02*
D03*
X668000D02*
D03*
Y129000D02*
D03*
X447500Y295000D02*
D03*
Y312000D02*
D03*
X248000Y260500D02*
D03*
X226000D02*
D03*
X431500Y343000D02*
D03*
Y351500D02*
D03*
X441000Y377500D02*
D03*
X459000D02*
D03*
X884500Y123500D02*
D03*
X884000Y116000D02*
D03*
X875500Y511500D02*
D03*
X866500D02*
D03*
X848000D02*
D03*
X833500D02*
D03*
X657000D02*
D03*
X647000D02*
D03*
X821500Y178500D02*
D03*
X821000Y210500D02*
D03*
X806500Y225000D02*
D03*
X782000Y291500D02*
D03*
X773000D02*
D03*
X755500D02*
D03*
X745500D02*
D03*
X735500Y161500D02*
D03*
Y217000D02*
D03*
X727500Y248000D02*
D03*
X725500Y263000D02*
D03*
X738500Y249500D02*
D03*
X559000Y355500D02*
D03*
Y363000D02*
D03*
Y395000D02*
D03*
Y430500D02*
D03*
X738500Y161500D02*
D03*
Y217000D02*
D03*
Y263500D02*
D03*
X638000Y107500D02*
D03*
X626500Y120500D02*
D03*
X640000Y109500D02*
D03*
X630000Y119000D02*
D03*
X645000Y126500D02*
D03*
X639000D02*
D03*
X387500Y205000D02*
D03*
X349500Y233500D02*
D03*
X704000Y160000D02*
D03*
Y213000D02*
D03*
X755500Y254000D02*
D03*
X750500Y273500D02*
D03*
X646000Y118500D02*
D03*
X637000D02*
D03*
X648000Y188000D02*
D03*
X657000Y165000D02*
D03*
X639000Y235500D02*
D03*
X650500Y232000D02*
D03*
X752000Y209500D02*
D03*
X796524Y165000D02*
D03*
X876500Y187500D02*
D03*
X876524Y159653D02*
D03*
X849500Y167500D02*
D03*
X840000Y165000D02*
D03*
X888000Y287000D02*
D03*
X883500Y282500D02*
D03*
X886000Y289000D02*
D03*
X881500Y284500D02*
D03*
X757000Y260000D02*
D03*
X816000Y277000D02*
D03*
X841500Y273000D02*
D03*
X759000Y274500D02*
D03*
X469000Y299500D02*
D03*
X450500Y308000D02*
D03*
X367000D02*
D03*
X350000D02*
D03*
Y305000D02*
D03*
Y301500D02*
D03*
X248000Y283000D02*
D03*
X232000D02*
D03*
X839000Y270000D02*
D03*
X759000Y272000D02*
D03*
X466000Y296000D02*
D03*
X450500Y305000D02*
D03*
X367000D02*
D03*
X248000Y280000D02*
D03*
X232000D02*
D03*
X189500Y259000D02*
D03*
Y253000D02*
D03*
X490000Y355500D02*
D03*
Y363000D02*
D03*
X641500Y387500D02*
D03*
X649000D02*
D03*
X744500Y373000D02*
D03*
Y378500D02*
D03*
X487000Y355500D02*
D03*
X486500Y363000D02*
D03*
X490000Y399500D02*
D03*
X494000D02*
D03*
X641500Y391000D02*
D03*
X649000D02*
D03*
X613500Y396000D02*
D03*
X483500Y355500D02*
D03*
Y363000D02*
D03*
X494000Y427000D02*
D03*
X480500D02*
D03*
X478000Y424000D02*
D03*
X490000Y427000D02*
D03*
X483500D02*
D03*
X486728D02*
D03*
X620000Y436000D02*
D03*
X628500Y427000D02*
D03*
X837000Y582500D02*
D03*
X847000D02*
D03*
X462500Y298000D02*
D03*
X450500D02*
D03*
X462500Y301500D02*
D03*
X450500D02*
D03*
X367000D02*
D03*
X248000Y276000D02*
D03*
X232000D02*
D03*
X367000Y298000D02*
D03*
X350000D02*
D03*
X815000Y269500D02*
D03*
X759000Y269000D02*
D03*
X462000Y291500D02*
D03*
X454000D02*
D03*
X816000Y267000D02*
D03*
X759000Y266500D02*
D03*
X816000Y263500D02*
D03*
X759000D02*
D03*
X400000Y388500D02*
D03*
X386000Y402500D02*
D03*
X386500Y438500D02*
D03*
X383500Y434000D02*
D03*
X393500Y454500D02*
D03*
X399000D02*
D03*
X379500Y367500D02*
D03*
X365000Y382000D02*
D03*
X247000Y410500D02*
D03*
X231500D02*
D03*
X469500Y401000D02*
D03*
X474000Y400000D02*
D03*
X485500Y399500D02*
D03*
X481000D02*
D03*
X464000Y423000D02*
D03*
X443500Y401500D02*
D03*
X440000D02*
D03*
Y416000D02*
D03*
X616500Y423500D02*
D03*
X427000Y453000D02*
D03*
X422500Y450000D02*
D03*
X404500Y444000D02*
D03*
X740500Y385500D02*
D03*
X424500Y456000D02*
D03*
X420500Y452000D02*
D03*
X824500Y200500D02*
D03*
X831000D02*
D03*
X401500Y444000D02*
D03*
X251000Y427500D02*
D03*
X230500Y422500D02*
D03*
X399000Y432000D02*
D03*
X248000Y425000D02*
D03*
X230500D02*
D03*
X790000Y373500D02*
D03*
Y379000D02*
D03*
X740500Y378500D02*
D03*
X696500Y380000D02*
D03*
X734000Y378500D02*
D03*
X696000Y377500D02*
D03*
X824500Y211500D02*
D03*
X809500Y226500D02*
D03*
X826500Y213500D02*
D03*
X812000Y228000D02*
D03*
X889500Y184500D02*
D03*
X896500D02*
D03*
X815500Y173000D02*
D03*
X811000Y176500D02*
D03*
X230000Y325500D02*
D03*
X248500D02*
D03*
X594000Y188500D02*
D03*
X598000Y186000D02*
D03*
X623000Y218500D02*
D03*
X625500Y217500D02*
D03*
X843500Y286500D02*
D03*
Y278500D02*
D03*
X847000Y295000D02*
D03*
X836500D02*
D03*
X851000Y258000D02*
D03*
Y252000D02*
D03*
M02*
