M48
;Layer_Color=9474304
;FILE_FORMAT=2:5
INCH,TZ
;TYPE=PLATED
T1F00S00C0.00800
T2F00S00C0.01600
T3F00S00C0.02756
T4F00S00C0.04606
T5F00S00C0.04724
T6F00S00C0.05906
T7F00S00C0.11811
T8F00S00C0.17323
;TYPE=NON_PLATED
T9F00S00C0.03150
T10F00S00C0.04724
T11F00S00C0.06299
T12F00S00C0.06693
%
T01
X186500Y150000
X190000
X208500Y150500
X212000
X237000Y150000
X240500Y150000
X260500Y150500
X286500Y150000
X296500Y155063
X311000Y150500
X317500
X329000Y146500
X332500Y149500
X361500Y143500
X406000Y160000
X445500Y205500
Y214000
X442500Y221000
X445000Y225500
X458000Y235500
Y240500
X458500Y246000
X460000Y248000
X459500Y250500
X457000Y249500
X458500Y254000
Y259000
Y265000
X458000Y270000
X464000Y255000
X466500Y233500
X436500Y288500
X410500Y292000
X409000Y285500
X398000
X385500Y284500
X373000Y284000
X366500Y300000
X341000
X343000Y286000
X323000Y291000
X314000Y290000
Y311000
X322500Y306000
X352500Y312000
X416000Y310000
X320500Y271000
X324500Y263000
X324000Y259000
X323500Y184500
Y178000
X298500Y179500
X282500Y165000
X244500Y161500
X250500Y180000
X251000Y196000
X260000Y197500
X263000Y205000
X264500Y213000
X253500Y206500
X275000Y202500
X224500Y209500
X217500Y208500
X214000Y208000
X210000
X206500Y209500
X201000Y209000
X198500Y207000
X191500Y206500
X187000
X179000Y212000
X173500Y210000
Y202500
X165000Y210000
X158500Y220000
X165500Y232000
X174000Y233500
X170000Y244500
X157500Y255500
X195500Y250000
X196000Y279000
Y281500
Y284000
Y286500
X214500
Y284000
Y281500
Y279000
X223500Y218500
X219500Y214500
X231500Y217500
X191000Y218500
X183500Y218000
X195500Y197500
X192000Y163500
X214500
X143000Y227000
X139000Y233000
X137500Y248000
X137000Y260500
X152500Y265000
X153000Y242500
X146000Y363000
X141500Y367500
X137000Y363000
Y372500
X146000
X145500Y389000
X142000Y393000
X137000Y396000
Y386000
X141000
X154500Y385500
X155000Y393500
X160500Y422500
X176000
X170000Y436500
X176071Y453429
X157000Y454500
X204500Y454000
X213866Y453866
X217000Y422500
X207500
X192000Y417500
X233500Y415000
X239000Y413500
X249500Y414500
X246000Y423500
X261110Y422610
X252500Y436500
X237000Y437000
X270500
X282500Y387500
X305000
X309000Y408000
X294500Y366000
X271500Y366500
X271000Y362500
X287000Y343000
X296000
X315000Y343500
X312500Y354000
X317000Y368000
X332500Y369000
Y372500
X347500Y366500
X360500Y377000
X362000Y391500
Y400500
X361500Y413500
Y426000
X335000Y421500
X330500Y413000
X336000Y409500
X340500Y409000
X344000Y397500
Y394500
X345500Y388000
X317000Y384500
X317500Y425000
X335000Y464000
X345000Y458500
X377000Y453000
X393000Y443500
Y421500
X392870Y411870
X393000Y399000
X403000Y396500
Y386000
X395000Y384500
X376500Y386500
X376000Y399500
Y408500
X356500Y348000
X352500Y338000
Y326000
X336000Y318500
X330000Y332000
X328500Y345500
X345500Y344500
X316500Y328000
X429500Y317000
X464000Y401000
X463000Y478500
X422500Y476500
X419000Y473000
X420000Y470500
X427000
X403000Y469500
X376000
X383500Y485500
Y490000
X380000Y491500
X348000Y485500
Y480000
X344000Y472000
X335000Y469000
X223000Y471000
T02
X342500Y177500
X353000
X362500Y177000
X373000Y176000
X383000
X382500Y188500
X391000Y199000
X393500Y216500
X397500Y228000
X402000Y234000
X407000Y233500
X411500Y229000
X416000Y233500
X426500Y232000
X427500Y243500
X436000Y253500
X443500Y257500
Y269500
X442500Y273000
X443500Y295000
X436500
X428000
X420000
X418000Y300500
X454000Y300000
X452000Y295000
X443000Y239000
X436000Y221500
X427500Y214000
X435500Y205500
X429000Y196000
X415500Y166500
X411000
X373000Y201500
X363000
X353000
X342000Y201000
X342500Y188000
X403000Y250500
X306500Y244500
X306000Y233000
X293000Y232500
Y245000
X292500Y259000
Y273000
X306500
X307000Y258500
X275000
X275500Y245500
Y232500
X256000Y233000
X256500Y245000
Y258500
Y273500
X274500
X238000Y274000
Y258500
X238500Y245000
Y232500
X218500Y233000
Y244500
Y258000
X218000Y274000
Y290500
X238500
X229000Y301000
X238500Y311500
X256500Y302500
Y293500
X305000Y292500
Y301500
Y311500
X304500Y323000
X296500Y361000
X282500Y355500
X267500Y358500
X264000Y363000
X298000Y380500
X256500Y312500
X217500
X171000Y350500
X167500Y354500
X171000Y358000
X163000
Y350500
X161500Y377000
X162000Y385500
X441000Y318000
T03
X388000Y301000
Y348244
T04
X398252Y453192
T05
X434721Y151000
X448500
Y178559
X434721
T06
X401000Y374500
T07
X158122Y148047
Y333087
X179469Y371319
Y466595
T08
X134732Y177850
X323709Y443598
T09
X330008Y181000
X302449Y438480
T10
X430957Y201197
X155992Y181000
X128433Y438480
X368642Y369744
T11
X368642Y468169
T12
X430957Y279937
M30
